<svg id="Слой_1" xmlns="http://www.w3.org/2000/svg" xmlns:xlink="http://www.w3.org/1999/xlink" viewBox="0 0 66 90"><style>.st0{clip-path:url(#SVGID_2_);fill:#fff}</style><defs><path id="SVGID_1_" d="M33 22.7l2.3 4.6c.4.8 1.2 1.4 2.2 1.6l4.9.9-3.4 2.9c-.8.7-1.2 1.8-1 2.8l.9 5.1-4.7-2.3c-.8-.4-1.8-.4-2.7 0L27 40.6l.9-5.1c.2-1-.2-2.1-1-2.8l-3.3-2.9 4.9-.9c.9-.2 1.7-.8 2.2-1.6l2.3-4.6zm-.3-9.7c-1 .1-1.9.7-2.4 1.7L26 23.3 16.5 25c-1.1.2-2.1 1-2.4 2.2-.3 1.1.1 2.3.9 3.1l6.7 5.9-1.7 9.3c-.2 1.1.2 2.2 1.2 2.9.9.7 2.1.8 3.1.3l8.7-4.3 8.7 4.3c1 .5 2.2.4 3.1-.3.9-.7 1.3-1.8 1.2-2.9l-1.7-9.3 6.7-5.9c.9-.8 1.2-1.9.9-3.1-.3-1.1-1.2-2-2.4-2.2L40 23.3l-4.3-8.7c-.6-1.1-1.7-1.7-3-1.6zM33 0C14.8 0 0 14.8 0 33c0 5.4 1.1 11 4.4 16.5 0 0 0 .1.1.1l26 39c.6.9 1.5 1.4 2.5 1.4s1.9-.5 2.5-1.3l26-39s0-.1.1-.1C64.9 44 66 38.4 66 33c0-14.3-9.2-26.6-22-31.1-1-.4-2.1-.2-3 .5-.8.7-1.2 1.8-1 2.8.2 1.1 1 2 2 2.3C52.5 11.2 60 21.2 60 33c0 4.6-.9 8.9-3.5 13.3l-.1.1L33 81.6 9.6 46.4s0-.1-.1-.1C6.9 41.9 6 37.6 6 33 6 18.1 18.1 6 33 6c1.1 0 2.1-.6 2.6-1.5s.5-2.1 0-3C35.1.6 34.1 0 33 0z"/></defs><clipPath id="SVGID_2_"><use xlink:href="#SVGID_1_" overflow="visible"/></clipPath><path class="st0" d="M-5-5h76V95H-5z"/></svg>