<?xml version="1.0" standalone="no"?>
<!DOCTYPE svg PUBLIC "-//W3C//DTD SVG 1.1//EN" "http://www.w3.org/Graphics/SVG/1.1/DTD/svg11.dtd" >
<svg xmlns="http://www.w3.org/2000/svg" xmlns:xlink="http://www.w3.org/1999/xlink" version="1.1">
<metadata>
Created by FontForge 20170731 at Thu May 17 04:04:07 2012
 By Aleksey,,,
Copyright (c) 2012 by Fontfabric LLC. All rights reserved.
</metadata>
<defs>
<font id="Intro-Book-Caps" horiz-adv-x="706" >
  <font-face 
    font-family="Intro Book Caps"
    font-weight="400"
    font-variant="small-caps"
    font-stretch="normal"
    units-per-em="1000"
    panose-1="2 0 0 0 0 0 0 0 0 0"
    ascent="750"
    descent="-250"
    x-height="700"
    cap-height="700"
    bbox="5 -261 1508 959"
    underline-thickness="50"
    underline-position="-200"
    unicode-range="U+0020-2212"
  />
<missing-glyph horiz-adv-x="219" 
 />
    <glyph glyph-name=".notdef" horiz-adv-x="219" 
 />
    <glyph glyph-name=".null" horiz-adv-x="0" 
 />
    <glyph glyph-name="nonmarkingreturn" horiz-adv-x="333" 
 />
    <glyph glyph-name="space" unicode=" " horiz-adv-x="259" 
 />
    <glyph glyph-name="space" unicode="&#xa0;" horiz-adv-x="259" 
 />
    <glyph glyph-name="exclam" unicode="!" horiz-adv-x="255" 
d="M127 -13q-20 0 -34 13t-14 33q0 21 13.5 33.5t34.5 12.5t35.5 -12.5t14.5 -33.5q0 -20 -14.5 -33t-35.5 -13zM90 147l-6 553h87l-5 -553h-76z" />
    <glyph glyph-name="quotedbl" unicode="&#x22;" horiz-adv-x="362" 
d="M75 700h75l-10 -223h-65v223zM218 700h74l-10 -223h-64v223z" />
    <glyph glyph-name="numbersign" unicode="#" horiz-adv-x="690" 
d="M46 200v57h125l24 164h-118v57h127l33 221h70l-32 -221h197l33 221h71l-33 -221h101v-57h-109l-24 -164h102v-57h-111l-28 -200h-74l30 200h-196l-29 -200h-74l31 200h-116zM265 423l-25 -168h201l24 168h-200z" />
    <glyph glyph-name="dollar" unicode="$" horiz-adv-x="643" 
d="M289 710v68h68v-69q90 -11 154 -59.5t67 -133.5h-79q-3 52 -44 81t-98 36v-245q44 -7 74 -13.5t64.5 -21t55 -33.5t34.5 -51t14 -74q0 -90 -72 -143t-170 -62v-69h-68v69q-63 6 -115 28t-89 67t-39 106h81q3 -56 50 -87.5t112 -38.5v261q-50 7 -87 17.5t-71.5 30.5
t-52.5 54t-18 81q0 90 66.5 141t162.5 60zM515 195q0 32 -12 54t-36.5 35.5t-48.5 20.5t-61 13v-253q65 7 111.5 39.5t46.5 90.5zM143 510q0 -39 24 -64t51.5 -33.5t70.5 -15.5v238q-59 -7 -102.5 -38.5t-43.5 -86.5z" />
    <glyph glyph-name="percent" unicode="%" horiz-adv-x="838" 
d="M208 -1l343 699h78l-342 -699h-79zM802 152q0 -45 -18.5 -81t-47.5 -54.5t-64 -27t-70.5 0t-64.5 27t-47.5 54.5t-18.5 81q0 46 18.5 81.5t47.5 54t64 27t70.5 0t64.5 -27t47.5 -54.5t18.5 -81zM535 152q0 -51 31.5 -80.5t69.5 -29.5t69.5 29.5t31.5 80.5t-31.5 80.5
t-69.5 29.5t-69.5 -29.5t-31.5 -80.5zM368 545q0 -53 -24.5 -92t-61.5 -56.5t-79.5 -17.5t-79.5 17.5t-61.5 56.5t-24.5 92q0 46 18.5 82t47.5 54.5t64 27t70.5 0t64.5 -27t47.5 -54.5t18.5 -82zM102 545q0 -51 31.5 -80.5t69.5 -29.5t69.5 29.5t31.5 80.5t-31.5 80.5
t-69.5 29.5t-69.5 -29.5t-31.5 -80.5z" />
    <glyph glyph-name="ampersand" unicode="&#x26;" horiz-adv-x="651" 
d="M525 556h-73q0 46 -39.5 67.5t-95.5 21.5q-57 0 -98.5 -26.5t-41.5 -82.5q0 -113 158 -113v-65q-25 0 -38 -1q-160 -14 -160 -149q0 -67 49 -109.5t122 -42.5q159 0 159 171v196h146v-67h-72v-130q0 -119 -59.5 -180t-173.5 -61t-184 62.5t-70 158.5q0 144 144 191
q-48 15 -73.5 51.5t-25.5 87.5q0 87 63 133t156 46q95 0 153 -40.5t54 -118.5z" />
    <glyph glyph-name="quotesingle" unicode="'" horiz-adv-x="221" 
d="M75 700h76l-10 -223h-66v223z" />
    <glyph glyph-name="parenleft" unicode="(" horiz-adv-x="307" 
d="M250 769l28 -48q-74 -56 -113 -180.5t-37.5 -257.5t40.5 -257.5t110 -182.5l-28 -48q-97 65 -150.5 203t-54.5 284.5t52.5 284t152.5 202.5z" />
    <glyph glyph-name="parenright" unicode=")" horiz-adv-x="307" 
d="M29 721l28 48q100 -64 153 -201t52 -283.5t-54.5 -285t-150.5 -204.5l-28 48q70 58 109.5 183t41 257.5t-37.5 256.5t-113 181z" />
    <glyph glyph-name="asterisk" unicode="*" horiz-adv-x="412" 
d="M352 592l-105 -35l77 -92l-48 -35l-69 94l-68 -94l-47 35l75 91l-109 32l17 53l107 -38l-4 110h58l-4 -109l102 40z" />
    <glyph glyph-name="plus" unicode="+" horiz-adv-x="473" 
d="M59 335v62h145v145h65v-145h145v-62h-145v-144h-65v144h-145z" />
    <glyph glyph-name="comma" unicode="," horiz-adv-x="236" 
d="M167 30q-1 -10 -6 -24l-30 -95h-49l22 78q-35 12 -35 45q0 21 14 33.5t35 12.5q37 0 48 -34q2 -13 1 -16z" />
    <glyph glyph-name="hyphen" unicode="-" horiz-adv-x="461" 
d="M68 299v69h325v-69h-325z" />
    <glyph glyph-name="period" unicode="." horiz-adv-x="239" 
d="M119 -9q-21 0 -36 13.5t-15 33.5q0 22 14.5 35t36.5 13q23 0 37.5 -12.5t14.5 -35.5q0 -20 -15 -33.5t-37 -13.5z" />
    <glyph glyph-name="slash" unicode="/" horiz-adv-x="481" 
d="M31 1l338 699h82l-338 -699h-82z" />
    <glyph glyph-name="zero" unicode="0" horiz-adv-x="658" 
d="M330 710q110 0 183.5 -65.5t73.5 -175.5v-240q0 -110 -73 -175.5t-184 -65.5q-112 0 -185.5 65.5t-73.5 175.5v240q0 110 73.5 175.5t185.5 65.5zM330 61q61 0 107 30t61 83q11 33 11 75v200q0 42 -11 75q-16 53 -61.5 83.5t-106.5 30.5q-63 0 -108 -30t-61 -84
q-11 -33 -11 -75v-200q0 -42 11 -75q16 -53 61 -83t108 -30z" />
    <glyph glyph-name="one" unicode="1" horiz-adv-x="432" 
d="M185 634h-122v66h201v-634h139v-66h-356v66h138v568z" />
    <glyph glyph-name="two" unicode="2" horiz-adv-x="542" 
d="M266 638q-127 0 -137 -121h-70q11 193 209 193q89 0 142.5 -45.5t59.5 -115.5q12 -104 -60 -194l-228 -281h305v-74h-441v18l289 361q32 39 47 84.5t10.5 84t-37 64.5t-89.5 26z" />
    <glyph glyph-name="three" unicode="3" horiz-adv-x="576" 
d="M48 188h73q8 -62 49.5 -94.5t106.5 -32.5q74 0 118.5 42t45.5 116q0 89 -75 128.5t-168 14.5v19l192 248h-311v71h440v-13l-202 -262q86 2 144.5 -59t58.5 -147q0 -102 -65.5 -166.5t-176.5 -64.5q-95 0 -158.5 53.5t-71.5 146.5z" />
    <glyph glyph-name="four" unicode="4" horiz-adv-x="588" 
d="M467 147v-157h-76v157h-361v36l355 507h82v-475h72v-68h-72zM399 596h-1l-268 -384h266v176z" />
    <glyph glyph-name="five" unicode="5" horiz-adv-x="580" 
d="M155 625v-181q51 13 107 13q117 0 194 -57.5t74 -177.5q0 -106 -66 -169.5t-175 -63.5q-94 0 -157.5 50.5t-71.5 142.5h79q7 -57 47.5 -88t101.5 -31q63 0 111.5 38t48.5 119q0 89 -55 126.5t-140 37.5q-105 0 -174 -22v338h410v-75h-334z" />
    <glyph glyph-name="six" unicode="6" horiz-adv-x="587" 
d="M305 703h92l-181 -282q39 23 89 23q105 2 174.5 -58.5t69.5 -165.5q0 -108 -73 -168.5t-183 -60.5t-182 60.5t-72 168.5q0 78 43 142zM293 63q75 0 124 42t49 115q0 74 -49 116t-125 42q-74 0 -122.5 -42t-48.5 -116q0 -73 49 -115t123 -42z" />
    <glyph glyph-name="seven" unicode="7" horiz-adv-x="517" 
d="M504 700v-12l-322 -688h-85l294 626h-354v74h467z" />
    <glyph glyph-name="eight" unicode="8" horiz-adv-x="618" 
d="M423 391q140 -54 141 -187q0 -94 -72.5 -154t-182.5 -60q-112 0 -183.5 57t-71.5 157q0 69 38.5 117t101.5 71q-42 20 -68 55.5t-27 84.5q0 79 59.5 128.5t150.5 49.5q92 0 152 -49t60 -128q0 -95 -98 -142zM309 418q56 0 96.5 30.5t40.5 82.5q0 51 -40 81.5t-97 30.5
q-55 0 -95.5 -30.5t-40.5 -82.5t40 -82t96 -30zM309 60q72 0 123 40t51 107t-51 107t-123 40t-122.5 -40.5t-50.5 -107.5q0 -66 51 -106t122 -40z" />
    <glyph glyph-name="nine" unicode="9" horiz-adv-x="586" 
d="M282 0h-92l185 285q-41 -23 -91 -23q-107 -2 -176.5 58.5t-69.5 165.5q0 109 73 169t183 60t182.5 -60t72.5 -169q-1 -79 -46 -144zM294 643q-75 0 -124 -42t-49 -115q0 -74 49.5 -116t124.5 -42t123.5 42t48.5 116q0 73 -49 115t-124 42z" />
    <glyph glyph-name="colon" unicode=":" horiz-adv-x="239" 
d="M119 -9q-21 0 -36 13.5t-15 33.5q0 22 14.5 35t36.5 13q23 0 37.5 -12.5t14.5 -35.5q0 -20 -15 -33.5t-37 -13.5zM119 324q-21 0 -36 13.5t-15 33.5q0 22 14.5 35t36.5 13q23 0 37.5 -12.5t14.5 -35.5q0 -20 -15 -33.5t-37 -13.5z" />
    <glyph glyph-name="semicolon" unicode=";" horiz-adv-x="239" 
d="M118 326q-21 0 -35 12.5t-14 32.5q0 21 14 34t35 13q22 0 36 -13t14 -34q0 -20 -14.5 -32.5t-35.5 -12.5zM169 30q-1 -14 -6 -24q0 -1 -28 -87h-49l20 70q-35 12 -35 45q0 21 14 33.5t35 12.5q37 0 48 -34q2 -13 1 -16z" />
    <glyph glyph-name="less" unicode="&#x3c;" horiz-adv-x="533" 
d="M50 318v59l395 173v-75l-303 -128l303 -134v-75z" />
    <glyph glyph-name="equal" unicode="=" horiz-adv-x="533" 
d="M74 220v66h385v-66h-385zM74 377v66h385v-66h-385z" />
    <glyph glyph-name="greater" unicode="&#x3e;" horiz-adv-x="533" 
d="M483 377v-59l-395 -180v71l303 138l-303 132v71z" />
    <glyph glyph-name="question" unicode="?" horiz-adv-x="492" 
d="M276 148h-75q-1 67 16 115.5t42 76t50 51t43 54.5t18 72q0 49 -34.5 80t-86.5 33q-51 2 -89.5 -26.5t-46.5 -82.5h-76q6 91 64 137t147 46q90 0 148 -50.5t58 -140.5q0 -43 -19 -77.5t-46 -60t-53.5 -54t-44 -72.5t-15.5 -101zM241 -13q-21 0 -35.5 13t-14.5 34
t14.5 33.5t35.5 12.5t35 -12.5t14 -33.5t-14 -34t-35 -13z" />
    <glyph glyph-name="at" unicode="@" horiz-adv-x="909" 
d="M600 88l2 16q-26 -53 -75 -81.5t-110 -29.5q-104 0 -156 73t-42 179q9 118 89 185.5t189 67.5q55 0 108 -21t91 -56l-27 -297q-2 -22 -1.5 -38.5t7.5 -26.5t23 -10q26 -1 47.5 18.5t35.5 51.5t22.5 64.5t11.5 64.5q14 160 -71.5 254.5t-247.5 94.5q-156 0 -265 -98
t-123 -254q-10 -101 20.5 -180t90.5 -119.5t142.5 -49t176.5 29.5l-5 -49q-83 -26 -158 -28t-137 27.5t-105.5 78.5t-64.5 124.5t-12 165.5q16 177 141.5 290t303.5 113q182 0 282 -109t82 -291q-9 -102 -63 -180t-133 -78q-41 0 -58 27t-11 71zM602 235l14 156
q-48 40 -133 40q-74 0 -126 -49.5t-60 -136.5q-6 -77 29 -128.5t109 -51.5q70 0 114 49t53 121z" />
    <glyph glyph-name="A" unicode="A" 
d="M528 173h-350l-82 -173h-87v11l326 692h38l323 -692v-11h-86zM353 572l-147 -327h294z" />
    <glyph glyph-name="B" unicode="B" horiz-adv-x="669" 
d="M586 510q0 -51 -24.5 -89.5t-69.5 -55.5q126 -36 126 -168q0 -94 -60.5 -145.5t-161.5 -51.5h-303v700h273q100 0 160 -47t60 -143zM361 630h-185v-238h185q144 0 144 117q0 121 -144 121zM371 322h-195v-250h214q65 0 104.5 32t39.5 93q2 66 -43 95.5t-120 29.5z" />
    <glyph glyph-name="C" unicode="C" horiz-adv-x="762" 
d="M50 350q0 161 101.5 260.5t252.5 97.5q107 0 194 -57t117 -162h-81q-32 70 -92 106t-138 36q-119 2 -194 -77.5t-75 -203.5q0 -120 74.5 -200.5t193.5 -80.5q82 0 145 40.5t90 114.5h81q-29 -113 -116.5 -172.5t-198.5 -59.5q-150 0 -252 98.5t-102 259.5z" />
    <glyph glyph-name="D" unicode="D" horiz-adv-x="732" 
d="M93 700h248q156 0 248 -100t92 -249q0 -152 -92 -251.5t-248 -99.5h-248v700zM177 76h162q118 0 188.5 77t70.5 197q0 119 -70.5 196t-188.5 77h-162v-547z" />
    <glyph glyph-name="E" unicode="E" horiz-adv-x="569" 
d="M500 700v-73h-323v-229h312v-73h-312v-248h334v-77h-418v700h407z" />
    <glyph glyph-name="F" unicode="F" horiz-adv-x="550" 
d="M482 369v-74h-305v-295h-84v700h416v-74h-332v-257h305z" />
    <glyph glyph-name="G" unicode="G" horiz-adv-x="777" 
d="M50 351q0 160 100 259.5t249 99.5q110 0 196.5 -53t114.5 -157h-82q-49 134 -229 134q-120 0 -192.5 -80.5t-72.5 -202.5q0 -124 72.5 -203.5t192.5 -79.5q111 0 180.5 59t79.5 170h-249v71h326q5 -104 -27 -182q-38 -95 -120 -145.5t-190 -50.5q-151 0 -250 100t-99 261
z" />
    <glyph glyph-name="H" unicode="H" horiz-adv-x="723" 
d="M630 0h-84v328h-370v-328h-83v700h83v-295h370v295h84v-700z" />
    <glyph glyph-name="I" unicode="I" horiz-adv-x="400" 
d="M242 67h121v-67h-326v67h121v567h-113v66h310v-66h-113v-567z" />
    <glyph glyph-name="J" unicode="J" horiz-adv-x="639" 
d="M553 700v-465q0 -113 -74.5 -179t-188.5 -66q-113 0 -184.5 66.5t-71.5 178.5v73h79v-72q0 -81 48 -125.5t129 -44.5t130 45t49 125v390h-171v74h255z" />
    <glyph glyph-name="K" unicode="K" horiz-adv-x="666" 
d="M176 700v-320q126 0 159 20q50 30 88 169q23 78 68 112.5t137 17.5v-56q-57 6 -85.5 -17t-45.5 -81q-41 -142 -94 -188l244 -345v-12h-95l-222 323q-44 -13 -154 -13v-310h-83v700h83z" />
    <glyph glyph-name="L" unicode="L" horiz-adv-x="523" 
d="M177 700v-625h330v-75h-414v700h84z" />
    <glyph glyph-name="M" unicode="M" horiz-adv-x="827" 
d="M414 310l288 391h32v-701h-84v505l-230 -316h-13l-230 316v-505h-84v701h33z" />
    <glyph glyph-name="N" unicode="N" horiz-adv-x="746" 
d="M626 -1l-457 530l7 -192v-337h-83v702h29l456 -530l-9 201v328h84v-702h-27z" />
    <glyph glyph-name="O" unicode="O" horiz-adv-x="810" 
d="M760 350q0 -159 -99 -260t-257 -101q-152 0 -253 99t-101 262q0 164 102 263t253 99t253 -99.5t102 -262.5zM134 350q0 -126 77 -205t193 -79q117 0 194.5 79t77.5 205t-77 206t-194 80q-116 0 -193.5 -79.5t-77.5 -206.5z" />
    <glyph glyph-name="P" unicode="P" horiz-adv-x="650" 
d="M176 1h-83v700h88h104h88q110 0 177.5 -68.5t67.5 -171.5q0 -102 -68 -170t-177 -68h-197v-222zM175 298h198q70 0 117 46.5t47 118.5q0 71 -46 117.5t-118 46.5h-198v-329z" />
    <glyph glyph-name="Q" unicode="Q" horiz-adv-x="809" 
d="M750 6v-12h-78l-47 70q-98 -73 -223 -73q-150 0 -251 100.5t-101 259.5t99.5 261t255.5 102q151 0 253 -100.5t102 -262.5q0 -143 -80 -237zM134 351q0 -133 76.5 -209.5t194.5 -76.5q117 0 194.5 78.5t77.5 207.5q0 132 -77 209t-195 77q-117 0 -194 -77.5t-77 -208.5z
" />
    <glyph glyph-name="R" unicode="R" horiz-adv-x="672" 
d="M444 268l198 -256v-12h-88l-194 257h-183v-257h-84v701h279q106 0 172.5 -64t66.5 -161q0 -79 -46 -134.5t-121 -73.5zM176 326h196q68 0 113 42t45 109t-44.5 108.5t-113.5 41.5h-196v-301z" />
    <glyph glyph-name="S" unicode="S" horiz-adv-x="646" 
d="M47 191h81q2 -44 35 -75t75 -43t89 -12q48 2 87 13t70.5 42t32.5 79q0 18 -3 33.5t-11.5 27t-16 20t-23 15t-24 10.5t-29.5 8t-30 5.5t-33 4.5t-31 4q-54 6 -94.5 15.5t-79.5 29.5t-60 55.5t-21 85.5q0 66 38.5 113.5t95 68.5t120.5 21q47 1 91.5 -10t82.5 -33.5t62 -61
t26 -87.5h-78q-4 42 -33.5 69.5t-67 37.5t-81.5 10q-69 -3 -121 -33.5t-52 -93.5q0 -15 3.5 -28t7.5 -23t14 -18.5t15.5 -14t21 -11t22 -8t25.5 -5.5t24.5 -4t27 -4t25.5 -3q50 -6 82.5 -12t71.5 -19.5t61.5 -33t38 -53t15.5 -78.5q0 -71 -42.5 -119t-101 -67t-127.5 -21
q-50 -1 -98 10.5t-89 35.5t-66.5 64.5t-27.5 92.5z" />
    <glyph glyph-name="T" unicode="T" horiz-adv-x="549" 
d="M234 625h-216v75h513v-75h-216v-625h-81v625z" />
    <glyph glyph-name="U" unicode="U" horiz-adv-x="707" 
d="M355 -9q-117 0 -193 66t-76 181v462h84v-461q0 -81 51.5 -127t133.5 -46t133 46t51 127v461h82v-462q0 -115 -74.5 -181t-191.5 -66z" />
    <glyph glyph-name="V" unicode="V" horiz-adv-x="662" 
d="M333 143l98 262l120 295h89v-12l-291 -691h-35l-293 691v12h89l121 -295l101 -262h1z" />
    <glyph glyph-name="W" unicode="W" horiz-adv-x="965" 
d="M462 687h41l183 -544h2l76 299q62 202 80 258h87v-11l-215 -693h-58l-175 514h-1l-173 -514h-58l-218 691v13h89l80 -259l80 -298h1z" />
    <glyph glyph-name="X" unicode="X" horiz-adv-x="632" 
d="M316 423h2l98 149l90 128h89v-11l-228 -320l254 -358v-11h-91l-116 164l-96 146h-3l-94 -144l-117 -166h-92v12l254 357l-228 319v12h90l91 -130z" />
    <glyph glyph-name="Y" unicode="Y" horiz-adv-x="628" 
d="M313 366h3l101 170l102 164h89v-12l-252 -401v-287h-84v287l-253 402v11h91l102 -163z" />
    <glyph glyph-name="Z" unicode="Z" horiz-adv-x="584" 
d="M548 700v-13l-396 -611h397v-76h-528v11l396 615h-369v74h500z" />
    <glyph glyph-name="bracketleft" unicode="[" horiz-adv-x="300" 
d="M259 755v-65h-102v-794h102v-72h-176v931h176z" />
    <glyph glyph-name="backslash" unicode="\" horiz-adv-x="481" 
d="M112 700l338 -699h-82l-338 699h82z" />
    <glyph glyph-name="bracketright" unicode="]" horiz-adv-x="300" 
d="M41 690v65h176v-931h-176v72h102v794h-102z" />
    <glyph glyph-name="asciicircum" unicode="^" horiz-adv-x="525" 
d="M232 701h57l176 -285h-71l-134 215l-129 -215h-71z" />
    <glyph glyph-name="underscore" unicode="_" horiz-adv-x="616" 
d="M67 -81v68h482v-68h-482z" />
    <glyph glyph-name="grave" unicode="`" horiz-adv-x="336" 
d="M237 582h-66l-81 103v7l72 29l75 -132v-7z" />
    <glyph glyph-name="a" unicode="a" 
d="M528 173h-350l-82 -173h-87v11l326 692h38l323 -692v-11h-86zM353 572l-147 -327h294z" />
    <glyph glyph-name="b" unicode="b" horiz-adv-x="669" 
d="M586 510q0 -51 -24.5 -89.5t-69.5 -55.5q126 -36 126 -168q0 -94 -60.5 -145.5t-161.5 -51.5h-303v700h273q100 0 160 -47t60 -143zM361 630h-185v-238h185q144 0 144 117q0 121 -144 121zM371 322h-195v-250h214q65 0 104.5 32t39.5 93q2 66 -43 95.5t-120 29.5z" />
    <glyph glyph-name="c" unicode="c" horiz-adv-x="762" 
d="M50 350q0 161 101.5 260.5t252.5 97.5q107 0 194 -57t117 -162h-81q-32 70 -92 106t-138 36q-119 2 -194 -77.5t-75 -203.5q0 -120 74.5 -200.5t193.5 -80.5q82 0 145 40.5t90 114.5h81q-29 -113 -116.5 -172.5t-198.5 -59.5q-150 0 -252 98.5t-102 259.5z" />
    <glyph glyph-name="d" unicode="d" horiz-adv-x="732" 
d="M93 700h248q156 0 248 -100t92 -249q0 -152 -92 -251.5t-248 -99.5h-248v700zM177 76h162q118 0 188.5 77t70.5 197q0 119 -70.5 196t-188.5 77h-162v-547z" />
    <glyph glyph-name="e" unicode="e" horiz-adv-x="569" 
d="M500 700v-73h-323v-229h312v-73h-312v-248h334v-77h-418v700h407z" />
    <glyph glyph-name="f" unicode="f" horiz-adv-x="550" 
d="M482 369v-74h-305v-295h-84v700h416v-74h-332v-257h305z" />
    <glyph glyph-name="g" unicode="g" horiz-adv-x="777" 
d="M50 351q0 160 100 259.5t249 99.5q110 0 196.5 -53t114.5 -157h-82q-49 134 -229 134q-120 0 -192.5 -80.5t-72.5 -202.5q0 -124 72.5 -203.5t192.5 -79.5q111 0 180.5 59t79.5 170h-249v71h326q5 -104 -27 -182q-38 -95 -120 -145.5t-190 -50.5q-151 0 -250 100t-99 261
z" />
    <glyph glyph-name="h" unicode="h" horiz-adv-x="723" 
d="M630 0h-84v328h-370v-328h-83v700h83v-295h370v295h84v-700z" />
    <glyph glyph-name="i" unicode="i" horiz-adv-x="400" 
d="M242 67h121v-67h-326v67h121v567h-113v66h310v-66h-113v-567z" />
    <glyph glyph-name="j" unicode="j" horiz-adv-x="639" 
d="M553 700v-465q0 -113 -74.5 -179t-188.5 -66q-113 0 -184.5 66.5t-71.5 178.5v73h79v-72q0 -81 48 -125.5t129 -44.5t130 45t49 125v390h-171v74h255z" />
    <glyph glyph-name="k" unicode="k" horiz-adv-x="666" 
d="M176 700v-320q126 0 159 20q50 30 88 169q23 78 68 112.5t137 17.5v-56q-57 6 -85.5 -17t-45.5 -81q-41 -142 -94 -188l244 -345v-12h-95l-222 323q-44 -13 -154 -13v-310h-83v700h83z" />
    <glyph glyph-name="l" unicode="l" horiz-adv-x="523" 
d="M177 700v-625h330v-75h-414v700h84z" />
    <glyph glyph-name="m" unicode="m" horiz-adv-x="827" 
d="M414 310l288 391h32v-701h-84v505l-230 -316h-13l-230 316v-505h-84v701h33z" />
    <glyph glyph-name="n" unicode="n" horiz-adv-x="746" 
d="M626 -1l-457 530l7 -192v-337h-83v702h29l456 -530l-9 201v328h84v-702h-27z" />
    <glyph glyph-name="o" unicode="o" horiz-adv-x="810" 
d="M760 350q0 -159 -99 -260t-257 -101q-152 0 -253 99t-101 262q0 164 102 263t253 99t253 -99.5t102 -262.5zM134 350q0 -126 77 -205t193 -79q117 0 194.5 79t77.5 205t-77 206t-194 80q-116 0 -193.5 -79.5t-77.5 -206.5z" />
    <glyph glyph-name="p" unicode="p" horiz-adv-x="650" 
d="M176 1h-83v700h88h104h88q110 0 177.5 -68.5t67.5 -171.5q0 -102 -68 -170t-177 -68h-197v-222zM175 298h198q70 0 117 46.5t47 118.5q0 71 -46 117.5t-118 46.5h-198v-329z" />
    <glyph glyph-name="q" unicode="q" horiz-adv-x="809" 
d="M750 6v-12h-78l-47 70q-98 -73 -223 -73q-150 0 -251 100.5t-101 259.5t99.5 261t255.5 102q151 0 253 -100.5t102 -262.5q0 -143 -80 -237zM134 351q0 -133 76.5 -209.5t194.5 -76.5q117 0 194.5 78.5t77.5 207.5q0 132 -77 209t-195 77q-117 0 -194 -77.5t-77 -208.5z
" />
    <glyph glyph-name="r" unicode="r" horiz-adv-x="672" 
d="M444 268l198 -256v-12h-88l-194 257h-183v-257h-84v701h279q106 0 172.5 -64t66.5 -161q0 -79 -46 -134.5t-121 -73.5zM176 326h196q68 0 113 42t45 109t-44.5 108.5t-113.5 41.5h-196v-301z" />
    <glyph glyph-name="s" unicode="s" horiz-adv-x="646" 
d="M47 191h81q2 -44 35 -75t75 -43t89 -12q48 2 87 13t70.5 42t32.5 79q0 18 -3 33.5t-11.5 27t-16 20t-23 15t-24 10.5t-29.5 8t-30 5.5t-33 4.5t-31 4q-54 6 -94.5 15.5t-79.5 29.5t-60 55.5t-21 85.5q0 66 38.5 113.5t95 68.5t120.5 21q47 1 91.5 -10t82.5 -33.5t62 -61
t26 -87.5h-78q-4 42 -33.5 69.5t-67 37.5t-81.5 10q-69 -3 -121 -33.5t-52 -93.5q0 -15 3.5 -28t7.5 -23t14 -18.5t15.5 -14t21 -11t22 -8t25.5 -5.5t24.5 -4t27 -4t25.5 -3q50 -6 82.5 -12t71.5 -19.5t61.5 -33t38 -53t15.5 -78.5q0 -71 -42.5 -119t-101 -67t-127.5 -21
q-50 -1 -98 10.5t-89 35.5t-66.5 64.5t-27.5 92.5z" />
    <glyph glyph-name="t" unicode="t" horiz-adv-x="549" 
d="M234 625h-216v75h513v-75h-216v-625h-81v625z" />
    <glyph glyph-name="u" unicode="u" horiz-adv-x="707" 
d="M355 -9q-117 0 -193 66t-76 181v462h84v-461q0 -81 51.5 -127t133.5 -46t133 46t51 127v461h82v-462q0 -115 -74.5 -181t-191.5 -66z" />
    <glyph glyph-name="v" unicode="v" horiz-adv-x="662" 
d="M333 143l98 262l120 295h89v-12l-291 -691h-35l-293 691v12h89l121 -295l101 -262h1z" />
    <glyph glyph-name="w" unicode="w" horiz-adv-x="965" 
d="M462 687h41l183 -544h2l76 299q62 202 80 258h87v-11l-215 -693h-58l-175 514h-1l-173 -514h-58l-218 691v13h89l80 -259l80 -298h1z" />
    <glyph glyph-name="x" unicode="x" horiz-adv-x="632" 
d="M316 423h2l98 149l90 128h89v-11l-228 -320l254 -358v-11h-91l-116 164l-96 146h-3l-94 -144l-117 -166h-92v12l254 357l-228 319v12h90l91 -130z" />
    <glyph glyph-name="y" unicode="y" horiz-adv-x="628" 
d="M313 366h3l101 170l102 164h89v-12l-252 -401v-287h-84v287l-253 402v11h91l102 -163z" />
    <glyph glyph-name="z" unicode="z" horiz-adv-x="584" 
d="M548 700v-13l-396 -611h397v-76h-528v11l396 615h-369v74h500z" />
    <glyph glyph-name="braceleft" unicode="{" horiz-adv-x="298" 
d="M256 765v-59q-47 1 -67 -16t-20 -63v-198q0 -104 -53 -127q33 -14 43 -47t10 -82v-205q0 -46 20.5 -62.5t66.5 -14.5v-64q-87 0 -124 26.5t-37 111.5l-1 202q0 99 -55 105v59q24 4 37 22.5t15.5 36.5t2.5 45l1 194q0 83 38.5 109.5t122.5 26.5z" />
    <glyph glyph-name="bar" unicode="|" horiz-adv-x="244" 
d="M86 702h72v-782h-72v782z" />
    <glyph glyph-name="braceright" unicode="}" horiz-adv-x="298" 
d="M42 706v59q84 0 122.5 -26.5t38.5 -109.5l1 -194q0 -27 2.5 -45t15.5 -36.5t37 -22.5v-59q-55 -6 -55 -105l-1 -202q0 -85 -37 -111.5t-124 -26.5v64q46 -2 66.5 14.5t20.5 62.5v205q0 49 11 82t45 47q-56 24 -56 127v198q0 46 -20 63t-67 16z" />
    <glyph glyph-name="asciitilde" unicode="~" horiz-adv-x="613" 
d="M111 289l-49 27q31 81 105 98t145 -31q31 -20 56 -30.5t51 -13t46.5 13.5t34.5 50l54 -25q-17 -46 -44.5 -71.5t-61.5 -29.5t-70.5 6t-76.5 34q-138 79 -190 -28z" />
    <glyph glyph-name="exclamdown" unicode="&#xa1;" horiz-adv-x="232" 
d="M117 488q20 0 34 -13t14 -33q0 -21 -13.5 -33.5t-34.5 -12.5t-35.5 12.5t-14.5 33.5q0 20 14.5 33t35.5 13zM153 322l5 -547h-83l4 547h74z" />
    <glyph glyph-name="cent" unicode="&#xa2;" horiz-adv-x="602" 
d="M542 333l-74 -3q-21 53 -82 79l-118 -342q66 -17 126 9.5t81 92.5l75 -3q-27 -103 -117 -147t-188 -19l-27 -79h-39l31 91q-66 28 -107 87t-41 144q0 90 49.5 153t120 85t143.5 7l26 75h37l-29 -84q104 -39 133 -146zM235 82l116 339q-78 13 -144.5 -36t-66.5 -142
q0 -57 26 -98t69 -63z" />
    <glyph glyph-name="sterling" unicode="&#xa3;" horiz-adv-x="657" 
d="M47 320v61h80q-16 83 -3.5 144.5t48 102t84.5 61t106 20.5q100 1 207 -60l-28 -60q-83 54 -183 49q-89 -4 -134.5 -70t-15.5 -187h242v-61h-233q13 -74 7 -125q-7 -60 -44 -112q28 14 69.5 12.5t72 -9.5t72 -17t69.5 -9q39 0 59.5 24t18.5 83h67q12 -176 -131 -176
q-27 0 -78.5 9.5t-93.5 17.5t-90.5 5t-79.5 -23h-81v8q47 45 68.5 89t25.5 107q1 45 -12 116h-89z" />
    <glyph glyph-name="currency" unicode="&#xa4;" horiz-adv-x="565" 
d="M127 558l57 -58q44 28 99 29t100 -25l54 54l50 -50l-52 -52q32 -45 32 -109q0 -62 -33 -110l53 -52l-50 -50l-55 54q-45 -26 -99 -25t-98 29l-58 -58l-50 50l57 57q-28 43 -28 105q0 59 28 103l-57 58zM173 347q0 -56 35.5 -87.5t78 -31.5t78 31.5t35.5 87.5
q0 55 -35.5 86.5t-78 31.5t-78 -31.5t-35.5 -86.5z" />
    <glyph glyph-name="yen" unicode="&#xa5;" horiz-adv-x="561" 
d="M320 0h-79v144h-142v57h142v63h-142v56h123l-186 369v11h90l155 -334l155 334h89v-11l-187 -369h124v-56h-142v-63h142v-57h-142v-144z" />
    <glyph glyph-name="brokenbar" unicode="&#xa6;" horiz-adv-x="246" 
d="M87 702h72v-308h-72v308zM87 298h72v-312h-72v312z" />
    <glyph glyph-name="section" unicode="&#xa7;" horiz-adv-x="643" 
d="M415 177q41 12 68 41t27 69q0 56 -49.5 78t-149.5 32l-30 3t-31 4q-45 -12 -75.5 -40t-28.5 -68q2 -50 39 -73t102 -30q84 -8 128 -16zM176 425q-50 17 -77 45.5t-27 76.5q0 57 38 97t90 56.5t112 18.5q58 2 111.5 -14t94.5 -55t43 -95h-77q-3 51 -56 76.5t-114 22.5
q-39 -2 -73 -10.5t-62 -33.5t-28 -62q0 -17 5.5 -30t19 -22t26 -15t36.5 -11t39.5 -7t45.5 -6q49 -5 80 -9.5t69.5 -16.5t60 -28.5t37 -45.5t15.5 -68q-1 -88 -96 -136q96 -39 96 -132q0 -44 -24 -78t-63 -53.5t-82.5 -30t-89.5 -11.5q-63 -2 -122 14.5t-103.5 57.5
t-45.5 100q14 0 40 0.5t39 0.5q1 -39 34 -65.5t74.5 -36t82.5 -7.5q30 1 59 7.5t57 18.5t45.5 33.5t17.5 49.5q0 19 -7 34.5t-17 26t-28.5 19t-32 13t-38 8.5t-37 5.5t-38 3.5t-32.5 3q-199 15 -203 154q-4 93 105 137z" />
    <glyph glyph-name="dieresis" unicode="&#xa8;" horiz-adv-x="507" 
d="M367 618q-21 0 -35 12.5t-14 32.5q0 21 14 33.5t35 12.5t35 -12.5t14 -33.5q0 -20 -14 -32.5t-35 -12.5zM132 618q-21 0 -35 12.5t-14 32.5q0 21 14 33.5t35 12.5t35.5 -12.5t14.5 -33.5q0 -20 -14.5 -32.5t-35.5 -12.5z" />
    <glyph glyph-name="copyright" unicode="&#xa9;" horiz-adv-x="791" 
d="M734 347q0 -82 -29 -149t-76.5 -108t-108.5 -63t-124.5 -22.5t-124.5 22t-108.5 63.5t-76.5 107.5t-29 149.5q0 82 29 148.5t76.5 107.5t108.5 63.5t124.5 22.5t124.5 -22.5t108.5 -63.5t76.5 -107.5t29 -148.5zM550 403l-49 -4q-15 50 -67.5 63t-99 -19.5t-46.5 -96.5
q0 -51 33.5 -83t81.5 -34q34 -1 62.5 17t39.5 53h50q-10 -43 -37.5 -72t-63 -39.5t-74 -6t-70.5 23.5t-53 56t-21 85q0 57 28.5 98.5t71 56t86.5 12t80 -32t48 -77.5zM116 347q0 -70 24 -126t63.5 -91t89.5 -53.5t102.5 -18.5t102.5 18.5t89.5 53.5t63.5 91t24 126
t-24 126.5t-63.5 91t-89.5 53.5t-102.5 19t-102.5 -19t-89.5 -53.5t-63.5 -91t-24 -126.5z" />
    <glyph glyph-name="ordfeminine" unicode="&#xaa;" horiz-adv-x="484" 
d="M327 401q-34 -59 -135 -59q-53 0 -89.5 27.5t-38.5 80.5q-2 58 39.5 89t100.5 31q64 -2 113 -27v31q0 83 -107 83q-59 0 -103 -24l-11 43q53 29 123 29q71 0 116 -32t45 -100v-163q0 -17 8 -24.5t30 -5.5l2 -36q-43 -11 -71 4t-22 53zM86 214v52h321v-52h-321zM317 459
v39q-42 26 -104 26q-37 0 -62 -17.5t-25 -51.5q0 -32 21.5 -48t55.5 -16q39 0 72 17.5t42 50.5z" />
    <glyph glyph-name="guillemotleft" unicode="&#xab;" horiz-adv-x="468" 
d="M241 551l-104 -205l104 -202l-52 -20l-135 222l135 223zM404 551l-104 -205l104 -202l-52 -20l-135 222l135 223z" />
    <glyph glyph-name="logicalnot" unicode="&#xac;" horiz-adv-x="559" 
d="M74 308v69h407v-241h-65v172h-342z" />
    <glyph glyph-name="registered" unicode="&#xae;" horiz-adv-x="791" 
d="M734 350q0 -82 -29 -149t-76.5 -108t-108.5 -63t-124.5 -22.5t-124.5 22t-108.5 63.5t-76.5 107.5t-29 149.5q0 82 29 148.5t76.5 107.5t108.5 63.5t124.5 22.5t124.5 -22.5t108.5 -63.5t76.5 -107.5t29 -148.5zM460 308l87 -114v-8h-53l-85 115h-71v-115h-51v327h134
q50 0 83 -28.5t33 -78.5q0 -37 -21 -64t-56 -34zM338 469v-126h79q30 0 49.5 17t19.5 46q0 28 -19.5 45.5t-49.5 17.5h-79zM117 350q0 -70 24 -126t63 -91t89.5 -53.5t102.5 -18.5t102.5 18.5t89.5 53.5t63 91t24 126t-24 126.5t-63 91t-89.5 53.5t-102.5 19t-102.5 -19
t-89.5 -53.5t-63 -91t-24 -126.5z" />
    <glyph glyph-name="macron" unicode="&#xaf;" horiz-adv-x="499" 
d="M94 636v61h297v-61h-297z" />
    <glyph glyph-name="degree" unicode="&#xb0;" horiz-adv-x="431" 
d="M379 554q0 -42 -18 -75.5t-47 -50.5t-63.5 -25t-69.5 0t-64 25t-47 50.5t-18 75.5t18 75t47 50.5t63.5 25.5t69.5 0t64 -25.5t47 -50.5t18 -75zM112 554q0 -38 21.5 -64t52 -32.5t60.5 0t51.5 32.5t21.5 64q0 48 -32.5 75t-71 26.5t-71 -27.5t-32.5 -74z" />
    <glyph glyph-name="plusminus" unicode="&#xb1;" horiz-adv-x="521" 
d="M84 333v64h145v145h64v-145h146v-64h-146v-150h-64v150h-145zM74 39v67h371v-67h-371z" />
    <glyph glyph-name="twosuperior" unicode="&#xb2;" horiz-adv-x="403" 
d="M334 414v-54h-269v14l172 206q26 29 31 61t-14 53.5t-57 21.5q-68 0 -72 -64h-53q5 117 126 117q63 0 97 -36t30.5 -86t-39.5 -92l-120 -141h168z" />
    <glyph glyph-name="threesuperior" unicode="&#xb3;" horiz-adv-x="384" 
d="M43 473h55q11 -66 86 -66q40 0 65 21.5t25 59.5q0 49 -40.5 68.5t-95.5 6.5v15l97 135h-174v50h270v-10l-108 -146q52 -2 81.5 -36.5t29.5 -82.5q0 -58 -40 -96.5t-109 -38.5q-59 0 -98 32t-44 88z" />
    <glyph glyph-name="acute" unicode="&#xb4;" horiz-adv-x="303" 
d="M147 576h-66v7l75 132l72 -29v-7z" />
    <glyph glyph-name="mu" unicode="&#xb5;" horiz-adv-x="572" 
d="M512 0h-76v90q-15 -46 -52 -72t-89 -26q-100 0 -139 82v-324h-75v733h75v-285q1 -69 36 -106.5t101 -38.5q63 0 103 41t40 107v282h76v-483z" />
    <glyph glyph-name="mu" unicode="&#x3bc;" horiz-adv-x="572" 
d="M512 0h-76v90q-15 -46 -52 -72t-89 -26q-100 0 -139 82v-324h-75v733h75v-285q1 -69 36 -106.5t101 -38.5q63 0 103 41t40 107v282h76v-483z" />
    <glyph glyph-name="paragraph" unicode="&#xb6;" horiz-adv-x="735" 
d="M641 -199h-78v826h-211v-826h-79v377q-73 2 -128 41.5t-81 97t-27 125t23.5 124.5t82.5 95t138 38h360v-898z" />
    <glyph glyph-name="periodcentered" unicode="&#xb7;" horiz-adv-x="238" 
d="M119 311q-21 0 -36 13t-15 34t14.5 34.5t36.5 13.5t36.5 -13.5t14.5 -34.5t-15 -34t-36 -13z" />
    <glyph glyph-name="cedilla" unicode="&#xb8;" horiz-adv-x="392" 
d="M156 -76l23 87h59l-16 -63q48 -2 70.5 -34t10.5 -73q-13 -38 -51.5 -54.5t-82 -10t-74.5 29.5l4 48q30 -27 78.5 -30t63.5 32q11 34 -20 53t-65 15z" />
    <glyph glyph-name="onesuperior" unicode="&#xb9;" horiz-adv-x="330" 
d="M54 360v50h80v303h-71v50h132v-353h81v-50h-222z" />
    <glyph glyph-name="ordmasculine" unicode="&#xba;" horiz-adv-x="544" 
d="M471 532q0 -52 -22 -93.5t-57.5 -62.5t-78 -31t-85 0t-78 31t-57.5 62.5t-22 93.5q0 53 22 94t57.5 62.5t78 31.5t85 0t78 -31.5t57.5 -62.5t22 -94zM138 533q0 -51 27.5 -86t67 -43t78.5 0t66.5 43t27.5 86q0 37 -14.5 65.5t-38.5 43.5t-52 22t-56.5 0t-52.5 -22
t-38.5 -43.5t-14.5 -65.5zM83 197v64h383v-64h-383z" />
    <glyph glyph-name="guillemotright" unicode="&#xbb;" horiz-adv-x="468" 
d="M331 346l-104 205l52 18l135 -223l-135 -222l-52 20zM168 346l-104 205l52 18l135 -223l-135 -222l-52 20z" />
    <glyph glyph-name="onequarter" unicode="&#xbc;" horiz-adv-x="889" 
d="M752 136v91q0 1 3 106h-1l-144 -197h142zM806 86v-85h-58v85h-214v28l208 290h64v-266h45v-52h-45zM244 1l338 699h65l-338 -699h-65zM49 304v47h81v310h-71v47h132v-357h81v-47h-223z" />
    <glyph glyph-name="onehalf" unicode="&#xbd;" horiz-adv-x="904" 
d="M244 1l338 699h66l-339 -699h-65zM50 304v46h81v308h-71v50h132v-358h81v-46h-223zM860 54v-54h-269v14l172 206q26 29 31 61t-14 53.5t-57 21.5q-68 0 -72 -64h-53q5 117 126 117q63 0 97 -36t30.5 -86t-39.5 -92l-120 -141h168z" />
    <glyph glyph-name="threequarters" unicode="&#xbe;" horiz-adv-x="911" 
d="M278 1l338 699h64l-338 -699h-64zM774 136v91q0 1 3 106h-1l-144 -197h142zM828 86v-85h-58v85h-214v28l208 290h64v-266h45v-52h-45zM43 415h55q11 -66 86 -66q40 0 65 21.5t25 59.5q0 49 -40.5 68.5t-95.5 6.5v15l97 135h-174v50h270v-10l-108 -146q52 -2 81.5 -36.5
t29.5 -82.5q0 -58 -40 -96.5t-109 -38.5q-59 0 -98 32t-44 88z" />
    <glyph glyph-name="questiondown" unicode="&#xbf;" horiz-adv-x="485" 
d="M214 337h75q1 -67 -16 -116t-42 -76t-50 -50.5t-43 -54.5t-18 -72q0 -49 34.5 -80t86.5 -33q51 -2 89.5 26.5t46.5 82.5h76q-6 -91 -64 -137t-147 -46q-90 0 -148 50.5t-58 140.5q0 43 18.5 77.5t45.5 60t53 54t44 72.5t17 101zM249 498q21 0 35.5 -13t14.5 -34
t-14.5 -33.5t-35.5 -12.5t-35 12.5t-14 33.5t14 34t35 13z" />
    <glyph glyph-name="Agrave" unicode="&#xc0;" 
d="M528 173h-350l-82 -173h-87v11l326 692h38l323 -692v-11h-86zM353 572l-147 -327h294zM393 764h-66l-81 103v7l72 29l75 -132v-7z" />
    <glyph glyph-name="Aacute" unicode="&#xc1;" 
d="M528 173h-350l-82 -173h-87v11l326 692h38l323 -692v-11h-86zM353 572l-147 -327h294zM388 767h-66v7l75 132l72 -29v-7z" />
    <glyph glyph-name="Acircumflex" unicode="&#xc2;" 
d="M528 173h-350l-82 -173h-87v11l326 692h38l323 -692v-11h-86zM353 572l-147 -327h294zM530 745h-79l-98 91l-98 -91h-81v8l139 132h79l138 -133v-7z" />
    <glyph glyph-name="Atilde" unicode="&#xc3;" 
d="M528 173h-350l-82 -173h-87v11l326 692h38l323 -692v-11h-86zM353 572l-147 -327h294zM239 763l-43 22q27 56 70 71.5t101 -16.5q66 -45 101 19q6 -3 20.5 -10.5t22.5 -11.5q-22 -55 -66 -71.5t-98 14.5q-72 45 -108 -17z" />
    <glyph glyph-name="Adieresis" unicode="&#xc4;" 
d="M528 173h-350l-82 -173h-87v11l326 692h38l323 -692v-11h-86zM353 572l-147 -327h294zM472 757q-21 0 -35 12.5t-14 32.5q0 21 14 33.5t35 12.5t35 -12.5t14 -33.5q0 -20 -14 -32.5t-35 -12.5zM237 757q-21 0 -35 12.5t-14 32.5q0 21 14 33.5t35 12.5t35.5 -12.5
t14.5 -33.5q0 -20 -14.5 -32.5t-35.5 -12.5z" />
    <glyph glyph-name="Aring" unicode="&#xc5;" 
d="M281 801q0 -40 35 -56.5t70 0t35 56.5t-35 56t-70 0t-35 -56zM353 564l-147 -319h294zM528 173h-350l-82 -173h-87v11l321 683q-43 7 -70.5 33.5t-27.5 73.5q0 52 37 81.5t82 29.5t82 -29.5t37 -81.5q0 -45 -26.5 -72t-66.5 -34l319 -684v-11h-86z" />
    <glyph glyph-name="AE" unicode="&#xc6;" horiz-adv-x="825" 
d="M191 200l-102 -200h-81v12l356 686h397v-74h-285v-226h269v-71h-269v-254h290v-73h-363v200h-212zM405 623l-186 -353h184l3 353h-1z" />
    <glyph glyph-name="Ccedilla" unicode="&#xc7;" horiz-adv-x="762" 
d="M50 350q0 161 101.5 260.5t252.5 97.5q107 0 194 -57t117 -162h-81q-32 70 -92 106t-138 36q-119 2 -194 -77.5t-75 -203.5q0 -120 74.5 -200.5t193.5 -80.5q82 0 145 40.5t90 114.5h81q-27 -102 -103 -161t-176 -68l-14 -57q49 -2 72 -31t9 -73q-12 -39 -51 -55.5
t-82 -9.5t-75 30l4 47q26 -26 76.5 -26t61.5 36q11 33 -17.5 49t-63.5 13l20 76q-143 6 -236.5 104t-93.5 252z" />
    <glyph glyph-name="Egrave" unicode="&#xc8;" horiz-adv-x="569" 
d="M500 700v-73h-323v-229h312v-73h-312v-248h334v-77h-418v700h407zM361 761h-66l-81 103v7l72 29l75 -132v-7z" />
    <glyph glyph-name="Eacute" unicode="&#xc9;" horiz-adv-x="569" 
d="M500 700v-73h-323v-229h312v-73h-312v-248h334v-77h-418v700h407zM332 762h-66v7l75 132l72 -29v-7z" />
    <glyph glyph-name="Ecircumflex" unicode="&#xca;" horiz-adv-x="569" 
d="M500 700v-73h-323v-229h312v-73h-312v-248h334v-77h-418v700h407zM469 766h-76l-93 90l-94 -90h-77v8l132 130h76l132 -131v-7z" />
    <glyph glyph-name="Edieresis" unicode="&#xcb;" horiz-adv-x="569" 
d="M500 700v-73h-323v-229h312v-73h-312v-248h334v-77h-418v700h407zM416 766q-21 0 -35 12.5t-14 32.5q0 21 14 33.5t35 12.5t35 -12.5t14 -33.5q0 -20 -14 -32.5t-35 -12.5zM181 766q-21 0 -35 12.5t-14 32.5q0 21 14 33.5t35 12.5t35.5 -12.5t14.5 -33.5
q0 -20 -14.5 -32.5t-35.5 -12.5z" />
    <glyph glyph-name="Igrave" unicode="&#xcc;" horiz-adv-x="400" 
d="M242 67h121v-67h-326v67h121v567h-113v66h310v-66h-113v-567zM232 765h-66l-81 103v7l72 29l75 -132v-7z" />
    <glyph glyph-name="Iacute" unicode="&#xcd;" horiz-adv-x="400" 
d="M242 67h121v-67h-326v67h121v567h-113v66h310v-66h-113v-567zM219 761h-66v7l75 132l72 -29v-7z" />
    <glyph glyph-name="Icircumflex" unicode="&#xce;" horiz-adv-x="400" 
d="M242 67h121v-67h-326v67h121v567h-113v66h310v-66h-113v-567zM375 752h-75l-94 88l-94 -88h-77v7l133 129h75l132 -130v-6z" />
    <glyph glyph-name="Idieresis" unicode="&#xcf;" horiz-adv-x="400" 
d="M242 67h121v-67h-326v67h121v567h-113v66h310v-66h-113v-567zM322 758q-21 0 -35 12.5t-14 32.5q0 21 14 33.5t35 12.5t35 -12.5t14 -33.5q0 -20 -14 -32.5t-35 -12.5zM87 758q-21 0 -35 12.5t-14 32.5q0 21 14 33.5t35 12.5t35.5 -12.5t14.5 -33.5q0 -20 -14.5 -32.5
t-35.5 -12.5z" />
    <glyph glyph-name="Eth" unicode="&#xd0;" horiz-adv-x="734" 
d="M16 311v67h80v322h248q155 0 247.5 -101.5t92.5 -247.5q0 -148 -92.5 -249.5t-247.5 -101.5h-248v311h-80zM180 76h162q117 0 188 78.5t71 195.5q0 115 -71 194t-188 79h-162v-245h126v-67h-126v-235z" />
    <glyph glyph-name="Ntilde" unicode="&#xd1;" horiz-adv-x="746" 
d="M626 -1l-457 530l7 -192v-337h-83v702h29l456 -530l-9 201v328h84v-702h-27zM255 758l-43 22q27 56 70 71.5t101 -16.5q66 -45 101 19q6 -3 20.5 -10.5t22.5 -11.5q-22 -55 -66 -71.5t-98 14.5q-72 45 -108 -17z" />
    <glyph glyph-name="Ograve" unicode="&#xd2;" horiz-adv-x="810" 
d="M760 350q0 -159 -99 -260t-257 -101q-152 0 -253 99t-101 262q0 164 102 263t253 99t253 -99.5t102 -262.5zM134 350q0 -126 77 -205t193 -79q117 0 194.5 79t77.5 205t-77 206t-194 80q-116 0 -193.5 -79.5t-77.5 -206.5zM448 774h-66l-81 103v7l72 29l75 -132v-7z" />
    <glyph glyph-name="Oacute" unicode="&#xd3;" horiz-adv-x="810" 
d="M760 350q0 -159 -99 -260t-257 -101q-152 0 -253 99t-101 262q0 164 102 263t253 99t253 -99.5t102 -262.5zM134 350q0 -126 77 -205t193 -79q117 0 194.5 79t77.5 205t-77 206t-194 80q-116 0 -193.5 -79.5t-77.5 -206.5zM437 775h-66v7l75 132l72 -29v-7z" />
    <glyph glyph-name="Ocircumflex" unicode="&#xd4;" horiz-adv-x="810" 
d="M760 350q0 -159 -99 -260t-257 -101q-152 0 -253 99t-101 262q0 164 102 263t253 99t253 -99.5t102 -262.5zM134 350q0 -126 77 -205t193 -79q117 0 194.5 79t77.5 205t-77 206t-194 80q-116 0 -193.5 -79.5t-77.5 -206.5zM581 765h-79l-98 91l-98 -91h-81v8l139 132h79
l138 -133v-7z" />
    <glyph glyph-name="Otilde" unicode="&#xd5;" horiz-adv-x="810" 
d="M760 350q0 -159 -99 -260t-257 -101q-152 0 -253 99t-101 262q0 164 102 263t253 99t253 -99.5t102 -262.5zM134 350q0 -126 77 -205t193 -79q117 0 194.5 79t77.5 205t-77 206t-194 80q-116 0 -193.5 -79.5t-77.5 -206.5zM293 785l-43 22q27 56 70 71.5t101 -16.5
q66 -45 101 19q6 -3 20.5 -10.5t22.5 -11.5q-22 -55 -66 -71.5t-98 14.5q-72 45 -108 -17z" />
    <glyph glyph-name="Odieresis" unicode="&#xd6;" horiz-adv-x="810" 
d="M760 350q0 -159 -99 -260t-257 -101q-152 0 -253 99t-101 262q0 164 102 263t253 99t253 -99.5t102 -262.5zM134 350q0 -126 77 -205t193 -79q117 0 194.5 79t77.5 205t-77 206t-194 80q-116 0 -193.5 -79.5t-77.5 -206.5zM518 773q-21 0 -35 12.5t-14 32.5q0 21 14 33.5
t35 12.5t35 -12.5t14 -33.5q0 -20 -14 -32.5t-35 -12.5zM283 773q-21 0 -35 12.5t-14 32.5q0 21 14 33.5t35 12.5t35.5 -12.5t14.5 -33.5q0 -20 -14.5 -32.5t-35.5 -12.5z" />
    <glyph glyph-name="multiply" unicode="&#xd7;" horiz-adv-x="450" 
d="M69 456l46 47l110 -108l109 108l47 -47l-109 -110l108 -107l-47 -47l-108 107l-108 -107l-47 47l107 108z" />
    <glyph glyph-name="Oslash" unicode="&#xd8;" horiz-adv-x="808" 
d="M683 741l-62 -103q137 -100 137 -289q0 -162 -102 -261t-252 -99q-78 0 -148 32l-44 -73h-81v8l61 101q-141 99 -141 292q0 163 101 262t252 99q85 0 156 -35l42 74h81v-8zM574 565l-279 -471q51 -25 110 -25q116 0 192.5 77.5t76.5 202.5q0 144 -100 216zM239 128
l281 475q-55 26 -116 26q-116 0 -193 -77.5t-77 -202.5q0 -148 105 -221z" />
    <glyph glyph-name="Ugrave" unicode="&#xd9;" horiz-adv-x="707" 
d="M355 -9q-117 0 -193 66t-76 181v462h84v-461q0 -81 51.5 -127t133.5 -46t133 46t51 127v461h82v-462q0 -115 -74.5 -181t-191.5 -66zM395 773h-66l-81 103v7l72 29l75 -132v-7z" />
    <glyph glyph-name="Uacute" unicode="&#xda;" horiz-adv-x="707" 
d="M355 -9q-117 0 -193 66t-76 181v462h84v-461q0 -81 51.5 -127t133.5 -46t133 46t51 127v461h82v-462q0 -115 -74.5 -181t-191.5 -66zM382 770h-66v7l75 132l72 -29v-7z" />
    <glyph glyph-name="Ucircumflex" unicode="&#xdb;" horiz-adv-x="707" 
d="M355 -9q-117 0 -193 66t-76 181v462h84v-461q0 -81 51.5 -127t133.5 -46t133 46t51 127v461h82v-462q0 -115 -74.5 -181t-191.5 -66zM530 769h-79l-98 91l-98 -91h-81v8l139 132h79l138 -133v-7z" />
    <glyph glyph-name="Udieresis" unicode="&#xdc;" horiz-adv-x="707" 
d="M355 -9q-117 0 -193 66t-76 181v462h84v-461q0 -81 51.5 -127t133.5 -46t133 46t51 127v461h82v-462q0 -115 -74.5 -181t-191.5 -66zM469 769q-21 0 -35 12.5t-14 32.5q0 21 14 33.5t35 12.5t35 -12.5t14 -33.5q0 -20 -14 -32.5t-35 -12.5zM234 769q-21 0 -35 12.5
t-14 32.5q0 21 14 33.5t35 12.5t35.5 -12.5t14.5 -33.5q0 -20 -14.5 -32.5t-35.5 -12.5z" />
    <glyph glyph-name="Yacute" unicode="&#xdd;" horiz-adv-x="628" 
d="M313 366h3l101 170l102 164h89v-12l-252 -401v-287h-84v287l-253 402v11h91l102 -163zM328 765h-66v7l75 132l72 -29v-7z" />
    <glyph glyph-name="Thorn" unicode="&#xde;" horiz-adv-x="652" 
d="M175 189h198q71 0 118 47t47 120q0 71 -46.5 118t-118.5 47h-198v-332zM93 0v700h84v-106h196q110 0 177.5 -68.5t67.5 -171.5q0 -102 -68 -170t-177 -68h-196v-116h-84z" />
    <glyph glyph-name="germandbls" unicode="&#xdf;" horiz-adv-x="589" 
d="M76 1v500q0 58 18 99.5t46 63.5t68.5 32.5t78 11t83 -6t75.5 -13.5t62 -17v-21l-145 -236q75 0 128.5 -57t53.5 -142q0 -132 -80.5 -189.5t-207.5 -23.5v66q93 -24 148.5 16.5t55.5 130.5q0 79 -62.5 120t-138.5 20v25l143 240q-71 21 -126 19t-88 -40t-33 -108v-490h-79
z" />
    <glyph glyph-name="agrave" unicode="&#xe0;" 
d="M528 173h-350l-82 -173h-87v11l326 692h38l323 -692v-11h-86zM353 572l-147 -327h294zM393 764h-66l-81 103v7l72 29l75 -132v-7z" />
    <glyph glyph-name="aacute" unicode="&#xe1;" 
d="M528 173h-350l-82 -173h-87v11l326 692h38l323 -692v-11h-86zM353 572l-147 -327h294zM388 767h-66v7l75 132l72 -29v-7z" />
    <glyph glyph-name="acircumflex" unicode="&#xe2;" 
d="M528 173h-350l-82 -173h-87v11l326 692h38l323 -692v-11h-86zM353 572l-147 -327h294zM530 745h-79l-98 91l-98 -91h-81v8l139 132h79l138 -133v-7z" />
    <glyph glyph-name="atilde" unicode="&#xe3;" 
d="M528 173h-350l-82 -173h-87v11l326 692h38l323 -692v-11h-86zM353 572l-147 -327h294zM239 763l-43 22q27 56 70 71.5t101 -16.5q66 -45 101 19q6 -3 20.5 -10.5t22.5 -11.5q-22 -55 -66 -71.5t-98 14.5q-72 45 -108 -17z" />
    <glyph glyph-name="adieresis" unicode="&#xe4;" 
d="M528 173h-350l-82 -173h-87v11l326 692h38l323 -692v-11h-86zM353 572l-147 -327h294zM472 757q-21 0 -35 12.5t-14 32.5q0 21 14 33.5t35 12.5t35 -12.5t14 -33.5q0 -20 -14 -32.5t-35 -12.5zM237 757q-21 0 -35 12.5t-14 32.5q0 21 14 33.5t35 12.5t35.5 -12.5
t14.5 -33.5q0 -20 -14.5 -32.5t-35.5 -12.5z" />
    <glyph glyph-name="aring" unicode="&#xe5;" 
d="M281 801q0 -40 35 -56.5t70 0t35 56.5t-35 56t-70 0t-35 -56zM353 564l-147 -319h294zM528 173h-350l-82 -173h-87v11l321 683q-43 7 -70.5 33.5t-27.5 73.5q0 52 37 81.5t82 29.5t82 -29.5t37 -81.5q0 -45 -26.5 -72t-66.5 -34l319 -684v-11h-86z" />
    <glyph glyph-name="ae" unicode="&#xe6;" horiz-adv-x="825" 
d="M191 200l-102 -200h-81v12l356 686h397v-74h-285v-226h269v-71h-269v-254h290v-73h-363v200h-212zM405 623l-186 -353h184l3 353h-1z" />
    <glyph glyph-name="ccedilla" unicode="&#xe7;" horiz-adv-x="762" 
d="M50 350q0 161 101.5 260.5t252.5 97.5q107 0 194 -57t117 -162h-81q-32 70 -92 106t-138 36q-119 2 -194 -77.5t-75 -203.5q0 -120 74.5 -200.5t193.5 -80.5q82 0 145 40.5t90 114.5h81q-27 -102 -103 -161t-176 -68l-14 -57q49 -2 72 -31t9 -73q-12 -39 -51 -55.5
t-82 -9.5t-75 30l4 47q26 -26 76.5 -26t61.5 36q11 33 -17.5 49t-63.5 13l20 76q-143 6 -236.5 104t-93.5 252z" />
    <glyph glyph-name="egrave" unicode="&#xe8;" horiz-adv-x="569" 
d="M500 700v-73h-323v-229h312v-73h-312v-248h334v-77h-418v700h407zM361 761h-66l-81 103v7l72 29l75 -132v-7z" />
    <glyph glyph-name="eacute" unicode="&#xe9;" horiz-adv-x="569" 
d="M500 700v-73h-323v-229h312v-73h-312v-248h334v-77h-418v700h407zM332 762h-66v7l75 132l72 -29v-7z" />
    <glyph glyph-name="ecircumflex" unicode="&#xea;" horiz-adv-x="569" 
d="M500 700v-73h-323v-229h312v-73h-312v-248h334v-77h-418v700h407zM469 766h-76l-93 90l-94 -90h-77v8l132 130h76l132 -131v-7z" />
    <glyph glyph-name="edieresis" unicode="&#xeb;" horiz-adv-x="569" 
d="M500 700v-73h-323v-229h312v-73h-312v-248h334v-77h-418v700h407zM416 766q-21 0 -35 12.5t-14 32.5q0 21 14 33.5t35 12.5t35 -12.5t14 -33.5q0 -20 -14 -32.5t-35 -12.5zM181 766q-21 0 -35 12.5t-14 32.5q0 21 14 33.5t35 12.5t35.5 -12.5t14.5 -33.5
q0 -20 -14.5 -32.5t-35.5 -12.5z" />
    <glyph glyph-name="igrave" unicode="&#xec;" horiz-adv-x="400" 
d="M242 67h121v-67h-326v67h121v567h-113v66h310v-66h-113v-567zM232 765h-66l-81 103v7l72 29l75 -132v-7z" />
    <glyph glyph-name="iacute" unicode="&#xed;" horiz-adv-x="400" 
d="M242 67h121v-67h-326v67h121v567h-113v66h310v-66h-113v-567zM219 761h-66v7l75 132l72 -29v-7z" />
    <glyph glyph-name="icircumflex" unicode="&#xee;" horiz-adv-x="400" 
d="M242 67h121v-67h-326v67h121v567h-113v66h310v-66h-113v-567zM375 752h-75l-94 88l-94 -88h-77v7l133 129h75l132 -130v-6z" />
    <glyph glyph-name="idieresis" unicode="&#xef;" horiz-adv-x="400" 
d="M242 67h121v-67h-326v67h121v567h-113v66h310v-66h-113v-567zM322 758q-21 0 -35 12.5t-14 32.5q0 21 14 33.5t35 12.5t35 -12.5t14 -33.5q0 -20 -14 -32.5t-35 -12.5zM87 758q-21 0 -35 12.5t-14 32.5q0 21 14 33.5t35 12.5t35.5 -12.5t14.5 -33.5q0 -20 -14.5 -32.5
t-35.5 -12.5z" />
    <glyph glyph-name="eth" unicode="&#xf0;" horiz-adv-x="734" 
d="M16 311v67h80v322h248q155 0 247.5 -101.5t92.5 -247.5q0 -148 -92.5 -249.5t-247.5 -101.5h-248v311h-80zM180 76h162q117 0 188 78.5t71 195.5q0 115 -71 194t-188 79h-162v-245h126v-67h-126v-235z" />
    <glyph glyph-name="ntilde" unicode="&#xf1;" horiz-adv-x="746" 
d="M626 -1l-457 530l7 -192v-337h-83v702h29l456 -530l-9 201v328h84v-702h-27zM255 758l-43 22q27 56 70 71.5t101 -16.5q66 -45 101 19q6 -3 20.5 -10.5t22.5 -11.5q-22 -55 -66 -71.5t-98 14.5q-72 45 -108 -17z" />
    <glyph glyph-name="ograve" unicode="&#xf2;" horiz-adv-x="810" 
d="M760 350q0 -159 -99 -260t-257 -101q-152 0 -253 99t-101 262q0 164 102 263t253 99t253 -99.5t102 -262.5zM134 350q0 -126 77 -205t193 -79q117 0 194.5 79t77.5 205t-77 206t-194 80q-116 0 -193.5 -79.5t-77.5 -206.5zM448 774h-66l-81 103v7l72 29l75 -132v-7z" />
    <glyph glyph-name="oacute" unicode="&#xf3;" horiz-adv-x="810" 
d="M760 350q0 -159 -99 -260t-257 -101q-152 0 -253 99t-101 262q0 164 102 263t253 99t253 -99.5t102 -262.5zM134 350q0 -126 77 -205t193 -79q117 0 194.5 79t77.5 205t-77 206t-194 80q-116 0 -193.5 -79.5t-77.5 -206.5zM437 775h-66v7l75 132l72 -29v-7z" />
    <glyph glyph-name="ocircumflex" unicode="&#xf4;" horiz-adv-x="810" 
d="M760 350q0 -159 -99 -260t-257 -101q-152 0 -253 99t-101 262q0 164 102 263t253 99t253 -99.5t102 -262.5zM134 350q0 -126 77 -205t193 -79q117 0 194.5 79t77.5 205t-77 206t-194 80q-116 0 -193.5 -79.5t-77.5 -206.5zM581 765h-79l-98 91l-98 -91h-81v8l139 132h79
l138 -133v-7z" />
    <glyph glyph-name="otilde" unicode="&#xf5;" horiz-adv-x="810" 
d="M760 350q0 -159 -99 -260t-257 -101q-152 0 -253 99t-101 262q0 164 102 263t253 99t253 -99.5t102 -262.5zM134 350q0 -126 77 -205t193 -79q117 0 194.5 79t77.5 205t-77 206t-194 80q-116 0 -193.5 -79.5t-77.5 -206.5zM293 785l-43 22q27 56 70 71.5t101 -16.5
q66 -45 101 19q6 -3 20.5 -10.5t22.5 -11.5q-22 -55 -66 -71.5t-98 14.5q-72 45 -108 -17z" />
    <glyph glyph-name="odieresis" unicode="&#xf6;" horiz-adv-x="810" 
d="M760 350q0 -159 -99 -260t-257 -101q-152 0 -253 99t-101 262q0 164 102 263t253 99t253 -99.5t102 -262.5zM134 350q0 -126 77 -205t193 -79q117 0 194.5 79t77.5 205t-77 206t-194 80q-116 0 -193.5 -79.5t-77.5 -206.5zM518 773q-21 0 -35 12.5t-14 32.5q0 21 14 33.5
t35 12.5t35 -12.5t14 -33.5q0 -20 -14 -32.5t-35 -12.5zM283 773q-21 0 -35 12.5t-14 32.5q0 21 14 33.5t35 12.5t35.5 -12.5t14.5 -33.5q0 -20 -14.5 -32.5t-35.5 -12.5z" />
    <glyph glyph-name="divide" unicode="&#xf7;" horiz-adv-x="544" 
d="M271 150q-21 0 -35 12.5t-14 32.5q0 21 14 33.5t35 12.5t35.5 -13t14.5 -33t-14.5 -32.5t-35.5 -12.5zM271 477q-21 0 -35 12.5t-14 32.5q0 21 14 33.5t35 12.5t35.5 -13t14.5 -33t-14.5 -32.5t-35.5 -12.5zM77 324v69h390v-69h-390z" />
    <glyph glyph-name="oslash" unicode="&#xf8;" horiz-adv-x="808" 
d="M683 741l-62 -103q137 -100 137 -289q0 -162 -102 -261t-252 -99q-78 0 -148 32l-44 -73h-81v8l61 101q-141 99 -141 292q0 163 101 262t252 99q85 0 156 -35l42 74h81v-8zM574 565l-279 -471q51 -25 110 -25q116 0 192.5 77.5t76.5 202.5q0 144 -100 216zM239 128
l281 475q-55 26 -116 26q-116 0 -193 -77.5t-77 -202.5q0 -148 105 -221z" />
    <glyph glyph-name="ugrave" unicode="&#xf9;" horiz-adv-x="707" 
d="M355 -9q-117 0 -193 66t-76 181v462h84v-461q0 -81 51.5 -127t133.5 -46t133 46t51 127v461h82v-462q0 -115 -74.5 -181t-191.5 -66zM395 773h-66l-81 103v7l72 29l75 -132v-7z" />
    <glyph glyph-name="uacute" unicode="&#xfa;" horiz-adv-x="707" 
d="M355 -9q-117 0 -193 66t-76 181v462h84v-461q0 -81 51.5 -127t133.5 -46t133 46t51 127v461h82v-462q0 -115 -74.5 -181t-191.5 -66zM382 770h-66v7l75 132l72 -29v-7z" />
    <glyph glyph-name="ucircumflex" unicode="&#xfb;" horiz-adv-x="707" 
d="M355 -9q-117 0 -193 66t-76 181v462h84v-461q0 -81 51.5 -127t133.5 -46t133 46t51 127v461h82v-462q0 -115 -74.5 -181t-191.5 -66zM530 769h-79l-98 91l-98 -91h-81v8l139 132h79l138 -133v-7z" />
    <glyph glyph-name="udieresis" unicode="&#xfc;" horiz-adv-x="707" 
d="M355 -9q-117 0 -193 66t-76 181v462h84v-461q0 -81 51.5 -127t133.5 -46t133 46t51 127v461h82v-462q0 -115 -74.5 -181t-191.5 -66zM469 769q-21 0 -35 12.5t-14 32.5q0 21 14 33.5t35 12.5t35 -12.5t14 -33.5q0 -20 -14 -32.5t-35 -12.5zM234 769q-21 0 -35 12.5
t-14 32.5q0 21 14 33.5t35 12.5t35.5 -12.5t14.5 -33.5q0 -20 -14.5 -32.5t-35.5 -12.5z" />
    <glyph glyph-name="yacute" unicode="&#xfd;" horiz-adv-x="628" 
d="M313 366h3l101 170l102 164h89v-12l-252 -401v-287h-84v287l-253 402v11h91l102 -163zM328 765h-66v7l75 132l72 -29v-7z" />
    <glyph glyph-name="thorn" unicode="&#xfe;" horiz-adv-x="652" 
d="M175 189h198q71 0 118 47t47 120q0 71 -46.5 118t-118.5 47h-198v-332zM93 0v700h84v-106h196q110 0 177.5 -68.5t67.5 -171.5q0 -102 -68 -170t-177 -68h-196v-116h-84z" />
    <glyph glyph-name="ydieresis" unicode="&#xff;" horiz-adv-x="628" 
d="M313 366h3l101 170l102 164h89v-12l-252 -401v-287h-84v287l-253 402v11h91l102 -163zM433 758q-21 0 -35 12.5t-14 32.5q0 21 14 33.5t35 12.5t35 -12.5t14 -33.5q0 -20 -14 -32.5t-35 -12.5zM198 758q-21 0 -35 12.5t-14 32.5q0 21 14 33.5t35 12.5t35.5 -12.5
t14.5 -33.5q0 -20 -14.5 -32.5t-35.5 -12.5z" />
    <glyph glyph-name="Amacron" unicode="&#x100;" 
d="M528 173h-350l-82 -173h-87v11l326 692h38l323 -692v-11h-86zM353 572l-147 -327h294zM199 770v61h297v-61h-297z" />
    <glyph glyph-name="amacron" unicode="&#x101;" 
d="M528 173h-350l-82 -173h-87v11l326 692h38l323 -692v-11h-86zM353 572l-147 -327h294zM199 770v61h297v-61h-297z" />
    <glyph glyph-name="Abreve" unicode="&#x102;" 
d="M528 173h-350l-82 -173h-87v11l326 692h38l323 -692v-11h-86zM353 572l-147 -327h294zM181 897h68q6 -29 27.5 -48t49 -23.5t55.5 0t49.5 24t26.5 47.5h68q-6 -53 -41.5 -88.5t-83 -43.5t-95 0.5t-83 44t-41.5 87.5z" />
    <glyph glyph-name="abreve" unicode="&#x103;" 
d="M528 173h-350l-82 -173h-87v11l326 692h38l323 -692v-11h-86zM353 572l-147 -327h294zM181 897h68q6 -29 27.5 -48t49 -23.5t55.5 0t49.5 24t26.5 47.5h68q-6 -53 -41.5 -88.5t-83 -43.5t-95 0.5t-83 44t-41.5 87.5z" />
    <glyph glyph-name="Aogonek" unicode="&#x104;" 
d="M353 564l-147 -319h294zM528 173h-350l-82 -173h-87v11q62 137 185.5 396.5t140.5 295.5h38l323 -692v-11q-41 -12 -67 -40.5t-8 -67.5q12 -22 34 -27.5t42 0t42 18.5l9 -52q-31 -18 -67.5 -24.5t-71.5 6t-50 47.5q-33 75 50 142z" />
    <glyph glyph-name="aogonek" unicode="&#x105;" 
d="M353 564l-147 -319h294zM528 173h-350l-82 -173h-87v11q62 137 185.5 396.5t140.5 295.5h38l323 -692v-11q-41 -12 -67 -40.5t-8 -67.5q12 -22 34 -27.5t42 0t42 18.5l9 -52q-31 -18 -67.5 -24.5t-71.5 6t-50 47.5q-33 75 50 142z" />
    <glyph glyph-name="Cacute" unicode="&#x106;" horiz-adv-x="762" 
d="M50 350q0 161 101.5 260.5t252.5 97.5q107 0 194 -57t117 -162h-81q-32 70 -92 106t-138 36q-119 2 -194 -77.5t-75 -203.5q0 -120 74.5 -200.5t193.5 -80.5q82 0 145 40.5t90 114.5h81q-29 -113 -116.5 -172.5t-198.5 -59.5q-150 0 -252 98.5t-102 259.5zM428 773h-66v7
l75 132l72 -29v-7z" />
    <glyph glyph-name="cacute" unicode="&#x107;" horiz-adv-x="762" 
d="M50 350q0 161 101.5 260.5t252.5 97.5q107 0 194 -57t117 -162h-81q-32 70 -92 106t-138 36q-119 2 -194 -77.5t-75 -203.5q0 -120 74.5 -200.5t193.5 -80.5q82 0 145 40.5t90 114.5h81q-29 -113 -116.5 -172.5t-198.5 -59.5q-150 0 -252 98.5t-102 259.5zM428 773h-66v7
l75 132l72 -29v-7z" />
    <glyph glyph-name="Ccircumflex" unicode="&#x108;" horiz-adv-x="762" 
d="M50 350q0 161 101.5 260.5t252.5 97.5q107 0 194 -57t117 -162h-81q-32 70 -92 106t-138 36q-119 2 -194 -77.5t-75 -203.5q0 -120 74.5 -200.5t193.5 -80.5q82 0 145 40.5t90 114.5h81q-29 -113 -116.5 -172.5t-198.5 -59.5q-150 0 -252 98.5t-102 259.5zM566 776h-79
l-98 91l-98 -91h-81v8l139 132h79l138 -133v-7z" />
    <glyph glyph-name="ccircumflex" unicode="&#x109;" horiz-adv-x="762" 
d="M50 350q0 161 101.5 260.5t252.5 97.5q107 0 194 -57t117 -162h-81q-32 70 -92 106t-138 36q-119 2 -194 -77.5t-75 -203.5q0 -120 74.5 -200.5t193.5 -80.5q82 0 145 40.5t90 114.5h81q-29 -113 -116.5 -172.5t-198.5 -59.5q-150 0 -252 98.5t-102 259.5zM566 776h-79
l-98 91l-98 -91h-81v8l139 132h79l138 -133v-7z" />
    <glyph glyph-name="Cdotaccent" unicode="&#x10a;" horiz-adv-x="762" 
d="M50 350q0 161 101.5 260.5t252.5 97.5q107 0 194 -57t117 -162h-81q-32 70 -92 106t-138 36q-119 2 -194 -77.5t-75 -203.5q0 -120 74.5 -200.5t193.5 -80.5q82 0 145 40.5t90 114.5h81q-29 -113 -116.5 -172.5t-198.5 -59.5q-150 0 -252 98.5t-102 259.5zM403 774
q-21 0 -35.5 13t-14.5 33q0 22 14.5 35.5t35.5 13.5q22 0 37 -13.5t15 -35.5q0 -20 -15.5 -33t-36.5 -13z" />
    <glyph glyph-name="cdotaccent" unicode="&#x10b;" horiz-adv-x="762" 
d="M50 350q0 161 101.5 260.5t252.5 97.5q107 0 194 -57t117 -162h-81q-32 70 -92 106t-138 36q-119 2 -194 -77.5t-75 -203.5q0 -120 74.5 -200.5t193.5 -80.5q82 0 145 40.5t90 114.5h81q-29 -113 -116.5 -172.5t-198.5 -59.5q-150 0 -252 98.5t-102 259.5zM403 774
q-21 0 -35.5 13t-14.5 33q0 22 14.5 35.5t35.5 13.5q22 0 37 -13.5t15 -35.5q0 -20 -15.5 -33t-36.5 -13z" />
    <glyph glyph-name="Ccaron" unicode="&#x10c;" horiz-adv-x="762" 
d="M50 350q0 161 101.5 260.5t252.5 97.5q107 0 194 -57t117 -162h-81q-32 70 -92 106t-138 36q-119 2 -194 -77.5t-75 -203.5q0 -120 74.5 -200.5t193.5 -80.5q82 0 145 40.5t90 114.5h81q-29 -113 -116.5 -172.5t-198.5 -59.5q-150 0 -252 98.5t-102 259.5zM216 914h77
l96 -91l97 91h79v-9l-136 -130h-78l-135 132v7z" />
    <glyph glyph-name="ccaron" unicode="&#x10d;" horiz-adv-x="762" 
d="M50 350q0 161 101.5 260.5t252.5 97.5q107 0 194 -57t117 -162h-81q-32 70 -92 106t-138 36q-119 2 -194 -77.5t-75 -203.5q0 -120 74.5 -200.5t193.5 -80.5q82 0 145 40.5t90 114.5h81q-29 -113 -116.5 -172.5t-198.5 -59.5q-150 0 -252 98.5t-102 259.5zM216 914h77
l96 -91l97 91h79v-9l-136 -130h-78l-135 132v7z" />
    <glyph glyph-name="Dcaron" unicode="&#x10e;" horiz-adv-x="732" 
d="M93 700h248q156 0 248 -100t92 -249q0 -152 -92 -251.5t-248 -99.5h-248v700zM177 76h162q118 0 188.5 77t70.5 197q0 119 -70.5 196t-188.5 77h-162v-547zM141 899h75l94 -87l94 87h77v-8l-133 -126h-75l-132 128v6z" />
    <glyph glyph-name="dcaron" unicode="&#x10f;" horiz-adv-x="732" 
d="M93 700h248q156 0 248 -100t92 -249q0 -152 -92 -251.5t-248 -99.5h-248v700zM177 76h162q118 0 188.5 77t70.5 197q0 119 -70.5 196t-188.5 77h-162v-547zM141 899h75l94 -87l94 87h77v-8l-133 -126h-75l-132 128v6z" />
    <glyph glyph-name="Dcroat" unicode="&#x110;" horiz-adv-x="734" 
d="M15 314v64h80v322h248q155 0 247.5 -101.5t92.5 -247.5q0 -148 -92.5 -249.5t-247.5 -101.5h-248v314h-80zM179 76h162q117 0 188 78.5t71 195.5q0 115 -71 194t-188 79h-162v-245h126v-64h-126v-238z" />
    <glyph glyph-name="dcroat" unicode="&#x111;" horiz-adv-x="734" 
d="M15 314v64h80v322h248q155 0 247.5 -101.5t92.5 -247.5q0 -148 -92.5 -249.5t-247.5 -101.5h-248v314h-80zM179 76h162q117 0 188 78.5t71 195.5q0 115 -71 194t-188 79h-162v-245h126v-64h-126v-238z" />
    <glyph glyph-name="Emacron" unicode="&#x112;" horiz-adv-x="569" 
d="M500 700v-73h-323v-229h312v-73h-312v-248h334v-77h-418v700h407zM151 777v61h297v-61h-297z" />
    <glyph glyph-name="emacron" unicode="&#x113;" horiz-adv-x="569" 
d="M500 700v-73h-323v-229h312v-73h-312v-248h334v-77h-418v700h407zM151 777v61h297v-61h-297z" />
    <glyph glyph-name="Ebreve" unicode="&#x114;" horiz-adv-x="569" 
d="M500 700v-73h-323v-229h312v-73h-312v-248h334v-77h-418v700h407zM121 905h67q10 -46 56 -64.5t92.5 0t55.5 64.5h67q-5 -52 -40.5 -87t-82.5 -43t-94 0.5t-81.5 43.5t-39.5 86z" />
    <glyph glyph-name="ebreve" unicode="&#x115;" horiz-adv-x="569" 
d="M500 700v-73h-323v-229h312v-73h-312v-248h334v-77h-418v700h407zM121 905h67q10 -46 56 -64.5t92.5 0t55.5 64.5h67q-5 -52 -40.5 -87t-82.5 -43t-94 0.5t-81.5 43.5t-39.5 86z" />
    <glyph glyph-name="Edotaccent" unicode="&#x116;" horiz-adv-x="569" 
d="M500 700v-73h-323v-229h312v-73h-312v-248h334v-77h-418v700h407zM304 781q-21 0 -35 12.5t-14 32.5q0 21 14 34t35 13t35.5 -13t14.5 -34q0 -20 -14.5 -32.5t-35.5 -12.5z" />
    <glyph glyph-name="edotaccent" unicode="&#x117;" horiz-adv-x="569" 
d="M500 700v-73h-323v-229h312v-73h-312v-248h334v-77h-418v700h407zM304 781q-21 0 -35 12.5t-14 32.5q0 21 14 34t35 13t35.5 -13t14.5 -34q0 -20 -14.5 -32.5t-35.5 -12.5z" />
    <glyph glyph-name="Eogonek" unicode="&#x118;" horiz-adv-x="558" 
d="M493 700v-74h-316v-228h300v-73h-300v-248h321v-77h-92q-34 -18 -49 -51.5t-1 -61.5q11 -23 36.5 -28.5t50 1t47.5 18.5l9 -52q-23 -14 -52.5 -21.5t-60 -7.5t-56 16.5t-35.5 48.5q-14 36 1.5 76t51.5 62h-255v700h400z" />
    <glyph glyph-name="eogonek" unicode="&#x119;" horiz-adv-x="558" 
d="M493 700v-74h-316v-228h300v-73h-300v-248h321v-77h-92q-34 -18 -49 -51.5t-1 -61.5q11 -23 36.5 -28.5t50 1t47.5 18.5l9 -52q-23 -14 -52.5 -21.5t-60 -7.5t-56 16.5t-35.5 48.5q-14 36 1.5 76t51.5 62h-255v700h400z" />
    <glyph glyph-name="Ecaron" unicode="&#x11a;" horiz-adv-x="569" 
d="M500 700v-73h-323v-229h312v-73h-312v-248h334v-77h-418v700h407zM132 898h76l95 -88l94 88h79v-8l-135 -128h-76l-133 130v6z" />
    <glyph glyph-name="ecaron" unicode="&#x11b;" horiz-adv-x="569" 
d="M500 700v-73h-323v-229h312v-73h-312v-248h334v-77h-418v700h407zM132 898h76l95 -88l94 88h79v-8l-135 -128h-76l-133 130v6z" />
    <glyph glyph-name="Gcircumflex" unicode="&#x11c;" horiz-adv-x="777" 
d="M50 351q0 160 100 259.5t249 99.5q110 0 196.5 -53t114.5 -157h-82q-49 134 -229 134q-120 0 -192.5 -80.5t-72.5 -202.5q0 -124 72.5 -203.5t192.5 -79.5q111 0 180.5 59t79.5 170h-249v71h326q5 -104 -27 -182q-38 -95 -120 -145.5t-190 -50.5q-151 0 -250 100t-99 261
zM579 783h-79l-98 91l-98 -91h-81v8l139 132h79l138 -133v-7z" />
    <glyph glyph-name="gcircumflex" unicode="&#x11d;" horiz-adv-x="777" 
d="M50 351q0 160 100 259.5t249 99.5q110 0 196.5 -53t114.5 -157h-82q-49 134 -229 134q-120 0 -192.5 -80.5t-72.5 -202.5q0 -124 72.5 -203.5t192.5 -79.5q111 0 180.5 59t79.5 170h-249v71h326q5 -104 -27 -182q-38 -95 -120 -145.5t-190 -50.5q-151 0 -250 100t-99 261
zM579 783h-79l-98 91l-98 -91h-81v8l139 132h79l138 -133v-7z" />
    <glyph glyph-name="Gbreve" unicode="&#x11e;" horiz-adv-x="777" 
d="M50 351q0 160 100 259.5t249 99.5q110 0 196.5 -53t114.5 -157h-82q-49 134 -229 134q-120 0 -192.5 -80.5t-72.5 -202.5q0 -124 72.5 -203.5t192.5 -79.5q111 0 180.5 59t79.5 170h-249v71h326q5 -104 -27 -182q-38 -95 -120 -145.5t-190 -50.5q-151 0 -250 100t-99 261
zM214 910h70q7 -36 39 -56.5t67.5 -20.5t67 20.5t38.5 56.5h70q-6 -54 -42 -90.5t-85 -45t-98 0.5t-85 45t-42 90z" />
    <glyph glyph-name="gbreve" unicode="&#x11f;" horiz-adv-x="777" 
d="M50 351q0 160 100 259.5t249 99.5q110 0 196.5 -53t114.5 -157h-82q-49 134 -229 134q-120 0 -192.5 -80.5t-72.5 -202.5q0 -124 72.5 -203.5t192.5 -79.5q111 0 180.5 59t79.5 170h-249v71h326q5 -104 -27 -182q-38 -95 -120 -145.5t-190 -50.5q-151 0 -250 100t-99 261
zM214 910h70q7 -36 39 -56.5t67.5 -20.5t67 20.5t38.5 56.5h70q-6 -54 -42 -90.5t-85 -45t-98 0.5t-85 45t-42 90z" />
    <glyph glyph-name="Gdotaccent" unicode="&#x120;" horiz-adv-x="777" 
d="M50 351q0 160 100 259.5t249 99.5q110 0 196.5 -53t114.5 -157h-82q-49 134 -229 134q-120 0 -192.5 -80.5t-72.5 -202.5q0 -124 72.5 -203.5t192.5 -79.5q111 0 180.5 59t79.5 170h-249v71h326q5 -104 -27 -182q-38 -95 -120 -145.5t-190 -50.5q-151 0 -250 100t-99 261
zM403 769q-21 0 -35.5 12.5t-14.5 30.5q0 21 14.5 33.5t35.5 12.5q22 0 37 -12.5t15 -33.5q0 -18 -15.5 -30.5t-36.5 -12.5z" />
    <glyph glyph-name="gdotaccent" unicode="&#x121;" horiz-adv-x="777" 
d="M50 351q0 160 100 259.5t249 99.5q110 0 196.5 -53t114.5 -157h-82q-49 134 -229 134q-120 0 -192.5 -80.5t-72.5 -202.5q0 -124 72.5 -203.5t192.5 -79.5q111 0 180.5 59t79.5 170h-249v71h326q5 -104 -27 -182q-38 -95 -120 -145.5t-190 -50.5q-151 0 -250 100t-99 261
zM403 769q-21 0 -35.5 12.5t-14.5 30.5q0 21 14.5 33.5t35.5 12.5q22 0 37 -12.5t15 -33.5q0 -18 -15.5 -30.5t-36.5 -12.5z" />
    <glyph glyph-name="Gcommaaccent" unicode="&#x122;" horiz-adv-x="777" 
d="M457 -142q-1 -10 -6 -24l-30 -95h-49l22 78q-35 12 -35 45q0 21 14 33.5t35 12.5q37 0 48 -34q2 -13 1 -16zM50 351q0 160 100 259.5t249 99.5q110 0 196.5 -53t114.5 -157h-82q-49 134 -229 134q-120 0 -192.5 -80.5t-72.5 -202.5q0 -124 72.5 -203.5t192.5 -79.5
q111 0 180.5 59t79.5 170h-249v71h326q5 -104 -27 -182q-38 -95 -120 -145.5t-190 -50.5q-151 0 -250 100t-99 261z" />
    <glyph glyph-name="gcommaaccent" unicode="&#x123;" horiz-adv-x="777" 
d="M457 -142q-1 -10 -6 -24l-30 -95h-49l22 78q-35 12 -35 45q0 21 14 33.5t35 12.5q37 0 48 -34q2 -13 1 -16zM50 351q0 160 100 259.5t249 99.5q110 0 196.5 -53t114.5 -157h-82q-49 134 -229 134q-120 0 -192.5 -80.5t-72.5 -202.5q0 -124 72.5 -203.5t192.5 -79.5
q111 0 180.5 59t79.5 170h-249v71h326q5 -104 -27 -182q-38 -95 -120 -145.5t-190 -50.5q-151 0 -250 100t-99 261z" />
    <glyph glyph-name="Hcircumflex" unicode="&#x124;" horiz-adv-x="723" 
d="M630 0h-84v328h-370v-328h-83v700h83v-295h370v295h84v-700zM553 765h-79l-98 91l-98 -91h-81v8l139 132h79l138 -133v-7z" />
    <glyph glyph-name="hcircumflex" unicode="&#x125;" horiz-adv-x="723" 
d="M630 0h-84v328h-370v-328h-83v700h83v-295h370v295h84v-700zM553 765h-79l-98 91l-98 -91h-81v8l139 132h79l138 -133v-7z" />
    <glyph glyph-name="Hbar" unicode="&#x126;" horiz-adv-x="733" 
d="M30 524v58h68v118h83v-118h370v118h84v-118h70v-58h-70v-524h-84v312h-370v-312h-83v524h-68zM181 389h370v135h-370v-135z" />
    <glyph glyph-name="hbar" unicode="&#x127;" horiz-adv-x="733" 
d="M30 524v58h68v118h83v-118h370v118h84v-118h70v-58h-70v-524h-84v312h-370v-312h-83v524h-68zM181 389h370v135h-370v-135z" />
    <glyph glyph-name="Itilde" unicode="&#x128;" horiz-adv-x="400" 
d="M242 67h121v-67h-326v67h121v567h-113v66h310v-66h-113v-567zM97 755l-43 22q27 56 70 71.5t101 -16.5q66 -45 101 19q6 -3 20.5 -10.5t22.5 -11.5q-22 -55 -66 -71.5t-98 14.5q-72 45 -108 -17z" />
    <glyph glyph-name="itilde" unicode="&#x129;" horiz-adv-x="400" 
d="M242 67h121v-67h-326v67h121v567h-113v66h310v-66h-113v-567zM97 755l-43 22q27 56 70 71.5t101 -16.5q66 -45 101 19q6 -3 20.5 -10.5t22.5 -11.5q-22 -55 -66 -71.5t-98 14.5q-72 45 -108 -17z" />
    <glyph glyph-name="Imacron" unicode="&#x12a;" horiz-adv-x="400" 
d="M242 67h121v-67h-326v67h121v567h-113v66h310v-66h-113v-567zM57 771v61h297v-61h-297z" />
    <glyph glyph-name="imacron" unicode="&#x12b;" horiz-adv-x="400" 
d="M242 67h121v-67h-326v67h121v567h-113v66h310v-66h-113v-567zM57 771v61h297v-61h-297z" />
    <glyph glyph-name="Ibreve" unicode="&#x12c;" horiz-adv-x="400" 
d="M242 67h121v-67h-326v67h121v567h-113v66h310v-66h-113v-567zM35 890h66q8 -36 37.5 -55.5t63 -19.5t63.5 20t37 55h66q-6 -53 -40 -89t-80 -44.5t-92.5 0t-80.5 44.5t-40 89z" />
    <glyph glyph-name="ibreve" unicode="&#x12d;" horiz-adv-x="400" 
d="M242 67h121v-67h-326v67h121v567h-113v66h310v-66h-113v-567zM35 890h66q8 -36 37.5 -55.5t63 -19.5t63.5 20t37 55h66q-6 -53 -40 -89t-80 -44.5t-92.5 0t-80.5 44.5t-40 89z" />
    <glyph glyph-name="Iogonek" unicode="&#x12e;" horiz-adv-x="402" 
d="M243 69h121v-69h-128q-29 -20 -44.5 -52t-0.5 -60q12 -24 38.5 -29t50 2t46.5 19l9 -54q-34 -20 -74 -26t-77.5 10t-52.5 57q-29 71 47 133h-140v69h121v563h-113v68h310v-68h-113v-563z" />
    <glyph glyph-name="iogonek" unicode="&#x12f;" horiz-adv-x="402" 
d="M243 69h121v-69h-128q-29 -20 -44.5 -52t-0.5 -60q12 -24 38.5 -29t50 2t46.5 19l9 -54q-34 -20 -74 -26t-77.5 10t-52.5 57q-29 71 47 133h-140v69h121v563h-113v68h310v-68h-113v-563z" />
    <glyph glyph-name="Idotaccent" unicode="&#x130;" horiz-adv-x="400" 
d="M242 67h121v-67h-326v67h121v567h-113v66h310v-66h-113v-567zM200 750q-22 0 -38 12.5t-16 32.5q0 21 16 34.5t38 13.5t38 -13.5t16 -34.5q0 -20 -16 -32.5t-38 -12.5z" />
    <glyph glyph-name="dotlessi" unicode="&#x131;" horiz-adv-x="400" 
d="M242 67h121v-67h-326v67h121v567h-113v66h310v-66h-113v-567z" />
    <glyph glyph-name="IJ" unicode="&#x132;" horiz-adv-x="1039" 
d="M242 67h121v-67h-326v67h121v567h-113v66h310v-66h-113v-567zM953 700v-465q0 -113 -74.5 -179t-188.5 -66q-113 0 -184.5 66.5t-71.5 178.5v73h79v-72q0 -81 48 -125.5t129 -44.5t130 45t49 125v390h-171v74h255z" />
    <glyph glyph-name="ij" unicode="&#x133;" horiz-adv-x="1039" 
d="M242 67h121v-67h-326v67h121v567h-113v66h310v-66h-113v-567zM953 700v-465q0 -113 -74.5 -179t-188.5 -66q-113 0 -184.5 66.5t-71.5 178.5v73h79v-72q0 -81 48 -125.5t129 -44.5t130 45t49 125v390h-171v74h255z" />
    <glyph glyph-name="Jcircumflex" unicode="&#x134;" horiz-adv-x="639" 
d="M553 700v-465q0 -113 -74.5 -179t-188.5 -66q-113 0 -184.5 66.5t-71.5 178.5v73h79v-72q0 -81 48 -125.5t129 -44.5t130 45t49 125v390h-171v74h255zM589 773h-74l-93 92l-92 -92h-76v8l131 133h74l130 -134v-7z" />
    <glyph glyph-name="jcircumflex" unicode="&#x135;" horiz-adv-x="639" 
d="M553 700v-465q0 -113 -74.5 -179t-188.5 -66q-113 0 -184.5 66.5t-71.5 178.5v73h79v-72q0 -81 48 -125.5t129 -44.5t130 45t49 125v390h-171v74h255zM589 773h-74l-93 92l-92 -92h-76v8l131 133h74l130 -134v-7z" />
    <glyph glyph-name="Kcommaaccent" unicode="&#x136;" horiz-adv-x="666" 
d="M408 -116q-2 -10 -6 -24l-30 -95h-49l22 78q-35 12 -35 45q0 21 14 33.5t35 12.5q37 0 48 -34q2 -13 1 -16zM176 700v-320q126 0 159 20q50 30 88 169q23 78 68 112.5t137 17.5v-56q-57 6 -85.5 -17t-45.5 -81q-41 -142 -94 -188l244 -345v-12h-95l-222 323
q-44 -13 -154 -13v-310h-83v700h83z" />
    <glyph glyph-name="kcommaaccent" unicode="&#x137;" horiz-adv-x="666" 
d="M408 -116q-2 -10 -6 -24l-30 -95h-49l22 78q-35 12 -35 45q0 21 14 33.5t35 12.5q37 0 48 -34q2 -13 1 -16zM176 700v-320q126 0 159 20q50 30 88 169q23 78 68 112.5t137 17.5v-56q-57 6 -85.5 -17t-45.5 -81q-41 -142 -94 -188l244 -345v-12h-95l-222 323
q-44 -13 -154 -13v-310h-83v700h83z" />
    <glyph glyph-name="kgreenlandic" unicode="&#x138;" horiz-adv-x="666" 
d="M176 700v-320q126 0 159 20q50 30 88 169q23 78 68 112.5t137 17.5v-56q-57 6 -85.5 -17t-45.5 -81q-41 -142 -94 -188l244 -345v-12h-95l-222 323q-44 -13 -154 -13v-310h-83v700h83z" />
    <glyph glyph-name="Lacute" unicode="&#x139;" horiz-adv-x="523" 
d="M177 700v-625h330v-75h-414v700h84zM176 802h-66v7l75 132l72 -29v-7z" />
    <glyph glyph-name="lacute" unicode="&#x13a;" horiz-adv-x="523" 
d="M177 700v-625h330v-75h-414v700h84zM176 802h-66v7l75 132l72 -29v-7z" />
    <glyph glyph-name="Lcommaaccent" unicode="&#x13b;" horiz-adv-x="523" 
d="M360 -142q-2 -10 -6 -24l-30 -95h-49l22 78q-35 12 -35 45q0 21 14 33.5t35 12.5q37 0 48 -34q2 -13 1 -16zM177 700v-625h330v-75h-414v700h84z" />
    <glyph glyph-name="lcommaaccent" unicode="&#x13c;" horiz-adv-x="523" 
d="M360 -142q-2 -10 -6 -24l-30 -95h-49l22 78q-35 12 -35 45q0 21 14 33.5t35 12.5q37 0 48 -34q2 -13 1 -16zM177 700v-625h330v-75h-414v700h84z" />
    <glyph glyph-name="Lcaron" unicode="&#x13d;" horiz-adv-x="524" 
d="M177 700v-625h330v-75h-414v700h84zM442 649q-1 -9 -6 -23l-26 -84h-48l20 68q-33 12 -33 43q0 20 13 32t33 12q37 0 45 -32q2 -3 2 -16z" />
    <glyph glyph-name="lcaron" unicode="&#x13e;" horiz-adv-x="524" 
d="M177 700v-625h330v-75h-414v700h84zM442 649q-1 -9 -6 -23l-26 -84h-48l20 68q-33 12 -33 43q0 20 13 32t33 12q37 0 45 -32q2 -3 2 -16z" />
    <glyph glyph-name="Ldot" unicode="&#x13f;" horiz-adv-x="523" 
d="M177 700v-625h330v-75h-414v700h84zM359 331q-19 0 -33 13.5t-14 33.5q0 21 14 34.5t33 13.5q21 0 34.5 -13.5t13.5 -34.5t-13.5 -34t-34.5 -13z" />
    <glyph glyph-name="ldot" unicode="&#x140;" horiz-adv-x="523" 
d="M177 700v-625h330v-75h-414v700h84zM359 331q-19 0 -33 13.5t-14 33.5q0 21 14 34.5t33 13.5q21 0 34.5 -13.5t13.5 -34.5t-13.5 -34t-34.5 -13z" />
    <glyph glyph-name="Lslash" unicode="&#x141;" horiz-adv-x="530" 
d="M184 700v-322l110 33v-69l-110 -33v-234h321v-75h-405v286l-76 -22v69l76 21v346h84z" />
    <glyph glyph-name="lslash" unicode="&#x142;" horiz-adv-x="530" 
d="M184 700v-322l110 33v-69l-110 -33v-234h321v-75h-405v286l-76 -22v69l76 21v346h84z" />
    <glyph glyph-name="Nacute" unicode="&#x143;" horiz-adv-x="746" 
d="M626 -1l-457 530l7 -192v-337h-83v702h29l456 -530l-9 201v328h84v-702h-27zM385 756h-66v7l75 132l72 -29v-7z" />
    <glyph glyph-name="nacute" unicode="&#x144;" horiz-adv-x="746" 
d="M626 -1l-457 530l7 -192v-337h-83v702h29l456 -530l-9 201v328h84v-702h-27zM385 756h-66v7l75 132l72 -29v-7z" />
    <glyph glyph-name="Ncommaaccent" unicode="&#x145;" horiz-adv-x="746" 
d="M444 -130q-2 -10 -6 -24l-30 -95h-49l22 78q-35 12 -35 45q0 21 14 33.5t35 12.5q37 0 48 -34q2 -13 1 -16zM626 -1l-457 530l7 -192v-337h-83v702h29l456 -530l-9 201v328h84v-702h-27z" />
    <glyph glyph-name="ncommaaccent" unicode="&#x146;" horiz-adv-x="746" 
d="M444 -130q-2 -10 -6 -24l-30 -95h-49l22 78q-35 12 -35 45q0 21 14 33.5t35 12.5q37 0 48 -34q2 -13 1 -16zM626 -1l-457 530l7 -192v-337h-83v702h29l456 -530l-9 201v328h84v-702h-27z" />
    <glyph glyph-name="Ncaron" unicode="&#x147;" horiz-adv-x="746" 
d="M626 -1l-457 530l7 -192v-337h-83v702h29l456 -530l-9 201v328h84v-702h-27zM188 891h79l98 -92l98 92h81v-9l-139 -132h-79l-138 134v7z" />
    <glyph glyph-name="ncaron" unicode="&#x148;" horiz-adv-x="746" 
d="M626 -1l-457 530l7 -192v-337h-83v702h29l456 -530l-9 201v328h84v-702h-27zM188 891h79l98 -92l98 92h81v-9l-139 -132h-79l-138 134v7z" />
    <glyph glyph-name="napostrophe" unicode="&#x149;" horiz-adv-x="746" 
d="M626 -1l-457 530l7 -192v-337h-83v702h29l456 -530l-9 201v328h84v-702h-27z" />
    <glyph glyph-name="Eng" unicode="&#x14a;" horiz-adv-x="746" 
d="M458 -187l3 59q74 -13 97.5 19.5t23.5 112.5v41l-406 496v-541h-83v702h29l447 -534v533h84v-698q0 -114 -45 -162t-150 -28z" />
    <glyph glyph-name="eng" unicode="&#x14b;" horiz-adv-x="746" 
d="M458 -187l3 59q74 -13 97.5 19.5t23.5 112.5v41l-406 496v-541h-83v702h29l447 -534v533h84v-698q0 -114 -45 -162t-150 -28z" />
    <glyph glyph-name="Omacron" unicode="&#x14c;" horiz-adv-x="810" 
d="M760 350q0 -159 -99 -260t-257 -101q-152 0 -253 99t-101 262q0 164 102 263t253 99t253 -99.5t102 -262.5zM134 350q0 -126 77 -205t193 -79q117 0 194.5 79t77.5 205t-77 206t-194 80q-116 0 -193.5 -79.5t-77.5 -206.5zM253 793v61h297v-61h-297z" />
    <glyph glyph-name="omacron" unicode="&#x14d;" horiz-adv-x="810" 
d="M760 350q0 -159 -99 -260t-257 -101q-152 0 -253 99t-101 262q0 164 102 263t253 99t253 -99.5t102 -262.5zM134 350q0 -126 77 -205t193 -79q117 0 194.5 79t77.5 205t-77 206t-194 80q-116 0 -193.5 -79.5t-77.5 -206.5zM253 793v61h297v-61h-297z" />
    <glyph glyph-name="Obreve" unicode="&#x14e;" horiz-adv-x="810" 
d="M760 350q0 -159 -99 -260t-257 -101q-152 0 -253 99t-101 262q0 164 102 263t253 99t253 -99.5t102 -262.5zM134 350q0 -126 77 -205t193 -79q117 0 194.5 79t77.5 205t-77 206t-194 80q-116 0 -193.5 -79.5t-77.5 -206.5zM218 910h70q7 -36 39 -56.5t67.5 -20.5t67 20.5
t38.5 56.5h70q-6 -54 -42 -90.5t-85 -45t-98 0.5t-85 45t-42 90z" />
    <glyph glyph-name="obreve" unicode="&#x14f;" horiz-adv-x="810" 
d="M760 350q0 -159 -99 -260t-257 -101q-152 0 -253 99t-101 262q0 164 102 263t253 99t253 -99.5t102 -262.5zM134 350q0 -126 77 -205t193 -79q117 0 194.5 79t77.5 205t-77 206t-194 80q-116 0 -193.5 -79.5t-77.5 -206.5zM218 910h70q7 -36 39 -56.5t67.5 -20.5t67 20.5
t38.5 56.5h70q-6 -54 -42 -90.5t-85 -45t-98 0.5t-85 45t-42 90z" />
    <glyph glyph-name="Ohungarumlaut" unicode="&#x150;" horiz-adv-x="810" 
d="M271 769v7l59 127l72 -18v-7l-67 -109h-64zM455 769v7l59 121l71 -21v-8l-66 -99h-64zM760 350q0 -159 -99 -260t-257 -101q-152 0 -253 99t-101 262q0 164 102 263t253 99t253 -99.5t102 -262.5zM134 350q0 -126 77 -205t193 -79q117 0 194.5 79t77.5 205t-77 206
t-194 80q-116 0 -193.5 -79.5t-77.5 -206.5z" />
    <glyph glyph-name="ohungarumlaut" unicode="&#x151;" horiz-adv-x="810" 
d="M271 769v7l59 127l72 -18v-7l-67 -109h-64zM455 769v7l59 121l71 -21v-8l-66 -99h-64zM760 350q0 -159 -99 -260t-257 -101q-152 0 -253 99t-101 262q0 164 102 263t253 99t253 -99.5t102 -262.5zM134 350q0 -126 77 -205t193 -79q117 0 194.5 79t77.5 205t-77 206
t-194 80q-116 0 -193.5 -79.5t-77.5 -206.5z" />
    <glyph glyph-name="OE" unicode="&#x152;" horiz-adv-x="928" 
d="M869 1h-357q-58 -14 -109 -14q-157 0 -254.5 98t-97.5 264q0 168 99.5 264.5t259.5 96.5q56 0 106 -11h348v-70h-292v-230h276v-68h-276v-260h297v-70zM132 349q0 -133 75.5 -214.5t202.5 -81.5q47 0 90 13v564q-41 9 -89 11q-128 0 -203.5 -79.5t-75.5 -212.5z" />
    <glyph glyph-name="oe" unicode="&#x153;" horiz-adv-x="928" 
d="M869 1h-357q-58 -14 -109 -14q-157 0 -254.5 98t-97.5 264q0 168 99.5 264.5t259.5 96.5q56 0 106 -11h348v-70h-292v-230h276v-68h-276v-260h297v-70zM132 349q0 -133 75.5 -214.5t202.5 -81.5q47 0 90 13v564q-41 9 -89 11q-128 0 -203.5 -79.5t-75.5 -212.5z" />
    <glyph glyph-name="Racute" unicode="&#x154;" horiz-adv-x="672" 
d="M444 268l198 -256v-12h-88l-194 257h-183v-257h-84v701h279q106 0 172.5 -64t66.5 -161q0 -79 -46 -134.5t-121 -73.5zM176 326h196q68 0 113 42t45 109t-44.5 108.5t-113.5 41.5h-196v-301zM332 769h-66v7l75 132l72 -29v-7z" />
    <glyph glyph-name="racute" unicode="&#x155;" horiz-adv-x="672" 
d="M444 268l198 -256v-12h-88l-194 257h-183v-257h-84v701h279q106 0 172.5 -64t66.5 -161q0 -79 -46 -134.5t-121 -73.5zM176 326h196q68 0 113 42t45 109t-44.5 108.5t-113.5 41.5h-196v-301zM332 769h-66v7l75 132l72 -29v-7z" />
    <glyph glyph-name="Rcommaaccent" unicode="&#x156;" horiz-adv-x="672" 
d="M404 -131q-2 -11 -6 -24l-30 -95h-49l22 78q-35 12 -35 45q0 21 14 33.5t35 12.5q37 0 48 -34q2 -13 1 -16zM444 268l198 -256v-12h-88l-194 257h-183v-257h-84v701h279q106 0 172.5 -64t66.5 -161q0 -79 -46 -134.5t-121 -73.5zM176 326h196q68 0 113 42t45 109
t-44.5 108.5t-113.5 41.5h-196v-301z" />
    <glyph glyph-name="rcommaaccent" unicode="&#x157;" horiz-adv-x="672" 
d="M404 -131q-2 -11 -6 -24l-30 -95h-49l22 78q-35 12 -35 45q0 21 14 33.5t35 12.5q37 0 48 -34q2 -13 1 -16zM444 268l198 -256v-12h-88l-194 257h-183v-257h-84v701h279q106 0 172.5 -64t66.5 -161q0 -79 -46 -134.5t-121 -73.5zM176 326h196q68 0 113 42t45 109
t-44.5 108.5t-113.5 41.5h-196v-301z" />
    <glyph glyph-name="Rcaron" unicode="&#x158;" horiz-adv-x="672" 
d="M444 268l198 -256v-12h-88l-194 257h-183v-257h-84v701h279q106 0 172.5 -64t66.5 -161q0 -79 -46 -134.5t-121 -73.5zM176 326h196q68 0 113 42t45 109t-44.5 108.5t-113.5 41.5h-196v-301zM133 906h79l98 -92l98 92h81v-9l-139 -132h-79l-138 134v7z" />
    <glyph glyph-name="rcaron" unicode="&#x159;" horiz-adv-x="672" 
d="M444 268l198 -256v-12h-88l-194 257h-183v-257h-84v701h279q106 0 172.5 -64t66.5 -161q0 -79 -46 -134.5t-121 -73.5zM176 326h196q68 0 113 42t45 109t-44.5 108.5t-113.5 41.5h-196v-301zM133 906h79l98 -92l98 92h81v-9l-139 -132h-79l-138 134v7z" />
    <glyph glyph-name="Sacute" unicode="&#x15a;" horiz-adv-x="646" 
d="M47 191h81q2 -44 35 -75t75 -43t89 -12q48 2 87 13t70.5 42t32.5 79q0 18 -3 33.5t-11.5 27t-16 20t-23 15t-24 10.5t-29.5 8t-30 5.5t-33 4.5t-31 4q-54 6 -94.5 15.5t-79.5 29.5t-60 55.5t-21 85.5q0 66 38.5 113.5t95 68.5t120.5 21q47 1 91.5 -10t82.5 -33.5t62 -61
t26 -87.5h-78q-4 42 -33.5 69.5t-67 37.5t-81.5 10q-69 -3 -121 -33.5t-52 -93.5q0 -15 3.5 -28t7.5 -23t14 -18.5t15.5 -14t21 -11t22 -8t25.5 -5.5t24.5 -4t27 -4t25.5 -3q50 -6 82.5 -12t71.5 -19.5t61.5 -33t38 -53t15.5 -78.5q0 -71 -42.5 -119t-101 -67t-127.5 -21
q-50 -1 -98 10.5t-89 35.5t-66.5 64.5t-27.5 92.5zM341 774h-66v7l75 132l72 -29v-7z" />
    <glyph glyph-name="sacute" unicode="&#x15b;" horiz-adv-x="646" 
d="M47 191h81q2 -44 35 -75t75 -43t89 -12q48 2 87 13t70.5 42t32.5 79q0 18 -3 33.5t-11.5 27t-16 20t-23 15t-24 10.5t-29.5 8t-30 5.5t-33 4.5t-31 4q-54 6 -94.5 15.5t-79.5 29.5t-60 55.5t-21 85.5q0 66 38.5 113.5t95 68.5t120.5 21q47 1 91.5 -10t82.5 -33.5t62 -61
t26 -87.5h-78q-4 42 -33.5 69.5t-67 37.5t-81.5 10q-69 -3 -121 -33.5t-52 -93.5q0 -15 3.5 -28t7.5 -23t14 -18.5t15.5 -14t21 -11t22 -8t25.5 -5.5t24.5 -4t27 -4t25.5 -3q50 -6 82.5 -12t71.5 -19.5t61.5 -33t38 -53t15.5 -78.5q0 -71 -42.5 -119t-101 -67t-127.5 -21
q-50 -1 -98 10.5t-89 35.5t-66.5 64.5t-27.5 92.5zM341 774h-66v7l75 132l72 -29v-7z" />
    <glyph glyph-name="Scircumflex" unicode="&#x15c;" horiz-adv-x="646" 
d="M47 191h81q2 -44 35 -75t75 -43t89 -12q48 2 87 13t70.5 42t32.5 79q0 18 -3 33.5t-11.5 27t-16 20t-23 15t-24 10.5t-29.5 8t-30 5.5t-33 4.5t-31 4q-54 6 -94.5 15.5t-79.5 29.5t-60 55.5t-21 85.5q0 66 38.5 113.5t95 68.5t120.5 21q47 1 91.5 -10t82.5 -33.5t62 -61
t26 -87.5h-78q-4 42 -33.5 69.5t-67 37.5t-81.5 10q-69 -3 -121 -33.5t-52 -93.5q0 -15 3.5 -28t7.5 -23t14 -18.5t15.5 -14t21 -11t22 -8t25.5 -5.5t24.5 -4t27 -4t25.5 -3q50 -6 82.5 -12t71.5 -19.5t61.5 -33t38 -53t15.5 -78.5q0 -71 -42.5 -119t-101 -67t-127.5 -21
q-50 -1 -98 10.5t-89 35.5t-66.5 64.5t-27.5 92.5zM498 768h-79l-98 91l-98 -91h-81v8l139 132h79l138 -133v-7z" />
    <glyph glyph-name="scircumflex" unicode="&#x15d;" horiz-adv-x="646" 
d="M47 191h81q2 -44 35 -75t75 -43t89 -12q48 2 87 13t70.5 42t32.5 79q0 18 -3 33.5t-11.5 27t-16 20t-23 15t-24 10.5t-29.5 8t-30 5.5t-33 4.5t-31 4q-54 6 -94.5 15.5t-79.5 29.5t-60 55.5t-21 85.5q0 66 38.5 113.5t95 68.5t120.5 21q47 1 91.5 -10t82.5 -33.5t62 -61
t26 -87.5h-78q-4 42 -33.5 69.5t-67 37.5t-81.5 10q-69 -3 -121 -33.5t-52 -93.5q0 -15 3.5 -28t7.5 -23t14 -18.5t15.5 -14t21 -11t22 -8t25.5 -5.5t24.5 -4t27 -4t25.5 -3q50 -6 82.5 -12t71.5 -19.5t61.5 -33t38 -53t15.5 -78.5q0 -71 -42.5 -119t-101 -67t-127.5 -21
q-50 -1 -98 10.5t-89 35.5t-66.5 64.5t-27.5 92.5zM498 768h-79l-98 91l-98 -91h-81v8l139 132h79l138 -133v-7z" />
    <glyph glyph-name="Scedilla" unicode="&#x15e;" horiz-adv-x="646" 
d="M47 191h81q2 -44 35 -75t75 -43t89 -12q73 3 130.5 37t59.5 97q0 29 -12.5 51t-25.5 33.5t-46 21t-47 12t-57 8.5q-2 0 -3 0.5t-3 0.5t-3.5 0.5t-3.5 0.5q-54 6 -94.5 15.5t-79.5 29.5t-60 55.5t-21 85.5q0 66 38.5 113.5t95 68.5t120.5 21q63 2 120.5 -17.5t99 -66
t43.5 -111.5h-78q-6 61 -60 90.5t-123 29.5q-69 -3 -121 -33.5t-52 -93.5q0 -28 12.5 -48.5t27.5 -31.5t45 -20t47.5 -11.5t53.5 -7.5q50 -6 82.5 -12t71.5 -19.5t61.5 -33t38 -53t15.5 -78.5q0 -88 -69.5 -141t-163.5 -62l-16 -66q49 -2 72.5 -31t9.5 -73
q-11 -39 -50 -55.5t-82.5 -9.5t-74.5 30l4 47q27 -24 79 -24t58 34q11 33 -16.5 49t-63.5 13l21 83q-65 3 -121 23.5t-96.5 67t-42.5 111.5z" />
    <glyph glyph-name="scedilla" unicode="&#x15f;" horiz-adv-x="646" 
d="M47 191h81q2 -44 35 -75t75 -43t89 -12q73 3 130.5 37t59.5 97q0 29 -12.5 51t-25.5 33.5t-46 21t-47 12t-57 8.5q-2 0 -3 0.5t-3 0.5t-3.5 0.5t-3.5 0.5q-54 6 -94.5 15.5t-79.5 29.5t-60 55.5t-21 85.5q0 66 38.5 113.5t95 68.5t120.5 21q63 2 120.5 -17.5t99 -66
t43.5 -111.5h-78q-6 61 -60 90.5t-123 29.5q-69 -3 -121 -33.5t-52 -93.5q0 -28 12.5 -48.5t27.5 -31.5t45 -20t47.5 -11.5t53.5 -7.5q50 -6 82.5 -12t71.5 -19.5t61.5 -33t38 -53t15.5 -78.5q0 -88 -69.5 -141t-163.5 -62l-16 -66q49 -2 72.5 -31t9.5 -73
q-11 -39 -50 -55.5t-82.5 -9.5t-74.5 30l4 47q27 -24 79 -24t58 34q11 33 -16.5 49t-63.5 13l21 83q-65 3 -121 23.5t-96.5 67t-42.5 111.5z" />
    <glyph glyph-name="Scaron" unicode="&#x160;" horiz-adv-x="646" 
d="M47 191h81q2 -44 35 -75t75 -43t89 -12q48 2 87 13t70.5 42t32.5 79q0 18 -3 33.5t-11.5 27t-16 20t-23 15t-24 10.5t-29.5 8t-30 5.5t-33 4.5t-31 4q-54 6 -94.5 15.5t-79.5 29.5t-60 55.5t-21 85.5q0 66 38.5 113.5t95 68.5t120.5 21q47 1 91.5 -10t82.5 -33.5t62 -61
t26 -87.5h-78q-4 42 -33.5 69.5t-67 37.5t-81.5 10q-69 -3 -121 -33.5t-52 -93.5q0 -15 3.5 -28t7.5 -23t14 -18.5t15.5 -14t21 -11t22 -8t25.5 -5.5t24.5 -4t27 -4t25.5 -3q50 -6 82.5 -12t71.5 -19.5t61.5 -33t38 -53t15.5 -78.5q0 -71 -42.5 -119t-101 -67t-127.5 -21
q-50 -1 -98 10.5t-89 35.5t-66.5 64.5t-27.5 92.5zM148 928h79l98 -92l98 92h81v-9l-139 -132h-79l-138 134v7z" />
    <glyph glyph-name="scaron" unicode="&#x161;" horiz-adv-x="646" 
d="M47 191h81q2 -44 35 -75t75 -43t89 -12q48 2 87 13t70.5 42t32.5 79q0 18 -3 33.5t-11.5 27t-16 20t-23 15t-24 10.5t-29.5 8t-30 5.5t-33 4.5t-31 4q-54 6 -94.5 15.5t-79.5 29.5t-60 55.5t-21 85.5q0 66 38.5 113.5t95 68.5t120.5 21q47 1 91.5 -10t82.5 -33.5t62 -61
t26 -87.5h-78q-4 42 -33.5 69.5t-67 37.5t-81.5 10q-69 -3 -121 -33.5t-52 -93.5q0 -15 3.5 -28t7.5 -23t14 -18.5t15.5 -14t21 -11t22 -8t25.5 -5.5t24.5 -4t27 -4t25.5 -3q50 -6 82.5 -12t71.5 -19.5t61.5 -33t38 -53t15.5 -78.5q0 -71 -42.5 -119t-101 -67t-127.5 -21
q-50 -1 -98 10.5t-89 35.5t-66.5 64.5t-27.5 92.5zM148 928h79l98 -92l98 92h81v-9l-139 -132h-79l-138 134v7z" />
    <glyph glyph-name="Tcommaaccent" unicode="&#x162;" horiz-adv-x="529" 
d="M224 625h-206v75h493v-75h-206v-625h-11l-15 -62q49 -2 72 -31t9 -73q-12 -39 -51 -55.5t-82 -9.5t-75 30l4 47q26 -26 76.5 -26t61.5 36q11 33 -17.5 49t-63.5 13l21 82h-10v625z" />
    <glyph glyph-name="tcommaaccent" unicode="&#x163;" horiz-adv-x="529" 
d="M224 625h-206v75h493v-75h-206v-625h-11l-15 -62q49 -2 72 -31t9 -73q-12 -39 -51 -55.5t-82 -9.5t-75 30l4 47q26 -26 76.5 -26t61.5 36q11 33 -17.5 49t-63.5 13l21 82h-10v625z" />
    <glyph glyph-name="Tcaron" unicode="&#x164;" horiz-adv-x="549" 
d="M234 625h-216v75h513v-75h-216v-625h-81v625zM94 908h79l98 -92l98 92h81v-9l-139 -132h-79l-138 134v7z" />
    <glyph glyph-name="tcaron" unicode="&#x165;" horiz-adv-x="549" 
d="M234 625h-216v75h513v-75h-216v-625h-81v625zM94 908h79l98 -92l98 92h81v-9l-139 -132h-79l-138 134v7z" />
    <glyph glyph-name="Tbar" unicode="&#x166;" horiz-adv-x="549" 
d="M117 282v64h117v279h-206v75h493v-75h-206v-279h114v-64h-114v-282h-81v282h-117z" />
    <glyph glyph-name="tbar" unicode="&#x167;" horiz-adv-x="549" 
d="M117 282v64h117v279h-206v75h493v-75h-206v-279h114v-64h-114v-282h-81v282h-117z" />
    <glyph glyph-name="Utilde" unicode="&#x168;" horiz-adv-x="707" 
d="M355 -9q-117 0 -193 66t-76 181v462h84v-461q0 -81 51.5 -127t133.5 -46t133 46t51 127v461h82v-462q0 -115 -74.5 -181t-191.5 -66zM246 770l-43 22q27 56 70 71.5t101 -16.5q66 -45 101 19q6 -3 20.5 -10.5t22.5 -11.5q-22 -55 -66 -71.5t-98 14.5q-72 45 -108 -17z
" />
    <glyph glyph-name="utilde" unicode="&#x169;" horiz-adv-x="707" 
d="M355 -9q-117 0 -193 66t-76 181v462h84v-461q0 -81 51.5 -127t133.5 -46t133 46t51 127v461h82v-462q0 -115 -74.5 -181t-191.5 -66zM246 770l-43 22q27 56 70 71.5t101 -16.5q66 -45 101 19q6 -3 20.5 -10.5t22.5 -11.5q-22 -55 -66 -71.5t-98 14.5q-72 45 -108 -17z
" />
    <glyph glyph-name="Umacron" unicode="&#x16a;" horiz-adv-x="707" 
d="M355 -9q-117 0 -193 66t-76 181v462h84v-461q0 -81 51.5 -127t133.5 -46t133 46t51 127v461h82v-462q0 -115 -74.5 -181t-191.5 -66zM205 784v61h297v-61h-297z" />
    <glyph glyph-name="umacron" unicode="&#x16b;" horiz-adv-x="707" 
d="M355 -9q-117 0 -193 66t-76 181v462h84v-461q0 -81 51.5 -127t133.5 -46t133 46t51 127v461h82v-462q0 -115 -74.5 -181t-191.5 -66zM205 784v61h297v-61h-297z" />
    <glyph glyph-name="Ubreve" unicode="&#x16c;" horiz-adv-x="707" 
d="M355 -9q-117 0 -193 66t-76 181v462h84v-461q0 -81 51.5 -127t133.5 -46t133 46t51 127v461h82v-462q0 -115 -74.5 -181t-191.5 -66zM178 888h70q7 -36 39 -56.5t67.5 -20.5t67 20.5t38.5 56.5h70q-6 -54 -42 -90.5t-85 -45t-98 0.5t-85 45t-42 90z" />
    <glyph glyph-name="ubreve" unicode="&#x16d;" horiz-adv-x="707" 
d="M355 -9q-117 0 -193 66t-76 181v462h84v-461q0 -81 51.5 -127t133.5 -46t133 46t51 127v461h82v-462q0 -115 -74.5 -181t-191.5 -66zM178 888h70q7 -36 39 -56.5t67.5 -20.5t67 20.5t38.5 56.5h70q-6 -54 -42 -90.5t-85 -45t-98 0.5t-85 45t-42 90z" />
    <glyph glyph-name="Uring" unicode="&#x16e;" horiz-adv-x="707" 
d="M355 -9q-117 0 -193 66t-76 181v462h84v-461q0 -81 51.5 -127t133.5 -46t133 46t51 127v461h82v-462q0 -115 -74.5 -181t-191.5 -66zM466 828q0 -49 -35 -77t-77.5 -28t-77.5 28t-35 77t35 77t77.5 28t77.5 -28t35 -77zM288 828q0 -28 20.5 -44.5t45 -16.5t45 16.5
t20.5 44.5t-20.5 44.5t-45 16.5t-45 -16.5t-20.5 -44.5z" />
    <glyph glyph-name="uring" unicode="&#x16f;" horiz-adv-x="707" 
d="M355 -9q-117 0 -193 66t-76 181v462h84v-461q0 -81 51.5 -127t133.5 -46t133 46t51 127v461h82v-462q0 -115 -74.5 -181t-191.5 -66zM466 828q0 -49 -35 -77t-77.5 -28t-77.5 28t-35 77t35 77t77.5 28t77.5 -28t35 -77zM288 828q0 -28 20.5 -44.5t45 -16.5t45 16.5
t20.5 44.5t-20.5 44.5t-45 16.5t-45 -16.5t-20.5 -44.5z" />
    <glyph glyph-name="Uhungarumlaut" unicode="&#x170;" horiz-adv-x="707" 
d="M355 -9q-117 0 -193 66t-76 181v462h84v-461q0 -81 51.5 -127t133.5 -46t133 46t51 127v461h82v-462q0 -115 -74.5 -181t-191.5 -66zM222 794v7l59 127l72 -18v-7l-67 -109h-64zM406 794v7l59 121l71 -21v-8l-66 -99h-64z" />
    <glyph glyph-name="uhungarumlaut" unicode="&#x171;" horiz-adv-x="707" 
d="M355 -9q-117 0 -193 66t-76 181v462h84v-461q0 -81 51.5 -127t133.5 -46t133 46t51 127v461h82v-462q0 -115 -74.5 -181t-191.5 -66zM222 794v7l59 127l72 -18v-7l-67 -109h-64zM406 794v7l59 121l71 -21v-8l-66 -99h-64z" />
    <glyph glyph-name="Uogonek" unicode="&#x172;" horiz-adv-x="708" 
d="M355 -9q-117 0 -193 66t-76 181v462h84v-461q0 -80 51 -126.5t134 -46.5q82 0 133 46t51 127v461h82v-462q0 -82 -38 -139t-105 -85q-27 -20 -39.5 -49t0.5 -58q13 -24 38.5 -29t49 1.5t46.5 18.5l10 -53q-25 -14 -54.5 -21.5t-59.5 -6.5t-55 17t-36 47q-27 58 25 115
q-28 -5 -48 -5z" />
    <glyph glyph-name="uogonek" unicode="&#x173;" horiz-adv-x="708" 
d="M355 -9q-117 0 -193 66t-76 181v462h84v-461q0 -80 51 -126.5t134 -46.5q82 0 133 46t51 127v461h82v-462q0 -82 -38 -139t-105 -85q-27 -20 -39.5 -49t0.5 -58q13 -24 38.5 -29t49 1.5t46.5 18.5l10 -53q-25 -14 -54.5 -21.5t-59.5 -6.5t-55 17t-36 47q-27 58 25 115
q-28 -5 -48 -5z" />
    <glyph glyph-name="Wcircumflex" unicode="&#x174;" horiz-adv-x="965" 
d="M462 687h41l183 -544h2l76 299q62 202 80 258h87v-11l-215 -693h-58l-175 514h-1l-173 -514h-58l-218 691v13h89l80 -259l80 -298h1zM655 765h-79l-98 91l-98 -91h-81v8l139 132h79l138 -133v-7z" />
    <glyph glyph-name="wcircumflex" unicode="&#x175;" horiz-adv-x="965" 
d="M462 687h41l183 -544h2l76 299q62 202 80 258h87v-11l-215 -693h-58l-175 514h-1l-173 -514h-58l-218 691v13h89l80 -259l80 -298h1zM655 765h-79l-98 91l-98 -91h-81v8l139 132h79l138 -133v-7z" />
    <glyph glyph-name="Ycircumflex" unicode="&#x176;" horiz-adv-x="628" 
d="M313 366h3l101 170l102 164h89v-12l-252 -401v-287h-84v287l-253 402v11h91l102 -163zM488 765h-79l-98 91l-98 -91h-81v8l139 132h79l138 -133v-7z" />
    <glyph glyph-name="ycircumflex" unicode="&#x177;" horiz-adv-x="628" 
d="M313 366h3l101 170l102 164h89v-12l-252 -401v-287h-84v287l-253 402v11h91l102 -163zM488 765h-79l-98 91l-98 -91h-81v8l139 132h79l138 -133v-7z" />
    <glyph glyph-name="Ydieresis" unicode="&#x178;" horiz-adv-x="628" 
d="M313 366h3l101 170l102 164h89v-12l-252 -401v-287h-84v287l-253 402v11h91l102 -163zM430 752q-21 0 -35 12.5t-14 32.5q0 21 14 33.5t35 12.5t35 -12.5t14 -33.5q0 -20 -14 -32.5t-35 -12.5zM195 752q-21 0 -35 12.5t-14 32.5q0 21 14 33.5t35 12.5t35.5 -12.5
t14.5 -33.5q0 -20 -14.5 -32.5t-35.5 -12.5z" />
    <glyph glyph-name="Zacute" unicode="&#x179;" horiz-adv-x="584" 
d="M548 700v-13l-396 -611h397v-76h-528v11l396 615h-369v74h500zM313 776h-66v7l75 132l72 -29v-7z" />
    <glyph glyph-name="zacute" unicode="&#x17a;" horiz-adv-x="584" 
d="M548 700v-13l-396 -611h397v-76h-528v11l396 615h-369v74h500zM313 776h-66v7l75 132l72 -29v-7z" />
    <glyph glyph-name="Zdotaccent" unicode="&#x17b;" horiz-adv-x="584" 
d="M548 700v-13l-396 -611h397v-76h-528v11l396 615h-369v74h500zM298 775q-21 0 -35 12.5t-14 32.5q0 21 14 34t35 13t35.5 -13t14.5 -34q0 -20 -14.5 -32.5t-35.5 -12.5z" />
    <glyph glyph-name="zdotaccent" unicode="&#x17c;" horiz-adv-x="584" 
d="M548 700v-13l-396 -611h397v-76h-528v11l396 615h-369v74h500zM298 775q-21 0 -35 12.5t-14 32.5q0 21 14 34t35 13t35.5 -13t14.5 -34q0 -20 -14.5 -32.5t-35.5 -12.5z" />
    <glyph glyph-name="Zcaron" unicode="&#x17d;" horiz-adv-x="584" 
d="M548 700v-13l-396 -611h397v-76h-528v11l396 615h-369v74h500zM117 923h79l98 -92l98 92h81v-9l-139 -132h-79l-138 134v7z" />
    <glyph glyph-name="zcaron" unicode="&#x17e;" horiz-adv-x="584" 
d="M548 700v-13l-396 -611h397v-76h-528v11l396 615h-369v74h500zM117 923h79l98 -92l98 92h81v-9l-139 -132h-79l-138 134v7z" />
    <glyph glyph-name="longs" unicode="&#x17f;" horiz-adv-x="410" 
d="M127 0v424h-103v58h104v70q0 65 22 108.5t60.5 60.5t87 14.5t103.5 -23.5l-11 -59q-50 18 -91 19t-67.5 -30.5t-26.5 -91.5v-550h-78z" />
    <glyph glyph-name="florin" unicode="&#x192;" horiz-adv-x="547" 
d="M309 310v-348q0 -64 -22.5 -106.5t-61 -59t-86.5 -13.5t-101 24l9 60q48 -20 89 -22t68 28.5t27 90.5v346h-161v58h161v165q0 83 40.5 130.5t103 50.5t137.5 -25l-10 -60q-51 23 -93.5 23.5t-71 -29t-28.5 -89.5v-166h170v-58h-170z" />
    <glyph glyph-name="Aringacute" unicode="&#x1fa;" 
d="M288 735q0 -33 33 -46.5t66 0t33 46.5t-33 46t-66 0t-33 -46zM357 557h-8l-143 -312h294zM528 173h-350l-82 -173h-87v11l301 640q-69 21 -69 84q0 43 35.5 67.5t77.5 24.5t77.5 -24.5t35.5 -67.5q0 -64 -70 -84l299 -640v-11h-86zM382 858h-64v6l74 95l69 -22v-6z" />
    <glyph glyph-name="aringacute" unicode="&#x1fb;" 
d="M288 735q0 -33 33 -46.5t66 0t33 46.5t-33 46t-66 0t-33 -46zM357 557h-8l-143 -312h294zM528 173h-350l-82 -173h-87v11l301 640q-69 21 -69 84q0 43 35.5 67.5t77.5 24.5t77.5 -24.5t35.5 -67.5q0 -64 -70 -84l299 -640v-11h-86zM382 858h-64v6l74 95l69 -22v-6z" />
    <glyph glyph-name="AEacute" unicode="&#x1fc;" horiz-adv-x="825" 
d="M191 200l-102 -200h-81v12l356 686h397v-74h-285v-226h269v-71h-269v-254h290v-73h-363v200h-212zM405 623l-186 -353h184l3 353h-1zM511 768h-66v7l75 132l72 -29v-7z" />
    <glyph glyph-name="aeacute" unicode="&#x1fd;" horiz-adv-x="825" 
d="M191 200l-102 -200h-81v12l356 686h397v-74h-285v-226h269v-71h-269v-254h290v-73h-363v200h-212zM405 623l-186 -353h184l3 353h-1zM511 768h-66v7l75 132l72 -29v-7z" />
    <glyph glyph-name="Oslashacute" unicode="&#x1fe;" horiz-adv-x="808" 
d="M621 638q137 -100 137 -289q0 -162 -102 -261t-252 -99q-78 0 -148 32l-44 -73h-81v8l61 101q-141 99 -141 292q0 163 101 262t252 99q85 0 156 -35l42 74h81v-8zM295 94q51 -25 110 -25q116 0 192.5 77.5t76.5 202.5q0 144 -100 216zM520 603q-55 26 -116 26
q-116 0 -193 -77.5t-77 -202.5q0 -148 105 -221zM436 792h-66v7l75 132l72 -29v-7z" />
    <glyph glyph-name="oslashacute" unicode="&#x1ff;" horiz-adv-x="808" 
d="M621 638q137 -100 137 -289q0 -162 -102 -261t-252 -99q-78 0 -148 32l-44 -73h-81v8l61 101q-141 99 -141 292q0 163 101 262t252 99q85 0 156 -35l42 74h81v-8zM295 94q51 -25 110 -25q116 0 192.5 77.5t76.5 202.5q0 144 -100 216zM520 603q-55 26 -116 26
q-116 0 -193 -77.5t-77 -202.5q0 -148 105 -221zM436 792h-66v7l75 132l72 -29v-7z" />
    <glyph glyph-name="Scommaaccent" unicode="&#x218;" horiz-adv-x="646" 
d="M379 -142q-1 -10 -6 -24l-30 -95h-49l22 78q-35 12 -35 45q0 21 14 33.5t35 12.5q37 0 48 -34q2 -13 1 -16zM47 191h81q2 -44 35 -75t75 -43t89 -12q48 2 87 13t70.5 42t32.5 79q0 18 -3 33.5t-11.5 27t-16 20t-23 15t-24 10.5t-29.5 8t-30 5.5t-33 4.5t-31 4
q-54 6 -94.5 15.5t-79.5 29.5t-60 55.5t-21 85.5q0 66 38.5 113.5t95 68.5t120.5 21q47 1 91.5 -10t82.5 -33.5t62 -61t26 -87.5h-78q-4 42 -33.5 69.5t-67 37.5t-81.5 10q-69 -3 -121 -33.5t-52 -93.5q0 -15 3.5 -28t7.5 -23t14 -18.5t15.5 -14t21 -11t22 -8t25.5 -5.5
t24.5 -4t27 -4t25.5 -3q50 -6 82.5 -12t71.5 -19.5t61.5 -33t38 -53t15.5 -78.5q0 -71 -42.5 -119t-101 -67t-127.5 -21q-50 -1 -98 10.5t-89 35.5t-66.5 64.5t-27.5 92.5z" />
    <glyph glyph-name="scommaaccent" unicode="&#x219;" horiz-adv-x="646" 
d="M379 -142q-1 -10 -6 -24l-30 -95h-49l22 78q-35 12 -35 45q0 21 14 33.5t35 12.5q37 0 48 -34q2 -13 1 -16zM47 191h81q2 -44 35 -75t75 -43t89 -12q48 2 87 13t70.5 42t32.5 79q0 18 -3 33.5t-11.5 27t-16 20t-23 15t-24 10.5t-29.5 8t-30 5.5t-33 4.5t-31 4
q-54 6 -94.5 15.5t-79.5 29.5t-60 55.5t-21 85.5q0 66 38.5 113.5t95 68.5t120.5 21q47 1 91.5 -10t82.5 -33.5t62 -61t26 -87.5h-78q-4 42 -33.5 69.5t-67 37.5t-81.5 10q-69 -3 -121 -33.5t-52 -93.5q0 -15 3.5 -28t7.5 -23t14 -18.5t15.5 -14t21 -11t22 -8t25.5 -5.5
t24.5 -4t27 -4t25.5 -3q50 -6 82.5 -12t71.5 -19.5t61.5 -33t38 -53t15.5 -78.5q0 -71 -42.5 -119t-101 -67t-127.5 -21q-50 -1 -98 10.5t-89 35.5t-66.5 64.5t-27.5 92.5z" />
    <glyph glyph-name="uni021A" unicode="&#x21a;" horiz-adv-x="549" 
d="M329 -142q-1 -10 -6 -24l-30 -95h-49l22 78q-35 12 -35 45q0 21 14 33.5t35 12.5q37 0 48 -34q2 -13 1 -16zM234 625h-216v75h513v-75h-216v-625h-81v625z" />
    <glyph glyph-name="uni021B" unicode="&#x21b;" horiz-adv-x="549" 
d="M329 -142q-1 -10 -6 -24l-30 -95h-49l22 78q-35 12 -35 45q0 21 14 33.5t35 12.5q37 0 48 -34q2 -13 1 -16zM234 625h-216v75h513v-75h-216v-625h-81v625z" />
    <glyph glyph-name="circumflex" unicode="&#x2c6;" horiz-adv-x="494" 
d="M426 563h-79l-98 91l-98 -91h-81v8l139 132h79l138 -133v-7z" />
    <glyph glyph-name="caron" unicode="&#x2c7;" horiz-adv-x="531" 
d="M86 702h79l98 -92l98 92h81v-9l-139 -132h-79l-138 134v7z" />
    <glyph glyph-name="breve" unicode="&#x2d8;" horiz-adv-x="529" 
d="M86 703h70q7 -36 39 -56.5t67.5 -20.5t67 20.5t38.5 56.5h70q-6 -54 -42 -90.5t-85 -45t-98 0.5t-85 45t-42 90z" />
    <glyph glyph-name="dotaccent" unicode="&#x2d9;" horiz-adv-x="321" 
d="M146 614q-21 0 -35 12.5t-14 32.5q0 21 14 34t35 13t35.5 -13t14.5 -34q0 -20 -14.5 -32.5t-35.5 -12.5z" />
    <glyph glyph-name="ring" unicode="&#x2da;" horiz-adv-x="379" 
d="M300 614q0 -49 -35 -77t-77.5 -28t-77.5 28t-35 77t35 77t77.5 28t77.5 -28t35 -77zM122 614q0 -28 20.5 -44.5t45 -16.5t45 16.5t20.5 44.5t-20.5 44.5t-45 16.5t-45 -16.5t-20.5 -44.5z" />
    <glyph glyph-name="ogonek" unicode="&#x2db;" horiz-adv-x="364" 
d="M145 7h60q-33 -17 -51.5 -53t-2.5 -65q12 -24 38.5 -29t49.5 2t46 19l10 -53q-25 -14 -54.5 -21t-59 -5.5t-54.5 18.5t-36 48q-15 38 1 76t53 63z" />
    <glyph glyph-name="tilde" unicode="&#x2dc;" horiz-adv-x="420" 
d="M104 612l-43 22q27 56 70 71.5t101 -16.5q66 -45 101 19q6 -3 20.5 -10.5t22.5 -11.5q-22 -55 -66 -71.5t-98 14.5q-72 45 -108 -17z" />
    <glyph glyph-name="hungarumlaut" unicode="&#x2dd;" horiz-adv-x="518" 
d="M104 568v7l59 127l72 -18v-7l-67 -109h-64zM288 568v7l59 121l71 -21v-8l-66 -99h-64z" />
    <glyph glyph-name="afii10023" unicode="&#x401;" horiz-adv-x="569" 
d="M500 700v-73h-323v-229h312v-73h-312v-248h334v-77h-418v700h407zM416 766q-21 0 -35 12.5t-14 32.5q0 21 14 33.5t35 12.5t35 -12.5t14 -33.5q0 -20 -14 -32.5t-35 -12.5zM181 766q-21 0 -35 12.5t-14 32.5q0 21 14 33.5t35 12.5t35.5 -12.5t14.5 -33.5
q0 -20 -14.5 -32.5t-35.5 -12.5z" />
    <glyph glyph-name="afii10051" unicode="&#x402;" horiz-adv-x="742" 
d="M695 115q0 -117 -47 -162.5t-155 -26.5l3 60q75 -13 98 17.5t23 112.5v153q0 67 -42 104.5t-110 38.5q-67 0 -115.5 -42t-50.5 -104v-266h-81v627h-200v73h516v-73h-235v-237q23 45 74 67.5t114 22.5q97 0 152.5 -58t55.5 -153v-154z" />
    <glyph glyph-name="afii10052" unicode="&#x403;" horiz-adv-x="516" 
d="M501 626h-325v-626h-83v700h408v-74zM321 769h-65v7l94 147l71 -27v-7z" />
    <glyph glyph-name="afii10053" unicode="&#x404;" horiz-adv-x="760" 
d="M402 633q-112 1 -187.5 -68t-82.5 -179h311v-75h-310q8 -109 83.5 -176.5t187.5 -67.5q81 0 145 40.5t90 114.5h82q-29 -112 -117.5 -171.5t-199.5 -59.5q-151 0 -252.5 99t-101.5 260t100.5 261t251.5 99q107 -2 194 -59t118 -162h-81q-63 144 -231 144z" />
    <glyph glyph-name="afii10054" unicode="&#x405;" horiz-adv-x="646" 
d="M47 191h81q2 -44 35 -75t75 -43t89 -12q48 2 87 13t70.5 42t32.5 79q0 18 -3 33.5t-11.5 27t-16 20t-23 15t-24 10.5t-29.5 8t-30 5.5t-33 4.5t-31 4q-54 6 -94.5 15.5t-79.5 29.5t-60 55.5t-21 85.5q0 66 38.5 113.5t95 68.5t120.5 21q47 1 91.5 -10t82.5 -33.5t62 -61
t26 -87.5h-78q-4 42 -33.5 69.5t-67 37.5t-81.5 10q-69 -3 -121 -33.5t-52 -93.5q0 -15 3.5 -28t7.5 -23t14 -18.5t15.5 -14t21 -11t22 -8t25.5 -5.5t24.5 -4t27 -4t25.5 -3q50 -6 82.5 -12t71.5 -19.5t61.5 -33t38 -53t15.5 -78.5q0 -71 -42.5 -119t-101 -67t-127.5 -21
q-50 -1 -98 10.5t-89 35.5t-66.5 64.5t-27.5 92.5z" />
    <glyph glyph-name="afii10055" unicode="&#x406;" horiz-adv-x="400" 
d="M242 67h121v-67h-326v67h121v567h-113v66h310v-66h-113v-567z" />
    <glyph glyph-name="afii10056" unicode="&#x407;" horiz-adv-x="400" 
d="M242 67h121v-67h-326v67h121v567h-113v66h310v-66h-113v-567zM322 758q-21 0 -35 12.5t-14 32.5q0 21 14 33.5t35 12.5t35 -12.5t14 -33.5q0 -20 -14 -32.5t-35 -12.5zM87 758q-21 0 -35 12.5t-14 32.5q0 21 14 33.5t35 12.5t35.5 -12.5t14.5 -33.5q0 -20 -14.5 -32.5
t-35.5 -12.5z" />
    <glyph glyph-name="afii10057" unicode="&#x408;" horiz-adv-x="639" 
d="M553 700v-465q0 -113 -74.5 -179t-188.5 -66q-113 0 -184.5 66.5t-71.5 178.5v73h79v-72q0 -81 48 -125.5t129 -44.5t130 45t49 125v390h-171v74h255z" />
    <glyph glyph-name="afii10058" unicode="&#x409;" horiz-adv-x="989" 
d="M564 386v-312h139q80 0 127.5 42t47.5 114q0 78 -47.5 117t-127.5 39h-139zM564 460h152q110 0 176 -65.5t66 -164.5q0 -101 -69 -165.5t-174 -64.5h-230v625h-207q-7 -67 -20.5 -200.5t-20.5 -199.5q-4 -35 -8 -59.5t-10 -50t-14 -42.5t-19.5 -33t-26.5 -24.5t-35.5 -14
t-46.5 -5t-58 5.5l1 62q41 -7 66 -0.5t38.5 33.5t17.5 47t10 71q1 3 1 5t0.5 5t0.5 5l52 470h358v-240z" />
    <glyph glyph-name="afii10059" unicode="&#x40a;" horiz-adv-x="992" 
d="M565 700v-264h152q111 0 177.5 -56.5t66.5 -152.5q0 -104 -67 -165.5t-178 -61.5h-233v354h-307v-354h-83v700h83v-269h307v269h82zM716 361h-151v-287h151q75 1 120.5 42.5t42.5 110.5q-1 64 -46.5 99t-116.5 35z" />
    <glyph glyph-name="afii10060" unicode="&#x40b;" horiz-adv-x="746" 
d="M695 0h-78v269q0 67 -42 105t-110 39q-66 0 -115 -44t-51 -107v-262h-81v628h-200v72h516v-72h-235v-239q50 92 188 92q97 -1 152.5 -59t55.5 -153v-269z" />
    <glyph glyph-name="afii10061" unicode="&#x40c;" horiz-adv-x="666" 
d="M354 769h-66v7l95 147l71 -27v-7zM176 700v-320q126 0 159 20q50 30 88 169q23 78 68 112.5t137 17.5v-56q-57 6 -85.5 -17t-45.5 -81q-41 -142 -94 -188l244 -345v-12h-95l-222 323q-44 -13 -154 -13v-310h-83v700h83z" />
    <glyph glyph-name="afii10062" unicode="&#x40e;" horiz-adv-x="611" 
d="M159 887l55 6q6 -35 30 -55t62 -21q37 0 63.5 20t33.5 56q8 0 52 -6q-7 -63 -44 -99.5t-104 -36.5q-63 0 -102 36.5t-46 99.5zM222 139l44 87l-261 464v10h93l211 -389h3l190 389h90v-8l-287 -568q-22 -46 -39.5 -71.5t-45.5 -44.5t-67 -18t-94 20l12 66q99 -49 151 63z
" />
    <glyph glyph-name="afii10145" unicode="&#x40f;" horiz-adv-x="723" 
d="M325 -142v142h-232v700h84v-623h370v623h83v-700h-225v-142h-80z" />
    <glyph glyph-name="afii10017" unicode="&#x410;" 
d="M528 173h-350l-82 -173h-87v11l326 692h38l323 -692v-11h-86zM353 572l-147 -327h294z" />
    <glyph glyph-name="afii10018" unicode="&#x411;" horiz-adv-x="656" 
d="M372 351h-197v-277h197q79 0 120.5 37t41.5 102q0 61 -42 99.5t-120 38.5zM175 626v-203h198q119 0 181.5 -57t62.5 -152t-63.5 -154t-180.5 -60h-280v700h464v-74h-382z" />
    <glyph glyph-name="afii10019" unicode="&#x412;" horiz-adv-x="669" 
d="M586 513q0 -50 -24 -89t-70 -57q60 -17 93 -61t33 -106q0 -93 -61 -145t-161 -52h-303v700h273q100 0 160 -47t60 -143zM361 629h-184v-233h172q154 0 154 114q1 60 -38 89.5t-104 29.5zM534 200q5 124 -185 124h-172v-247h202q70 0 112 31t43 92z" />
    <glyph glyph-name="afii10020" unicode="&#x413;" horiz-adv-x="516" 
d="M501 626h-325v-626h-83v700h408v-74z" />
    <glyph glyph-name="afii10021" unicode="&#x414;" horiz-adv-x="725" 
d="M272 627l-49 -445q-9 -86 -47 -111h353v556h-257zM24 72h22q50 1 68 27.5t26 86.5l59 514h411v-628h76v-186h-72v114h-517v-114h-73v186z" />
    <glyph glyph-name="afii10022" unicode="&#x415;" horiz-adv-x="569" 
d="M500 700v-73h-323v-229h312v-73h-312v-248h334v-77h-418v700h407z" />
    <glyph glyph-name="afii10024" unicode="&#x416;" horiz-adv-x="974" 
d="M956 0h-95q-18 26 -98 143t-123 180q-44 -19 -111 -19v-304h-84v304q-66 0 -110 19q-74 -107 -222 -323h-95v12q45 63 129 180t118 165q-54 47 -94 189q-17 56 -47.5 77.5t-86.5 14.5v61q86 14 136.5 -16.5t72.5 -113.5q11 -42 17.5 -63t26 -55.5t42.5 -47.5
q41 -24 113 -24v321h84v-321q73 0 114 24q7 4 14 10.5t12.5 12.5t11.5 16t9.5 16.5t8.5 19t7.5 18.5t7 20t5.5 18t5.5 19t4.5 16q21 83 71.5 113.5t136.5 16.5v-61q-56 7 -86.5 -14.5t-47.5 -77.5q-14 -48 -23 -74t-27.5 -60.5t-41.5 -54.5q230 -324 245 -345v-12z" />
    <glyph glyph-name="afii10025" unicode="&#x417;" horiz-adv-x="588" 
d="M137 539h-75q-2 88 62.5 133t158.5 45q96 0 157.5 -53t61.5 -137q0 -50 -27.5 -89t-73.5 -58q66 -22 102 -69t36 -117q0 -100 -70.5 -155.5t-185.5 -55.5q-108 0 -176 58.5t-68 164.5h74q0 -71 49 -111t121 -40q75 0 124 37t49 107q0 65 -50.5 104t-122.5 39h-48v69h47
q58 0 100.5 31t42.5 84q0 58 -41.5 90t-100.5 32q-61 0 -103.5 -27t-42.5 -82z" />
    <glyph glyph-name="afii10026" unicode="&#x418;" horiz-adv-x="746" 
d="M577 529l-457 -530h-27v702h84v-328l-9 -201l456 530h29v-702h-83v337z" />
    <glyph glyph-name="afii10027" unicode="&#x419;" horiz-adv-x="746" 
d="M240 884l58 7q6 -36 31.5 -55.5t65.5 -21.5q37 0 64 20t34 57q47 -6 55 -7q-7 -64 -48.5 -101t-104.5 -37q-60 0 -104 37t-51 101zM120 -1l457 530l-7 -192v-337h83v702h-29l-456 -530l9 201v328h-84v-702h27z" />
    <glyph glyph-name="afii10028" unicode="&#x41a;" horiz-adv-x="666" 
d="M176 700v-320q126 0 159 20q50 30 88 169q23 78 68 112.5t137 17.5v-56q-57 6 -85.5 -17t-45.5 -81q-41 -142 -94 -188l244 -345v-12h-95l-222 323q-44 -13 -154 -13v-310h-83v700h83z" />
    <glyph glyph-name="afii10029" unicode="&#x41b;" horiz-adv-x="723" 
d="M278 625l-48 -455q-11 -108 -57 -146.5t-155 -21.5l1 62q67 -11 93.5 16t34.5 95l58 525h425v-700h-83v625h-269z" />
    <glyph glyph-name="afii10030" unicode="&#x41c;" horiz-adv-x="827" 
d="M414 310l288 391h32v-701h-84v505l-230 -316h-13l-230 316v-505h-84v701h33z" />
    <glyph glyph-name="afii10031" unicode="&#x41d;" horiz-adv-x="723" 
d="M630 0h-84v328h-370v-328h-83v700h83v-295h370v295h84v-700z" />
    <glyph glyph-name="afii10032" unicode="&#x41e;" horiz-adv-x="810" 
d="M760 350q0 -159 -99 -260t-257 -101q-152 0 -253 99t-101 262q0 164 102 263t253 99t253 -99.5t102 -262.5zM134 350q0 -126 77 -205t193 -79q117 0 194.5 79t77.5 205t-77 206t-194 80q-116 0 -193.5 -79.5t-77.5 -206.5z" />
    <glyph glyph-name="afii10033" unicode="&#x41f;" horiz-adv-x="723" 
d="M93 700h537v-700h-84v623h-369v-623h-84v700z" />
    <glyph glyph-name="afii10034" unicode="&#x420;" horiz-adv-x="650" 
d="M176 1h-83v700h88h104h88q110 0 177.5 -68.5t67.5 -171.5q0 -102 -68 -170t-177 -68h-197v-222zM175 298h198q70 0 117 46.5t47 118.5q0 71 -46 117.5t-118 46.5h-198v-329z" />
    <glyph glyph-name="afii10035" unicode="&#x421;" horiz-adv-x="762" 
d="M50 350q0 161 101.5 260.5t252.5 97.5q107 0 194 -57t117 -162h-81q-32 70 -92 106t-138 36q-119 2 -194 -77.5t-75 -203.5q0 -120 74.5 -200.5t193.5 -80.5q82 0 145 40.5t90 114.5h81q-29 -113 -116.5 -172.5t-198.5 -59.5q-150 0 -252 98.5t-102 259.5z" />
    <glyph glyph-name="afii10036" unicode="&#x422;" horiz-adv-x="549" 
d="M234 625h-216v75h513v-75h-216v-625h-81v625z" />
    <glyph glyph-name="afii10037" unicode="&#x423;" horiz-adv-x="614" 
d="M224 139l44 87l-261 464v10h93l211 -389h3l190 389h90v-8l-287 -568q-21 -44 -41.5 -72t-49.5 -47t-67.5 -18t-87.5 21l12 68q99 -49 151 63z" />
    <glyph glyph-name="afii10038" unicode="&#x424;" horiz-adv-x="885" 
d="M741 351q0 56 -21.5 97t-60 62.5t-82 31.5t-96.5 11v-405q260 8 260 203zM144 351q0 -195 261 -203v405q-53 -1 -97 -11t-82.5 -31.5t-60 -62.5t-21.5 -97zM404 -1v79q-70 1 -129.5 16.5t-109 46.5t-77.5 84.5t-28 125.5t28 125.5t77.5 84.5t108.5 46.5t129 17.5v76h79
v-76q72 -2 131 -17t108 -45.5t76.5 -84.5t27.5 -127t-28 -127t-77.5 -84.5t-108.5 -45.5t-129 -16v-79h-78z" />
    <glyph glyph-name="afii10039" unicode="&#x425;" horiz-adv-x="632" 
d="M316 423h2l98 149l90 128h89v-11l-228 -320l254 -358v-11h-91l-116 164l-96 146h-3l-94 -144l-117 -166h-92v12l254 357l-228 319v12h90l91 -130z" />
    <glyph glyph-name="afii10040" unicode="&#x426;" horiz-adv-x="728" 
d="M621 0h-528v700h84v-623h353v623h84v-628h75v-184h-68v112z" />
    <glyph glyph-name="afii10041" unicode="&#x427;" horiz-adv-x="634" 
d="M541 0h-83v262q-205 -30 -310 47t-105 287v103h84v-103q0 -169 80.5 -225.5t250.5 -30.5v359h83v-699z" />
    <glyph glyph-name="afii10042" unicode="&#x428;" horiz-adv-x="1028" 
d="M93 0v700h83v-623h294v623h84v-623h297v623h84v-700h-842z" />
    <glyph glyph-name="afii10043" unicode="&#x429;" horiz-adv-x="1039" 
d="M93 0v700h85v-623h286v623h84v-623h293v623h83v-628h76v-183h-69v111h-838z" />
    <glyph glyph-name="afii10044" unicode="&#x42a;" horiz-adv-x="705" 
d="M429 386h-193v-312h193q71 0 117.5 44.5t46.5 114.5q-1 68 -47 110.5t-117 42.5zM22 629v71h214v-240h194q109 0 176 -64t67 -163q0 -100 -67.5 -166.5t-175.5 -66.5h-276v629h-132z" />
    <glyph glyph-name="afii10045" unicode="&#x42b;" horiz-adv-x="904" 
d="M174 700v-52v-188h193q115 0 182 -70t61 -173q-5 -95 -71.5 -156t-171.5 -61h-274v700h81zM367 386h-47h-146v-312h180q77 0 125 40t51 112q2 70 -43.5 115t-119.5 45zM811 700v-700h-83v700h83z" />
    <glyph glyph-name="afii10046" unicode="&#x42c;" horiz-adv-x="643" 
d="M174 700v-240h193q110 0 177 -64t67 -163q1 -100 -67 -166.5t-177 -66.5h-274v700h81zM367 386h-193v-312h193q71 0 117.5 45t45.5 114q0 69 -45.5 111t-117.5 42z" />
    <glyph glyph-name="afii10047" unicode="&#x42d;" horiz-adv-x="760" 
d="M359 633q-78 0 -139.5 -37.5t-91.5 -106.5h-82q31 105 118 162t195 59q150 1 250.5 -99t100.5 -261t-101.5 -260t-252.5 -99q-111 0 -199.5 59.5t-117.5 171.5h82q26 -74 90 -114.5t145 -40.5q111 0 184.5 69t81.5 178h-305v71h306q-6 110 -79.5 179.5t-184.5 68.5z" />
    <glyph glyph-name="afii10048" unicode="&#x42e;" horiz-adv-x="1060" 
d="M1010 350q0 -164 -102 -263t-253 -98q-143 0 -241.5 90t-108.5 238h-128v-317h-84v700h84v-306h129q14 144 112.5 231t238.5 86q151 -1 252 -99.5t101 -261.5zM386 350q0 -127 76.5 -204.5t193.5 -77.5t193.5 77.5t76.5 204.5q0 126 -77 203.5t-194 77.5t-193 -77.5
t-76 -203.5z" />
    <glyph glyph-name="afii10049" unicode="&#x42f;" horiz-adv-x="672" 
d="M30 13l199 253q-76 18 -122 74.5t-46 135.5q0 97 66 161t173 64h279v-700h-84v254h-183l-191 -254h-91v12zM300 327h196v300h-196q-68 0 -113 -41.5t-45 -108.5t44.5 -108.5t113.5 -41.5z" />
    <glyph glyph-name="afii10065" unicode="&#x430;" 
d="M528 173h-350l-82 -173h-87v11l326 692h38l323 -692v-11h-86zM353 572l-147 -327h294z" />
    <glyph glyph-name="afii10066" unicode="&#x431;" horiz-adv-x="656" 
d="M372 351h-197v-277h197q79 0 120.5 37t41.5 102q0 61 -42 99.5t-120 38.5zM175 626v-203h198q119 0 181.5 -57t62.5 -152t-63.5 -154t-180.5 -60h-280v700h464v-74h-382z" />
    <glyph glyph-name="afii10067" unicode="&#x432;" horiz-adv-x="669" 
d="M586 513q0 -50 -24 -89t-70 -57q60 -17 93 -61t33 -106q0 -93 -61 -145t-161 -52h-303v700h273q100 0 160 -47t60 -143zM361 629h-184v-233h172q154 0 154 114q1 60 -38 89.5t-104 29.5zM534 200q5 124 -185 124h-172v-247h202q70 0 112 31t43 92z" />
    <glyph glyph-name="afii10068" unicode="&#x433;" horiz-adv-x="516" 
d="M501 626h-325v-626h-83v700h408v-74z" />
    <glyph glyph-name="afii10069" unicode="&#x434;" horiz-adv-x="725" 
d="M272 627l-49 -445q-9 -86 -47 -111h353v556h-257zM24 72h22q50 1 68 27.5t26 86.5l59 514h411v-628h76v-186h-72v114h-517v-114h-73v186z" />
    <glyph glyph-name="afii10070" unicode="&#x435;" horiz-adv-x="569" 
d="M500 700v-73h-323v-229h312v-73h-312v-248h334v-77h-418v700h407z" />
    <glyph glyph-name="afii10072" unicode="&#x436;" horiz-adv-x="974" 
d="M956 0h-95q-18 26 -98 143t-123 180q-44 -19 -111 -19v-304h-84v304q-66 0 -110 19q-74 -107 -222 -323h-95v12q45 63 129 180t118 165q-54 47 -94 189q-17 56 -47.5 77.5t-86.5 14.5v61q86 14 136.5 -16.5t72.5 -113.5q11 -42 17.5 -63t26 -55.5t42.5 -47.5
q41 -24 113 -24v321h84v-321q73 0 114 24q7 4 14 10.5t12.5 12.5t11.5 16t9.5 16.5t8.5 19t7.5 18.5t7 20t5.5 18t5.5 19t4.5 16q21 83 71.5 113.5t136.5 16.5v-61q-56 7 -86.5 -14.5t-47.5 -77.5q-14 -48 -23 -74t-27.5 -60.5t-41.5 -54.5q230 -324 245 -345v-12z" />
    <glyph glyph-name="afii10073" unicode="&#x437;" horiz-adv-x="588" 
d="M137 539h-75q-2 88 62.5 133t158.5 45q96 0 157.5 -53t61.5 -137q0 -50 -27.5 -89t-73.5 -58q66 -22 102 -69t36 -117q0 -100 -70.5 -155.5t-185.5 -55.5q-108 0 -176 58.5t-68 164.5h74q0 -71 49 -111t121 -40q75 0 124 37t49 107q0 65 -50.5 104t-122.5 39h-48v69h47
q58 0 100.5 31t42.5 84q0 58 -41.5 90t-100.5 32q-61 0 -103.5 -27t-42.5 -82z" />
    <glyph glyph-name="afii10074" unicode="&#x438;" horiz-adv-x="746" 
d="M577 529l-457 -530h-27v702h84v-328l-9 -201l456 530h29v-702h-83v337z" />
    <glyph glyph-name="afii10075" unicode="&#x439;" horiz-adv-x="746" 
d="M240 884l58 7q6 -36 31.5 -55.5t65.5 -21.5q37 0 64 20t34 57q47 -6 55 -7q-7 -64 -48.5 -101t-104.5 -37q-60 0 -104 37t-51 101zM120 -1l457 530l-7 -192v-337h83v702h-29l-456 -530l9 201v328h-84v-702h27z" />
    <glyph glyph-name="afii10076" unicode="&#x43a;" horiz-adv-x="666" 
d="M176 700v-320q126 0 159 20q50 30 88 169q23 78 68 112.5t137 17.5v-56q-57 6 -85.5 -17t-45.5 -81q-41 -142 -94 -188l244 -345v-12h-95l-222 323q-44 -13 -154 -13v-310h-83v700h83z" />
    <glyph glyph-name="afii10077" unicode="&#x43b;" horiz-adv-x="723" 
d="M278 625l-48 -455q-11 -108 -57 -146.5t-155 -21.5l1 62q67 -11 93.5 16t34.5 95l58 525h425v-700h-83v625h-269z" />
    <glyph glyph-name="afii10078" unicode="&#x43c;" horiz-adv-x="827" 
d="M414 310l288 391h32v-701h-84v505l-230 -316h-13l-230 316v-505h-84v701h33z" />
    <glyph glyph-name="afii10079" unicode="&#x43d;" horiz-adv-x="723" 
d="M630 0h-84v328h-370v-328h-83v700h83v-295h370v295h84v-700z" />
    <glyph glyph-name="afii10080" unicode="&#x43e;" horiz-adv-x="810" 
d="M760 350q0 -159 -99 -260t-257 -101q-152 0 -253 99t-101 262q0 164 102 263t253 99t253 -99.5t102 -262.5zM134 350q0 -126 77 -205t193 -79q117 0 194.5 79t77.5 205t-77 206t-194 80q-116 0 -193.5 -79.5t-77.5 -206.5z" />
    <glyph glyph-name="afii10081" unicode="&#x43f;" horiz-adv-x="723" 
d="M93 700h537v-700h-84v623h-369v-623h-84v700z" />
    <glyph glyph-name="afii10082" unicode="&#x440;" horiz-adv-x="650" 
d="M176 1h-83v700h88h104h88q110 0 177.5 -68.5t67.5 -171.5q0 -102 -68 -170t-177 -68h-197v-222zM175 298h198q70 0 117 46.5t47 118.5q0 71 -46 117.5t-118 46.5h-198v-329z" />
    <glyph glyph-name="afii10083" unicode="&#x441;" horiz-adv-x="762" 
d="M50 350q0 161 101.5 260.5t252.5 97.5q107 0 194 -57t117 -162h-81q-32 70 -92 106t-138 36q-119 2 -194 -77.5t-75 -203.5q0 -120 74.5 -200.5t193.5 -80.5q82 0 145 40.5t90 114.5h81q-29 -113 -116.5 -172.5t-198.5 -59.5q-150 0 -252 98.5t-102 259.5z" />
    <glyph glyph-name="afii10084" unicode="&#x442;" horiz-adv-x="549" 
d="M234 625h-216v75h513v-75h-216v-625h-81v625z" />
    <glyph glyph-name="afii10085" unicode="&#x443;" horiz-adv-x="614" 
d="M224 139l44 87l-261 464v10h93l211 -389h3l190 389h90v-8l-287 -568q-21 -44 -41.5 -72t-49.5 -47t-67.5 -18t-87.5 21l12 68q99 -49 151 63z" />
    <glyph glyph-name="afii10086" unicode="&#x444;" horiz-adv-x="885" 
d="M741 351q0 56 -21.5 97t-60 62.5t-82 31.5t-96.5 11v-405q260 8 260 203zM144 351q0 -195 261 -203v405q-53 -1 -97 -11t-82.5 -31.5t-60 -62.5t-21.5 -97zM404 -1v79q-70 1 -129.5 16.5t-109 46.5t-77.5 84.5t-28 125.5t28 125.5t77.5 84.5t108.5 46.5t129 17.5v76h79
v-76q72 -2 131 -17t108 -45.5t76.5 -84.5t27.5 -127t-28 -127t-77.5 -84.5t-108.5 -45.5t-129 -16v-79h-78z" />
    <glyph glyph-name="afii10087" unicode="&#x445;" horiz-adv-x="632" 
d="M316 423h2l98 149l90 128h89v-11l-228 -320l254 -358v-11h-91l-116 164l-96 146h-3l-94 -144l-117 -166h-92v12l254 357l-228 319v12h90l91 -130z" />
    <glyph glyph-name="afii10088" unicode="&#x446;" horiz-adv-x="728" 
d="M621 0h-528v700h84v-623h353v623h84v-628h75v-184h-68v112z" />
    <glyph glyph-name="afii10089" unicode="&#x447;" horiz-adv-x="634" 
d="M541 0h-83v262q-205 -30 -310 47t-105 287v103h84v-103q0 -169 80.5 -225.5t250.5 -30.5v359h83v-699z" />
    <glyph glyph-name="afii10090" unicode="&#x448;" horiz-adv-x="1028" 
d="M93 0v700h83v-623h294v623h84v-623h297v623h84v-700h-842z" />
    <glyph glyph-name="afii10091" unicode="&#x449;" horiz-adv-x="1039" 
d="M93 0v700h85v-623h286v623h84v-623h293v623h83v-628h76v-183h-69v111h-838z" />
    <glyph glyph-name="afii10092" unicode="&#x44a;" horiz-adv-x="705" 
d="M429 386h-193v-312h193q71 0 117.5 44.5t46.5 114.5q-1 68 -47 110.5t-117 42.5zM22 629v71h214v-240h194q109 0 176 -64t67 -163q0 -100 -67.5 -166.5t-175.5 -66.5h-276v629h-132z" />
    <glyph glyph-name="afii10093" unicode="&#x44b;" horiz-adv-x="904" 
d="M174 700v-52v-188h193q115 0 182 -70t61 -173q-5 -95 -71.5 -156t-171.5 -61h-274v700h81zM367 386h-47h-146v-312h180q77 0 125 40t51 112q2 70 -43.5 115t-119.5 45zM811 700v-700h-83v700h83z" />
    <glyph glyph-name="afii10094" unicode="&#x44c;" horiz-adv-x="643" 
d="M174 700v-240h193q110 0 177 -64t67 -163q1 -100 -67 -166.5t-177 -66.5h-274v700h81zM367 386h-193v-312h193q71 0 117.5 45t45.5 114q0 69 -45.5 111t-117.5 42z" />
    <glyph glyph-name="afii10095" unicode="&#x44d;" horiz-adv-x="760" 
d="M359 633q-78 0 -139.5 -37.5t-91.5 -106.5h-82q31 105 118 162t195 59q150 1 250.5 -99t100.5 -261t-101.5 -260t-252.5 -99q-111 0 -199.5 59.5t-117.5 171.5h82q26 -74 90 -114.5t145 -40.5q111 0 184.5 69t81.5 178h-305v71h306q-6 110 -79.5 179.5t-184.5 68.5z" />
    <glyph glyph-name="afii10096" unicode="&#x44e;" horiz-adv-x="1060" 
d="M1010 350q0 -164 -102 -263t-253 -98q-143 0 -241.5 90t-108.5 238h-128v-317h-84v700h84v-306h129q14 144 112.5 231t238.5 86q151 -1 252 -99.5t101 -261.5zM386 350q0 -127 76.5 -204.5t193.5 -77.5t193.5 77.5t76.5 204.5q0 126 -77 203.5t-194 77.5t-193 -77.5
t-76 -203.5z" />
    <glyph glyph-name="afii10097" unicode="&#x44f;" horiz-adv-x="672" 
d="M30 13l199 253q-76 18 -122 74.5t-46 135.5q0 97 66 161t173 64h279v-700h-84v254h-183l-191 -254h-91v12zM300 327h196v300h-196q-68 0 -113 -41.5t-45 -108.5t44.5 -108.5t113.5 -41.5z" />
    <glyph glyph-name="afii10071" unicode="&#x451;" horiz-adv-x="569" 
d="M500 700v-73h-323v-229h312v-73h-312v-248h334v-77h-418v700h407zM416 766q-21 0 -35 12.5t-14 32.5q0 21 14 33.5t35 12.5t35 -12.5t14 -33.5q0 -20 -14 -32.5t-35 -12.5zM181 766q-21 0 -35 12.5t-14 32.5q0 21 14 33.5t35 12.5t35.5 -12.5t14.5 -33.5
q0 -20 -14.5 -32.5t-35.5 -12.5z" />
    <glyph glyph-name="afii10099" unicode="&#x452;" horiz-adv-x="742" 
d="M695 115q0 -117 -47 -162.5t-155 -26.5l3 60q75 -13 98 17.5t23 112.5v153q0 67 -42 104.5t-110 38.5q-67 0 -115.5 -42t-50.5 -104v-266h-81v627h-200v73h516v-73h-235v-237q23 45 74 67.5t114 22.5q97 0 152.5 -58t55.5 -153v-154z" />
    <glyph glyph-name="afii10100" unicode="&#x453;" horiz-adv-x="516" 
d="M501 626h-325v-626h-83v700h408v-74zM321 769h-65v7l94 147l71 -27v-7z" />
    <glyph glyph-name="afii10101" unicode="&#x454;" horiz-adv-x="760" 
d="M402 633q-112 1 -187.5 -68t-82.5 -179h311v-75h-310q8 -109 83.5 -176.5t187.5 -67.5q81 0 145 40.5t90 114.5h82q-29 -112 -117.5 -171.5t-199.5 -59.5q-151 0 -252.5 99t-101.5 260t100.5 261t251.5 99q107 -2 194 -59t118 -162h-81q-63 144 -231 144z" />
    <glyph glyph-name="afii10102" unicode="&#x455;" horiz-adv-x="646" 
d="M47 191h81q2 -44 35 -75t75 -43t89 -12q48 2 87 13t70.5 42t32.5 79q0 18 -3 33.5t-11.5 27t-16 20t-23 15t-24 10.5t-29.5 8t-30 5.5t-33 4.5t-31 4q-54 6 -94.5 15.5t-79.5 29.5t-60 55.5t-21 85.5q0 66 38.5 113.5t95 68.5t120.5 21q47 1 91.5 -10t82.5 -33.5t62 -61
t26 -87.5h-78q-4 42 -33.5 69.5t-67 37.5t-81.5 10q-69 -3 -121 -33.5t-52 -93.5q0 -15 3.5 -28t7.5 -23t14 -18.5t15.5 -14t21 -11t22 -8t25.5 -5.5t24.5 -4t27 -4t25.5 -3q50 -6 82.5 -12t71.5 -19.5t61.5 -33t38 -53t15.5 -78.5q0 -71 -42.5 -119t-101 -67t-127.5 -21
q-50 -1 -98 10.5t-89 35.5t-66.5 64.5t-27.5 92.5z" />
    <glyph glyph-name="afii10103" unicode="&#x456;" horiz-adv-x="400" 
d="M242 67h121v-67h-326v67h121v567h-113v66h310v-66h-113v-567z" />
    <glyph glyph-name="afii10104" unicode="&#x457;" horiz-adv-x="400" 
d="M242 67h121v-67h-326v67h121v567h-113v66h310v-66h-113v-567zM322 758q-21 0 -35 12.5t-14 32.5q0 21 14 33.5t35 12.5t35 -12.5t14 -33.5q0 -20 -14 -32.5t-35 -12.5zM87 758q-21 0 -35 12.5t-14 32.5q0 21 14 33.5t35 12.5t35.5 -12.5t14.5 -33.5q0 -20 -14.5 -32.5
t-35.5 -12.5z" />
    <glyph glyph-name="afii10105" unicode="&#x458;" horiz-adv-x="639" 
d="M553 700v-465q0 -113 -74.5 -179t-188.5 -66q-113 0 -184.5 66.5t-71.5 178.5v73h79v-72q0 -81 48 -125.5t129 -44.5t130 45t49 125v390h-171v74h255z" />
    <glyph glyph-name="afii10106" unicode="&#x459;" horiz-adv-x="989" 
d="M564 386v-312h139q80 0 127.5 42t47.5 114q0 78 -47.5 117t-127.5 39h-139zM564 460h152q110 0 176 -65.5t66 -164.5q0 -101 -69 -165.5t-174 -64.5h-230v625h-207q-7 -67 -20.5 -200.5t-20.5 -199.5q-4 -35 -8 -59.5t-10 -50t-14 -42.5t-19.5 -33t-26.5 -24.5t-35.5 -14
t-46.5 -5t-58 5.5l1 62q41 -7 66 -0.5t38.5 33.5t17.5 47t10 71q1 3 1 5t0.5 5t0.5 5l52 470h358v-240z" />
    <glyph glyph-name="afii10107" unicode="&#x45a;" horiz-adv-x="992" 
d="M565 700v-264h152q111 0 177.5 -56.5t66.5 -152.5q0 -104 -67 -165.5t-178 -61.5h-233v354h-307v-354h-83v700h83v-269h307v269h82zM716 361h-151v-287h151q75 1 120.5 42.5t42.5 110.5q-1 64 -46.5 99t-116.5 35z" />
    <glyph glyph-name="afii10108" unicode="&#x45b;" horiz-adv-x="746" 
d="M695 0h-78v269q0 67 -42 105t-110 39q-66 0 -115 -44t-51 -107v-262h-81v628h-200v72h516v-72h-235v-239q50 92 188 92q97 -1 152.5 -59t55.5 -153v-269z" />
    <glyph glyph-name="afii10109" unicode="&#x45c;" horiz-adv-x="666" 
d="M354 769h-66v7l95 147l71 -27v-7zM176 700v-320q126 0 159 20q50 30 88 169q23 78 68 112.5t137 17.5v-56q-57 6 -85.5 -17t-45.5 -81q-41 -142 -94 -188l244 -345v-12h-95l-222 323q-44 -13 -154 -13v-310h-83v700h83z" />
    <glyph glyph-name="afii10110" unicode="&#x45e;" horiz-adv-x="611" 
d="M159 887l55 6q6 -35 30 -55t62 -21q37 0 63.5 20t33.5 56q8 0 52 -6q-7 -63 -44 -99.5t-104 -36.5q-63 0 -102 36.5t-46 99.5zM222 139l44 87l-261 464v10h93l211 -389h3l190 389h90v-8l-287 -568q-22 -46 -39.5 -71.5t-45.5 -44.5t-67 -18t-94 20l12 66q99 -49 151 63z
" />
    <glyph glyph-name="afii10193" unicode="&#x45f;" horiz-adv-x="723" 
d="M325 -142v142h-232v700h84v-623h370v623h83v-700h-225v-142h-80z" />
    <glyph glyph-name="afii10050" unicode="&#x490;" horiz-adv-x="516" 
d="M501 626h-324v-626h-84v700h341v107h67v-181z" />
    <glyph glyph-name="afii10098" unicode="&#x491;" horiz-adv-x="516" 
d="M501 626h-324v-626h-84v700h341v107h67v-181z" />
    <glyph glyph-name="Wgrave" unicode="&#x1e80;" horiz-adv-x="965" 
d="M462 687h41l183 -544h2l76 299q62 202 80 258h87v-11l-215 -693h-58l-175 514h-1l-173 -514h-58l-218 691v13h89l80 -259l80 -298h1zM515 772h-66l-81 103v7l72 29l75 -132v-7z" />
    <glyph glyph-name="wgrave" unicode="&#x1e81;" horiz-adv-x="965" 
d="M462 687h41l183 -544h2l76 299q62 202 80 258h87v-11l-215 -693h-58l-175 514h-1l-173 -514h-58l-218 691v13h89l80 -259l80 -298h1zM515 772h-66l-81 103v7l72 29l75 -132v-7z" />
    <glyph glyph-name="Wacute" unicode="&#x1e82;" horiz-adv-x="965" 
d="M462 687h41l183 -544h2l76 299q62 202 80 258h87v-11l-215 -693h-58l-175 514h-1l-173 -514h-58l-218 691v13h89l80 -259l80 -298h1zM517 777h-66v7l75 132l72 -29v-7z" />
    <glyph glyph-name="wacute" unicode="&#x1e83;" horiz-adv-x="965" 
d="M462 687h41l183 -544h2l76 299q62 202 80 258h87v-11l-215 -693h-58l-175 514h-1l-173 -514h-58l-218 691v13h89l80 -259l80 -298h1zM517 777h-66v7l75 132l72 -29v-7z" />
    <glyph glyph-name="Wdieresis" unicode="&#x1e84;" horiz-adv-x="965" 
d="M462 687h41l183 -544h2l76 299q62 202 80 258h87v-11l-215 -693h-58l-175 514h-1l-173 -514h-58l-218 691v13h89l80 -259l80 -298h1zM600 778q-21 0 -35 12.5t-14 32.5q0 21 14 33.5t35 12.5t35 -12.5t14 -33.5q0 -20 -14 -32.5t-35 -12.5zM365 778q-21 0 -35 12.5
t-14 32.5q0 21 14 33.5t35 12.5t35.5 -12.5t14.5 -33.5q0 -20 -14.5 -32.5t-35.5 -12.5z" />
    <glyph glyph-name="wdieresis" unicode="&#x1e85;" horiz-adv-x="965" 
d="M462 687h41l183 -544h2l76 299q62 202 80 258h87v-11l-215 -693h-58l-175 514h-1l-173 -514h-58l-218 691v13h89l80 -259l80 -298h1zM600 778q-21 0 -35 12.5t-14 32.5q0 21 14 33.5t35 12.5t35 -12.5t14 -33.5q0 -20 -14 -32.5t-35 -12.5zM365 778q-21 0 -35 12.5
t-14 32.5q0 21 14 33.5t35 12.5t35.5 -12.5t14.5 -33.5q0 -20 -14.5 -32.5t-35.5 -12.5z" />
    <glyph glyph-name="Ygrave" unicode="&#x1ef2;" horiz-adv-x="628" 
d="M313 366h3l101 170l102 164h89v-12l-252 -401v-287h-84v287l-253 402v11h91l102 -163zM360 747h-66l-81 103v7l72 29l75 -132v-7z" />
    <glyph glyph-name="ygrave" unicode="&#x1ef3;" horiz-adv-x="628" 
d="M313 366h3l101 170l102 164h89v-12l-252 -401v-287h-84v287l-253 402v11h91l102 -163zM360 747h-66l-81 103v7l72 29l75 -132v-7z" />
    <glyph glyph-name="endash" unicode="&#x2013;" horiz-adv-x="545" 
d="M68 299v69h409v-69h-409z" />
    <glyph glyph-name="emdash" unicode="&#x2014;" horiz-adv-x="633" 
d="M68 299v69h497v-69h-497z" />
    <glyph glyph-name="quoteleft" unicode="&#x2018;" horiz-adv-x="222" 
d="M62 590q2 16 5 24l28 88h50l-21 -72q36 -9 36 -44q0 -21 -14.5 -33.5t-35.5 -12.5q-17 0 -30 9t-17 24q-2 12 -1 17z" />
    <glyph glyph-name="quoteright" unicode="&#x2019;" horiz-adv-x="224" 
d="M163 653q-1 -11 -6 -24l-28 -88h-50l21 71q-35 12 -35 45q0 21 14 33.5t35 12.5q17 0 30 -9t17 -24q2 -5 2 -17z" />
    <glyph glyph-name="quotesinglbase" unicode="&#x201a;" horiz-adv-x="236" 
d="M167 30q-1 -13 -6 -25q-5 -15 -14 -45.5t-15 -45.5h-50l22 75q-35 12 -35 45q0 21 14 33.5t35 12.5q37 0 48 -34q2 -13 1 -16z" />
    <glyph glyph-name="quotedblleft" unicode="&#x201c;" horiz-adv-x="371" 
d="M62 589q2 4 3.5 12t2.5 12l28 87h50l-21 -71q35 -9 35 -45q0 -20 -14 -32.5t-35 -12.5q-39 0 -47 33q-2 14 -2 17zM211 589q1 11 6 24l28 87h49l-20 -71q35 -9 35 -45q0 -20 -14 -32.5t-35 -12.5q-37 0 -48 33q-2 12 -1 17z" />
    <glyph glyph-name="quotedblright" unicode="&#x201d;" horiz-adv-x="376" 
d="M163 653q-1 -11 -6 -24l-28 -88h-50l21 71q-35 12 -35 45q0 21 14 33.5t35 12.5q17 0 30 -9t17 -24q2 -5 2 -17zM315 653q-1 -11 -6 -24l-28 -88h-49l20 71q-35 12 -35 45q0 21 14 33.5t35 12.5q36 0 48 -33q2 -12 1 -17z" />
    <glyph glyph-name="quotedblbase" unicode="&#x201e;" horiz-adv-x="405" 
d="M167 30q-1 -4 -2.5 -12t-3.5 -12q-11 -31 -29 -89h-50l22 72q-35 12 -35 45q0 21 14 33.5t35 12.5q39 0 47 -34q2 -14 2 -16zM336 30q-2 -15 -5 -24q-11 -31 -29 -89h-50l22 72q-36 12 -36 45q0 21 14.5 33.5t35.5 12.5q36 0 47 -34q2 -13 1 -16z" />
    <glyph glyph-name="dagger" unicode="&#x2020;" horiz-adv-x="463" 
d="M36 386v68h160v248h72v-248h159v-68h-159v-466h-72v466h-160z" />
    <glyph glyph-name="daggerdbl" unicode="&#x2021;" horiz-adv-x="522" 
d="M58 150v66h166v202h-166v65h166v219h72v-219h168v-65h-168v-202h168v-66h-168v-230h-72v230h-166z" />
    <glyph glyph-name="bullet" unicode="&#x2022;" horiz-adv-x="386" 
d="M192 259q-43 0 -73.5 28.5t-30.5 69.5q0 44 30.5 71.5t73.5 27.5q44 0 75 -27.5t31 -71.5q0 -41 -31.5 -69.5t-74.5 -28.5z" />
    <glyph glyph-name="ellipsis" unicode="&#x2026;" horiz-adv-x="665" 
d="M119 -9q-21 0 -36 13.5t-15 33.5q0 22 14.5 35t36.5 13q23 0 37.5 -12.5t14.5 -35.5q0 -20 -15 -33.5t-37 -13.5zM330 -9q-21 0 -36 13.5t-15 33.5q0 22 14.5 35t36.5 13q23 0 37.5 -12.5t14.5 -35.5q0 -20 -15 -33.5t-37 -13.5zM546 -9q-22 0 -36.5 13.5t-14.5 33.5
q0 23 14.5 35.5t36.5 12.5t36.5 -13t14.5 -35q0 -20 -15 -33.5t-36 -13.5z" />
    <glyph glyph-name="perthousand" unicode="&#x2030;" horiz-adv-x="1231" 
d="M208 -1l342 699h78l-342 -699h-78zM799 152q0 -53 -24.5 -91.5t-61.5 -56t-80 -17.5t-80 17.5t-61.5 56t-24.5 91.5t24.5 92t61.5 56.5t80 17.5t80 -17.5t61.5 -56.5t24.5 -92zM532 152q0 -51 31.5 -80.5t69.5 -29.5t69.5 29.5t31.5 80.5t-31.5 80.5t-69.5 29.5
t-69.5 -29.5t-31.5 -80.5zM368 545q0 -53 -24.5 -92t-61.5 -56.5t-79.5 -17.5t-79.5 17.5t-61.5 56.5t-24.5 92q0 46 18.5 82t47.5 54.5t64 27t70.5 0t64.5 -27t47.5 -54.5t18.5 -82zM103 545q0 -51 31.5 -80.5t69 -29.5t69 29.5t31.5 80.5t-31.5 80.5t-69 29.5t-69 -29.5
t-31.5 -80.5zM1195 152q0 -53 -24.5 -91.5t-61.5 -56t-80 -17.5t-80 17.5t-61.5 56t-24.5 91.5t24.5 92t61.5 56.5t80 17.5t80 -17.5t61.5 -56.5t24.5 -92zM928 152q0 -51 31.5 -80.5t69.5 -29.5t69.5 29.5t31.5 80.5t-31.5 80.5t-69.5 29.5t-69.5 -29.5t-31.5 -80.5z" />
    <glyph glyph-name="guilsinglleft" unicode="&#x2039;" horiz-adv-x="305" 
d="M241 551l-104 -205l104 -202l-52 -20l-135 222l135 223z" />
    <glyph glyph-name="guilsinglright" unicode="&#x203a;" horiz-adv-x="305" 
d="M168 346l-104 205l52 18l135 -223l-135 -222l-52 20z" />
    <glyph glyph-name="fraction" unicode="&#x2044;" horiz-adv-x="473" 
d="M6 -60l382 789h82l-382 -789h-82z" />
    <glyph glyph-name="Euro" unicode="&#x20ac;" horiz-adv-x="657" 
d="M47 392v58h84q30 120 122 189t217 69q64 0 122 -21l-25 -67q-45 17 -95 17q-93 0 -160.5 -51t-93.5 -136h264l-22 -58h-257q-5 -35 0 -79h233l-21 -60h-200q25 -86 92.5 -137.5t163.5 -51.5q61 0 117 27l27 -69q-69 -31 -146 -31q-130 0 -221.5 70t-117.5 192h-83v60h74
q-5 38 0 79h-74z" />
    <glyph glyph-name="afii61352" unicode="&#x2116;" horiz-adv-x="1564" 
d="M628 -1l-457 530l7 -192v-337h-83v702h29l456 -530l-9 201v328h84v-702h-27zM1508 350q0 -159 -99 -260t-257 -101q-152 0 -253 99t-101 262q0 164 102 263t253 99t253 -99.5t102 -262.5zM882 350q0 -126 77 -205t193 -79q117 0 194.5 79t77.5 205t-77 206t-194 80
q-116 0 -193.5 -79.5t-77.5 -206.5z" />
    <glyph glyph-name="trademark" unicode="&#x2122;" horiz-adv-x="759" 
d="M168 652h-98v49h251v-49h-98v-230h-55v230zM401 701l122 -145l123 145h30v-279h-56v171l-95 -115h-4l-94 115v-171h-56v279h30z" />
    <glyph glyph-name="arrowleft" unicode="&#x2190;" horiz-adv-x="764" 
d="M356 89l-278 250v11l279 249l50 -49l-195 -167l470 3v-83l-469 3l194 -168z" />
    <glyph glyph-name="arrowup" unicode="&#x2191;" horiz-adv-x="723" 
d="M364 635l250 -278l-49 -51l-168 194l3 -469h-83l3 470l-167 -195l-49 50l249 279h11z" />
    <glyph glyph-name="arrowright" unicode="&#x2192;" horiz-adv-x="771" 
d="M680 339l-278 -250l-51 49l194 168l-469 -3v83l470 -3l-195 167l50 49l279 -249v-11z" />
    <glyph glyph-name="arrowdown" unicode="&#x2193;" 
d="M347 53l-250 278l49 51l168 -194l-3 469h83l-3 -470l167 195l49 -50l-249 -279h-11z" />
    <glyph glyph-name="arrowboth" unicode="&#x2194;" horiz-adv-x="989" 
d="M912 339l-268 -241l-50 47l188 162h-579l188 -162l-50 -47l-268 241v11l269 240l49 -47l-189 -161h581l-189 161l49 47l269 -240v-11z" />
    <glyph glyph-name="arrowupdn" unicode="&#x2195;" horiz-adv-x="694" 
d="M346 -22l-240 257l47 48l161 -180v523l-161 -180l-47 48l240 257h11l239 -258l-47 -47l-161 181v-525l161 181l47 -47l-239 -258h-11z" />
    <glyph glyph-name="uni2196" unicode="&#x2196;" horiz-adv-x="735" 
d="M151 185l-20 373l7 8l374 -21v-70l-256 20l335 -331l-59 -59l-329 334l18 -255z" />
    <glyph glyph-name="uni2197" unicode="&#x2197;" horiz-adv-x="708" 
d="M567 558l-20 -373l-70 -1l18 255l-329 -334l-59 59l335 331l-256 -20v70l374 21z" />
    <glyph glyph-name="uni2198" unicode="&#x2198;" horiz-adv-x="735" 
d="M557 516l20 -373l-7 -8l-374 21v70l256 -20l-335 331l59 59l329 -334l-18 255z" />
    <glyph glyph-name="uni2199" unicode="&#x2199;" horiz-adv-x="735" 
d="M158 143l20 373l70 1l-18 -255l329 334l59 -59l-335 -331l256 20v-70l-374 -21z" />
    <glyph glyph-name="minus" unicode="&#x2212;" horiz-adv-x="533" 
d="M74 319v69h385v-69h-385z" />
    <glyph glyph-name="CR" horiz-adv-x="219" 
 />
    </font>
</defs>
</svg>
