<?xml version="1.0" standalone="no"?>
<!DOCTYPE svg PUBLIC "-//W3C//DTD SVG 1.1//EN" "http://www.w3.org/Graphics/SVG/1.1/DTD/svg11.dtd" >
<svg xmlns="http://www.w3.org/2000/svg" xmlns:xlink="http://www.w3.org/1999/xlink" version="1.1">
<metadata>
Created by FontForge 20170731 at Thu May 17 04:04:06 2012
 By Aleksey,,,
Copyright (c) 2012 by Fontfabric LLC. All rights reserved.
</metadata>
<defs>
<font id="Intro-Bold-Caps" horiz-adv-x="438" >
  <font-face 
    font-family="Intro Bold Caps"
    font-weight="700"
    font-variant="small-caps"
    font-stretch="normal"
    units-per-em="1000"
    panose-1="2 0 0 0 0 0 0 0 0 0"
    ascent="750"
    descent="-250"
    x-height="700"
    cap-height="700"
    bbox="-6 -277 1514 989"
    underline-thickness="50"
    underline-position="-200"
    unicode-range="U+0020-2212"
  />
<missing-glyph horiz-adv-x="219" 
 />
    <glyph glyph-name=".notdef" horiz-adv-x="219" 
 />
    <glyph glyph-name=".null" horiz-adv-x="0" 
 />
    <glyph glyph-name="nonmarkingreturn" horiz-adv-x="333" 
 />
    <glyph glyph-name="space" unicode=" " horiz-adv-x="245" 
 />
    <glyph glyph-name="space" unicode="&#xa0;" horiz-adv-x="245" 
 />
    <glyph glyph-name="exclam" unicode="!" horiz-adv-x="299" 
d="M150 -14q-34 0 -58 21.5t-24 54.5q0 34 23.5 55t58.5 21q36 0 59 -20.5t23 -55.5q0 -33 -23 -54.5t-59 -21.5zM79 187l-12 514h163l-9 -514h-142z" />
    <glyph glyph-name="quotedbl" unicode="&#x22;" horiz-adv-x="420" 
d="M68 700h121l-18 -220h-103v220zM242 700h120l-17 -220h-103v220z" />
    <glyph glyph-name="numbersign" unicode="#" horiz-adv-x="711" 
d="M41 179v98h113l19 123h-101v99h116l30 200h124l-29 -200h144l30 200h124l-29 -200h84v-99h-98l-18 -123h84v-98h-99l-25 -179h-129l27 179h-141l-25 -179h-130l27 179h-98zM295 404l-19 -130h150l20 130h-151z" />
    <glyph glyph-name="dollar" unicode="$" horiz-adv-x="644" 
d="M40 207h144q2 -38 31.5 -60t71.5 -26v177q-237 25 -237 196q0 98 68 154t169 65v68h74v-70q95 -11 158.5 -63.5t63.5 -143.5h-140q-2 33 -26 53t-56 22v-167q55 -7 95.5 -18.5t76.5 -34t55 -61.5t19 -94q0 -93 -72.5 -150.5t-173.5 -66.5v-69h-74v68q-104 11 -175.5 67.5
t-71.5 153.5zM361 290v-169q43 3 69.5 25.5t26.5 57.5q0 39 -25 57.5t-71 28.5zM287 421v158q-38 -3 -63.5 -24t-25.5 -58q0 -34 23 -50t66 -26z" />
    <glyph glyph-name="percent" unicode="%" horiz-adv-x="921" 
d="M221 0l343 699h136l-344 -699h-135zM887 161q0 -57 -26.5 -99t-66.5 -61t-86.5 -19t-86.5 19t-66.5 61t-26.5 99t26.5 98.5t66.5 60.5t86.5 19t86.5 -19t66.5 -60.5t26.5 -98.5zM639 161q0 -39 21.5 -61t46.5 -22t46.5 22t21.5 61q0 38 -21.5 59.5t-46.5 21.5
t-46.5 -21.5t-21.5 -59.5zM394 536q0 -57 -26.5 -99t-66.5 -61t-86.5 -19t-86.5 19t-66.5 61t-26.5 99q0 49 20 87.5t51.5 58.5t69.5 29.5t76.5 0t70 -29.5t51.5 -58.5t20 -87.5zM147 536q0 -38 21.5 -59.5t46.5 -21.5t46.5 21.5t21.5 59.5q0 39 -21.5 61t-46.5 22
t-46.5 -22t-21.5 -61z" />
    <glyph glyph-name="ampersand" unicode="&#x26;" horiz-adv-x="650" 
d="M530 530h-123q0 27 -25 43t-64 16q-37 0 -63 -18t-26 -52q0 -76 112 -76v-114h-33q-51 -2 -82.5 -32.5t-31.5 -76.5q0 -45 32 -76t85 -31q52 0 83 30t33 83v222h189v-113h-68v-108q0 -111 -63 -174.5t-174 -63.5q-127 0 -196 66.5t-67 159.5q0 61 29.5 108.5t82.5 73.5
q-64 40 -69 122q-4 60 28.5 104.5t83.5 66t111 21.5q94 0 155 -47t61 -134z" />
    <glyph glyph-name="quotesingle" unicode="'" horiz-adv-x="247" 
d="M67 700h123l-17 -218h-106v218z" />
    <glyph glyph-name="parenleft" unicode="(" horiz-adv-x="354" 
d="M290 790l44 -84q-75 -43 -115.5 -166t-40 -258t41.5 -258t114 -166l-44 -84q-81 36 -139.5 116.5t-86 180t-27.5 211.5t26.5 211.5t85.5 180t141 116.5z" />
    <glyph glyph-name="parenright" unicode=")" horiz-adv-x="354" 
d="M20 706l44 84q81 -36 139.5 -116.5t85.5 -179.5t27.5 -211.5t-26.5 -211.5t-85.5 -180t-140.5 -117l-44 84q73 42 114 165.5t41.5 258.5t-40 258.5t-115.5 165.5z" />
    <glyph glyph-name="asterisk" unicode="*" 
d="M391 564l-100 -27l73 -82l-86 -63l-59 87l-58 -87l-85 64l73 80l-103 26l30 96l99 -37l-9 99h106l-9 -99l96 38z" />
    <glyph glyph-name="plus" unicode="+" horiz-adv-x="483" 
d="M53 309v115h130v128h116v-128h131v-115h-131v-129h-116v129h-130z" />
    <glyph glyph-name="comma" unicode="," horiz-adv-x="276" 
d="M220 59q0 -18 -7 -32l-41 -127h-82l24 86q-58 19 -58 74q0 35 23 56t59 21q28 0 49 -14t29 -38q4 -9 4 -26z" />
    <glyph glyph-name="hyphen" unicode="-" horiz-adv-x="471" 
d="M61 273v120h349v-120h-349z" />
    <glyph glyph-name="period" unicode="." horiz-adv-x="278" 
d="M139 -15q-36 0 -59.5 21.5t-23.5 54.5q0 35 23.5 56.5t59.5 21.5t59.5 -21.5t23.5 -56.5q0 -33 -23.5 -54.5t-59.5 -21.5z" />
    <glyph glyph-name="slash" unicode="/" horiz-adv-x="538" 
d="M28 1l338 699h144l-338 -699h-144z" />
    <glyph glyph-name="zero" unicode="0" horiz-adv-x="652" 
d="M327 712q111 0 185.5 -65.5t74.5 -175.5v-244q0 -111 -74.5 -176t-185.5 -65q-112 0 -187 65t-75 176v244q0 110 75 175.5t187 65.5zM327 117q47 0 79.5 24.5t37.5 69.5q3 25 3 56v163q0 30 -3 57q-5 46 -37 70t-80 24q-50 0 -81.5 -24t-36.5 -70q-3 -27 -3 -57v-163
q0 -31 3 -56q5 -45 37 -69.5t81 -24.5z" />
    <glyph glyph-name="one" unicode="1" horiz-adv-x="457" 
d="M166 583h-104v117h247v-585h121v-115h-382v115h118v468z" />
    <glyph glyph-name="two" unicode="2" horiz-adv-x="543" 
d="M344 496q2 41 -21 64t-56 23q-36 0 -61.5 -21t-25.5 -68h-128q0 103 58 160t161 57q97 0 153 -57t52.5 -147.5t-71.5 -180.5q-5 -6 -24 -34.5t-48.5 -69.5t-68.5 -92h228v-130h-449v32l248 348q50 69 53 116z" />
    <glyph glyph-name="three" unicode="3" horiz-adv-x="578" 
d="M43 205h131q3 -43 30.5 -66t73.5 -23q48 0 77 30t30 79q-1 53 -32 82.5t-74.5 32.5t-90.5 -3v21l129 222h-247v119h445v-21l-152 -244q80 -14 121.5 -72t41.5 -136q0 -98 -66.5 -168.5t-179.5 -70.5q-100 0 -166.5 59.5t-70.5 158.5z" />
    <glyph glyph-name="four" unicode="4" horiz-adv-x="601" 
d="M486 139v-139h-135v139h-327v65l307 496h155v-440h65v-121h-65zM367 533h-1l-173 -278h167v133z" />
    <glyph glyph-name="five" unicode="5" horiz-adv-x="582" 
d="M195 576v-120q36 6 76 6q265 -5 265 -236q0 -98 -66 -168.5t-179 -70.5q-100 0 -166 59t-72 157h131q4 -42 31.5 -63.5t72.5 -21.5q52 0 78 30t26 77q0 27 -6.5 48.5t-22 35t-29.5 23t-40.5 13.5t-42.5 6.5t-48 0.5t-45.5 -3t-46.5 -5t-39 -5v361h429v-124h-306z" />
    <glyph glyph-name="six" unicode="6" horiz-adv-x="607" 
d="M293 705h164l-160 -263q17 9 36 9q107 4 173.5 -57.5t66.5 -168.5q0 -115 -73.5 -175.5t-191.5 -60.5q-117 0 -190 60.5t-73 175.5q0 78 45 150zM308 116q55 0 85.5 28t30.5 81q0 54 -31 83t-85 29q-55 0 -86 -29.5t-31 -82.5t31 -81t86 -28z" />
    <glyph glyph-name="seven" unicode="7" horiz-adv-x="536" 
d="M530 700v-21l-298 -679h-151l248 570h-295v130h496z" />
    <glyph glyph-name="eight" unicode="8" horiz-adv-x="622" 
d="M468 396q105 -63 107 -179q2 -95 -69.5 -161.5t-193.5 -66.5t-193.5 66t-71.5 160q0 57 28.5 104.5t79.5 77.5q-62 52 -63 124q-2 79 57.5 134.5t162.5 55.5q102 0 161 -54.5t59 -132.5q0 -75 -64 -128zM312 440q39 0 64 22.5t25 55.5q0 32 -25 54t-64 22q-40 0 -65 -22
t-25 -55t25.5 -55t64.5 -22zM312 113q52 0 85 31t33 78q0 48 -32.5 79t-85.5 31t-85.5 -32.5t-32.5 -80.5q0 -46 32.5 -76t85.5 -30z" />
    <glyph glyph-name="nine" unicode="9" horiz-adv-x="606" 
d="M312 0h-163l167 264q-20 -9 -39 -9q-110 -4 -177 56.5t-67 169.5q0 115 73.5 175.5t191.5 60.5q117 0 190.5 -60.5t73.5 -175.5q-1 -80 -48 -154zM298 590q-55 0 -86 -28t-31 -81t31 -82.5t86 -29.5q54 0 85 29t31 83q0 53 -30.5 81t-85.5 28z" />
    <glyph glyph-name="colon" unicode=":" horiz-adv-x="288" 
d="M144 -15q-36 0 -59.5 21.5t-23.5 54.5q0 35 23.5 56.5t59.5 21.5t59.5 -21.5t23.5 -56.5q0 -33 -23.5 -54.5t-59.5 -21.5zM144 296q-36 0 -59.5 21.5t-23.5 54.5q0 35 23.5 56.5t59.5 21.5t59.5 -21.5t23.5 -56.5q0 -33 -23.5 -54.5t-59.5 -21.5z" />
    <glyph glyph-name="semicolon" unicode=";" horiz-adv-x="289" 
d="M144 297q-35 0 -59 21t-24 54q0 34 24 55.5t59 21.5q36 0 59 -21t23 -56q0 -33 -23 -54t-59 -21zM226 59q0 -13 -7 -32q-17 -48 -40 -125h-83l24 84q-58 19 -58 74q0 35 23 56t59 21q28 0 49 -14t29 -38q4 -9 4 -26z" />
    <glyph glyph-name="less" unicode="&#x3c;" horiz-adv-x="551" 
d="M43 293v103l429 182v-123l-268 -111l268 -112v-123z" />
    <glyph glyph-name="equal" unicode="=" horiz-adv-x="549" 
d="M68 379v116h413v-116h-413zM68 189v116h413v-116h-413z" />
    <glyph glyph-name="greater" unicode="&#x3e;" horiz-adv-x="551" 
d="M508 396v-103l-429 -184v123l268 112l-268 111v123z" />
    <glyph glyph-name="question" unicode="?" horiz-adv-x="517" 
d="M319 187h-132q0 54 16 96.5t36 65t45.5 53.5t37.5 58q21 40 1.5 79.5t-72.5 39.5q-36 0 -63 -20.5t-31 -57.5h-123q0 101 61.5 155.5t156.5 56.5t159.5 -52t64.5 -154q0 -35 -16 -67.5t-39 -59.5t-46.5 -54.5t-39.5 -63.5t-16 -75zM255 -14q-36 0 -59.5 21.5t-23.5 54.5
q0 35 23.5 56t59.5 21t58.5 -21t22.5 -56q0 -34 -23 -55t-58 -21z" />
    <glyph glyph-name="at" unicode="@" horiz-adv-x="932" 
d="M573 71l1 11q-23 -43 -64 -67.5t-90 -26.5q-105 0 -157.5 73.5t-42.5 180.5q12 123 95.5 190t204.5 65q47 0 105 -22t94 -52l-26 -282q-6 -61 22 -61q35 0 61 49.5t32 115.5q26 150 -57.5 241.5t-245.5 91.5q-151 0 -254.5 -93t-117.5 -243q-9 -96 21 -170.5t88 -112.5
t138 -44.5t171 32.5l-8 -81q-86 -27 -163.5 -28.5t-141.5 28.5t-109.5 80t-67 127t-12.5 169q16 185 147 303t317 118q195 0 296 -113t83 -305q-12 -120 -79 -193t-152 -73q-44 0 -67.5 25t-20.5 67zM566 246l10 112q-37 22 -83 24q-53 -2 -90 -39.5t-43 -100.5
q-4 -56 18.5 -93t75.5 -35q96 0 112 132z" />
    <glyph glyph-name="A" unicode="A" horiz-adv-x="700" 
d="M495 116h-291l-54 -116h-156v20l322 686h69l320 -686v-20h-155zM350 473l-97 -231h194z" />
    <glyph glyph-name="B" unicode="B" horiz-adv-x="672" 
d="M599 492q0 -39 -18.5 -74t-51.5 -55q100 -42 100 -156q0 -94 -59 -150.5t-163 -56.5h-325v699h297q98 0 159 -55.5t61 -151.5zM368 571h-137v-159h137q38 0 60.5 20t23.5 55q1 38 -22 61t-62 23zM390 290h-159v-160h166q38 0 60 20.5t24 56.5q2 46 -31 69q-20 14 -60 14z
" />
    <glyph glyph-name="C" unicode="C" horiz-adv-x="761" 
d="M42 349q0 167 106 263.5t252 94.5q116 0 208 -63.5t115 -185.5h-145q-45 114 -178 114q-93 0 -150 -61.5t-57 -161.5q0 -92 57 -156t149 -64q67 0 116 32t66 94h144q-21 -130 -113 -196t-212 -66q-70 0 -134 23.5t-114 67t-80 112.5t-30 153z" />
    <glyph glyph-name="D" unicode="D" horiz-adv-x="728" 
d="M82 699h260q159 0 251 -102.5t92 -244.5q2 -143 -90 -247.5t-253 -104.5h-260v699zM231 135h109q92 0 144 63t52 153q0 89 -52.5 151t-143.5 62h-109v-429z" />
    <glyph glyph-name="E" unicode="E" horiz-adv-x="572" 
d="M510 700v-131h-278v-142h260v-131h-260v-160h286v-136h-437v700h429z" />
    <glyph glyph-name="F" unicode="F" horiz-adv-x="545" 
d="M481 380v-131h-251v-249h-149v700h429v-131h-280v-189h251z" />
    <glyph glyph-name="G" unicode="G" horiz-adv-x="770" 
d="M42 350q0 111 51.5 194.5t131.5 124t174 40.5q113 0 201.5 -57.5t116.5 -172.5h-147q-49 95 -171 95q-95 0 -150 -63.5t-55 -160.5q0 -100 56 -161.5t149 -61.5q78 0 126.5 29.5t69.5 104.5h-191v126h328q7 -118 -21 -196q-38 -101 -121.5 -150.5t-190.5 -49.5
q-147 0 -252 96.5t-105 262.5z" />
    <glyph glyph-name="H" unicode="H" horiz-adv-x="729" 
d="M648 0h-150v296h-268v-296h-149v700h149v-267h268v267h150v-700z" />
    <glyph glyph-name="I" unicode="I" 
d="M294 119h99v-119h-348v119h99v465h-91v116h332v-116h-91v-465z" />
    <glyph glyph-name="J" unicode="J" horiz-adv-x="630" 
d="M555 700v-468q0 -110 -77.5 -176t-190.5 -66q-112 0 -186.5 65.5t-74.5 176.5v85h139v-82q0 -55 33.5 -83.5t88.5 -28.5q54 0 86 29t32 83v336h-125v129h275z" />
    <glyph glyph-name="K" unicode="K" horiz-adv-x="703" 
d="M230 700v-289q95 0 121 13q25 14 39 47.5t31 104.5q45 163 239 123v-102q-43 4 -66.5 -11t-34.5 -54q-35 -133 -88 -186l214 -324v-22h-169l-176 288q-27 -7 -110 -7v-281h-149v700h149z" />
    <glyph glyph-name="L" unicode="L" horiz-adv-x="539" 
d="M231 700v-566h292v-134h-442v700h150z" />
    <glyph glyph-name="M" unicode="M" horiz-adv-x="833" 
d="M417 369l281 333h54v-702h-150v379l-176 -220h-19l-176 220v-379h-150v702h55z" />
    <glyph glyph-name="N" unicode="N" horiz-adv-x="752" 
d="M626 -2l-396 402v-400h-149v703h47l393 -400v397h150v-702h-45z" />
    <glyph glyph-name="O" unicode="O" horiz-adv-x="799" 
d="M757 350q0 -160 -100 -261t-259 -101q-149 0 -252.5 96.5t-103.5 265.5q0 113 51.5 197t132 124t175.5 40q70 0 133 -24t113.5 -68t80 -114t29.5 -155zM193 350q0 -109 59 -167t148 -58q88 0 148 58t60 167q0 106 -60 164.5t-147 58.5q-88 0 -148 -58.5t-60 -164.5z" />
    <glyph glyph-name="P" unicode="P" horiz-adv-x="655" 
d="M232 1h-150v700h299q116 0 182.5 -75t66.5 -180q0 -103 -67 -175t-182 -72h-149v-198zM229 327h152q47 0 76.5 35.5t29.5 87.5q0 51 -29 85.5t-77 34.5q0 1 -76 0h-76v-243z" />
    <glyph glyph-name="Q" unicode="Q" horiz-adv-x="800" 
d="M766 15v-22h-136l-33 54q-92 -57 -203 -57q-147 2 -249.5 100.5t-102.5 259.5q0 162 99.5 263t258.5 101q94 0 174 -41t131.5 -125.5t51.5 -197.5q0 -128 -63 -216zM193 350q0 -101 60.5 -160.5t146.5 -59.5t146.5 59.5t60.5 160.5q0 102 -60.5 161.5t-147.5 59.5
q-85 0 -145.5 -60t-60.5 -161z" />
    <glyph glyph-name="R" unicode="R" horiz-adv-x="691" 
d="M503 255l158 -233v-21h-160l-144 231h-125v-231h-150v700h299q115 0 181 -70.5t66 -169.5q0 -67 -33 -122t-92 -84zM230 355h150q46 0 75 31.5t28 77.5q0 45 -28 75.5t-75 30.5h-150v-215z" />
    <glyph glyph-name="S" unicode="S" horiz-adv-x="648" 
d="M42 207h143q2 -45 43.5 -68t97.5 -23q134 0 134 88q0 23 -10.5 40t-23.5 25.5t-37 14.5t-39.5 8t-42.5 4q-255 22 -255 199q0 109 76 164.5t190 55.5q52 0 97.5 -11.5t84.5 -35.5t62 -66.5t23 -98.5h-140q-6 40 -42 60.5t-85 20.5q-48 0 -83.5 -23.5t-35.5 -62.5
q0 -42 34.5 -59.5t99.5 -24.5q63 -6 106.5 -16t85 -32t62.5 -62.5t21 -99.5t-24 -103t-65.5 -68t-89 -35.5t-102.5 -12.5q-116 0 -200.5 57.5t-84.5 164.5z" />
    <glyph glyph-name="T" unicode="T" horiz-adv-x="554" 
d="M205 570h-187v130h518v-130h-186v-570h-145v570z" />
    <glyph glyph-name="U" unicode="U" horiz-adv-x="707" 
d="M355 -9q-117 0 -198.5 64.5t-81.5 177.5v467h150v-464q0 -54 37.5 -83.5t92.5 -29.5t92 29.5t37 83.5v464h148v-467q0 -113 -80 -177.5t-197 -64.5z" />
    <glyph glyph-name="V" unicode="V" horiz-adv-x="672" 
d="M336 250h3l74 224l94 226h159v-22l-298 -684h-62l-301 684v22h159l94 -225z" />
    <glyph glyph-name="W" unicode="W" horiz-adv-x="970" 
d="M454 688h61l151 -434h3l59 233l70 213h157v-22l-241 -684h-89l-139 378h-3l-135 -378h-92l-242 684v22h157l71 -214l63 -232h3z" />
    <glyph glyph-name="X" unicode="X" horiz-adv-x="671" 
d="M334 459h4l68 132l69 109h162v-22l-211 -308l235 -349v-21h-157l-91 135l-75 131h-5l-77 -135l-87 -131h-159v21l236 349l-212 308v22h163l73 -115z" />
    <glyph glyph-name="Y" unicode="Y" horiz-adv-x="635" 
d="M316 417h5l69 139l84 144h159v-22l-240 -398v-280h-150v280l-241 398v22h161l87 -149z" />
    <glyph glyph-name="Z" unicode="Z" horiz-adv-x="605" 
d="M566 700v-22l-317 -544h320v-134h-547v21l321 548h-293v131h516z" />
    <glyph glyph-name="bracketleft" unicode="[" horiz-adv-x="334" 
d="M294 770v-113h-92v-723h92v-125h-222v961h222z" />
    <glyph glyph-name="backslash" unicode="\" horiz-adv-x="538" 
d="M172 700l338 -699h-144l-338 699h144z" />
    <glyph glyph-name="bracketright" unicode="]" horiz-adv-x="334" 
d="M40 657v113h222v-961h-222v125h92v723h-92z" />
    <glyph glyph-name="asciicircum" unicode="^" horiz-adv-x="561" 
d="M230 707h100l185 -305h-122l-114 186l-110 -186h-122z" />
    <glyph glyph-name="underscore" unicode="_" horiz-adv-x="616" 
d="M60 -132v120h496v-120h-496z" />
    <glyph glyph-name="grave" unicode="`" horiz-adv-x="336" 
d="M268 566v-13h-114l-89 110v12l128 47z" />
    <glyph glyph-name="a" unicode="a" horiz-adv-x="700" 
d="M495 116h-291l-54 -116h-156v20l322 686h69l320 -686v-20h-155zM350 473l-97 -231h194z" />
    <glyph glyph-name="b" unicode="b" horiz-adv-x="672" 
d="M599 492q0 -39 -18.5 -74t-51.5 -55q100 -42 100 -156q0 -94 -59 -150.5t-163 -56.5h-325v699h297q98 0 159 -55.5t61 -151.5zM368 571h-137v-159h137q38 0 60.5 20t23.5 55q1 38 -22 61t-62 23zM390 290h-159v-160h166q38 0 60 20.5t24 56.5q2 46 -31 69q-20 14 -60 14z
" />
    <glyph glyph-name="c" unicode="c" horiz-adv-x="761" 
d="M42 349q0 167 106 263.5t252 94.5q116 0 208 -63.5t115 -185.5h-145q-45 114 -178 114q-93 0 -150 -61.5t-57 -161.5q0 -92 57 -156t149 -64q67 0 116 32t66 94h144q-21 -130 -113 -196t-212 -66q-70 0 -134 23.5t-114 67t-80 112.5t-30 153z" />
    <glyph glyph-name="d" unicode="d" horiz-adv-x="728" 
d="M82 699h260q159 0 251 -102.5t92 -244.5q2 -143 -90 -247.5t-253 -104.5h-260v699zM231 135h109q92 0 144 63t52 153q0 89 -52.5 151t-143.5 62h-109v-429z" />
    <glyph glyph-name="e" unicode="e" horiz-adv-x="572" 
d="M510 700v-131h-278v-142h260v-131h-260v-160h286v-136h-437v700h429z" />
    <glyph glyph-name="f" unicode="f" horiz-adv-x="545" 
d="M481 380v-131h-251v-249h-149v700h429v-131h-280v-189h251z" />
    <glyph glyph-name="g" unicode="g" horiz-adv-x="770" 
d="M42 350q0 111 51.5 194.5t131.5 124t174 40.5q113 0 201.5 -57.5t116.5 -172.5h-147q-49 95 -171 95q-95 0 -150 -63.5t-55 -160.5q0 -100 56 -161.5t149 -61.5q78 0 126.5 29.5t69.5 104.5h-191v126h328q7 -118 -21 -196q-38 -101 -121.5 -150.5t-190.5 -49.5
q-147 0 -252 96.5t-105 262.5z" />
    <glyph glyph-name="h" unicode="h" horiz-adv-x="729" 
d="M648 0h-150v296h-268v-296h-149v700h149v-267h268v267h150v-700z" />
    <glyph glyph-name="i" unicode="i" 
d="M294 119h99v-119h-348v119h99v465h-91v116h332v-116h-91v-465z" />
    <glyph glyph-name="j" unicode="j" horiz-adv-x="630" 
d="M555 700v-468q0 -110 -77.5 -176t-190.5 -66q-112 0 -186.5 65.5t-74.5 176.5v85h139v-82q0 -55 33.5 -83.5t88.5 -28.5q54 0 86 29t32 83v336h-125v129h275z" />
    <glyph glyph-name="k" unicode="k" horiz-adv-x="703" 
d="M230 700v-289q95 0 121 13q25 14 39 47.5t31 104.5q45 163 239 123v-102q-43 4 -66.5 -11t-34.5 -54q-35 -133 -88 -186l214 -324v-22h-169l-176 288q-27 -7 -110 -7v-281h-149v700h149z" />
    <glyph glyph-name="l" unicode="l" horiz-adv-x="539" 
d="M231 700v-566h292v-134h-442v700h150z" />
    <glyph glyph-name="m" unicode="m" horiz-adv-x="833" 
d="M417 369l281 333h54v-702h-150v379l-176 -220h-19l-176 220v-379h-150v702h55z" />
    <glyph glyph-name="n" unicode="n" horiz-adv-x="752" 
d="M626 -2l-396 402v-400h-149v703h47l393 -400v397h150v-702h-45z" />
    <glyph glyph-name="o" unicode="o" horiz-adv-x="799" 
d="M757 350q0 -160 -100 -261t-259 -101q-149 0 -252.5 96.5t-103.5 265.5q0 113 51.5 197t132 124t175.5 40q70 0 133 -24t113.5 -68t80 -114t29.5 -155zM193 350q0 -109 59 -167t148 -58q88 0 148 58t60 167q0 106 -60 164.5t-147 58.5q-88 0 -148 -58.5t-60 -164.5z" />
    <glyph glyph-name="p" unicode="p" horiz-adv-x="655" 
d="M232 1h-150v700h299q116 0 182.5 -75t66.5 -180q0 -103 -67 -175t-182 -72h-149v-198zM229 327h152q47 0 76.5 35.5t29.5 87.5q0 51 -29 85.5t-77 34.5q0 1 -76 0h-76v-243z" />
    <glyph glyph-name="q" unicode="q" horiz-adv-x="800" 
d="M766 15v-22h-136l-33 54q-92 -57 -203 -57q-147 2 -249.5 100.5t-102.5 259.5q0 162 99.5 263t258.5 101q94 0 174 -41t131.5 -125.5t51.5 -197.5q0 -128 -63 -216zM193 350q0 -101 60.5 -160.5t146.5 -59.5t146.5 59.5t60.5 160.5q0 102 -60.5 161.5t-147.5 59.5
q-85 0 -145.5 -60t-60.5 -161z" />
    <glyph glyph-name="r" unicode="r" horiz-adv-x="691" 
d="M503 255l158 -233v-21h-160l-144 231h-125v-231h-150v700h299q115 0 181 -70.5t66 -169.5q0 -67 -33 -122t-92 -84zM230 355h150q46 0 75 31.5t28 77.5q0 45 -28 75.5t-75 30.5h-150v-215z" />
    <glyph glyph-name="s" unicode="s" horiz-adv-x="648" 
d="M42 207h143q2 -45 43.5 -68t97.5 -23q134 0 134 88q0 23 -10.5 40t-23.5 25.5t-37 14.5t-39.5 8t-42.5 4q-255 22 -255 199q0 109 76 164.5t190 55.5q52 0 97.5 -11.5t84.5 -35.5t62 -66.5t23 -98.5h-140q-6 40 -42 60.5t-85 20.5q-48 0 -83.5 -23.5t-35.5 -62.5
q0 -42 34.5 -59.5t99.5 -24.5q63 -6 106.5 -16t85 -32t62.5 -62.5t21 -99.5t-24 -103t-65.5 -68t-89 -35.5t-102.5 -12.5q-116 0 -200.5 57.5t-84.5 164.5z" />
    <glyph glyph-name="t" unicode="t" horiz-adv-x="554" 
d="M205 570h-187v130h518v-130h-186v-570h-145v570z" />
    <glyph glyph-name="u" unicode="u" horiz-adv-x="707" 
d="M355 -9q-117 0 -198.5 64.5t-81.5 177.5v467h150v-464q0 -54 37.5 -83.5t92.5 -29.5t92 29.5t37 83.5v464h148v-467q0 -113 -80 -177.5t-197 -64.5z" />
    <glyph glyph-name="v" unicode="v" horiz-adv-x="672" 
d="M336 250h3l74 224l94 226h159v-22l-298 -684h-62l-301 684v22h159l94 -225z" />
    <glyph glyph-name="w" unicode="w" horiz-adv-x="970" 
d="M454 688h61l151 -434h3l59 233l70 213h157v-22l-241 -684h-89l-139 378h-3l-135 -378h-92l-242 684v22h157l71 -214l63 -232h3z" />
    <glyph glyph-name="x" unicode="x" horiz-adv-x="671" 
d="M334 459h4l68 132l69 109h162v-22l-211 -308l235 -349v-21h-157l-91 135l-75 131h-5l-77 -135l-87 -131h-159v21l236 349l-212 308v22h163l73 -115z" />
    <glyph glyph-name="y" unicode="y" horiz-adv-x="635" 
d="M316 417h5l69 139l84 144h159v-22l-240 -398v-280h-150v280l-241 398v22h161l87 -149z" />
    <glyph glyph-name="z" unicode="z" horiz-adv-x="605" 
d="M566 700v-22l-317 -544h320v-134h-547v21l321 548h-293v131h516z" />
    <glyph glyph-name="braceleft" unicode="{" horiz-adv-x="330" 
d="M288 781v-100q-34 1 -51.5 -10.5t-17.5 -43.5v-195q0 -44 -19.5 -77t-56.5 -47q76 -26 76 -128v-209q0 -33 18 -43t51 -6v-112q-37 0 -57 1t-47 5.5t-41 14t-28 26.5t-20 44t-6 64l-1 203q0 34 -12.5 61.5t-42.5 27.5v103q55 3 55 84l1 188q0 43 11 71.5t26 44t45 23
t52.5 9t64.5 1.5z" />
    <glyph glyph-name="bar" unicode="|" horiz-adv-x="277" 
d="M75 709h127v-796h-127v796z" />
    <glyph glyph-name="braceright" unicode="}" horiz-adv-x="330" 
d="M42 681v100q42 0 64.5 -1.5t52.5 -9t45 -23t26 -44t11 -71.5l1 -188q0 -81 55 -84v-103q-30 0 -42.5 -27.5t-12.5 -61.5l-1 -203q0 -37 -6 -64t-20 -44t-28 -26.5t-41 -14t-47 -5.5t-57 -1v112q33 -4 51 6t18 43v209q0 104 72 128q-72 27 -72 124v195q0 32 -17.5 43.5
t-51.5 10.5z" />
    <glyph glyph-name="asciitilde" unicode="~" horiz-adv-x="622" 
d="M129 264l-84 45q27 93 107 122t164 -19q69 -36 96 -38q51 -4 76 52q18 -8 46.5 -22t45.5 -22q-71 -189 -262 -104q-5 2 -29 12.5t-32 13.5t-28 9t-30 4t-24.5 -6t-25.5 -16t-20 -31z" />
    <glyph glyph-name="exclamdown" unicode="&#xa1;" horiz-adv-x="281" 
d="M140 489q34 0 58 -21.5t24 -54.5q0 -34 -23.5 -55t-58.5 -21q-36 0 -59 20.5t-23 55.5q0 33 23 54.5t59 21.5zM211 280l12 -506h-163l9 506h142z" />
    <glyph glyph-name="cent" unicode="&#xa2;" horiz-adv-x="598" 
d="M549 306l-130 -1q-13 31 -40 47l-83 -240q40 -6 75.5 13.5t49.5 61.5l132 -1q-11 -74 -58.5 -123t-110 -65t-128.5 -4l-25 -74h-63l31 91q-65 28 -104.5 87t-39.5 144q0 92 48.5 155t119 85.5t143.5 8.5l26 74h59l-31 -91q108 -48 129 -168zM244 136l80 236
q-51 2 -91 -32.5t-40 -97.5q0 -66 51 -106z" />
    <glyph glyph-name="sterling" unicode="&#xa3;" horiz-adv-x="671" 
d="M48 304v94h70q-13 80 3 141t56 96t91.5 53t113.5 19q105 1 210 -47l-45 -107q-86 39 -160 35q-70 -4 -106 -50t-19 -140h217v-94h-204q8 -66 -2 -111q-13 -46 -34 -73q22 12 52 13.5t55 -3.5t56.5 -11t49.5 -6q33 0 47.5 19t11.5 72h116q14 -98 -20.5 -155t-125.5 -57
q-23 0 -68 8.5t-81 15.5t-75 4.5t-59 -21.5h-144v13q47 43 66.5 87t20.5 100q1 45 -10 105h-83z" />
    <glyph glyph-name="currency" unicode="&#xa4;" horiz-adv-x="568" 
d="M141 546l48 -47q43 23 95 23q51 0 95 -23l47 47l71 -69l-49 -48q23 -38 23 -92q0 -52 -23 -93l49 -48l-71 -68l-47 47q-43 -23 -95 -23t-95 23l-48 -47l-70 68l48 49q-21 38 -21 92q0 53 21 92l-48 48zM207 337q0 -40 22.5 -61t54.5 -21t54.5 21t22.5 61t-22.5 61.5
t-54.5 21.5t-54.5 -21.5t-22.5 -61.5z" />
    <glyph glyph-name="yen" unicode="&#xa5;" horiz-adv-x="623" 
d="M384 0h-146v119h-133v82h133v50h-133v82h105l-176 346v21h160l119 -278l117 278h159v-21l-177 -346h106v-82h-134v-50h134v-82h-134v-119z" />
    <glyph glyph-name="brokenbar" unicode="&#xa6;" horiz-adv-x="279" 
d="M76 709h127v-322h-127v322zM76 305h127v-326h-127v326z" />
    <glyph glyph-name="section" unicode="&#xa7;" horiz-adv-x="647" 
d="M407 204q57 27 57 78q0 72 -159 83q-27 1 -51 6q-61 -27 -60 -76q2 -37 32.5 -56t90.5 -25q81 -8 90 -10zM140 408q-78 41 -78 123q0 89 74.5 138t178.5 49q102 0 179 -48t77 -136h-135q-2 37 -36 54t-82 17q-45 0 -80 -17t-35 -55q0 -18 8.5 -30t27.5 -19t38 -10t52 -7
q49 -4 82.5 -10t71 -18.5t60 -30.5t37.5 -49t15 -72q-1 -76 -69 -125q69 -42 69 -128q0 -59 -41 -102t-100 -62t-128 -21q-71 0 -131.5 19t-102 63t-41.5 106q24 0 69 0.5t68 0.5q2 -38 43.5 -58.5t92.5 -18.5q49 0 88.5 19t39.5 54q0 12 -3 22t-10.5 17.5t-14 13t-20 9.5
t-20.5 6.5t-24 5t-23 3t-24.5 2t-20.5 1.5q-227 16 -231 167q0 80 79 127z" />
    <glyph glyph-name="dieresis" unicode="&#xa8;" horiz-adv-x="596" 
d="M419 568q-34 0 -56.5 20t-22.5 52t22.5 52t56.5 20t56.5 -20t22.5 -52t-22.5 -52t-56.5 -20zM153 568q-33 0 -56 20t-23 52t23 52t56 20q34 0 57 -20t23 -52t-23 -52t-57 -20z" />
    <glyph glyph-name="copyright" unicode="&#xa9;" horiz-adv-x="787" 
d="M737 347q0 -83 -29.5 -150.5t-78 -109t-110 -64t-126 -23t-126 22t-110 64t-78 109t-29.5 151.5q0 83 29.5 150.5t78 109t110 64t126 22.5t126 -22.5t110 -64t78 -109t29.5 -150.5zM547 387l-81 -1q-12 35 -46.5 43.5t-64.5 -14.5t-30 -69q0 -42 27.5 -66.5t62 -17
t52.5 48.5l82 -1q-7 -43 -33 -74t-60.5 -43.5t-73 -9.5t-71 21.5t-53.5 55.5t-21 86t21 86t53 55.5t70.5 22.5t72.5 -8t60 -42t33 -73zM151 347q0 -62 21 -112.5t55 -81.5t77.5 -47.5t89 -16.5t89 16.5t77.5 47.5t55 81.5t21 112.5q0 82 -36 142.5t-90 87.5t-116.5 27
t-116.5 -27t-90 -87.5t-36 -142.5z" />
    <glyph glyph-name="ordfeminine" unicode="&#xaa;" horiz-adv-x="491" 
d="M310 391v10q-30 -56 -120 -56q-54 0 -89.5 26t-41.5 81q-6 60 37 94.5t105 34.5q54 -2 89 -23v15q0 30 -25.5 42.5t-59.5 12.5q-58 0 -97 -20l-14 71q57 27 128 27q76 0 125.5 -32t49.5 -104v-127q0 -14 1.5 -21t8.5 -11.5t22 -4.5v-57q-19 -4 -37 -5.5t-37.5 1
t-31.5 14.5t-13 32zM85 193v88h333v-88h-333zM290 474v19q-31 19 -72 19q-26 -2 -41 -16t-13 -34q1 -40 48 -40q28 0 51.5 13.5t26.5 38.5z" />
    <glyph glyph-name="guillemotleft" unicode="&#xab;" horiz-adv-x="527" 
d="M274 558l-98 -212l98 -209l-79 -33l-151 242l151 244zM472 558l-98 -212l98 -209l-79 -33l-151 242l151 244z" />
    <glyph glyph-name="logicalnot" unicode="&#xac;" horiz-adv-x="576" 
d="M64 276v120h439v-273h-112v153h-327z" />
    <glyph glyph-name="registered" unicode="&#xae;" horiz-adv-x="787" 
d="M737 350q0 -83 -29.5 -150.5t-78 -109t-110 -64t-126 -23t-126 22t-110 64t-78 109t-29.5 151.5q0 83 29.5 150.5t78 109t110 64t126 22.5t126 -22.5t110 -64t78 -109t29.5 -150.5zM479 307l69 -103v-15h-85l-65 106h-41v-106h-83v325h144q54 0 88 -30t34 -83
q0 -32 -16 -58.5t-45 -35.5zM357 442v-80h53q21 0 34 11.5t13 28.5q0 18 -12 29t-35 11h-53zM152 350q0 -62 21 -112.5t55 -81.5t77.5 -47.5t88.5 -16.5t88.5 16.5t77.5 47.5t55 81.5t21 112.5t-21 112.5t-55 81.5t-77.5 47.5t-88.5 16.5t-88.5 -16.5t-77.5 -47.5t-55 -81.5
t-21 -112.5z" />
    <glyph glyph-name="macron" unicode="&#xaf;" horiz-adv-x="499" 
d="M87 591v107h320v-107h-320z" />
    <glyph glyph-name="degree" unicode="&#xb0;" horiz-adv-x="447" 
d="M403 544q0 -54 -26.5 -93t-66.5 -57t-86.5 -18t-86.5 18t-66.5 57t-26.5 93q0 46 20 82t51.5 55t69.5 27.5t76.5 0t70 -27.5t51.5 -55t20 -82zM146 544q0 -36 24 -57t52.5 -21t52.5 21t24 57t-24 57t-52.5 21t-52.5 -21t-24 -57z" />
    <glyph glyph-name="plusminus" unicode="&#xb1;" horiz-adv-x="514" 
d="M69 308v114h132v130h111v-130h134v-114h-134v-128h-111v128h-132zM68 16v113h378v-113h-378z" />
    <glyph glyph-name="twosuperior" unicode="&#xb2;" horiz-adv-x="417" 
d="M353 413v-93h-294v23l165 217q32 39 23.5 71t-48.5 32q-21 0 -33.5 -12.5t-13.5 -33.5h-88q-1 65 35 101.5t103 36.5q52 0 87.5 -22t49 -55.5t8 -72.5t-30.5 -72l-96 -120h133z" />
    <glyph glyph-name="threesuperior" unicode="&#xb3;" horiz-adv-x="401" 
d="M45 450h94q1 -21 17.5 -33.5t41.5 -12.5t41 16t16 39q0 31 -17 46t-41.5 14.5t-52.5 -1.5v14l73 130h-154v86h286v-15l-84 -145q93 -21 93 -128q0 -59 -42.5 -103.5t-116.5 -44.5q-65 0 -108.5 37.5t-45.5 100.5z" />
    <glyph glyph-name="acute" unicode="&#xb4;" horiz-adv-x="303" 
d="M164 553h-114v13l75 156l128 -47v-12z" />
    <glyph glyph-name="mu" unicode="&#xb5;" horiz-adv-x="585" 
d="M532 0h-134v68q-9 -34 -35 -53.5t-63 -19.5q-66 0 -96 53v-298h-133v733h133v-284q1 -47 26 -72.5t66 -26.5q42 0 72 29t30 77v277h134v-483z" />
    <glyph glyph-name="mu" unicode="&#x3bc;" horiz-adv-x="585" 
d="M532 0h-134v68q-9 -34 -35 -53.5t-63 -19.5q-66 0 -96 53v-298h-133v733h133v-284q1 -47 26 -72.5t66 -26.5q42 0 72 29t30 77v277h134v-483z" />
    <glyph glyph-name="paragraph" unicode="&#xb6;" horiz-adv-x="775" 
d="M688 -216h-139v788h-145v-788h-135v394q-56 1 -101.5 24.5t-74.5 60.5t-44.5 83.5t-16 95t15 95t45 82.5t79 58t110.5 22h406v-915z" />
    <glyph glyph-name="periodcentered" unicode="&#xb7;" horiz-adv-x="278" 
d="M139 282q-36 0 -59.5 21t-23.5 56t23.5 56t59.5 21t59.5 -21t23.5 -56t-23.5 -56t-59.5 -21z" />
    <glyph glyph-name="cedilla" unicode="&#xb8;" horiz-adv-x="392" 
d="M133 -78l25 92h103l-15 -61q47 -6 65 -42.5t5 -76.5q-15 -42 -58.5 -59.5t-92 -11.5t-85.5 30l8 77q24 -19 65.5 -21t52.5 22q7 24 -19 37.5t-54 13.5z" />
    <glyph glyph-name="onesuperior" unicode="&#xb9;" horiz-adv-x="358" 
d="M58 320v85h73v259h-64v84h169v-343h74v-85h-252z" />
    <glyph glyph-name="ordmasculine" unicode="&#xba;" horiz-adv-x="540" 
d="M478 533q0 -54 -23 -96t-60 -64t-82 -32t-90 0t-82 32t-60 64t-23 96q0 47 18 85t47.5 61.5t67.5 36t77 12.5t77 -12.5t67.5 -36t47.5 -61.5t18 -85zM175 534q0 -46 29 -72t64.5 -26t64.5 26t29 72q0 45 -29 71t-64.5 26t-64.5 -26t-29 -71zM64 160v110h415v-110h-415z
" />
    <glyph glyph-name="guillemotright" unicode="&#xbb;" horiz-adv-x="527" 
d="M351 346l-98 212l79 32l151 -244l-151 -242l-79 33zM153 346l-98 212l79 32l151 -244l-151 -242l-79 33z" />
    <glyph glyph-name="onequarter" unicode="&#xbc;" horiz-adv-x="960" 
d="M791 164v70q1 12 2.5 44t3.5 44h-1l-95 -158h90zM883 80v-80h-99v80h-203v47l188 301h114v-260h40v-88h-40zM251 1l338 699h124l-338 -699h-124zM46 283v83h73v258h-63v83h167v-341h73v-83h-250z" />
    <glyph glyph-name="onehalf" unicode="&#xbd;" horiz-adv-x="974" 
d="M253 1l338 699h124l-338 -699h-124zM46 279v84h73v260h-63v84h168v-344h74v-84h-252zM932 93v-93h-294v23l165 217q32 39 23.5 71t-48.5 32q-21 0 -33.5 -12.5t-13.5 -33.5h-88q-1 65 35 101.5t103 36.5q52 0 87.5 -22t49 -55.5t8 -72.5t-30.5 -72l-96 -120h133z" />
    <glyph glyph-name="threequarters" unicode="&#xbe;" horiz-adv-x="981" 
d="M812 164v70q2 12 3 37t3 37h-1l-95 -144h90zM904 80v-80h-99v80h-203v47l188 301h114v-260h40v-88h-40zM272 1l338 699h124l-338 -699h-124zM37 407h94q1 -21 17.5 -33.5t41.5 -12.5t41 16t16 39q0 31 -17 46t-41.5 14.5t-52.5 -1.5v14l73 130h-154v86h286v-15l-84 -145
q93 -21 93 -128q0 -59 -42.5 -103.5t-116.5 -44.5q-65 0 -108.5 37.5t-45.5 100.5z" />
    <glyph glyph-name="questiondown" unicode="&#xbf;" horiz-adv-x="507" 
d="M192 296h132q0 -54 -16 -96.5t-36 -65t-45.5 -53.5t-37.5 -58q-21 -40 -1.5 -79.5t72.5 -39.5q36 0 63 20.5t31 57.5h123q0 -101 -61.5 -155.5t-156.5 -56.5t-159.5 52t-64.5 154q0 35 16 67.5t39.5 59.5t46.5 54.5t39 63.5t16 75zM256 497q36 0 59.5 -21.5t23.5 -54.5
q0 -35 -23.5 -56t-59.5 -21t-58.5 21t-22.5 56q0 34 23 55t58 21z" />
    <glyph glyph-name="Agrave" unicode="&#xc0;" horiz-adv-x="700" 
d="M495 116h-291l-54 -116h-156v20l322 686h69l320 -686v-20h-155zM350 473l-97 -231h194zM403 775v-13h-114l-89 110v12l128 47z" />
    <glyph glyph-name="Aacute" unicode="&#xc1;" horiz-adv-x="700" 
d="M495 116h-291l-54 -116h-156v20l322 686h69l320 -686v-20h-155zM350 473l-97 -231h194zM405 764h-114v13l75 156l128 -47v-12z" />
    <glyph glyph-name="Acircumflex" unicode="&#xc2;" horiz-adv-x="700" 
d="M495 116h-291l-54 -116h-156v20l322 686h69l320 -686v-20h-155zM350 473l-97 -231h194zM564 743h-133l-79 78l-78 -78h-135v14l143 148h140l142 -149v-13z" />
    <glyph glyph-name="Atilde" unicode="&#xc3;" horiz-adv-x="700" 
d="M495 116h-291l-54 -116h-156v20l322 686h69l320 -686v-20h-155zM350 473l-97 -231h194zM238 753l-75 36q62 155 198 86q81 -45 104 13q13 -6 36.5 -17t36.5 -17q-21 -69 -73 -95.5t-115 4.5q-27 14 -42.5 20t-36.5 1t-33 -31z" />
    <glyph glyph-name="Adieresis" unicode="&#xc4;" horiz-adv-x="700" 
d="M495 116h-291l-54 -116h-156v20l322 686h69l320 -686v-20h-155zM350 473l-97 -231h194zM483 741q-34 0 -56.5 20t-22.5 52t22.5 52t56.5 20t56.5 -20t22.5 -52t-22.5 -52t-56.5 -20zM217 741q-33 0 -56 20t-23 52t23 52t56 20q34 0 57 -20t23 -52t-23 -52t-57 -20z" />
    <glyph glyph-name="Aring" unicode="&#xc5;" horiz-adv-x="703" 
d="M296 808q0 -31 26.5 -43.5t53 0t26.5 43.5q0 30 -26.5 42.5t-53 0t-26.5 -42.5zM352 461l-97 -219h194zM497 116h-291l-54 -116h-156v20l314 669q-42 11 -68.5 41t-26.5 78q0 34 15 60.5t38.5 40.5t52 20.5t57 0t52 -20.5t38.5 -40.5t15 -60.5q0 -46 -24.5 -75.5
t-64.5 -41.5l313 -671v-20h-155z" />
    <glyph glyph-name="AE" unicode="&#xc6;" horiz-adv-x="824" 
d="M215 169l-76 -169h-144v22l326 676h440v-128h-243v-145h227v-124h-227v-173h254v-128h-382v169h-175zM394 570l-133 -279h129l6 279h-2z" />
    <glyph glyph-name="Ccedilla" unicode="&#xc7;" horiz-adv-x="762" 
d="M43 349q0 167 106 263.5t252 94.5q116 0 208 -63.5t115 -185.5h-145q-45 114 -178 114q-93 0 -150 -61.5t-57 -161.5q0 -92 57 -156t149 -64q67 0 116 32t66 94h144q-19 -112 -91.5 -177t-172.5 -80l-13 -53q48 -6 66 -38t5 -76q-10 -32 -38.5 -50.5t-63 -21t-70.5 5.5
t-64 25l8 77q22 -18 62 -18.5t50 23.5q7 25 -16 36t-51 11l20 77q-133 13 -223.5 107t-90.5 246z" />
    <glyph glyph-name="Egrave" unicode="&#xc8;" horiz-adv-x="572" 
d="M510 700v-131h-278v-142h260v-131h-260v-160h286v-136h-437v700h429zM369 775v-13h-114l-89 110v12l128 47z" />
    <glyph glyph-name="Eacute" unicode="&#xc9;" horiz-adv-x="572" 
d="M510 700v-131h-278v-142h260v-131h-260v-160h286v-136h-437v700h429zM347 768h-114v13l75 156l128 -47v-12z" />
    <glyph glyph-name="Ecircumflex" unicode="&#xca;" horiz-adv-x="572" 
d="M510 700v-131h-278v-142h260v-131h-260v-160h286v-136h-437v700h429zM505 763h-127l-76 76l-74 -76h-129v13l136 146h134l136 -147v-12z" />
    <glyph glyph-name="Edieresis" unicode="&#xcb;" horiz-adv-x="572" 
d="M510 700v-131h-278v-142h260v-131h-260v-160h286v-136h-437v700h429zM429 761q-34 0 -56.5 20t-22.5 52t22.5 52t56.5 20t56.5 -20t22.5 -52t-22.5 -52t-56.5 -20zM163 761q-33 0 -56 20t-23 52t23 52t56 20q34 0 57 -20t23 -52t-23 -52t-57 -20z" />
    <glyph glyph-name="Igrave" unicode="&#xcc;" 
d="M294 119h99v-119h-348v119h99v465h-91v116h332v-116h-91v-465zM276 780v-13h-114l-89 110v12l128 47z" />
    <glyph glyph-name="Iacute" unicode="&#xcd;" 
d="M294 119h99v-119h-348v119h99v465h-91v116h332v-116h-91v-465zM264 765h-114v13l75 156l128 -47v-12z" />
    <glyph glyph-name="Icircumflex" unicode="&#xce;" 
d="M294 119h99v-119h-348v119h99v465h-91v116h332v-116h-91v-465zM427 768h-128l-75 76l-75 -76h-129v14l137 144h134l136 -145v-13z" />
    <glyph glyph-name="Idieresis" unicode="&#xcf;" 
d="M294 119h99v-119h-348v119h99v465h-91v116h332v-116h-91v-465zM357 764q-34 0 -56.5 20t-22.5 52t22.5 52t56.5 20t56.5 -20t22.5 -52t-22.5 -52t-56.5 -20zM91 764q-33 0 -56 20t-23 52t23 52t56 20q34 0 57 -20t23 -52t-23 -52t-57 -20z" />
    <glyph glyph-name="Eth" unicode="&#xd0;" horiz-adv-x="737" 
d="M15 286v117h76v296h260q159 0 251 -102.5t92 -244.5q2 -143 -90 -247.5t-253 -104.5h-260v286h-76zM240 135h109q92 0 144 63t52 153q0 89 -52.5 151t-143.5 62h-109v-161h112v-117h-112v-151z" />
    <glyph glyph-name="Ntilde" unicode="&#xd1;" horiz-adv-x="752" 
d="M626 -2l-396 402v-400h-149v703h47l393 -400v397h150v-702h-45zM234 750l-75 36q62 155 198 86q81 -45 104 13q13 -6 36.5 -17t36.5 -17q-21 -69 -73 -95.5t-115 4.5q-27 14 -42.5 20t-36.5 1t-33 -31z" />
    <glyph glyph-name="Ograve" unicode="&#xd2;" horiz-adv-x="799" 
d="M757 350q0 -160 -100 -261t-259 -101q-149 0 -252.5 96.5t-103.5 265.5q0 113 51.5 197t132 124t175.5 40q70 0 133 -24t113.5 -68t80 -114t29.5 -155zM193 350q0 -109 59 -167t148 -58q88 0 148 58t60 167q0 106 -60 164.5t-147 58.5q-88 0 -148 -58.5t-60 -164.5z
M473 787v-12h-124l-97 106v12l139 46z" />
    <glyph glyph-name="Oacute" unicode="&#xd3;" horiz-adv-x="799" 
d="M757 350q0 -160 -100 -261t-259 -101q-149 0 -252.5 96.5t-103.5 265.5q0 113 51.5 197t132 124t175.5 40q70 0 133 -24t113.5 -68t80 -114t29.5 -155zM193 350q0 -109 59 -167t148 -58q88 0 148 58t60 167q0 106 -60 164.5t-147 58.5q-88 0 -148 -58.5t-60 -164.5z
M450 783h-125v13l82 154l139 -46v-12z" />
    <glyph glyph-name="Ocircumflex" unicode="&#xd4;" horiz-adv-x="799" 
d="M757 350q0 -160 -100 -261t-259 -101q-149 0 -252.5 96.5t-103.5 265.5q0 113 51.5 197t132 124t175.5 40q70 0 133 -24t113.5 -68t80 -114t29.5 -155zM193 350q0 -109 59 -167t148 -58q88 0 148 58t60 167q0 106 -60 164.5t-147 58.5q-88 0 -148 -58.5t-60 -164.5z
M606 763h-133l-79 78l-78 -78h-135v14l143 148h140l142 -149v-13z" />
    <glyph glyph-name="Otilde" unicode="&#xd5;" horiz-adv-x="799" 
d="M757 350q0 -160 -100 -261t-259 -101q-149 0 -252.5 96.5t-103.5 265.5q0 113 51.5 197t132 124t175.5 40q70 0 133 -24t113.5 -68t80 -114t29.5 -155zM193 350q0 -109 59 -167t148 -58q88 0 148 58t60 167q0 106 -60 164.5t-147 58.5q-88 0 -148 -58.5t-60 -164.5z
M287 772l-75 36q62 155 198 86q81 -45 104 13q14 -6 36.5 -17t36.5 -17q-21 -69 -73 -95.5t-115 4.5q-27 14 -42.5 20t-36.5 1t-33 -31z" />
    <glyph glyph-name="Odieresis" unicode="&#xd6;" horiz-adv-x="799" 
d="M757 350q0 -160 -100 -261t-259 -101q-149 0 -252.5 96.5t-103.5 265.5q0 113 51.5 197t132 124t175.5 40q70 0 133 -24t113.5 -68t80 -114t29.5 -155zM193 350q0 -109 59 -167t148 -58q88 0 148 58t60 167q0 106 -60 164.5t-147 58.5q-88 0 -148 -58.5t-60 -164.5z
M541 766q-34 0 -56.5 20t-22.5 52t22.5 52t56.5 20t56.5 -20t22.5 -52t-22.5 -52t-56.5 -20zM275 766q-33 0 -56 20t-23 52t23 52t56 20q34 0 57 -20t23 -52t-23 -52t-57 -20z" />
    <glyph glyph-name="multiply" unicode="&#xd7;" horiz-adv-x="477" 
d="M56 445l84 85l99 -98l98 96l83 -83l-97 -98l98 -98l-85 -84l-97 97l-97 -96l-85 84l97 97z" />
    <glyph glyph-name="Oslash" unicode="&#xd8;" horiz-adv-x="796" 
d="M712 742l-72 -120q114 -101 114 -272q0 -113 -51.5 -197.5t-131.5 -124.5t-174 -40q-65 0 -122 22l-42 -70h-140v15l70 117q-121 101 -121 278q0 113 51.5 197t131.5 124t174 40q71 0 132 -24l40 69h141v-14zM554 492l-209 -352q24 -10 55 -10q85 0 145 60t60 160
q0 88 -51 142zM248 200l213 358q-31 11 -62 11q-86 0 -146.5 -59t-60.5 -160q0 -94 56 -150z" />
    <glyph glyph-name="Ugrave" unicode="&#xd9;" horiz-adv-x="707" 
d="M355 -9q-117 0 -198.5 64.5t-81.5 177.5v467h150v-464q0 -54 37.5 -83.5t92.5 -29.5t92 29.5t37 83.5v464h148v-467q0 -113 -80 -177.5t-197 -64.5zM422 778v-13h-114l-89 110v12l128 47z" />
    <glyph glyph-name="Uacute" unicode="&#xda;" horiz-adv-x="707" 
d="M355 -9q-117 0 -198.5 64.5t-81.5 177.5v467h150v-464q0 -54 37.5 -83.5t92.5 -29.5t92 29.5t37 83.5v464h148v-467q0 -113 -80 -177.5t-197 -64.5zM399 764h-114v13l75 156l128 -47v-12z" />
    <glyph glyph-name="Ucircumflex" unicode="&#xdb;" horiz-adv-x="707" 
d="M355 -9q-117 0 -198.5 64.5t-81.5 177.5v467h150v-464q0 -54 37.5 -83.5t92.5 -29.5t92 29.5t37 83.5v464h148v-467q0 -113 -80 -177.5t-197 -64.5zM568 773h-133l-79 78l-78 -78h-135v14l143 148h140l142 -149v-13z" />
    <glyph glyph-name="Udieresis" unicode="&#xdc;" horiz-adv-x="707" 
d="M355 -9q-117 0 -198.5 64.5t-81.5 177.5v467h150v-464q0 -54 37.5 -83.5t92.5 -29.5t92 29.5t37 83.5v464h148v-467q0 -113 -80 -177.5t-197 -64.5zM483 759q-34 0 -56.5 20t-22.5 52t22.5 52t56.5 20t56.5 -20t22.5 -52t-22.5 -52t-56.5 -20zM217 759q-33 0 -56 20
t-23 52t23 52t56 20q34 0 57 -20t23 -52t-23 -52t-57 -20z" />
    <glyph glyph-name="Yacute" unicode="&#xdd;" horiz-adv-x="635" 
d="M316 417h5l69 139l84 144h159v-22l-240 -398v-280h-150v280l-241 398v22h161l87 -149zM365 772h-114v13l75 156l128 -47v-12z" />
    <glyph glyph-name="Thorn" unicode="&#xde;" horiz-adv-x="662" 
d="M229 231h152q46 0 75.5 37.5t29.5 88.5t-28.5 87.5t-76.5 36.5h-152v-250zM81 0v700h150v-91h150q116 0 182.5 -75t66.5 -181q-2 -104 -67.5 -177t-181.5 -73h-150v-103h-150z" />
    <glyph glyph-name="germandbls" unicode="&#xdf;" horiz-adv-x="613" 
d="M65 0v494q0 300 488 170v-25l-117 -227q72 -11 105.5 -64t33.5 -124q0 -135 -83.5 -195.5t-210.5 -19.5v110q67 -19 110 14.5t43 90.5q0 62 -45 86.5t-111 15.5v26l106 224q-69 28 -124 3.5t-55 -94.5v-11.5t-0.5 -36.5t-0.5 -74v-141.5v-221.5h-139z" />
    <glyph glyph-name="agrave" unicode="&#xe0;" horiz-adv-x="700" 
d="M495 116h-291l-54 -116h-156v20l322 686h69l320 -686v-20h-155zM350 473l-97 -231h194zM403 775v-13h-114l-89 110v12l128 47z" />
    <glyph glyph-name="aacute" unicode="&#xe1;" horiz-adv-x="700" 
d="M495 116h-291l-54 -116h-156v20l322 686h69l320 -686v-20h-155zM350 473l-97 -231h194zM405 764h-114v13l75 156l128 -47v-12z" />
    <glyph glyph-name="acircumflex" unicode="&#xe2;" horiz-adv-x="700" 
d="M495 116h-291l-54 -116h-156v20l322 686h69l320 -686v-20h-155zM350 473l-97 -231h194zM564 743h-133l-79 78l-78 -78h-135v14l143 148h140l142 -149v-13z" />
    <glyph glyph-name="atilde" unicode="&#xe3;" horiz-adv-x="700" 
d="M495 116h-291l-54 -116h-156v20l322 686h69l320 -686v-20h-155zM350 473l-97 -231h194zM238 753l-75 36q62 155 198 86q81 -45 104 13q13 -6 36.5 -17t36.5 -17q-21 -69 -73 -95.5t-115 4.5q-27 14 -42.5 20t-36.5 1t-33 -31z" />
    <glyph glyph-name="adieresis" unicode="&#xe4;" horiz-adv-x="700" 
d="M495 116h-291l-54 -116h-156v20l322 686h69l320 -686v-20h-155zM350 473l-97 -231h194zM483 741q-34 0 -56.5 20t-22.5 52t22.5 52t56.5 20t56.5 -20t22.5 -52t-22.5 -52t-56.5 -20zM217 741q-33 0 -56 20t-23 52t23 52t56 20q34 0 57 -20t23 -52t-23 -52t-57 -20z" />
    <glyph glyph-name="aring" unicode="&#xe5;" horiz-adv-x="703" 
d="M296 808q0 -31 26.5 -43.5t53 0t26.5 43.5q0 30 -26.5 42.5t-53 0t-26.5 -42.5zM352 461l-97 -219h194zM497 116h-291l-54 -116h-156v20l314 669q-42 11 -68.5 41t-26.5 78q0 34 15 60.5t38.5 40.5t52 20.5t57 0t52 -20.5t38.5 -40.5t15 -60.5q0 -46 -24.5 -75.5
t-64.5 -41.5l313 -671v-20h-155z" />
    <glyph glyph-name="ae" unicode="&#xe6;" horiz-adv-x="824" 
d="M215 169l-76 -169h-144v22l326 676h440v-128h-243v-145h227v-124h-227v-173h254v-128h-382v169h-175zM394 570l-133 -279h129l6 279h-2z" />
    <glyph glyph-name="ccedilla" unicode="&#xe7;" horiz-adv-x="762" 
d="M43 349q0 167 106 263.5t252 94.5q116 0 208 -63.5t115 -185.5h-145q-45 114 -178 114q-93 0 -150 -61.5t-57 -161.5q0 -92 57 -156t149 -64q67 0 116 32t66 94h144q-19 -112 -91.5 -177t-172.5 -80l-13 -53q48 -6 66 -38t5 -76q-10 -32 -38.5 -50.5t-63 -21t-70.5 5.5
t-64 25l8 77q22 -18 62 -18.5t50 23.5q7 25 -16 36t-51 11l20 77q-133 13 -223.5 107t-90.5 246z" />
    <glyph glyph-name="egrave" unicode="&#xe8;" horiz-adv-x="572" 
d="M510 700v-131h-278v-142h260v-131h-260v-160h286v-136h-437v700h429zM369 775v-13h-114l-89 110v12l128 47z" />
    <glyph glyph-name="eacute" unicode="&#xe9;" horiz-adv-x="572" 
d="M510 700v-131h-278v-142h260v-131h-260v-160h286v-136h-437v700h429zM347 768h-114v13l75 156l128 -47v-12z" />
    <glyph glyph-name="ecircumflex" unicode="&#xea;" horiz-adv-x="572" 
d="M510 700v-131h-278v-142h260v-131h-260v-160h286v-136h-437v700h429zM505 763h-127l-76 76l-74 -76h-129v13l136 146h134l136 -147v-12z" />
    <glyph glyph-name="edieresis" unicode="&#xeb;" horiz-adv-x="572" 
d="M510 700v-131h-278v-142h260v-131h-260v-160h286v-136h-437v700h429zM429 761q-34 0 -56.5 20t-22.5 52t22.5 52t56.5 20t56.5 -20t22.5 -52t-22.5 -52t-56.5 -20zM163 761q-33 0 -56 20t-23 52t23 52t56 20q34 0 57 -20t23 -52t-23 -52t-57 -20z" />
    <glyph glyph-name="igrave" unicode="&#xec;" 
d="M294 119h99v-119h-348v119h99v465h-91v116h332v-116h-91v-465zM276 780v-13h-114l-89 110v12l128 47z" />
    <glyph glyph-name="iacute" unicode="&#xed;" 
d="M294 119h99v-119h-348v119h99v465h-91v116h332v-116h-91v-465zM264 765h-114v13l75 156l128 -47v-12z" />
    <glyph glyph-name="icircumflex" unicode="&#xee;" 
d="M294 119h99v-119h-348v119h99v465h-91v116h332v-116h-91v-465zM427 768h-128l-75 76l-75 -76h-129v14l137 144h134l136 -145v-13z" />
    <glyph glyph-name="idieresis" unicode="&#xef;" 
d="M294 119h99v-119h-348v119h99v465h-91v116h332v-116h-91v-465zM357 764q-34 0 -56.5 20t-22.5 52t22.5 52t56.5 20t56.5 -20t22.5 -52t-22.5 -52t-56.5 -20zM91 764q-33 0 -56 20t-23 52t23 52t56 20q34 0 57 -20t23 -52t-23 -52t-57 -20z" />
    <glyph glyph-name="eth" unicode="&#xf0;" horiz-adv-x="737" 
d="M15 286v117h76v296h260q159 0 251 -102.5t92 -244.5q2 -143 -90 -247.5t-253 -104.5h-260v286h-76zM240 135h109q92 0 144 63t52 153q0 89 -52.5 151t-143.5 62h-109v-161h112v-117h-112v-151z" />
    <glyph glyph-name="ntilde" unicode="&#xf1;" horiz-adv-x="752" 
d="M626 -2l-396 402v-400h-149v703h47l393 -400v397h150v-702h-45zM234 750l-75 36q62 155 198 86q81 -45 104 13q13 -6 36.5 -17t36.5 -17q-21 -69 -73 -95.5t-115 4.5q-27 14 -42.5 20t-36.5 1t-33 -31z" />
    <glyph glyph-name="ograve" unicode="&#xf2;" horiz-adv-x="799" 
d="M757 350q0 -160 -100 -261t-259 -101q-149 0 -252.5 96.5t-103.5 265.5q0 113 51.5 197t132 124t175.5 40q70 0 133 -24t113.5 -68t80 -114t29.5 -155zM193 350q0 -109 59 -167t148 -58q88 0 148 58t60 167q0 106 -60 164.5t-147 58.5q-88 0 -148 -58.5t-60 -164.5z
M473 787v-12h-124l-97 106v12l139 46z" />
    <glyph glyph-name="oacute" unicode="&#xf3;" horiz-adv-x="799" 
d="M757 350q0 -160 -100 -261t-259 -101q-149 0 -252.5 96.5t-103.5 265.5q0 113 51.5 197t132 124t175.5 40q70 0 133 -24t113.5 -68t80 -114t29.5 -155zM193 350q0 -109 59 -167t148 -58q88 0 148 58t60 167q0 106 -60 164.5t-147 58.5q-88 0 -148 -58.5t-60 -164.5z
M450 783h-125v13l82 154l139 -46v-12z" />
    <glyph glyph-name="ocircumflex" unicode="&#xf4;" horiz-adv-x="799" 
d="M757 350q0 -160 -100 -261t-259 -101q-149 0 -252.5 96.5t-103.5 265.5q0 113 51.5 197t132 124t175.5 40q70 0 133 -24t113.5 -68t80 -114t29.5 -155zM193 350q0 -109 59 -167t148 -58q88 0 148 58t60 167q0 106 -60 164.5t-147 58.5q-88 0 -148 -58.5t-60 -164.5z
M606 763h-133l-79 78l-78 -78h-135v14l143 148h140l142 -149v-13z" />
    <glyph glyph-name="otilde" unicode="&#xf5;" horiz-adv-x="799" 
d="M757 350q0 -160 -100 -261t-259 -101q-149 0 -252.5 96.5t-103.5 265.5q0 113 51.5 197t132 124t175.5 40q70 0 133 -24t113.5 -68t80 -114t29.5 -155zM193 350q0 -109 59 -167t148 -58q88 0 148 58t60 167q0 106 -60 164.5t-147 58.5q-88 0 -148 -58.5t-60 -164.5z
M287 772l-75 36q62 155 198 86q81 -45 104 13q14 -6 36.5 -17t36.5 -17q-21 -69 -73 -95.5t-115 4.5q-27 14 -42.5 20t-36.5 1t-33 -31z" />
    <glyph glyph-name="odieresis" unicode="&#xf6;" horiz-adv-x="799" 
d="M757 350q0 -160 -100 -261t-259 -101q-149 0 -252.5 96.5t-103.5 265.5q0 113 51.5 197t132 124t175.5 40q70 0 133 -24t113.5 -68t80 -114t29.5 -155zM193 350q0 -109 59 -167t148 -58q88 0 148 58t60 167q0 106 -60 164.5t-147 58.5q-88 0 -148 -58.5t-60 -164.5z
M541 766q-34 0 -56.5 20t-22.5 52t22.5 52t56.5 20t56.5 -20t22.5 -52t-22.5 -52t-56.5 -20zM275 766q-33 0 -56 20t-23 52t23 52t56 20q34 0 57 -20t23 -52t-23 -52t-57 -20z" />
    <glyph glyph-name="divide" unicode="&#xf7;" horiz-adv-x="539" 
d="M270 91q-35 0 -58.5 21t-23.5 55t23.5 55.5t58.5 21.5q36 0 59.5 -21t23.5 -56t-23.5 -55.5t-59.5 -20.5zM270 476q-35 0 -58.5 21t-23.5 55t23.5 55.5t58.5 21.5q36 0 59.5 -21t23.5 -56t-23.5 -55.5t-59.5 -20.5zM51 298v120h437v-120h-437z" />
    <glyph glyph-name="oslash" unicode="&#xf8;" horiz-adv-x="796" 
d="M712 742l-72 -120q114 -101 114 -272q0 -113 -51.5 -197.5t-131.5 -124.5t-174 -40q-65 0 -122 22l-42 -70h-140v15l70 117q-121 101 -121 278q0 113 51.5 197t131.5 124t174 40q71 0 132 -24l40 69h141v-14zM554 492l-209 -352q24 -10 55 -10q85 0 145 60t60 160
q0 88 -51 142zM248 200l213 358q-31 11 -62 11q-86 0 -146.5 -59t-60.5 -160q0 -94 56 -150z" />
    <glyph glyph-name="ugrave" unicode="&#xf9;" horiz-adv-x="707" 
d="M355 -9q-117 0 -198.5 64.5t-81.5 177.5v467h150v-464q0 -54 37.5 -83.5t92.5 -29.5t92 29.5t37 83.5v464h148v-467q0 -113 -80 -177.5t-197 -64.5zM422 778v-13h-114l-89 110v12l128 47z" />
    <glyph glyph-name="uacute" unicode="&#xfa;" horiz-adv-x="707" 
d="M355 -9q-117 0 -198.5 64.5t-81.5 177.5v467h150v-464q0 -54 37.5 -83.5t92.5 -29.5t92 29.5t37 83.5v464h148v-467q0 -113 -80 -177.5t-197 -64.5zM399 764h-114v13l75 156l128 -47v-12z" />
    <glyph glyph-name="ucircumflex" unicode="&#xfb;" horiz-adv-x="707" 
d="M355 -9q-117 0 -198.5 64.5t-81.5 177.5v467h150v-464q0 -54 37.5 -83.5t92.5 -29.5t92 29.5t37 83.5v464h148v-467q0 -113 -80 -177.5t-197 -64.5zM568 773h-133l-79 78l-78 -78h-135v14l143 148h140l142 -149v-13z" />
    <glyph glyph-name="udieresis" unicode="&#xfc;" horiz-adv-x="707" 
d="M355 -9q-117 0 -198.5 64.5t-81.5 177.5v467h150v-464q0 -54 37.5 -83.5t92.5 -29.5t92 29.5t37 83.5v464h148v-467q0 -113 -80 -177.5t-197 -64.5zM483 759q-34 0 -56.5 20t-22.5 52t22.5 52t56.5 20t56.5 -20t22.5 -52t-22.5 -52t-56.5 -20zM217 759q-33 0 -56 20
t-23 52t23 52t56 20q34 0 57 -20t23 -52t-23 -52t-57 -20z" />
    <glyph glyph-name="yacute" unicode="&#xfd;" horiz-adv-x="635" 
d="M316 417h5l69 139l84 144h159v-22l-240 -398v-280h-150v280l-241 398v22h161l87 -149zM365 772h-114v13l75 156l128 -47v-12z" />
    <glyph glyph-name="thorn" unicode="&#xfe;" horiz-adv-x="660" 
d="M229 224h152q46 0 75.5 37.5t29.5 88.5t-28.5 87.5t-76.5 36.5h-152v-250zM81 0v700h150v-98h150q116 0 182.5 -75t66.5 -181q-2 -104 -67.5 -177t-181.5 -73h-150v-96h-150z" />
    <glyph glyph-name="ydieresis" unicode="&#xff;" horiz-adv-x="635" 
d="M316 417h5l69 139l84 144h159v-22l-240 -398v-280h-150v280l-241 398v22h161l87 -149zM454 761q-34 0 -56.5 20t-22.5 52t22.5 52t56.5 20t56.5 -20t22.5 -52t-22.5 -52t-56.5 -20zM188 761q-33 0 -56 20t-23 52t23 52t56 20q34 0 57 -20t23 -52t-23 -52t-57 -20z" />
    <glyph glyph-name="Amacron" unicode="&#x100;" horiz-adv-x="700" 
d="M495 116h-291l-54 -116h-156v20l322 686h69l320 -686v-20h-155zM350 473l-97 -231h194zM189 753v107h320v-107h-320z" />
    <glyph glyph-name="amacron" unicode="&#x101;" horiz-adv-x="700" 
d="M495 116h-291l-54 -116h-156v20l322 686h69l320 -686v-20h-155zM350 473l-97 -231h194zM189 753v107h320v-107h-320z" />
    <glyph glyph-name="Abreve" unicode="&#x102;" horiz-adv-x="700" 
d="M495 116h-291l-54 -116h-156v20l322 686h69l320 -686v-20h-155zM350 473l-97 -231h194zM148 929h120q0 -30 25 -47t55.5 -17t55.5 17t25 47h118q0 -47 -22 -84t-57 -56t-77.5 -28t-85.5 0t-78 28.5t-57 56t-22 83.5z" />
    <glyph glyph-name="abreve" unicode="&#x103;" horiz-adv-x="700" 
d="M495 116h-291l-54 -116h-156v20l322 686h69l320 -686v-20h-155zM350 473l-97 -231h194zM148 929h120q0 -30 25 -47t55.5 -17t55.5 17t25 47h118q0 -47 -22 -84t-57 -56t-77.5 -28t-85.5 0t-78 28.5t-57 56t-22 83.5z" />
    <glyph glyph-name="Aogonek" unicode="&#x104;" horiz-adv-x="701" 
d="M351 461l-97 -219h194zM496 116h-291l-54 -116h-156v20q84 182 322 686h69l320 -686v-20q-48 10 -88 -27t-17 -78q12 -22 36 -25t44 5t40 21l19 -88q-37 -24 -86 -33.5t-96.5 6t-64.5 60.5q-34 87 56 162z" />
    <glyph glyph-name="aogonek" unicode="&#x105;" horiz-adv-x="701" 
d="M351 461l-97 -219h194zM496 116h-291l-54 -116h-156v20q84 182 322 686h69l320 -686v-20q-48 10 -88 -27t-17 -78q12 -22 36 -25t44 5t40 21l19 -88q-37 -24 -86 -33.5t-96.5 6t-64.5 60.5q-34 87 56 162z" />
    <glyph glyph-name="Cacute" unicode="&#x106;" horiz-adv-x="761" 
d="M42 349q0 167 106 263.5t252 94.5q116 0 208 -63.5t115 -185.5h-145q-45 114 -178 114q-93 0 -150 -61.5t-57 -161.5q0 -92 57 -156t149 -64q67 0 116 32t66 94h144q-21 -130 -113 -196t-212 -66q-70 0 -134 23.5t-114 67t-80 112.5t-30 153zM446 773h-124v13l82 159
l140 -48v-12z" />
    <glyph glyph-name="cacute" unicode="&#x107;" horiz-adv-x="761" 
d="M42 349q0 167 106 263.5t252 94.5q116 0 208 -63.5t115 -185.5h-145q-45 114 -178 114q-93 0 -150 -61.5t-57 -161.5q0 -92 57 -156t149 -64q67 0 116 32t66 94h144q-21 -130 -113 -196t-212 -66q-70 0 -134 23.5t-114 67t-80 112.5t-30 153zM446 773h-124v13l82 159
l140 -48v-12z" />
    <glyph glyph-name="Ccircumflex" unicode="&#x108;" horiz-adv-x="761" 
d="M42 349q0 167 106 263.5t252 94.5q116 0 208 -63.5t115 -185.5h-145q-45 114 -178 114q-93 0 -150 -61.5t-57 -161.5q0 -92 57 -156t149 -64q67 0 116 32t66 94h144q-21 -130 -113 -196t-212 -66q-70 0 -134 23.5t-114 67t-80 112.5t-30 153zM613 757h-133l-79 78
l-78 -78h-135v14l143 148h140l142 -149v-13z" />
    <glyph glyph-name="ccircumflex" unicode="&#x109;" horiz-adv-x="761" 
d="M42 349q0 167 106 263.5t252 94.5q116 0 208 -63.5t115 -185.5h-145q-45 114 -178 114q-93 0 -150 -61.5t-57 -161.5q0 -92 57 -156t149 -64q67 0 116 32t66 94h144q-21 -130 -113 -196t-212 -66q-70 0 -134 23.5t-114 67t-80 112.5t-30 153zM613 757h-133l-79 78
l-78 -78h-135v14l143 148h140l142 -149v-13z" />
    <glyph glyph-name="Cdotaccent" unicode="&#x10a;" horiz-adv-x="761" 
d="M42 349q0 167 106 263.5t252 94.5q116 0 208 -63.5t115 -185.5h-145q-45 114 -178 114q-93 0 -150 -61.5t-57 -161.5q0 -92 57 -156t149 -64q67 0 116 32t66 94h144q-21 -130 -113 -196t-212 -66q-70 0 -134 23.5t-114 67t-80 112.5t-30 153zM385 763q-36 0 -60 21.5
t-24 56.5q0 36 24 58t60 22q37 0 61.5 -22t24.5 -58q0 -35 -24.5 -56.5t-61.5 -21.5z" />
    <glyph glyph-name="cdotaccent" unicode="&#x10b;" horiz-adv-x="761" 
d="M42 349q0 167 106 263.5t252 94.5q116 0 208 -63.5t115 -185.5h-145q-45 114 -178 114q-93 0 -150 -61.5t-57 -161.5q0 -92 57 -156t149 -64q67 0 116 32t66 94h144q-21 -130 -113 -196t-212 -66q-70 0 -134 23.5t-114 67t-80 112.5t-30 153zM385 763q-36 0 -60 21.5
t-24 56.5q0 36 24 58t60 22q37 0 61.5 -22t24.5 -58q0 -35 -24.5 -56.5t-61.5 -21.5z" />
    <glyph glyph-name="Ccaron" unicode="&#x10c;" horiz-adv-x="761" 
d="M42 349q0 167 106 263.5t252 94.5q116 0 208 -63.5t115 -185.5h-145q-45 114 -178 114q-93 0 -150 -61.5t-57 -161.5q0 -92 57 -156t149 -64q67 0 116 32t66 94h144q-21 -130 -113 -196t-212 -66q-70 0 -134 23.5t-114 67t-80 112.5t-30 153zM190 921h134l75 -77l74 77
h136v-13l-141 -145h-138l-140 145v13z" />
    <glyph glyph-name="ccaron" unicode="&#x10d;" horiz-adv-x="761" 
d="M42 349q0 167 106 263.5t252 94.5q116 0 208 -63.5t115 -185.5h-145q-45 114 -178 114q-93 0 -150 -61.5t-57 -161.5q0 -92 57 -156t149 -64q67 0 116 32t66 94h144q-21 -130 -113 -196t-212 -66q-70 0 -134 23.5t-114 67t-80 112.5t-30 153zM190 921h134l75 -77l74 77
h136v-13l-141 -145h-138l-140 145v13z" />
    <glyph glyph-name="Dcaron" unicode="&#x10e;" horiz-adv-x="728" 
d="M82 699h260q159 0 251 -102.5t92 -244.5q2 -143 -90 -247.5t-253 -104.5h-260v699zM231 135h109q92 0 144 63t52 153q0 89 -52.5 151t-143.5 62h-109v-429zM94 916h129l74 -74l72 74h131v-12l-136 -141h-135l-135 141v12z" />
    <glyph glyph-name="dcaron" unicode="&#x10f;" horiz-adv-x="728" 
d="M82 699h260q159 0 251 -102.5t92 -244.5q2 -143 -90 -247.5t-253 -104.5h-260v699zM231 135h109q92 0 144 63t52 153q0 89 -52.5 151t-143.5 62h-109v-429zM94 916h129l74 -74l72 74h131v-12l-136 -141h-135l-135 141v12z" />
    <glyph glyph-name="Dcroat" unicode="&#x110;" horiz-adv-x="737" 
d="M15 286v117h76v296h260q159 0 251 -102.5t92 -244.5q2 -143 -90 -247.5t-253 -104.5h-260v286h-76zM240 135h109q92 0 144 63t52 153q0 89 -52.5 151t-143.5 62h-109v-161h112v-117h-112v-151z" />
    <glyph glyph-name="dcroat" unicode="&#x111;" horiz-adv-x="737" 
d="M15 286v117h76v296h260q159 0 251 -102.5t92 -244.5q2 -143 -90 -247.5t-253 -104.5h-260v286h-76zM240 135h109q92 0 144 63t52 153q0 89 -52.5 151t-143.5 62h-109v-161h112v-117h-112v-151z" />
    <glyph glyph-name="Emacron" unicode="&#x112;" horiz-adv-x="572" 
d="M510 700v-131h-278v-142h260v-131h-260v-160h286v-136h-437v700h429zM146 767v107h320v-107h-320z" />
    <glyph glyph-name="emacron" unicode="&#x113;" horiz-adv-x="572" 
d="M510 700v-131h-278v-142h260v-131h-260v-160h286v-136h-437v700h429zM146 767v107h320v-107h-320z" />
    <glyph glyph-name="Ebreve" unicode="&#x114;" horiz-adv-x="572" 
d="M510 700v-131h-278v-142h260v-131h-260v-160h286v-136h-437v700h429zM99 926h114q0 -38 38.5 -53.5t77 0t38.5 53.5h112q0 -46 -21 -81.5t-54.5 -54t-74 -27t-81 0.5t-74 27.5t-54.5 54t-21 80.5z" />
    <glyph glyph-name="ebreve" unicode="&#x115;" horiz-adv-x="572" 
d="M510 700v-131h-278v-142h260v-131h-260v-160h286v-136h-437v700h429zM99 926h114q0 -38 38.5 -53.5t77 0t38.5 53.5h112q0 -46 -21 -81.5t-54.5 -54t-74 -27t-81 0.5t-74 27.5t-54.5 54t-21 80.5z" />
    <glyph glyph-name="Edotaccent" unicode="&#x116;" horiz-adv-x="572" 
d="M510 700v-131h-278v-142h260v-131h-260v-160h286v-136h-437v700h429zM303 762q-35 0 -58.5 21t-23.5 55t23.5 55.5t58.5 21.5q36 0 59.5 -21t23.5 -56t-23.5 -55.5t-59.5 -20.5z" />
    <glyph glyph-name="edotaccent" unicode="&#x117;" horiz-adv-x="572" 
d="M510 700v-131h-278v-142h260v-131h-260v-160h286v-136h-437v700h429zM303 762q-35 0 -58.5 21t-23.5 55t23.5 55.5t58.5 21.5q36 0 59.5 -21t23.5 -56t-23.5 -55.5t-59.5 -20.5z" />
    <glyph glyph-name="Eogonek" unicode="&#x118;" horiz-adv-x="568" 
d="M506 700v-131h-274v-142h256v-131h-256v-160h282v-136h-95q-30 -18 -43 -50t0 -57q11 -22 37.5 -24t49.5 6.5t44 21.5l19 -88q-28 -19 -66.5 -30t-77 -10.5t-70 21.5t-42.5 63q-12 41 3.5 80.5t50.5 66.5h-243v700h425z" />
    <glyph glyph-name="eogonek" unicode="&#x119;" horiz-adv-x="568" 
d="M506 700v-131h-274v-142h256v-131h-256v-160h282v-136h-95q-30 -18 -43 -50t0 -57q11 -22 37.5 -24t49.5 6.5t44 21.5l19 -88q-28 -19 -66.5 -30t-77 -10.5t-70 21.5t-42.5 63q-12 41 3.5 80.5t50.5 66.5h-243v700h425z" />
    <glyph glyph-name="Ecaron" unicode="&#x11a;" horiz-adv-x="572" 
d="M510 700v-131h-278v-142h260v-131h-260v-160h286v-136h-437v700h429zM92 915h132l74 -76l72 76h133v-13l-138 -143h-136l-137 143v13z" />
    <glyph glyph-name="ecaron" unicode="&#x11b;" horiz-adv-x="572" 
d="M510 700v-131h-278v-142h260v-131h-260v-160h286v-136h-437v700h429zM92 915h132l74 -76l72 76h133v-13l-138 -143h-136l-137 143v13z" />
    <glyph glyph-name="Gcircumflex" unicode="&#x11c;" horiz-adv-x="770" 
d="M42 350q0 111 51.5 194.5t131.5 124t174 40.5q113 0 201.5 -57.5t116.5 -172.5h-147q-49 95 -171 95q-95 0 -150 -63.5t-55 -160.5q0 -100 56 -161.5t149 -61.5q78 0 126.5 29.5t69.5 104.5h-191v126h328q7 -118 -21 -196q-38 -101 -121.5 -150.5t-190.5 -49.5
q-147 0 -252 96.5t-105 262.5zM598 762h-133l-79 78l-78 -78h-135v14l143 148h140l142 -149v-13z" />
    <glyph glyph-name="gcircumflex" unicode="&#x11d;" horiz-adv-x="770" 
d="M42 350q0 111 51.5 194.5t131.5 124t174 40.5q113 0 201.5 -57.5t116.5 -172.5h-147q-49 95 -171 95q-95 0 -150 -63.5t-55 -160.5q0 -100 56 -161.5t149 -61.5q78 0 126.5 29.5t69.5 104.5h-191v126h328q7 -118 -21 -196q-38 -101 -121.5 -150.5t-190.5 -49.5
q-147 0 -252 96.5t-105 262.5zM598 762h-133l-79 78l-78 -78h-135v14l143 148h140l142 -149v-13z" />
    <glyph glyph-name="Gbreve" unicode="&#x11e;" horiz-adv-x="770" 
d="M42 350q0 111 51.5 194.5t131.5 124t174 40.5q113 0 201.5 -57.5t116.5 -172.5h-147q-49 95 -171 95q-95 0 -150 -63.5t-55 -160.5q0 -100 56 -161.5t149 -61.5q78 0 126.5 29.5t69.5 104.5h-191v126h328q7 -118 -21 -196q-38 -101 -121.5 -150.5t-190.5 -49.5
q-147 0 -252 96.5t-105 262.5zM183 937h123q0 -30 26 -47.5t56.5 -17.5t56.5 17.5t26 47.5h121q0 -48 -22.5 -86t-58.5 -57.5t-80 -28.5t-87.5 0.5t-79.5 29t-58.5 57t-22.5 85.5z" />
    <glyph glyph-name="gbreve" unicode="&#x11f;" horiz-adv-x="770" 
d="M42 350q0 111 51.5 194.5t131.5 124t174 40.5q113 0 201.5 -57.5t116.5 -172.5h-147q-49 95 -171 95q-95 0 -150 -63.5t-55 -160.5q0 -100 56 -161.5t149 -61.5q78 0 126.5 29.5t69.5 104.5h-191v126h328q7 -118 -21 -196q-38 -101 -121.5 -150.5t-190.5 -49.5
q-147 0 -252 96.5t-105 262.5zM183 937h123q0 -30 26 -47.5t56.5 -17.5t56.5 17.5t26 47.5h121q0 -48 -22.5 -86t-58.5 -57.5t-80 -28.5t-87.5 0.5t-79.5 29t-58.5 57t-22.5 85.5z" />
    <glyph glyph-name="Gdotaccent" unicode="&#x120;" horiz-adv-x="770" 
d="M42 350q0 111 51.5 194.5t131.5 124t174 40.5q113 0 201.5 -57.5t116.5 -172.5h-147q-49 95 -171 95q-95 0 -150 -63.5t-55 -160.5q0 -100 56 -161.5t149 -61.5q78 0 126.5 29.5t69.5 104.5h-191v126h328q7 -118 -21 -196q-38 -101 -121.5 -150.5t-190.5 -49.5
q-147 0 -252 96.5t-105 262.5zM377 771q-36 0 -60 20t-24 53t24 54t60 21q37 0 61.5 -21t24.5 -54t-24.5 -53t-61.5 -20z" />
    <glyph glyph-name="gdotaccent" unicode="&#x121;" horiz-adv-x="770" 
d="M42 350q0 111 51.5 194.5t131.5 124t174 40.5q113 0 201.5 -57.5t116.5 -172.5h-147q-49 95 -171 95q-95 0 -150 -63.5t-55 -160.5q0 -100 56 -161.5t149 -61.5q78 0 126.5 29.5t69.5 104.5h-191v126h328q7 -118 -21 -196q-38 -101 -121.5 -150.5t-190.5 -49.5
q-147 0 -252 96.5t-105 262.5zM377 771q-36 0 -60 20t-24 53t24 54t60 21q37 0 61.5 -21t24.5 -54t-24.5 -53t-61.5 -20z" />
    <glyph glyph-name="Gcommaaccent" unicode="&#x122;" horiz-adv-x="770" 
d="M499 -134q0 -18 -7 -32l-40 -111h-81l24 71q-57 19 -57 73q0 34 22.5 54.5t57.5 20.5q27 0 48 -14t29 -37q4 -9 4 -25zM42 350q0 111 51.5 194.5t131.5 124t174 40.5q113 0 201.5 -57.5t116.5 -172.5h-147q-49 95 -171 95q-95 0 -150 -63.5t-55 -160.5q0 -100 56 -161.5
t149 -61.5q78 0 126.5 29.5t69.5 104.5h-191v126h328q7 -118 -21 -196q-38 -101 -121.5 -150.5t-190.5 -49.5q-147 0 -252 96.5t-105 262.5z" />
    <glyph glyph-name="gcommaaccent" unicode="&#x123;" horiz-adv-x="770" 
d="M499 -134q0 -18 -7 -32l-40 -111h-81l24 71q-57 19 -57 73q0 34 22.5 54.5t57.5 20.5q27 0 48 -14t29 -37q4 -9 4 -25zM42 350q0 111 51.5 194.5t131.5 124t174 40.5q113 0 201.5 -57.5t116.5 -172.5h-147q-49 95 -171 95q-95 0 -150 -63.5t-55 -160.5q0 -100 56 -161.5
t149 -61.5q78 0 126.5 29.5t69.5 104.5h-191v126h328q7 -118 -21 -196q-38 -101 -121.5 -150.5t-190.5 -49.5q-147 0 -252 96.5t-105 262.5z" />
    <glyph glyph-name="Hcircumflex" unicode="&#x124;" horiz-adv-x="729" 
d="M648 0h-150v296h-268v-296h-149v700h149v-267h268v267h150v-700zM572 769h-133l-79 78l-78 -78h-135v14l143 148h140l142 -149v-13z" />
    <glyph glyph-name="hcircumflex" unicode="&#x125;" horiz-adv-x="729" 
d="M648 0h-150v296h-268v-296h-149v700h149v-267h268v267h150v-700zM572 769h-133l-79 78l-78 -78h-135v14l143 148h140l142 -149v-13z" />
    <glyph glyph-name="Hbar" unicode="&#x126;" horiz-adv-x="740" 
d="M26 518v95h60v87h149v-87h268v87h150v-87h62v-95h-62v-518h-150v280h-268v-280h-149v518h-60zM235 417h268v101h-268v-101z" />
    <glyph glyph-name="hbar" unicode="&#x127;" horiz-adv-x="740" 
d="M26 518v95h60v87h149v-87h268v87h150v-87h62v-95h-62v-518h-150v280h-268v-280h-149v518h-60zM235 417h268v101h-268v-101z" />
    <glyph glyph-name="Itilde" unicode="&#x128;" 
d="M294 119h99v-119h-348v119h99v465h-91v116h332v-116h-91v-465zM107 766l-75 36q62 155 198 86q81 -45 104 13q14 -6 36.5 -17t36.5 -17q-21 -69 -73 -95.5t-115 4.5q-27 14 -42.5 20t-36.5 1t-33 -31z" />
    <glyph glyph-name="itilde" unicode="&#x129;" 
d="M294 119h99v-119h-348v119h99v465h-91v116h332v-116h-91v-465zM107 766l-75 36q62 155 198 86q81 -45 104 13q14 -6 36.5 -17t36.5 -17q-21 -69 -73 -95.5t-115 4.5q-27 14 -42.5 20t-36.5 1t-33 -31z" />
    <glyph glyph-name="Imacron" unicode="&#x12a;" 
d="M294 119h99v-119h-348v119h99v465h-91v116h332v-116h-91v-465zM59 768v107h320v-107h-320z" />
    <glyph glyph-name="imacron" unicode="&#x12b;" 
d="M294 119h99v-119h-348v119h99v465h-91v116h332v-116h-91v-465zM59 768v107h320v-107h-320z" />
    <glyph glyph-name="Ibreve" unicode="&#x12c;" 
d="M294 119h99v-119h-348v119h99v465h-91v116h332v-116h-91v-465zM19 927h116q0 -30 24.5 -46.5t53.5 -16.5t53.5 17t24.5 46h114q0 -55 -28.5 -95.5t-71.5 -59t-93 -18t-93 18.5t-71.5 58.5t-28.5 95.5z" />
    <glyph glyph-name="ibreve" unicode="&#x12d;" 
d="M294 119h99v-119h-348v119h99v465h-91v116h332v-116h-91v-465zM19 927h116q0 -30 24.5 -46.5t53.5 -16.5t53.5 17t24.5 46h114q0 -55 -28.5 -95.5t-71.5 -59t-93 -18t-93 18.5t-71.5 58.5t-28.5 95.5z" />
    <glyph glyph-name="Iogonek" unicode="&#x12e;" horiz-adv-x="440" 
d="M295 122h99v-122h-118q-28 -19 -41.5 -49t0.5 -58q12 -22 38.5 -24t48.5 6.5t44 21.5l19 -88q-29 -19 -69 -29t-80 -9t-72 22t-42 60q-9 36 9 78t51 69h-136v122h99v457h-91v121h332v-121h-91v-457z" />
    <glyph glyph-name="iogonek" unicode="&#x12f;" horiz-adv-x="440" 
d="M295 122h99v-122h-118q-28 -19 -41.5 -49t0.5 -58q12 -22 38.5 -24t48.5 6.5t44 21.5l19 -88q-29 -19 -69 -29t-80 -9t-72 22t-42 60q-9 36 9 78t51 69h-136v122h99v457h-91v121h332v-121h-91v-457z" />
    <glyph glyph-name="Idotaccent" unicode="&#x130;" 
d="M294 119h99v-119h-348v119h99v465h-91v116h332v-116h-91v-465zM211 768q-38 0 -63.5 21.5t-25.5 55.5q0 35 25.5 56.5t63.5 21.5q39 0 64.5 -21.5t25.5 -56.5t-25.5 -56t-64.5 -21z" />
    <glyph glyph-name="dotlessi" unicode="&#x131;" 
d="M294 119h99v-119h-348v119h99v465h-91v116h332v-116h-91v-465z" />
    <glyph glyph-name="IJ" unicode="&#x132;" horiz-adv-x="1068" 
d="M294 119h99v-119h-348v119h99v465h-91v116h332v-116h-91v-465zM993 700v-468q0 -110 -77.5 -176t-190.5 -66q-112 0 -186.5 65.5t-74.5 176.5v85h139v-82q0 -55 33.5 -83.5t88.5 -28.5q54 0 86 29t32 83v336h-125v129h275z" />
    <glyph glyph-name="ij" unicode="&#x133;" horiz-adv-x="1068" 
d="M294 119h99v-119h-348v119h99v465h-91v116h332v-116h-91v-465zM993 700v-468q0 -110 -77.5 -176t-190.5 -66q-112 0 -186.5 65.5t-74.5 176.5v85h139v-82q0 -55 33.5 -83.5t88.5 -28.5q54 0 86 29t32 83v336h-125v129h275z" />
    <glyph glyph-name="Jcircumflex" unicode="&#x134;" horiz-adv-x="630" 
d="M555 700v-468q0 -110 -77.5 -176t-190.5 -66q-112 0 -186.5 65.5t-74.5 176.5v85h139v-82q0 -55 33.5 -83.5t88.5 -28.5q54 0 86 29t32 83v336h-125v129h275zM611 768h-125l-74 79l-74 -79h-127v14l135 150h132l133 -151v-13z" />
    <glyph glyph-name="jcircumflex" unicode="&#x135;" horiz-adv-x="630" 
d="M555 700v-468q0 -110 -77.5 -176t-190.5 -66q-112 0 -186.5 65.5t-74.5 176.5v85h139v-82q0 -55 33.5 -83.5t88.5 -28.5q54 0 86 29t32 83v336h-125v129h275zM611 768h-125l-74 79l-74 -79h-127v14l135 150h132l133 -151v-13z" />
    <glyph glyph-name="Kcommaaccent" unicode="&#x136;" horiz-adv-x="703" 
d="M461 -119q0 -18 -7 -32l-40 -111h-81l24 71q-57 19 -57 73q0 34 22.5 54.5t57.5 20.5q27 0 48 -14t29 -37q4 -9 4 -25zM230 700v-289q95 0 121 13q25 14 39 47.5t31 104.5q45 163 239 123v-102q-43 4 -66.5 -11t-34.5 -54q-35 -133 -88 -186l214 -324v-22h-169l-176 288
q-27 -7 -110 -7v-281h-149v700h149z" />
    <glyph glyph-name="kcommaaccent" unicode="&#x137;" horiz-adv-x="703" 
d="M461 -119q0 -18 -7 -32l-40 -111h-81l24 71q-57 19 -57 73q0 34 22.5 54.5t57.5 20.5q27 0 48 -14t29 -37q4 -9 4 -25zM230 700v-289q95 0 121 13q25 14 39 47.5t31 104.5q45 163 239 123v-102q-43 4 -66.5 -11t-34.5 -54q-35 -133 -88 -186l214 -324v-22h-169l-176 288
q-27 -7 -110 -7v-281h-149v700h149z" />
    <glyph glyph-name="kgreenlandic" unicode="&#x138;" horiz-adv-x="703" 
d="M230 700v-289q95 0 121 13q25 14 39 47.5t31 104.5q45 163 239 123v-102q-43 4 -66.5 -11t-34.5 -54q-35 -133 -88 -186l214 -324v-22h-169l-176 288q-27 -7 -110 -7v-281h-149v700h149z" />
    <glyph glyph-name="Lacute" unicode="&#x139;" horiz-adv-x="539" 
d="M231 700v-566h292v-134h-442v700h150zM198 762h-114v13l75 156l128 -47v-12z" />
    <glyph glyph-name="lacute" unicode="&#x13a;" horiz-adv-x="539" 
d="M231 700v-566h292v-134h-442v700h150zM198 762h-114v13l75 156l128 -47v-12z" />
    <glyph glyph-name="Lcommaaccent" unicode="&#x13b;" horiz-adv-x="539" 
d="M390 -131q0 -18 -7 -32l-40 -111h-81l24 71q-57 19 -57 73q0 34 22.5 54.5t57.5 20.5q27 0 48 -14t29 -37q4 -9 4 -25zM231 700v-566h292v-134h-442v700h150z" />
    <glyph glyph-name="lcommaaccent" unicode="&#x13c;" horiz-adv-x="539" 
d="M390 -131q0 -18 -7 -32l-40 -111h-81l24 71q-57 19 -57 73q0 34 22.5 54.5t57.5 20.5q27 0 48 -14t29 -37q4 -9 4 -25zM231 700v-566h292v-134h-442v700h150z" />
    <glyph glyph-name="Lcaron" unicode="&#x13d;" horiz-adv-x="542" 
d="M231 700v-566h292v-134h-442v700h150zM491 626q-1 -15 -6 -29l-39 -121h-79l23 81q-25 7 -40 25.5t-15 44.5q0 33 22 53.5t56 20.5q57 0 75 -50q3 -24 3 -25z" />
    <glyph glyph-name="lcaron" unicode="&#x13e;" horiz-adv-x="542" 
d="M231 700v-566h292v-134h-442v700h150zM491 626q-1 -15 -6 -29l-39 -121h-79l23 81q-25 7 -40 25.5t-15 44.5q0 33 22 53.5t56 20.5q57 0 75 -50q3 -24 3 -25z" />
    <glyph glyph-name="Ldot" unicode="&#x13f;" horiz-adv-x="540" 
d="M231 700v-566h292v-134h-442v700h150zM397 302q-33 0 -55 21t-22 56t22 56t55 21q34 0 55.5 -21t21.5 -56t-21.5 -56t-55.5 -21z" />
    <glyph glyph-name="ldot" unicode="&#x140;" horiz-adv-x="540" 
d="M231 700v-566h292v-134h-442v700h150zM397 302q-33 0 -55 21t-22 56t22 56t55 21q34 0 55.5 -21t21.5 -56t-21.5 -56t-55.5 -21z" />
    <glyph glyph-name="Lslash" unicode="&#x141;" horiz-adv-x="545" 
d="M238 700v-282l100 28v-120l-100 -28v-164h276v-134h-426v257l-68 -19v120l68 19v323h150z" />
    <glyph glyph-name="lslash" unicode="&#x142;" horiz-adv-x="545" 
d="M238 700v-282l100 28v-120l-100 -28v-164h276v-134h-426v257l-68 -19v120l68 19v323h150z" />
    <glyph glyph-name="Nacute" unicode="&#x143;" horiz-adv-x="752" 
d="M626 -2l-396 402v-400h-149v703h47l393 -400v397h150v-702h-45zM385 746h-121v13l79 158l136 -48v-12z" />
    <glyph glyph-name="nacute" unicode="&#x144;" horiz-adv-x="752" 
d="M626 -2l-396 402v-400h-149v703h47l393 -400v397h150v-702h-45zM385 746h-121v13l79 158l136 -48v-12z" />
    <glyph glyph-name="Ncommaaccent" unicode="&#x145;" horiz-adv-x="752" 
d="M491 -124q0 -18 -7 -32l-40 -111h-81l24 71q-57 19 -57 73q0 34 22.5 54.5t57.5 20.5q27 0 48 -14t29 -37q4 -9 4 -25zM626 -2l-396 402v-400h-149v703h47l393 -400v397h150v-702h-45z" />
    <glyph glyph-name="ncommaaccent" unicode="&#x146;" horiz-adv-x="752" 
d="M491 -124q0 -18 -7 -32l-40 -111h-81l24 71q-57 19 -57 73q0 34 22.5 54.5t57.5 20.5q27 0 48 -14t29 -37q4 -9 4 -25zM626 -2l-396 402v-400h-149v703h47l393 -400v397h150v-702h-45z" />
    <glyph glyph-name="Ncaron" unicode="&#x147;" horiz-adv-x="752" 
d="M626 -2l-396 402v-400h-149v703h47l393 -400v397h150v-702h-45zM139 909h136l77 -78l75 78h138v-13l-143 -148h-141l-142 148v13z" />
    <glyph glyph-name="ncaron" unicode="&#x148;" horiz-adv-x="752" 
d="M626 -2l-396 402v-400h-149v703h47l393 -400v397h150v-702h-45zM139 909h136l77 -78l75 78h138v-13l-143 -148h-141l-142 148v13z" />
    <glyph glyph-name="napostrophe" unicode="&#x149;" horiz-adv-x="752" 
d="M626 -2l-396 402v-400h-149v703h47l393 -400v397h150v-702h-45z" />
    <glyph glyph-name="Eng" unicode="&#x14a;" horiz-adv-x="752" 
d="M446 -190l4 101q57 -8 76.5 12.5t19.5 79.5v74l-316 344v-421h-149v703h47l393 -408v405h150v-698q0 -124 -55.5 -168.5t-169.5 -23.5z" />
    <glyph glyph-name="eng" unicode="&#x14b;" horiz-adv-x="752" 
d="M446 -190l4 101q57 -8 76.5 12.5t19.5 79.5v74l-316 344v-421h-149v703h47l393 -408v405h150v-698q0 -124 -55.5 -168.5t-169.5 -23.5z" />
    <glyph glyph-name="Omacron" unicode="&#x14c;" horiz-adv-x="799" 
d="M757 350q0 -160 -100 -261t-259 -101q-149 0 -252.5 96.5t-103.5 265.5q0 113 51.5 197t132 124t175.5 40q70 0 133 -24t113.5 -68t80 -114t29.5 -155zM193 350q0 -109 59 -167t148 -58q88 0 148 58t60 167q0 106 -60 164.5t-147 58.5q-88 0 -148 -58.5t-60 -164.5z
M231 773v107h320v-107h-320z" />
    <glyph glyph-name="omacron" unicode="&#x14d;" horiz-adv-x="799" 
d="M757 350q0 -160 -100 -261t-259 -101q-149 0 -252.5 96.5t-103.5 265.5q0 113 51.5 197t132 124t175.5 40q70 0 133 -24t113.5 -68t80 -114t29.5 -155zM193 350q0 -109 59 -167t148 -58q88 0 148 58t60 167q0 106 -60 164.5t-147 58.5q-88 0 -148 -58.5t-60 -164.5z
M231 773v107h320v-107h-320z" />
    <glyph glyph-name="Obreve" unicode="&#x14e;" horiz-adv-x="799" 
d="M757 350q0 -160 -100 -261t-259 -101q-149 0 -252.5 96.5t-103.5 265.5q0 113 51.5 197t132 124t175.5 40q70 0 133 -24t113.5 -68t80 -114t29.5 -155zM193 350q0 -109 59 -167t148 -58q88 0 148 58t60 167q0 106 -60 164.5t-147 58.5q-88 0 -148 -58.5t-60 -164.5z
M197 941h123q0 -30 26 -47.5t56.5 -17.5t56.5 17.5t26 47.5h121q0 -48 -22.5 -86t-58.5 -57.5t-79.5 -28.5t-87.5 0.5t-80 29t-58.5 57t-22.5 85.5z" />
    <glyph glyph-name="obreve" unicode="&#x14f;" horiz-adv-x="799" 
d="M757 350q0 -160 -100 -261t-259 -101q-149 0 -252.5 96.5t-103.5 265.5q0 113 51.5 197t132 124t175.5 40q70 0 133 -24t113.5 -68t80 -114t29.5 -155zM193 350q0 -109 59 -167t148 -58q88 0 148 58t60 167q0 106 -60 164.5t-147 58.5q-88 0 -148 -58.5t-60 -164.5z
M197 941h123q0 -30 26 -47.5t56.5 -17.5t56.5 17.5t26 47.5h121q0 -48 -22.5 -86t-58.5 -57.5t-79.5 -28.5t-87.5 0.5t-80 29t-58.5 57t-22.5 85.5z" />
    <glyph glyph-name="Ohungarumlaut" unicode="&#x150;" horiz-adv-x="799" 
d="M215 763v12l56 150l125 -28v-11l-71 -123h-110zM431 763v12l55 139l124 -34v-12l-70 -105h-109zM757 350q0 -160 -100 -261t-259 -101q-149 0 -252.5 96.5t-103.5 265.5q0 113 51.5 197t132 124t175.5 40q70 0 133 -24t113.5 -68t80 -114t29.5 -155zM193 350
q0 -109 59 -167t148 -58q88 0 148 58t60 167q0 106 -60 164.5t-147 58.5q-88 0 -148 -58.5t-60 -164.5z" />
    <glyph glyph-name="ohungarumlaut" unicode="&#x151;" horiz-adv-x="799" 
d="M215 763v12l56 150l125 -28v-11l-71 -123h-110zM431 763v12l55 139l124 -34v-12l-70 -105h-109zM757 350q0 -160 -100 -261t-259 -101q-149 0 -252.5 96.5t-103.5 265.5q0 113 51.5 197t132 124t175.5 40q70 0 133 -24t113.5 -68t80 -114t29.5 -155zM193 350
q0 -109 59 -167t148 -58q88 0 148 58t60 167q0 106 -60 164.5t-147 58.5q-88 0 -148 -58.5t-60 -164.5z" />
    <glyph glyph-name="OE" unicode="&#x152;" horiz-adv-x="924" 
d="M871 0h-377q-52 -12 -103 -12q-150 0 -249 95.5t-99 264.5q0 171 102.5 267t254.5 94q53 0 98 -11h363v-126h-259v-150h242v-118h-242v-180h269v-124zM187 348q0 -110 60 -175t157 -65q38 0 72 11v454q-32 10 -73 12q-98 0 -157 -61.5t-59 -175.5z" />
    <glyph glyph-name="oe" unicode="&#x153;" horiz-adv-x="924" 
d="M871 0h-377q-52 -12 -103 -12q-150 0 -249 95.5t-99 264.5q0 171 102.5 267t254.5 94q53 0 98 -11h363v-126h-259v-150h242v-118h-242v-180h269v-124zM187 348q0 -110 60 -175t157 -65q38 0 72 11v454q-32 10 -73 12q-98 0 -157 -61.5t-59 -175.5z" />
    <glyph glyph-name="Racute" unicode="&#x154;" horiz-adv-x="691" 
d="M503 255l158 -233v-21h-160l-144 231h-125v-231h-150v700h299q115 0 181 -70.5t66 -169.5q0 -67 -33 -122t-92 -84zM230 355h150q46 0 75 31.5t28 77.5q0 45 -28 75.5t-75 30.5h-150v-215zM370 762h-127v13l84 155l143 -47v-12z" />
    <glyph glyph-name="racute" unicode="&#x155;" horiz-adv-x="691" 
d="M503 255l158 -233v-21h-160l-144 231h-125v-231h-150v700h299q115 0 181 -70.5t66 -169.5q0 -67 -33 -122t-92 -84zM230 355h150q46 0 75 31.5t28 77.5q0 45 -28 75.5t-75 30.5h-150v-215zM370 762h-127v13l84 155l143 -47v-12z" />
    <glyph glyph-name="Rcommaaccent" unicode="&#x156;" horiz-adv-x="690" 
d="M444 -126q0 -18 -7 -32l-40 -111h-81l24 71q-57 19 -57 73q0 34 22.5 54.5t57.5 20.5q27 0 48 -14t29 -37q4 -9 4 -25zM502 255l158 -233v-21h-160l-144 231h-125v-231h-150v700h299q115 0 181 -70.5t66 -169.5q0 -67 -33 -122t-92 -84zM229 355h150q46 0 75 31.5
t28 77.5q0 45 -28 75.5t-75 30.5h-150v-215z" />
    <glyph glyph-name="rcommaaccent" unicode="&#x157;" horiz-adv-x="690" 
d="M444 -126q0 -18 -7 -32l-40 -111h-81l24 71q-57 19 -57 73q0 34 22.5 54.5t57.5 20.5q27 0 48 -14t29 -37q4 -9 4 -25zM502 255l158 -233v-21h-160l-144 231h-125v-231h-150v700h299q115 0 181 -70.5t66 -169.5q0 -67 -33 -122t-92 -84zM229 355h150q46 0 75 31.5
t28 77.5q0 45 -28 75.5t-75 30.5h-150v-215z" />
    <glyph glyph-name="Rcaron" unicode="&#x158;" horiz-adv-x="691" 
d="M503 255l158 -233v-21h-160l-144 231h-125v-231h-150v700h299q115 0 181 -70.5t66 -169.5q0 -67 -33 -122t-92 -84zM230 355h150q46 0 75 31.5t28 77.5q0 45 -28 75.5t-75 30.5h-150v-215zM119 928h136l77 -78l75 78h138v-13l-143 -148h-141l-142 148v13z" />
    <glyph glyph-name="rcaron" unicode="&#x159;" horiz-adv-x="691" 
d="M503 255l158 -233v-21h-160l-144 231h-125v-231h-150v700h299q115 0 181 -70.5t66 -169.5q0 -67 -33 -122t-92 -84zM230 355h150q46 0 75 31.5t28 77.5q0 45 -28 75.5t-75 30.5h-150v-215zM119 928h136l77 -78l75 78h138v-13l-143 -148h-141l-142 148v13z" />
    <glyph glyph-name="Sacute" unicode="&#x15a;" horiz-adv-x="648" 
d="M42 207h143q2 -45 43.5 -68t97.5 -23q134 0 134 88q0 23 -10.5 40t-23.5 25.5t-37 14.5t-39.5 8t-42.5 4q-255 22 -255 199q0 109 76 164.5t190 55.5q52 0 97.5 -11.5t84.5 -35.5t62 -66.5t23 -98.5h-140q-6 40 -42 60.5t-85 20.5q-48 0 -83.5 -23.5t-35.5 -62.5
q0 -42 34.5 -59.5t99.5 -24.5q63 -6 106.5 -16t85 -32t62.5 -62.5t21 -99.5t-24 -103t-65.5 -68t-89 -35.5t-102.5 -12.5q-116 0 -200.5 57.5t-84.5 164.5zM370 776h-123v13l81 155l138 -47v-12z" />
    <glyph glyph-name="sacute" unicode="&#x15b;" horiz-adv-x="648" 
d="M42 207h143q2 -45 43.5 -68t97.5 -23q134 0 134 88q0 23 -10.5 40t-23.5 25.5t-37 14.5t-39.5 8t-42.5 4q-255 22 -255 199q0 109 76 164.5t190 55.5q52 0 97.5 -11.5t84.5 -35.5t62 -66.5t23 -98.5h-140q-6 40 -42 60.5t-85 20.5q-48 0 -83.5 -23.5t-35.5 -62.5
q0 -42 34.5 -59.5t99.5 -24.5q63 -6 106.5 -16t85 -32t62.5 -62.5t21 -99.5t-24 -103t-65.5 -68t-89 -35.5t-102.5 -12.5q-116 0 -200.5 57.5t-84.5 164.5zM370 776h-123v13l81 155l138 -47v-12z" />
    <glyph glyph-name="Scircumflex" unicode="&#x15c;" horiz-adv-x="648" 
d="M42 207h143q2 -45 43.5 -68t97.5 -23q134 0 134 88q0 23 -10.5 40t-23.5 25.5t-37 14.5t-39.5 8t-42.5 4q-255 22 -255 199q0 109 76 164.5t190 55.5q52 0 97.5 -11.5t84.5 -35.5t62 -66.5t23 -98.5h-140q-6 40 -42 60.5t-85 20.5q-48 0 -83.5 -23.5t-35.5 -62.5
q0 -42 34.5 -59.5t99.5 -24.5q63 -6 106.5 -16t85 -32t62.5 -62.5t21 -99.5t-24 -103t-65.5 -68t-89 -35.5t-102.5 -12.5q-116 0 -200.5 57.5t-84.5 164.5zM540 765h-133l-79 78l-78 -78h-135v14l143 148h140l142 -149v-13z" />
    <glyph glyph-name="scircumflex" unicode="&#x15d;" horiz-adv-x="648" 
d="M42 207h143q2 -45 43.5 -68t97.5 -23q134 0 134 88q0 23 -10.5 40t-23.5 25.5t-37 14.5t-39.5 8t-42.5 4q-255 22 -255 199q0 109 76 164.5t190 55.5q52 0 97.5 -11.5t84.5 -35.5t62 -66.5t23 -98.5h-140q-6 40 -42 60.5t-85 20.5q-48 0 -83.5 -23.5t-35.5 -62.5
q0 -42 34.5 -59.5t99.5 -24.5q63 -6 106.5 -16t85 -32t62.5 -62.5t21 -99.5t-24 -103t-65.5 -68t-89 -35.5t-102.5 -12.5q-116 0 -200.5 57.5t-84.5 164.5zM540 765h-133l-79 78l-78 -78h-135v14l143 148h140l142 -149v-13z" />
    <glyph glyph-name="Scedilla" unicode="&#x15e;" horiz-adv-x="647" 
d="M42 207h143q2 -45 43.5 -68t97.5 -23q52 0 93 23.5t41 64.5q0 23 -10.5 40t-23.5 25.5t-37 14.5t-39.5 8t-42.5 4q-255 22 -255 198q0 70 38.5 121.5t98 75.5t129.5 24q107 0 187 -57t80 -161h-140q-2 43 -38.5 64t-86.5 21q-48 0 -84.5 -20t-36.5 -65q0 -41 34.5 -58.5
t99.5 -24.5q63 -6 106.5 -16t85 -32t62.5 -62.5t21 -99.5q0 -87 -62 -141.5t-155 -70.5l-14 -59q48 -6 66.5 -38.5t5.5 -75.5q-14 -42 -57.5 -60t-92.5 -11.5t-87 30.5l8 77q23 -18 62.5 -18.5t50.5 23.5q7 25 -16.5 36t-51.5 11l21 81q-102 9 -173 65.5t-71 153.5z" />
    <glyph glyph-name="scedilla" unicode="&#x15f;" horiz-adv-x="647" 
d="M42 207h143q2 -45 43.5 -68t97.5 -23q52 0 93 23.5t41 64.5q0 23 -10.5 40t-23.5 25.5t-37 14.5t-39.5 8t-42.5 4q-255 22 -255 198q0 70 38.5 121.5t98 75.5t129.5 24q107 0 187 -57t80 -161h-140q-2 43 -38.5 64t-86.5 21q-48 0 -84.5 -20t-36.5 -65q0 -41 34.5 -58.5
t99.5 -24.5q63 -6 106.5 -16t85 -32t62.5 -62.5t21 -99.5q0 -87 -62 -141.5t-155 -70.5l-14 -59q48 -6 66.5 -38.5t5.5 -75.5q-14 -42 -57.5 -60t-92.5 -11.5t-87 30.5l8 77q23 -18 62.5 -18.5t50.5 23.5q7 25 -16.5 36t-51.5 11l21 81q-102 9 -173 65.5t-71 153.5z" />
    <glyph glyph-name="Scaron" unicode="&#x160;" horiz-adv-x="648" 
d="M42 207h143q2 -45 43.5 -68t97.5 -23q134 0 134 88q0 23 -10.5 40t-23.5 25.5t-37 14.5t-39.5 8t-42.5 4q-255 22 -255 199q0 109 76 164.5t190 55.5q52 0 97.5 -11.5t84.5 -35.5t62 -66.5t23 -98.5h-140q-6 40 -42 60.5t-85 20.5q-48 0 -83.5 -23.5t-35.5 -62.5
q0 -42 34.5 -59.5t99.5 -24.5q63 -6 106.5 -16t85 -32t62.5 -62.5t21 -99.5t-24 -103t-65.5 -68t-89 -35.5t-102.5 -12.5q-116 0 -200.5 57.5t-84.5 164.5zM113 936h136l77 -78l75 78h138v-13l-143 -148h-141l-142 148v13z" />
    <glyph glyph-name="scaron" unicode="&#x161;" horiz-adv-x="648" 
d="M42 207h143q2 -45 43.5 -68t97.5 -23q134 0 134 88q0 23 -10.5 40t-23.5 25.5t-37 14.5t-39.5 8t-42.5 4q-255 22 -255 199q0 109 76 164.5t190 55.5q52 0 97.5 -11.5t84.5 -35.5t62 -66.5t23 -98.5h-140q-6 40 -42 60.5t-85 20.5q-48 0 -83.5 -23.5t-35.5 -62.5
q0 -42 34.5 -59.5t99.5 -24.5q63 -6 106.5 -16t85 -32t62.5 -62.5t21 -99.5t-24 -103t-65.5 -68t-89 -35.5t-102.5 -12.5q-116 0 -200.5 57.5t-84.5 164.5zM135 915h124l69 -71l68 71h125v-12l-129 -133h-128l-129 133v12z" />
    <glyph glyph-name="Tcommaaccent" unicode="&#x162;" horiz-adv-x="551" 
d="M204 568h-184v132h511v-132h-182v-568h-23l-13 -55q48 -6 66 -38t5 -76q-10 -32 -38.5 -50.5t-63 -21t-70.5 5.5t-64 25l8 77q22 -18 62 -18.5t50 23.5q7 25 -16 36t-51 11l21 81h-18v568z" />
    <glyph glyph-name="tcommaaccent" unicode="&#x163;" horiz-adv-x="551" 
d="M204 568h-184v132h511v-132h-182v-568h-23l-13 -55q48 -6 66 -38t5 -76q-10 -32 -38.5 -50.5t-63 -21t-70.5 5.5t-64 25l8 77q22 -18 62 -18.5t50 23.5q7 25 -16 36t-51 11l21 81h-18v568z" />
    <glyph glyph-name="Tcaron" unicode="&#x164;" horiz-adv-x="554" 
d="M205 570h-187v130h518v-130h-186v-570h-145v570zM63 921h136l77 -78l75 78h138v-13l-143 -148h-141l-142 148v13z" />
    <glyph glyph-name="tcaron" unicode="&#x165;" horiz-adv-x="554" 
d="M205 570h-187v130h518v-130h-186v-570h-145v570zM63 921h136l77 -78l75 78h138v-13l-143 -148h-141l-142 148v13z" />
    <glyph glyph-name="Tbar" unicode="&#x166;" horiz-adv-x="554" 
d="M110 259v111h95v198h-184v132h511v-132h-182v-198h90v-111h-90v-259h-145v259h-95z" />
    <glyph glyph-name="tbar" unicode="&#x167;" horiz-adv-x="554" 
d="M110 259v111h95v198h-184v132h511v-132h-182v-198h90v-111h-90v-259h-145v259h-95z" />
    <glyph glyph-name="Utilde" unicode="&#x168;" horiz-adv-x="707" 
d="M355 -9q-117 0 -198.5 64.5t-81.5 177.5v467h150v-464q0 -54 37.5 -83.5t92.5 -29.5t92 29.5t37 83.5v464h148v-467q0 -113 -80 -177.5t-197 -64.5zM240 770l-75 36q62 155 198 86q81 -45 104 13q13 -6 36 -17t37 -17q-21 -69 -73 -95.5t-115 4.5q-27 14 -42.5 20
t-36.5 1t-33 -31z" />
    <glyph glyph-name="utilde" unicode="&#x169;" horiz-adv-x="707" 
d="M355 -9q-117 0 -198.5 64.5t-81.5 177.5v467h150v-464q0 -54 37.5 -83.5t92.5 -29.5t92 29.5t37 83.5v464h148v-467q0 -113 -80 -177.5t-197 -64.5zM240 770l-75 36q62 155 198 86q81 -45 104 13q13 -6 36 -17t37 -17q-21 -69 -73 -95.5t-115 4.5q-27 14 -42.5 20
t-36.5 1t-33 -31z" />
    <glyph glyph-name="Umacron" unicode="&#x16a;" horiz-adv-x="707" 
d="M355 -9q-117 0 -198.5 64.5t-81.5 177.5v467h150v-464q0 -54 37.5 -83.5t92.5 -29.5t92 29.5t37 83.5v464h148v-467q0 -113 -80 -177.5t-197 -64.5zM192 769v107h320v-107h-320z" />
    <glyph glyph-name="umacron" unicode="&#x16b;" horiz-adv-x="707" 
d="M355 -9q-117 0 -198.5 64.5t-81.5 177.5v467h150v-464q0 -54 37.5 -83.5t92.5 -29.5t92 29.5t37 83.5v464h148v-467q0 -113 -80 -177.5t-197 -64.5zM192 769v107h320v-107h-320z" />
    <glyph glyph-name="Ubreve" unicode="&#x16c;" horiz-adv-x="707" 
d="M355 -9q-117 0 -198.5 64.5t-81.5 177.5v467h150v-464q0 -54 37.5 -83.5t92.5 -29.5t92 29.5t37 83.5v464h148v-467q0 -113 -80 -177.5t-197 -64.5zM151 940h123q0 -30 26 -47.5t56.5 -17.5t56.5 17.5t26 47.5h121q0 -48 -22.5 -86t-58.5 -57.5t-80 -28.5t-87.5 0.5
t-79.5 29t-58.5 57t-22.5 85.5z" />
    <glyph glyph-name="ubreve" unicode="&#x16d;" horiz-adv-x="707" 
d="M355 -9q-117 0 -198.5 64.5t-81.5 177.5v467h150v-464q0 -54 37.5 -83.5t92.5 -29.5t92 29.5t37 83.5v464h148v-467q0 -113 -80 -177.5t-197 -64.5zM151 940h123q0 -30 26 -47.5t56.5 -17.5t56.5 17.5t26 47.5h121q0 -48 -22.5 -86t-58.5 -57.5t-80 -28.5t-87.5 0.5
t-79.5 29t-58.5 57t-22.5 85.5z" />
    <glyph glyph-name="Uring" unicode="&#x16e;" horiz-adv-x="707" 
d="M355 -9q-117 0 -198.5 64.5t-81.5 177.5v467h150v-464q0 -54 37.5 -83.5t92.5 -29.5t92 29.5t37 83.5v464h148v-467q0 -113 -80 -177.5t-197 -64.5zM480 854q0 -56 -39.5 -87.5t-87.5 -31.5t-87.5 31.5t-39.5 87.5t39.5 87.5t87.5 31.5t87.5 -31.5t39.5 -87.5zM303 854
q0 -28 25 -40t50.5 0t25.5 40q0 22 -16 34t-34.5 12t-34.5 -12t-16 -34z" />
    <glyph glyph-name="uring" unicode="&#x16f;" horiz-adv-x="707" 
d="M355 -9q-117 0 -198.5 64.5t-81.5 177.5v467h150v-464q0 -54 37.5 -83.5t92.5 -29.5t92 29.5t37 83.5v464h148v-467q0 -113 -80 -177.5t-197 -64.5zM480 854q0 -56 -39.5 -87.5t-87.5 -31.5t-87.5 31.5t-39.5 87.5t39.5 87.5t87.5 31.5t87.5 -31.5t39.5 -87.5zM303 854
q0 -28 25 -40t50.5 0t25.5 40q0 22 -16 34t-34.5 12t-34.5 -12t-16 -34z" />
    <glyph glyph-name="Uhungarumlaut" unicode="&#x170;" horiz-adv-x="707" 
d="M355 -9q-117 0 -198.5 64.5t-81.5 177.5v467h150v-464q0 -54 37.5 -83.5t92.5 -29.5t92 29.5t37 83.5v464h148v-467q0 -113 -80 -177.5t-197 -64.5zM186 777v12l56 150l125 -28v-11l-71 -123h-110zM402 777v12l55 139l124 -34v-12l-70 -105h-109z" />
    <glyph glyph-name="uhungarumlaut" unicode="&#x171;" horiz-adv-x="707" 
d="M355 -9q-117 0 -198.5 64.5t-81.5 177.5v467h150v-464q0 -54 37.5 -83.5t92.5 -29.5t92 29.5t37 83.5v464h148v-467q0 -113 -80 -177.5t-197 -64.5zM186 777v12l56 150l125 -28v-11l-71 -123h-110zM402 777v12l55 139l124 -34v-12l-70 -105h-109z" />
    <glyph glyph-name="Uogonek" unicode="&#x172;" horiz-adv-x="708" 
d="M355 -9q-117 0 -198.5 64.5t-81.5 177.5v467h150v-464q0 -54 37 -83.5t93 -29.5q55 0 92 29.5t37 83.5v464h148v-467q0 -148 -137 -214q-25 -20 -35 -46.5t2 -52.5q12 -22 38.5 -25t49 6t42.5 22l20 -88q-29 -19 -67 -29.5t-76.5 -10.5t-70.5 21t-43 62q-17 60 23 115
q-14 -2 -23 -2z" />
    <glyph glyph-name="uogonek" unicode="&#x173;" horiz-adv-x="708" 
d="M355 -9q-117 0 -198.5 64.5t-81.5 177.5v467h150v-464q0 -54 37 -83.5t93 -29.5q55 0 92 29.5t37 83.5v464h148v-467q0 -148 -137 -214q-25 -20 -35 -46.5t2 -52.5q12 -22 38.5 -25t49 6t42.5 22l20 -88q-29 -19 -67 -29.5t-76.5 -10.5t-70.5 21t-43 62q-17 60 23 115
q-14 -2 -23 -2z" />
    <glyph glyph-name="Wcircumflex" unicode="&#x174;" horiz-adv-x="970" 
d="M454 688h61l151 -434h3l59 233l70 213h157v-22l-241 -684h-89l-139 378h-3l-135 -378h-92l-242 684v22h157l71 -214l63 -232h3zM697 760h-133l-79 78l-78 -78h-135v14l143 148h140l142 -149v-13z" />
    <glyph glyph-name="wcircumflex" unicode="&#x175;" horiz-adv-x="970" 
d="M454 688h61l151 -434h3l59 233l70 213h157v-22l-241 -684h-89l-139 378h-3l-135 -378h-92l-242 684v22h157l71 -214l63 -232h3zM697 760h-133l-79 78l-78 -78h-135v14l143 148h140l142 -149v-13z" />
    <glyph glyph-name="Ycircumflex" unicode="&#x176;" horiz-adv-x="635" 
d="M316 417h5l69 139l84 144h159v-22l-240 -398v-280h-150v280l-241 398v22h161l87 -149zM526 766h-133l-79 78l-78 -78h-135v14l143 148h140l142 -149v-13z" />
    <glyph glyph-name="ycircumflex" unicode="&#x177;" horiz-adv-x="635" 
d="M316 417h5l69 139l84 144h159v-22l-240 -398v-280h-150v280l-241 398v22h161l87 -149zM526 766h-133l-79 78l-78 -78h-135v14l143 148h140l142 -149v-13z" />
    <glyph glyph-name="Ydieresis" unicode="&#x178;" horiz-adv-x="635" 
d="M316 417h5l69 139l84 144h159v-22l-240 -398v-280h-150v280l-241 398v22h161l87 -149zM451 763q-34 0 -56.5 20t-22.5 52t22.5 52t56.5 20t56.5 -20t22.5 -52t-22.5 -52t-56.5 -20zM185 763q-33 0 -56 20t-23 52t23 52t56 20q34 0 57 -20t23 -52t-23 -52t-57 -20z" />
    <glyph glyph-name="Zacute" unicode="&#x179;" horiz-adv-x="605" 
d="M566 700v-22l-317 -544h320v-134h-547v21l321 548h-293v131h516zM357 779h-114v13l75 156l128 -47v-12z" />
    <glyph glyph-name="zacute" unicode="&#x17a;" horiz-adv-x="605" 
d="M566 700v-22l-317 -544h320v-134h-547v21l321 548h-293v131h516zM357 779h-114v13l75 156l128 -47v-12z" />
    <glyph glyph-name="Zdotaccent" unicode="&#x17b;" horiz-adv-x="605" 
d="M566 700v-22l-317 -544h320v-134h-547v21l321 548h-293v131h516zM309 762q-35 0 -58.5 21t-23.5 55t23.5 55.5t58.5 21.5q36 0 59.5 -21t23.5 -56t-23.5 -55.5t-59.5 -20.5z" />
    <glyph glyph-name="zdotaccent" unicode="&#x17c;" horiz-adv-x="605" 
d="M566 700v-22l-317 -544h320v-134h-547v21l321 548h-293v131h516zM309 762q-35 0 -58.5 21t-23.5 55t23.5 55.5t58.5 21.5q36 0 59.5 -21t23.5 -56t-23.5 -55.5t-59.5 -20.5z" />
    <glyph glyph-name="Zcaron" unicode="&#x17d;" horiz-adv-x="605" 
d="M566 700v-22l-317 -544h320v-134h-547v21l321 548h-293v131h516zM104 931h136l77 -78l75 78h138v-13l-143 -148h-141l-142 148v13z" />
    <glyph glyph-name="zcaron" unicode="&#x17e;" horiz-adv-x="605" 
d="M566 700v-22l-317 -544h320v-134h-547v21l321 548h-293v131h516zM126 912h126l71 -71l70 71h127v-12l-132 -134h-130l-132 134v12z" />
    <glyph glyph-name="longs" unicode="&#x17f;" horiz-adv-x="433" 
d="M110 0v383h-89v99h92v57q0 71 25 117t69 63t97 16t115 -20l-14 -104q-29 11 -55 14t-49.5 -2.5t-37 -27.5t-13.5 -59v-536h-140z" />
    <glyph glyph-name="florin" unicode="&#x192;" horiz-adv-x="558" 
d="M347 -32q0 -71 -26 -116.5t-71 -62.5t-99 -15.5t-115 20.5l13 104q40 -15 74 -16.5t60 20t26 69.5v320h-145v100h145q0 12 -0.5 47.5t-0.5 53.5t2 44.5t6 44.5q10 54 39 87.5t72 44.5t92 8t105 -19l-14 -104q-29 11 -56 14t-52 -2.5t-39.5 -28t-14.5 -59.5v-131h150v-100
h-150q0 -54 -0.5 -161.5t-0.5 -161.5z" />
    <glyph glyph-name="Aringacute" unicode="&#x1fa;" horiz-adv-x="703" 
d="M302 734q0 -18 16 -28.5t34.5 -10.5t34.5 10.5t16 28.5q0 19 -16 29.5t-34.5 10.5t-34.5 -10.5t-16 -29.5zM354 458h-5l-94 -216h194zM497 116h-291l-54 -116h-156v20l293 624q-65 28 -65 91q0 49 40 76.5t87.5 27.5t87.5 -27.5t40 -76.5q0 -63 -64 -90l292 -625v-20
h-155zM402 859h-111v10l82 120l125 -26v-9z" />
    <glyph glyph-name="aringacute" unicode="&#x1fb;" horiz-adv-x="703" 
d="M302 734q0 -18 16 -28.5t34.5 -10.5t34.5 10.5t16 28.5q0 19 -16 29.5t-34.5 10.5t-34.5 -10.5t-16 -29.5zM354 458h-5l-94 -216h194zM497 116h-291l-54 -116h-156v20l293 624q-65 28 -65 91q0 49 40 76.5t87.5 27.5t87.5 -27.5t40 -76.5q0 -63 -64 -90l292 -625v-20
h-155zM402 859h-111v10l82 120l125 -26v-9z" />
    <glyph glyph-name="AEacute" unicode="&#x1fc;" horiz-adv-x="824" 
d="M215 169l-76 -169h-144v22l326 676h440v-128h-243v-145h227v-124h-227v-173h254v-128h-382v169h-175zM394 570l-133 -279h129l6 279h-2zM538 765h-114v13l75 156l128 -47v-12z" />
    <glyph glyph-name="aeacute" unicode="&#x1fd;" horiz-adv-x="824" 
d="M215 169l-76 -169h-144v22l326 676h440v-128h-243v-145h227v-124h-227v-173h254v-128h-382v169h-175zM394 570l-133 -279h129l6 279h-2zM538 765h-114v13l75 156l128 -47v-12z" />
    <glyph glyph-name="Oslashacute" unicode="&#x1fe;" horiz-adv-x="796" 
d="M640 622q114 -101 114 -272q0 -113 -51.5 -197.5t-131.5 -124.5t-174 -40q-65 0 -122 22l-42 -70h-140v15l70 117q-121 101 -121 278q0 113 51.5 197t131.5 124t174 40q71 0 132 -24l40 69h141v-14zM345 140q24 -10 55 -10q85 0 145 60t60 160q0 88 -51 142zM461 558
q-31 11 -62 11q-86 0 -146.5 -59t-60.5 -160q0 -94 56 -150zM447 789h-114v13l75 156l128 -47v-12z" />
    <glyph glyph-name="oslashacute" unicode="&#x1ff;" horiz-adv-x="796" 
d="M640 622q114 -101 114 -272q0 -113 -51.5 -197.5t-131.5 -124.5t-174 -40q-65 0 -122 22l-42 -70h-140v15l70 117q-121 101 -121 278q0 113 51.5 197t131.5 124t174 40q71 0 132 -24l40 69h141v-14zM345 140q24 -10 55 -10q85 0 145 60t60 160q0 88 -51 142zM461 558
q-31 11 -62 11q-86 0 -146.5 -59t-60.5 -160q0 -94 56 -150zM447 789h-114v13l75 156l128 -47v-12z" />
    <glyph glyph-name="Scommaaccent" unicode="&#x218;" horiz-adv-x="648" 
d="M427 -134q0 -18 -7 -32l-40 -111h-81l24 71q-57 19 -57 73q0 34 22.5 54.5t57.5 20.5q27 0 48 -14t29 -37q4 -9 4 -25zM42 207h143q2 -45 43.5 -68t97.5 -23q134 0 134 88q0 23 -10.5 40t-23.5 25.5t-37 14.5t-39.5 8t-42.5 4q-255 22 -255 199q0 109 76 164.5t190 55.5
q52 0 97.5 -11.5t84.5 -35.5t62 -66.5t23 -98.5h-140q-6 40 -42 60.5t-85 20.5q-48 0 -83.5 -23.5t-35.5 -62.5q0 -42 34.5 -59.5t99.5 -24.5q63 -6 106.5 -16t85 -32t62.5 -62.5t21 -99.5t-24 -103t-65.5 -68t-89 -35.5t-102.5 -12.5q-116 0 -200.5 57.5t-84.5 164.5z" />
    <glyph glyph-name="scommaaccent" unicode="&#x219;" horiz-adv-x="648" 
d="M427 -134q0 -18 -7 -32l-40 -111h-81l24 71q-57 19 -57 73q0 34 22.5 54.5t57.5 20.5q27 0 48 -14t29 -37q4 -9 4 -25zM42 207h143q2 -45 43.5 -68t97.5 -23q134 0 134 88q0 23 -10.5 40t-23.5 25.5t-37 14.5t-39.5 8t-42.5 4q-255 22 -255 199q0 109 76 164.5t190 55.5
q52 0 97.5 -11.5t84.5 -35.5t62 -66.5t23 -98.5h-140q-6 40 -42 60.5t-85 20.5q-48 0 -83.5 -23.5t-35.5 -62.5q0 -42 34.5 -59.5t99.5 -24.5q63 -6 106.5 -16t85 -32t62.5 -62.5t21 -99.5t-24 -103t-65.5 -68t-89 -35.5t-102.5 -12.5q-116 0 -200.5 57.5t-84.5 164.5z" />
    <glyph glyph-name="uni021A" unicode="&#x21a;" horiz-adv-x="554" 
d="M366 -124q0 -18 -7 -32l-40 -111h-81l24 71q-57 19 -57 73q0 34 22.5 54.5t57.5 20.5q27 0 48 -14t29 -37q4 -9 4 -25zM205 570h-187v130h518v-130h-186v-570h-145v570z" />
    <glyph glyph-name="uni021B" unicode="&#x21b;" horiz-adv-x="554" 
d="M366 -124q0 -18 -7 -32l-40 -111h-81l24 71q-57 19 -57 73q0 34 22.5 54.5t57.5 20.5q27 0 48 -14t29 -37q4 -9 4 -25zM205 570h-187v130h518v-130h-186v-570h-145v570z" />
    <glyph glyph-name="circumflex" unicode="&#x2c6;" horiz-adv-x="494" 
d="M471 540h-133l-79 78l-78 -78h-135v14l143 148h140l142 -149v-13z" />
    <glyph glyph-name="caron" unicode="&#x2c7;" horiz-adv-x="531" 
d="M51 701h136l77 -78l75 78h138v-13l-143 -148h-141l-142 148v13z" />
    <glyph glyph-name="breve" unicode="&#x2d8;" horiz-adv-x="529" 
d="M57 701h123q0 -30 26 -47.5t56.5 -17.5t56.5 17.5t26 47.5h121q0 -48 -22.5 -86t-58.5 -57.5t-79.5 -28.5t-87.5 0.5t-80 29t-58.5 57t-22.5 85.5z" />
    <glyph glyph-name="dotaccent" unicode="&#x2d9;" horiz-adv-x="321" 
d="M146 558q-35 0 -58.5 21t-23.5 55t23.5 55.5t58.5 21.5q36 0 59.5 -21t23.5 -56t-23.5 -55.5t-59.5 -20.5z" />
    <glyph glyph-name="ring" unicode="&#x2da;" horiz-adv-x="379" 
d="M314 611q0 -56 -39.5 -87.5t-87.5 -31.5t-87.5 31.5t-39.5 87.5t39.5 87.5t87.5 31.5t87.5 -31.5t39.5 -87.5zM137 611q0 -28 25.5 -40t50.5 0t25 40q0 22 -16 34t-34.5 12t-34.5 -12t-16 -34z" />
    <glyph glyph-name="ogonek" unicode="&#x2db;" horiz-adv-x="364" 
d="M126 9h100q-35 -18 -54 -52t-3 -63q12 -22 38.5 -24.5t49.5 6.5t43 22l19 -89q-40 -26 -91.5 -35t-99.5 11.5t-63 75.5q-25 82 61 148z" />
    <glyph glyph-name="tilde" unicode="&#x2dc;" horiz-adv-x="469" 
d="M121 573l-75 36q62 155 198 86q81 -45 104 13q14 -6 37 -17t36 -17q-21 -69 -73 -95.5t-115 4.5q-27 14 -42.5 20t-36.5 1t-33 -31z" />
    <glyph glyph-name="hungarumlaut" unicode="&#x2dd;" horiz-adv-x="518" 
d="M68 551v12l56 150l125 -28v-11l-71 -123h-110zM284 551v12l55 139l124 -34v-12l-70 -105h-109z" />
    <glyph glyph-name="afii10023" unicode="&#x401;" horiz-adv-x="572" 
d="M510 700v-131h-278v-142h260v-131h-260v-160h286v-136h-437v700h429zM429 761q-34 0 -56.5 20t-22.5 52t22.5 52t56.5 20t56.5 -20t22.5 -52t-22.5 -52t-56.5 -20zM163 761q-33 0 -56 20t-23 52t23 52t56 20q34 0 57 -20t23 -52t-23 -52t-57 -20z" />
    <glyph glyph-name="afii10051" unicode="&#x402;" horiz-adv-x="757" 
d="M719 88q0 -126 -61.5 -171t-178.5 -23l5 103q58 -7 76.5 12.5t18.5 79.5v159q0 48 -31 75t-77 28q-47 1 -85.5 -33.5t-40.5 -79.5v-238h-145v570h-181v130h550v-130h-224v-180q29 41 75.5 59.5t96.5 16.5q83 -2 142.5 -62.5t59.5 -155.5v-160z" />
    <glyph glyph-name="afii10052" unicode="&#x403;" horiz-adv-x="522" 
d="M507 569h-277v-569h-149v700h426v-131zM340 764h-112v13l91 160l126 -46v-13z" />
    <glyph glyph-name="afii10053" unicode="&#x404;" horiz-adv-x="760" 
d="M394 574q-78 1 -131.5 -41.5t-63.5 -117.5h256v-128h-254q13 -74 68 -117.5t131 -43.5q66 0 115 33t67 94h145q-14 -88 -65.5 -148.5t-118 -86.5t-143.5 -26q-70 0 -134 23.5t-114 67.5t-80 113t-30 154q0 84 29 153.5t78 114t112 68t133 23.5q117 0 209.5 -64.5
t115.5 -186.5h-145q-45 116 -180 116z" />
    <glyph glyph-name="afii10054" unicode="&#x405;" horiz-adv-x="648" 
d="M42 207h143q2 -45 43.5 -68t97.5 -23q134 0 134 88q0 23 -10.5 40t-23.5 25.5t-37 14.5t-39.5 8t-42.5 4q-255 22 -255 199q0 109 76 164.5t190 55.5q52 0 97.5 -11.5t84.5 -35.5t62 -66.5t23 -98.5h-140q-6 40 -42 60.5t-85 20.5q-48 0 -83.5 -23.5t-35.5 -62.5
q0 -42 34.5 -59.5t99.5 -24.5q63 -6 106.5 -16t85 -32t62.5 -62.5t21 -99.5t-24 -103t-65.5 -68t-89 -35.5t-102.5 -12.5q-116 0 -200.5 57.5t-84.5 164.5z" />
    <glyph glyph-name="afii10055" unicode="&#x406;" 
d="M294 119h99v-119h-348v119h99v465h-91v116h332v-116h-91v-465z" />
    <glyph glyph-name="afii10056" unicode="&#x407;" 
d="M294 119h99v-119h-348v119h99v465h-91v116h332v-116h-91v-465zM357 764q-34 0 -56.5 20t-22.5 52t22.5 52t56.5 20t56.5 -20t22.5 -52t-22.5 -52t-56.5 -20zM91 764q-33 0 -56 20t-23 52t23 52t56 20q34 0 57 -20t23 -52t-23 -52t-57 -20z" />
    <glyph glyph-name="afii10057" unicode="&#x408;" horiz-adv-x="630" 
d="M555 700v-468q0 -110 -77.5 -176t-190.5 -66q-112 0 -186.5 65.5t-74.5 176.5v85h139v-82q0 -55 33.5 -83.5t88.5 -28.5q54 0 86 29t32 83v336h-125v129h275z" />
    <glyph glyph-name="afii10058" unicode="&#x409;" horiz-adv-x="997" 
d="M604 349v-217q15 0 49.5 -0.5t45.5 -0.5q54 0 93 25t39 72q0 71 -37.5 96t-111.5 25h-78zM604 481h122q118 0 182 -74t64 -178q0 -102 -68.5 -165.5t-179.5 -63.5h-262v566h-151q-7 -66 -18 -188.5t-14 -158.5q-14 -146 -68 -191t-196 -25l3 108q64 -8 84 17t28 97
l50 475h424v-219z" />
    <glyph glyph-name="afii10059" unicode="&#x40a;" horiz-adv-x="997" 
d="M603 700v-243h121q117 0 183 -63.5t66 -163.5q-1 -102 -67 -166t-184 -64h-265v315h-227v-315h-149v700h149v-248h227v248h146zM722 324h-119v-192q59 -1 119 0q53 1 81.5 32.5t23.5 77.5q-5 37 -33 59.5t-72 22.5z" />
    <glyph glyph-name="afii10060" unicode="&#x40b;" horiz-adv-x="759" 
d="M719 0h-140v248q0 48 -31 75t-77 28q-47 1 -85.5 -33.5t-40.5 -80.5v-237h-145v570h-181v130h550v-130h-224v-185q19 42 68 64t102 22q99 0 151.5 -62.5t52.5 -160.5v-248z" />
    <glyph glyph-name="afii10061" unicode="&#x40c;" horiz-adv-x="703" 
d="M516 0l-176 288q-25 -7 -109 -7v-281h-150v700h150v-289q94 0 121 14q25 14 39 48t31 103q43 161 238 123v-102q-42 4 -66 -11t-34 -54q-39 -136 -89 -186q24 -36 98.5 -149t116.5 -175v-22h-170zM401 764h-112v13l91 160l125 -46v-13z" />
    <glyph glyph-name="afii10062" unicode="&#x40e;" horiz-adv-x="638" 
d="M150 914l101 9q8 -63 75 -63q68 0 79 63q37 -2 100 -9q-5 -78 -50.5 -123t-127.5 -45q-80 0 -126.5 45t-50.5 123zM224 176l30 63l-247 442v19h165l159 -309h5l142 309h159v-15l-264 -534q-26 -57 -52 -92.5t-63 -57t-86 -20t-113 25.5l20 116q51 -23 86 -11t59 64z" />
    <glyph glyph-name="afii10145" unicode="&#x40f;" horiz-adv-x="729" 
d="M295 -135v135h-214v700h150v-564h268v564h149v-700h-209v-135h-144z" />
    <glyph glyph-name="afii10017" unicode="&#x410;" horiz-adv-x="700" 
d="M495 116h-291l-54 -116h-156v20l322 686h69l320 -686v-20h-155zM350 473l-97 -231h194z" />
    <glyph glyph-name="afii10018" unicode="&#x411;" horiz-adv-x="662" 
d="M379 315h-151v-184h151q49 0 76 27t27 66t-27 65t-76 26zM228 569v-129h152q120 0 184 -60t64 -155q0 -97 -64.5 -161t-183.5 -64h-299v700h490v-131h-343z" />
    <glyph glyph-name="afii10019" unicode="&#x412;" horiz-adv-x="672" 
d="M599 492q0 -39 -18.5 -74t-51.5 -55q100 -42 100 -156q0 -94 -59 -150.5t-163 -56.5h-325v699h297q98 0 159 -55.5t61 -151.5zM368 571h-137v-159h137q38 0 60.5 20t23.5 55q1 38 -22 61t-62 23zM390 290h-159v-160h166q38 0 60 20.5t24 56.5q2 46 -31 69q-20 14 -60 14z
" />
    <glyph glyph-name="afii10020" unicode="&#x413;" horiz-adv-x="523" 
d="M507 565h-277v-565h-149v700h426v-135z" />
    <glyph glyph-name="afii10021" unicode="&#x414;" horiz-adv-x="748" 
d="M309 571l-37 -352q-7 -68 -47 -95h263v447h-179zM20 127h24q43 1 58.5 22.5t21.5 75.5l55 475h456v-573h75v-226h-134v99h-415v-99h-141v226z" />
    <glyph glyph-name="afii10022" unicode="&#x415;" horiz-adv-x="572" 
d="M510 700v-131h-278v-142h260v-131h-260v-160h286v-136h-437v700h429z" />
    <glyph glyph-name="afii10024" unicode="&#x416;" horiz-adv-x="1028" 
d="M1009 0h-169q-118 192 -176 287q-39 -9 -76 -9v-278h-148v278q-37 0 -76 9q-58 -95 -176 -287h-169v22q71 108 215 324q-49 47 -84 189q-21 75 -106 62v101q203 43 239 -123q25 -120 74 -147q26 -16 83 -16v288h148v-288q58 0 84 16q21 12 37.5 41t22.5 50.5t14 55.5
q35 166 238 123v-101q-84 13 -106 -62q-19 -72 -36.5 -116t-46.5 -73q36 -54 107 -162t107 -162v-22z" />
    <glyph glyph-name="afii10025" unicode="&#x417;" horiz-adv-x="594" 
d="M190 528h-132q-4 91 61.5 138.5t163.5 47.5q106 0 169 -56t63 -142q0 -42 -21.5 -78t-58.5 -58q118 -54 118 -177q0 -98 -71.5 -157.5t-198.5 -59.5q-116 0 -184 59.5t-68 175.5h135q0 -51 33.5 -81t83.5 -30q54 0 86.5 28.5t32.5 73.5q0 43 -33.5 71.5t-85.5 28.5h-52
v120h51q40 0 66.5 23.5t26.5 57.5q0 38 -27 60t-65 22t-65.5 -17.5t-27.5 -49.5z" />
    <glyph glyph-name="afii10026" unicode="&#x418;" horiz-adv-x="752" 
d="M522 400l-396 -402h-45v702h150v-397l393 400h47v-703h-149v400z" />
    <glyph glyph-name="afii10027" unicode="&#x419;" horiz-adv-x="752" 
d="M229 914l101 9q8 -63 75 -63q68 0 79 63q37 -2 100 -9q-5 -78 -50.5 -123t-127.5 -45q-80 0 -126.5 45t-50.5 123zM126 -2l396 402v-400h149v703h-47l-393 -400v397h-150v-702h45z" />
    <glyph glyph-name="afii10028" unicode="&#x41a;" horiz-adv-x="703" 
d="M230 700v-289q95 0 121 13q25 14 39 47.5t31 104.5q45 163 239 123v-102q-43 4 -66.5 -11t-34.5 -54q-35 -133 -88 -186l214 -324v-22h-169l-176 288q-27 -7 -110 -7v-281h-149v700h149z" />
    <glyph glyph-name="afii10029" unicode="&#x41b;" horiz-adv-x="732" 
d="M311 566l-34 -365q-13 -136 -68 -177t-194 -21l3 108q61 -6 82 14t28 81l52 494h471v-700h-149v566h-191z" />
    <glyph glyph-name="afii10030" unicode="&#x41c;" horiz-adv-x="833" 
d="M417 369l281 333h54v-702h-150v379l-176 -220h-19l-176 220v-379h-150v702h55z" />
    <glyph glyph-name="afii10031" unicode="&#x41d;" horiz-adv-x="729" 
d="M648 0h-150v296h-268v-296h-149v700h149v-267h268v267h150v-700z" />
    <glyph glyph-name="afii10032" unicode="&#x41e;" horiz-adv-x="799" 
d="M757 350q0 -160 -100 -261t-259 -101q-149 0 -252.5 96.5t-103.5 265.5q0 113 51.5 197t132 124t175.5 40q70 0 133 -24t113.5 -68t80 -114t29.5 -155zM193 350q0 -109 59 -167t148 -58q88 0 148 58t60 167q0 106 -60 164.5t-147 58.5q-88 0 -148 -58.5t-60 -164.5z" />
    <glyph glyph-name="afii10033" unicode="&#x41f;" horiz-adv-x="729" 
d="M81 700h567v-700h-150v564h-267v-564h-150v700z" />
    <glyph glyph-name="afii10034" unicode="&#x420;" horiz-adv-x="655" 
d="M232 1h-150v700h299q116 0 182.5 -75t66.5 -180q0 -103 -67 -175t-182 -72h-149v-198zM229 327h152q47 0 76.5 35.5t29.5 87.5q0 51 -29 85.5t-77 34.5q0 1 -76 0h-76v-243z" />
    <glyph glyph-name="afii10035" unicode="&#x421;" horiz-adv-x="761" 
d="M42 349q0 167 106 263.5t252 94.5q116 0 208 -63.5t115 -185.5h-145q-45 114 -178 114q-93 0 -150 -61.5t-57 -161.5q0 -92 57 -156t149 -64q67 0 116 32t66 94h144q-21 -130 -113 -196t-212 -66q-70 0 -134 23.5t-114 67t-80 112.5t-30 153z" />
    <glyph glyph-name="afii10036" unicode="&#x422;" horiz-adv-x="554" 
d="M205 570h-187v130h518v-130h-186v-570h-145v570z" />
    <glyph glyph-name="afii10037" unicode="&#x423;" horiz-adv-x="636" 
d="M223 176l30 63l-247 442v19h165l159 -309h5l142 309h159v-15l-264 -534q-26 -57 -52 -93t-62.5 -59.5t-86 -22.5t-113.5 25l20 122q51 -23 86 -11t59 64z" />
    <glyph glyph-name="afii10038" unicode="&#x424;" horiz-adv-x="909" 
d="M708 351q0 149 -186 153v-307q186 8 186 154zM200 351q0 -146 186 -154v307q-186 -4 -186 -153zM385 -2v72q-94 3 -167.5 32t-120.5 93t-47 156t47 156.5t120 94t167 32.5v68h140v-68q72 -2 130.5 -19t105 -49.5t72.5 -87.5t26 -127t-26.5 -126.5t-74 -87t-106 -49
t-128.5 -18.5v-72h-138z" />
    <glyph glyph-name="afii10039" unicode="&#x425;" horiz-adv-x="671" 
d="M334 459h4l68 132l69 109h162v-22l-211 -308l235 -349v-21h-157l-91 135l-75 131h-5l-77 -135l-87 -131h-159v21l236 349l-212 308v22h163l73 -115z" />
    <glyph glyph-name="afii10040" unicode="&#x426;" horiz-adv-x="753" 
d="M585 0h-504v700h150v-564h252v564h151v-573h84v-217h-133v90z" />
    <glyph glyph-name="afii10041" unicode="&#x427;" horiz-adv-x="647" 
d="M565 0h-148v250q-200 -25 -291.5 54t-91.5 289v106h151v-106q0 -137 48 -180t184 -24v310h148v-699z" />
    <glyph glyph-name="afii10042" unicode="&#x428;" horiz-adv-x="1034" 
d="M81 0v700h149v-564h211v564h150v-564h212v564h150v-700h-872z" />
    <glyph glyph-name="afii10043" unicode="&#x429;" horiz-adv-x="1068" 
d="M81 0v700h151v-564h208v564h149v-564h210v564h149v-573h85v-217h-132v90h-820z" />
    <glyph glyph-name="afii10044" unicode="&#x42a;" horiz-adv-x="705" 
d="M430 349h-149v-217q16 0 46.5 -0.5t55.5 -0.5t47 1q49 0 77.5 32t28.5 78q-1 45 -30 76t-76 31zM20 574v126h261v-219h150q115 0 182 -70t67 -169q0 -100 -67 -171t-182 -71h-297v574h-114z" />
    <glyph glyph-name="afii10045" unicode="&#x42b;" horiz-adv-x="957" 
d="M227 700v-17v-202h150q126 0 193 -82t54 -189q-11 -90 -76.5 -150t-170.5 -60h-296v700h146zM377 349h-15h-135v-217q20 0 62 -0.5t63 -0.5q119 0 129 96q5 49 -24 85.5t-80 36.5zM876 700v-700h-149v700h149z" />
    <glyph glyph-name="afii10046" unicode="&#x42c;" horiz-adv-x="650" 
d="M227 700v-219h150q115 0 182 -70t67 -169q0 -100 -67 -171t-182 -71h-296v700h146zM377 349h-150v-217h150q48 0 77 32t28 78q-1 45 -29.5 76t-75.5 31z" />
    <glyph glyph-name="afii10047" unicode="&#x42d;" horiz-adv-x="760" 
d="M365 574q-135 0 -180 -116h-145q23 122 116 186.5t209 64.5q70 0 133 -23.5t112.5 -68t78.5 -114t29 -153.5q0 -85 -30 -154t-80 -113t-114 -67.5t-134 -23.5q-77 0 -143.5 26t-118 86.5t-66.5 148.5h145q18 -61 67 -94t116 -33q76 0 130.5 43.5t67.5 117.5h-253v124h256
q-10 75 -64.5 119.5t-131.5 43.5z" />
    <glyph glyph-name="afii10048" unicode="&#x42e;" horiz-adv-x="1086" 
d="M1044 350q0 -114 -51.5 -198.5t-131.5 -125.5t-175 -40q-134 2 -234 83.5t-117 223.5h-104v-293h-150v700h150v-271h107q25 134 123.5 209t227.5 74q94 -1 173.5 -41.5t130.5 -124.5t51 -196zM480 350q0 -103 60.5 -162.5t147.5 -59.5q86 0 146 59.5t60 162.5
q0 101 -60.5 160t-147.5 59t-146.5 -59t-59.5 -160z" />
    <glyph glyph-name="afii10049" unicode="&#x42f;" horiz-adv-x="690" 
d="M31 22l157 233q-59 30 -91.5 84.5t-33.5 121.5q0 99 66.5 169t181.5 70h298v-700h-150v232h-125l-144 -232h-159v22zM311 355h150v215h-150q-47 0 -75 -30.5t-28 -75.5q0 -46 28 -77.5t75 -31.5z" />
    <glyph glyph-name="afii10065" unicode="&#x430;" horiz-adv-x="700" 
d="M495 116h-291l-54 -116h-156v20l322 686h69l320 -686v-20h-155zM350 473l-97 -231h194z" />
    <glyph glyph-name="afii10066" unicode="&#x431;" horiz-adv-x="662" 
d="M379 315h-151v-184h151q49 0 76 27t27 66t-27 65t-76 26zM228 569v-129h152q120 0 184 -60t64 -155q0 -97 -64.5 -161t-183.5 -64h-299v700h490v-131h-343z" />
    <glyph glyph-name="afii10067" unicode="&#x432;" horiz-adv-x="672" 
d="M599 492q0 -39 -18.5 -74t-51.5 -55q100 -42 100 -156q0 -94 -59 -150.5t-163 -56.5h-325v699h297q98 0 159 -55.5t61 -151.5zM368 571h-137v-159h137q38 0 60.5 20t23.5 55q1 38 -22 61t-62 23zM390 290h-159v-160h166q38 0 60 20.5t24 56.5q2 46 -31 69q-20 14 -60 14z
" />
    <glyph glyph-name="afii10068" unicode="&#x433;" horiz-adv-x="523" 
d="M507 565h-277v-565h-149v700h426v-135z" />
    <glyph glyph-name="afii10069" unicode="&#x434;" horiz-adv-x="748" 
d="M309 571l-37 -352q-7 -68 -47 -95h263v447h-179zM20 127h24q43 1 58.5 22.5t21.5 75.5l55 475h456v-573h75v-226h-134v99h-415v-99h-141v226z" />
    <glyph glyph-name="afii10070" unicode="&#x435;" horiz-adv-x="572" 
d="M510 700v-131h-278v-142h260v-131h-260v-160h286v-136h-437v700h429z" />
    <glyph glyph-name="afii10072" unicode="&#x436;" horiz-adv-x="1028" 
d="M1009 0h-169q-118 192 -176 287q-39 -9 -76 -9v-278h-148v278q-37 0 -76 9q-58 -95 -176 -287h-169v22q71 108 215 324q-49 47 -84 189q-21 75 -106 62v101q203 43 239 -123q25 -120 74 -147q26 -16 83 -16v288h148v-288q58 0 84 16q21 12 37.5 41t22.5 50.5t14 55.5
q35 166 238 123v-101q-84 13 -106 -62q-19 -72 -36.5 -116t-46.5 -73q36 -54 107 -162t107 -162v-22z" />
    <glyph glyph-name="afii10073" unicode="&#x437;" horiz-adv-x="594" 
d="M190 528h-132q-4 91 61.5 138.5t163.5 47.5q106 0 169 -56t63 -142q0 -42 -21.5 -78t-58.5 -58q118 -54 118 -177q0 -98 -71.5 -157.5t-198.5 -59.5q-116 0 -184 59.5t-68 175.5h135q0 -51 33.5 -81t83.5 -30q54 0 86.5 28.5t32.5 73.5q0 43 -33.5 71.5t-85.5 28.5h-52
v120h51q40 0 66.5 23.5t26.5 57.5q0 38 -27 60t-65 22t-65.5 -17.5t-27.5 -49.5z" />
    <glyph glyph-name="afii10074" unicode="&#x438;" horiz-adv-x="752" 
d="M522 400l-396 -402h-45v702h150v-397l393 400h47v-703h-149v400z" />
    <glyph glyph-name="afii10075" unicode="&#x439;" horiz-adv-x="752" 
d="M229 914l101 9q8 -63 75 -63q68 0 79 63q37 -2 100 -9q-5 -78 -50.5 -123t-127.5 -45q-80 0 -126.5 45t-50.5 123zM126 -2l396 402v-400h149v703h-47l-393 -400v397h-150v-702h45z" />
    <glyph glyph-name="afii10076" unicode="&#x43a;" horiz-adv-x="703" 
d="M230 700v-289q95 0 121 13q25 14 39 47.5t31 104.5q45 163 239 123v-102q-43 4 -66.5 -11t-34.5 -54q-35 -133 -88 -186l214 -324v-22h-169l-176 288q-27 -7 -110 -7v-281h-149v700h149z" />
    <glyph glyph-name="afii10077" unicode="&#x43b;" horiz-adv-x="732" 
d="M311 566l-34 -365q-13 -136 -68 -177t-194 -21l3 108q61 -6 82 14t28 81l52 494h471v-700h-149v566h-191z" />
    <glyph glyph-name="afii10078" unicode="&#x43c;" horiz-adv-x="833" 
d="M417 369l281 333h54v-702h-150v379l-176 -220h-19l-176 220v-379h-150v702h55z" />
    <glyph glyph-name="afii10079" unicode="&#x43d;" horiz-adv-x="729" 
d="M648 0h-150v296h-268v-296h-149v700h149v-267h268v267h150v-700z" />
    <glyph glyph-name="afii10080" unicode="&#x43e;" horiz-adv-x="799" 
d="M757 350q0 -160 -100 -261t-259 -101q-149 0 -252.5 96.5t-103.5 265.5q0 113 51.5 197t132 124t175.5 40q70 0 133 -24t113.5 -68t80 -114t29.5 -155zM193 350q0 -109 59 -167t148 -58q88 0 148 58t60 167q0 106 -60 164.5t-147 58.5q-88 0 -148 -58.5t-60 -164.5z" />
    <glyph glyph-name="afii10081" unicode="&#x43f;" horiz-adv-x="729" 
d="M81 700h567v-700h-150v564h-267v-564h-150v700z" />
    <glyph glyph-name="afii10082" unicode="&#x440;" horiz-adv-x="655" 
d="M232 1h-150v700h299q116 0 182.5 -75t66.5 -180q0 -103 -67 -175t-182 -72h-149v-198zM229 327h152q47 0 76.5 35.5t29.5 87.5q0 51 -29 85.5t-77 34.5q0 1 -76 0h-76v-243z" />
    <glyph glyph-name="afii10083" unicode="&#x441;" horiz-adv-x="761" 
d="M42 349q0 167 106 263.5t252 94.5q116 0 208 -63.5t115 -185.5h-145q-45 114 -178 114q-93 0 -150 -61.5t-57 -161.5q0 -92 57 -156t149 -64q67 0 116 32t66 94h144q-21 -130 -113 -196t-212 -66q-70 0 -134 23.5t-114 67t-80 112.5t-30 153z" />
    <glyph glyph-name="afii10084" unicode="&#x442;" horiz-adv-x="554" 
d="M205 570h-187v130h518v-130h-186v-570h-145v570z" />
    <glyph glyph-name="afii10085" unicode="&#x443;" horiz-adv-x="636" 
d="M223 176l30 63l-247 442v19h165l159 -309h5l142 309h159v-15l-264 -534q-26 -57 -52 -93t-62.5 -59.5t-86 -22.5t-113.5 25l20 122q51 -23 86 -11t59 64z" />
    <glyph glyph-name="afii10086" unicode="&#x444;" horiz-adv-x="909" 
d="M708 351q0 149 -186 153v-307q186 8 186 154zM200 351q0 -146 186 -154v307q-186 -4 -186 -153zM385 -2v72q-94 3 -167.5 32t-120.5 93t-47 156t47 156.5t120 94t167 32.5v68h140v-68q72 -2 130.5 -19t105 -49.5t72.5 -87.5t26 -127t-26.5 -126.5t-74 -87t-106 -49
t-128.5 -18.5v-72h-138z" />
    <glyph glyph-name="afii10087" unicode="&#x445;" horiz-adv-x="671" 
d="M334 459h4l68 132l69 109h162v-22l-211 -308l235 -349v-21h-157l-91 135l-75 131h-5l-77 -135l-87 -131h-159v21l236 349l-212 308v22h163l73 -115z" />
    <glyph glyph-name="afii10088" unicode="&#x446;" horiz-adv-x="753" 
d="M585 0h-504v700h150v-564h252v564h151v-573h84v-217h-133v90z" />
    <glyph glyph-name="afii10089" unicode="&#x447;" horiz-adv-x="647" 
d="M565 0h-148v250q-200 -25 -291.5 54t-91.5 289v106h151v-106q0 -137 48 -180t184 -24v310h148v-699z" />
    <glyph glyph-name="afii10090" unicode="&#x448;" horiz-adv-x="1034" 
d="M81 0v700h149v-564h211v564h150v-564h212v564h150v-700h-872z" />
    <glyph glyph-name="afii10091" unicode="&#x449;" horiz-adv-x="1068" 
d="M81 0v700h151v-564h208v564h149v-564h210v564h149v-573h85v-217h-132v90h-820z" />
    <glyph glyph-name="afii10092" unicode="&#x44a;" horiz-adv-x="705" 
d="M430 349h-149v-217q16 0 46.5 -0.5t55.5 -0.5t47 1q49 0 77.5 32t28.5 78q-1 45 -30 76t-76 31zM20 574v126h261v-219h150q115 0 182 -70t67 -169q0 -100 -67 -171t-182 -71h-297v574h-114z" />
    <glyph glyph-name="afii10093" unicode="&#x44b;" horiz-adv-x="957" 
d="M227 700v-17v-202h150q126 0 193 -82t54 -189q-11 -90 -76.5 -150t-170.5 -60h-296v700h146zM377 349h-15h-135v-217q20 0 62 -0.5t63 -0.5q119 0 129 96q5 49 -24 85.5t-80 36.5zM876 700v-700h-149v700h149z" />
    <glyph glyph-name="afii10094" unicode="&#x44c;" horiz-adv-x="650" 
d="M227 700v-219h150q115 0 182 -70t67 -169q0 -100 -67 -171t-182 -71h-296v700h146zM377 349h-150v-217h150q48 0 77 32t28 78q-1 45 -29.5 76t-75.5 31z" />
    <glyph glyph-name="afii10095" unicode="&#x44d;" horiz-adv-x="760" 
d="M365 574q-135 0 -180 -116h-145q23 122 116 186.5t209 64.5q70 0 133 -23.5t112.5 -68t78.5 -114t29 -153.5q0 -85 -30 -154t-80 -113t-114 -67.5t-134 -23.5q-77 0 -143.5 26t-118 86.5t-66.5 148.5h145q18 -61 67 -94t116 -33q76 0 130.5 43.5t67.5 117.5h-253v124h256
q-10 75 -64.5 119.5t-131.5 43.5z" />
    <glyph glyph-name="afii10096" unicode="&#x44e;" horiz-adv-x="1086" 
d="M1044 350q0 -114 -51.5 -198.5t-131.5 -125.5t-175 -40q-134 2 -234 83.5t-117 223.5h-104v-293h-150v700h150v-271h107q25 134 123.5 209t227.5 74q94 -1 173.5 -41.5t130.5 -124.5t51 -196zM480 350q0 -103 60.5 -162.5t147.5 -59.5q86 0 146 59.5t60 162.5
q0 101 -60.5 160t-147.5 59t-146.5 -59t-59.5 -160z" />
    <glyph glyph-name="afii10097" unicode="&#x44f;" horiz-adv-x="690" 
d="M31 22l157 233q-59 30 -91.5 84.5t-33.5 121.5q0 99 66.5 169t181.5 70h298v-700h-150v232h-125l-144 -232h-159v22zM311 355h150v215h-150q-47 0 -75 -30.5t-28 -75.5q0 -46 28 -77.5t75 -31.5z" />
    <glyph glyph-name="afii10071" unicode="&#x451;" horiz-adv-x="572" 
d="M510 700v-131h-278v-142h260v-131h-260v-160h286v-136h-437v700h429zM429 761q-34 0 -56.5 20t-22.5 52t22.5 52t56.5 20t56.5 -20t22.5 -52t-22.5 -52t-56.5 -20zM163 761q-33 0 -56 20t-23 52t23 52t56 20q34 0 57 -20t23 -52t-23 -52t-57 -20z" />
    <glyph glyph-name="afii10099" unicode="&#x452;" horiz-adv-x="757" 
d="M719 88q0 -126 -61.5 -171t-178.5 -23l5 103q58 -7 76.5 12.5t18.5 79.5v159q0 48 -31 75t-77 28q-47 1 -85.5 -33.5t-40.5 -79.5v-238h-145v570h-181v130h550v-130h-224v-180q29 41 75.5 59.5t96.5 16.5q83 -2 142.5 -62.5t59.5 -155.5v-160z" />
    <glyph glyph-name="afii10100" unicode="&#x453;" horiz-adv-x="522" 
d="M507 569h-277v-569h-149v700h426v-131zM340 764h-112v13l91 160l126 -46v-13z" />
    <glyph glyph-name="afii10101" unicode="&#x454;" horiz-adv-x="760" 
d="M394 574q-78 1 -131.5 -41.5t-63.5 -117.5h256v-128h-254q13 -74 68 -117.5t131 -43.5q66 0 115 33t67 94h145q-14 -88 -65.5 -148.5t-118 -86.5t-143.5 -26q-70 0 -134 23.5t-114 67.5t-80 113t-30 154q0 84 29 153.5t78 114t112 68t133 23.5q117 0 209.5 -64.5
t115.5 -186.5h-145q-45 116 -180 116z" />
    <glyph glyph-name="afii10102" unicode="&#x455;" horiz-adv-x="648" 
d="M42 207h143q2 -45 43.5 -68t97.5 -23q134 0 134 88q0 23 -10.5 40t-23.5 25.5t-37 14.5t-39.5 8t-42.5 4q-255 22 -255 199q0 109 76 164.5t190 55.5q52 0 97.5 -11.5t84.5 -35.5t62 -66.5t23 -98.5h-140q-6 40 -42 60.5t-85 20.5q-48 0 -83.5 -23.5t-35.5 -62.5
q0 -42 34.5 -59.5t99.5 -24.5q63 -6 106.5 -16t85 -32t62.5 -62.5t21 -99.5t-24 -103t-65.5 -68t-89 -35.5t-102.5 -12.5q-116 0 -200.5 57.5t-84.5 164.5z" />
    <glyph glyph-name="afii10103" unicode="&#x456;" 
d="M294 119h99v-119h-348v119h99v465h-91v116h332v-116h-91v-465z" />
    <glyph glyph-name="afii10104" unicode="&#x457;" 
d="M294 119h99v-119h-348v119h99v465h-91v116h332v-116h-91v-465zM357 764q-34 0 -56.5 20t-22.5 52t22.5 52t56.5 20t56.5 -20t22.5 -52t-22.5 -52t-56.5 -20zM91 764q-33 0 -56 20t-23 52t23 52t56 20q34 0 57 -20t23 -52t-23 -52t-57 -20z" />
    <glyph glyph-name="afii10105" unicode="&#x458;" horiz-adv-x="630" 
d="M555 700v-468q0 -110 -77.5 -176t-190.5 -66q-112 0 -186.5 65.5t-74.5 176.5v85h139v-82q0 -55 33.5 -83.5t88.5 -28.5q54 0 86 29t32 83v336h-125v129h275z" />
    <glyph glyph-name="afii10106" unicode="&#x459;" horiz-adv-x="997" 
d="M604 349v-217q15 0 49.5 -0.5t45.5 -0.5q54 0 93 25t39 72q0 71 -37.5 96t-111.5 25h-78zM604 481h122q118 0 182 -74t64 -178q0 -102 -68.5 -165.5t-179.5 -63.5h-262v566h-151q-7 -66 -18 -188.5t-14 -158.5q-14 -146 -68 -191t-196 -25l3 108q64 -8 84 17t28 97
l50 475h424v-219z" />
    <glyph glyph-name="afii10107" unicode="&#x45a;" horiz-adv-x="997" 
d="M603 700v-243h121q117 0 183 -63.5t66 -163.5q-1 -102 -67 -166t-184 -64h-265v315h-227v-315h-149v700h149v-248h227v248h146zM722 324h-119v-192q59 -1 119 0q53 1 81.5 32.5t23.5 77.5q-5 37 -33 59.5t-72 22.5z" />
    <glyph glyph-name="afii10108" unicode="&#x45b;" horiz-adv-x="759" 
d="M719 0h-140v248q0 48 -31 75t-77 28q-47 1 -85.5 -33.5t-40.5 -80.5v-237h-145v570h-181v130h550v-130h-224v-185q19 42 68 64t102 22q99 0 151.5 -62.5t52.5 -160.5v-248z" />
    <glyph glyph-name="afii10109" unicode="&#x45c;" horiz-adv-x="703" 
d="M516 0l-176 288q-25 -7 -109 -7v-281h-150v700h150v-289q94 0 121 14q25 14 39 48t31 103q43 161 238 123v-102q-42 4 -66 -11t-34 -54q-39 -136 -89 -186q24 -36 98.5 -149t116.5 -175v-22h-170zM401 764h-112v13l91 160l125 -46v-13z" />
    <glyph glyph-name="afii10110" unicode="&#x45e;" horiz-adv-x="638" 
d="M150 914l101 9q8 -63 75 -63q68 0 79 63q37 -2 100 -9q-5 -78 -50.5 -123t-127.5 -45q-80 0 -126.5 45t-50.5 123zM224 176l30 63l-247 442v19h165l159 -309h5l142 309h159v-15l-264 -534q-26 -57 -52 -92.5t-63 -57t-86 -20t-113 25.5l20 116q51 -23 86 -11t59 64z" />
    <glyph glyph-name="afii10193" unicode="&#x45f;" horiz-adv-x="729" 
d="M295 -135v135h-214v700h150v-564h268v564h149v-700h-209v-135h-144z" />
    <glyph glyph-name="afii10050" unicode="&#x490;" horiz-adv-x="522" 
d="M507 569h-277v-569h-149v700h309v100h117v-231z" />
    <glyph glyph-name="afii10098" unicode="&#x491;" horiz-adv-x="522" 
d="M507 569h-277v-569h-149v700h309v100h117v-231z" />
    <glyph glyph-name="Wgrave" unicode="&#x1e80;" horiz-adv-x="970" 
d="M454 688h61l151 -434h3l59 233l70 213h157v-22l-241 -684h-89l-139 378h-3l-135 -378h-92l-242 684v22h157l71 -214l63 -232h3zM544 774v-13h-114l-89 110v12l128 47z" />
    <glyph glyph-name="wgrave" unicode="&#x1e81;" horiz-adv-x="970" 
d="M454 688h61l151 -434h3l59 233l70 213h157v-22l-241 -684h-89l-139 378h-3l-135 -378h-92l-242 684v22h157l71 -214l63 -232h3zM544 774v-13h-114l-89 110v12l128 47z" />
    <glyph glyph-name="Wacute" unicode="&#x1e82;" horiz-adv-x="970" 
d="M454 688h61l151 -434h3l59 233l70 213h157v-22l-241 -684h-89l-139 378h-3l-135 -378h-92l-242 684v22h157l71 -214l63 -232h3zM536 758h-114v13l75 156l128 -47v-12z" />
    <glyph glyph-name="wacute" unicode="&#x1e83;" horiz-adv-x="970" 
d="M454 688h61l151 -434h3l59 233l70 213h157v-22l-241 -684h-89l-139 378h-3l-135 -378h-92l-242 684v22h157l71 -214l63 -232h3zM536 758h-114v13l75 156l128 -47v-12z" />
    <glyph glyph-name="Wdieresis" unicode="&#x1e84;" horiz-adv-x="970" 
d="M454 688h61l151 -434h3l59 233l70 213h157v-22l-241 -684h-89l-139 378h-3l-135 -378h-92l-242 684v22h157l71 -214l63 -232h3zM616 747q-34 0 -56.5 20t-22.5 52t22.5 52t56.5 20t56.5 -20t22.5 -52t-22.5 -52t-56.5 -20zM350 747q-33 0 -56 20t-23 52t23 52t56 20
q34 0 57 -20t23 -52t-23 -52t-57 -20z" />
    <glyph glyph-name="wdieresis" unicode="&#x1e85;" horiz-adv-x="970" 
d="M454 688h61l151 -434h3l59 233l70 213h157v-22l-241 -684h-89l-139 378h-3l-135 -378h-92l-242 684v22h157l71 -214l63 -232h3zM616 747q-34 0 -56.5 20t-22.5 52t22.5 52t56.5 20t56.5 -20t22.5 -52t-22.5 -52t-56.5 -20zM350 747q-33 0 -56 20t-23 52t23 52t56 20
q34 0 57 -20t23 -52t-23 -52t-57 -20z" />
    <glyph glyph-name="Ygrave" unicode="&#x1ef2;" horiz-adv-x="635" 
d="M316 417h5l69 139l84 144h159v-22l-240 -398v-280h-150v280l-241 398v22h161l87 -149zM379 771v-13h-114l-89 110v12l128 47z" />
    <glyph glyph-name="ygrave" unicode="&#x1ef3;" horiz-adv-x="635" 
d="M316 417h5l69 139l84 144h159v-22l-240 -398v-280h-150v280l-241 398v22h161l87 -149zM379 771v-13h-114l-89 110v12l128 47z" />
    <glyph glyph-name="endash" unicode="&#x2013;" horiz-adv-x="545" 
d="M61 273v120h423v-120h-423z" />
    <glyph glyph-name="emdash" unicode="&#x2014;" horiz-adv-x="633" 
d="M61 273v120h511v-120h-511z" />
    <glyph glyph-name="quoteleft" unicode="&#x2018;" horiz-adv-x="261" 
d="M49 547q2 19 7 31l40 125h83l-24 -84q26 -7 42 -26.5t16 -47.5q0 -35 -23 -55.5t-59 -20.5q-60 0 -78 51q-4 11 -4 27z" />
    <glyph glyph-name="quoteright" unicode="&#x2019;" horiz-adv-x="262" 
d="M214 629q-2 -19 -7 -31l-41 -126h-82l24 85q-26 7 -42 26.5t-16 46.5q0 35 23 56t59 21q27 0 48.5 -14t29.5 -38q4 -11 4 -26z" />
    <glyph glyph-name="quotesinglbase" unicode="&#x201a;" horiz-adv-x="276" 
d="M220 59q0 -13 -7 -32q-7 -22 -20 -63t-21 -63h-82l24 85q-58 19 -58 74q0 35 23 56t59 21q28 0 49 -14t29 -38q4 -9 4 -26z" />
    <glyph glyph-name="quotedblleft" unicode="&#x201c;" horiz-adv-x="479" 
d="M49 546q0 16 6 32l41 125h83l-25 -85q59 -15 59 -73q0 -35 -23.5 -56t-59.5 -21q-59 0 -77 52q-4 9 -4 26zM268 546q0 18 7 32l40 125h83l-24 -85q58 -16 58 -73q0 -35 -23 -56t-59 -21q-28 0 -49 14t-29 38q-4 9 -4 26z" />
    <glyph glyph-name="quotedblright" unicode="&#x201d;" horiz-adv-x="484" 
d="M214 629q-2 -19 -7 -31l-41 -126h-82l24 85q-26 7 -42 26.5t-16 46.5q0 35 23 56t59 21q27 0 48.5 -14t29.5 -38q4 -11 4 -26zM436 629q0 -18 -7 -31l-40 -126h-83l24 85q-26 7 -42 26.5t-16 46.5q0 35 23 56t59 21q28 0 49 -14t29 -38q4 -9 4 -26z" />
    <glyph glyph-name="quotedblbase" unicode="&#x201e;" horiz-adv-x="497" 
d="M220 59q0 -10 -6 -32q-15 -43 -41 -125h-83l25 84q-59 19 -59 74q0 35 23.5 56t59.5 21q27 0 48 -14t29 -38q4 -9 4 -26zM441 59q-1 -16 -7 -32q-7 -19 -20 -61t-21 -64h-82l24 84q-58 19 -58 74q0 35 23 56t59 21q27 0 48.5 -14t29.5 -38q4 -11 4 -26z" />
    <glyph glyph-name="dagger" unicode="&#x2020;" horiz-adv-x="475" 
d="M35 361v118h139v230h127v-230h139v-118h-139v-448h-127v448h-139z" />
    <glyph glyph-name="daggerdbl" unicode="&#x2021;" horiz-adv-x="524" 
d="M52 125v116h145v152h-145v115h145v201h127v-201h148v-115h-148v-152h148v-116h-148v-212h-127v212h-145z" />
    <glyph glyph-name="bullet" unicode="&#x2022;" horiz-adv-x="450" 
d="M225 220q-63 0 -106.5 38.5t-43.5 99.5q0 62 43.5 101.5t106.5 39.5q64 0 107 -39t43 -102q0 -61 -43 -99.5t-107 -38.5z" />
    <glyph glyph-name="ellipsis" unicode="&#x2026;" horiz-adv-x="795" 
d="M139 -15q-36 0 -59.5 21.5t-23.5 54.5q0 35 23.5 56.5t59.5 21.5t59.5 -21.5t23.5 -56.5q0 -33 -23.5 -54.5t-59.5 -21.5zM396 -15q-36 0 -59.5 21.5t-23.5 54.5q0 35 23.5 56.5t59.5 21.5t59.5 -21.5t23.5 -56.5q0 -33 -23.5 -54.5t-59.5 -21.5zM656 -15
q-34 0 -58.5 21.5t-24.5 54.5q0 35 24 56.5t59 21.5q36 0 59.5 -21.5t23.5 -56.5q0 -33 -23.5 -54.5t-59.5 -21.5z" />
    <glyph glyph-name="perthousand" unicode="&#x2030;" horiz-adv-x="1336" 
d="M220 0l344 699h136l-344 -699h-136zM885 161q0 -57 -26.5 -99t-66.5 -61t-86 -19t-86 19t-66.5 61t-26.5 99t26.5 98.5t66.5 60.5t86 19t86 -19t66.5 -60.5t26.5 -98.5zM638 161q0 -39 21 -61t47 -22t47 22t21 61q0 38 -21 59.5t-47 21.5t-47 -21.5t-21 -59.5zM394 536
q0 -57 -26.5 -99t-66.5 -61t-86.5 -19t-86.5 19t-66.5 61t-26.5 99q0 49 20 87.5t51.5 58.5t69.5 29.5t76.5 0t70 -29.5t51.5 -58.5t20 -87.5zM147 536q0 -38 21 -59.5t46.5 -21.5t46.5 21.5t21 59.5q0 39 -21 61t-46.5 22t-46.5 -22t-21 -61zM1302 161q0 -57 -26.5 -99
t-66.5 -61t-86 -19t-86 19t-66.5 61t-26.5 99t26.5 98.5t66.5 60.5t86 19t86 -19t66.5 -60.5t26.5 -98.5zM1055 161q0 -39 21.5 -61t46.5 -22t46.5 22t21.5 61q0 38 -21.5 59.5t-46.5 21.5t-46.5 -21.5t-21.5 -59.5z" />
    <glyph glyph-name="guilsinglleft" unicode="&#x2039;" horiz-adv-x="329" 
d="M274 558l-98 -212l98 -209l-79 -33l-151 242l151 244z" />
    <glyph glyph-name="guilsinglright" unicode="&#x203a;" horiz-adv-x="329" 
d="M153 346l-98 212l79 32l151 -244l-151 -242l-79 33z" />
    <glyph glyph-name="fraction" unicode="&#x2044;" horiz-adv-x="512" 
d="M-6 -60l382 789h144l-382 -789h-144z" />
    <glyph glyph-name="Euro" unicode="&#x20ac;" horiz-adv-x="655" 
d="M43 382v77h80q31 119 124.5 183.5t212.5 64.5q79 0 137 -25l-44 -117q-40 17 -88 17q-64 0 -113 -33t-73 -90h210l-25 -77h-208q-5 -32 -1 -55h190l-27 -79h-146q22 -59 71 -93t121 -34q57 0 106 27l49 -121q-74 -35 -159 -35q-133 0 -223 66.5t-116 189.5h-78v79h67
q-2 35 1 55h-68z" />
    <glyph glyph-name="afii61352" unicode="&#x2116;" horiz-adv-x="1563" 
d="M631 -2l-396 402v-400h-149v703h47l393 -400v397h150v-702h-45zM1514 350q0 -160 -100 -261t-259 -101q-149 0 -252.5 96.5t-103.5 265.5q0 113 51.5 197t132 124t175.5 40q70 0 133 -24t113.5 -68t80 -114t29.5 -155zM950 350q0 -109 59 -167t148 -58q88 0 148 58
t60 167q0 106 -60 164.5t-147 58.5q-88 0 -148 -58.5t-60 -164.5z" />
    <glyph glyph-name="trademark" unicode="&#x2122;" horiz-adv-x="773" 
d="M151 618h-82v83h257v-83h-82v-196h-93v196zM425 701l112 -118l113 118h46v-279h-93v119l-64 -68h-4l-64 68v-119h-93v279h47z" />
    <glyph glyph-name="arrowleft" unicode="&#x2190;" horiz-adv-x="764" 
d="M357 56l-301 279v20l302 277l88 -84l-161 -135l404 6v-148l-402 6l159 -136z" />
    <glyph glyph-name="arrowup" unicode="&#x2191;" horiz-adv-x="723" 
d="M368 657l279 -301l-85 -89l-136 159l6 -402h-148l6 404l-135 -161l-84 88l277 302h20z" />
    <glyph glyph-name="arrowright" unicode="&#x2192;" horiz-adv-x="771" 
d="M702 335l-301 -279l-89 85l159 136l-402 -6v148l404 -6l-161 135l88 84l302 -277v-20z" />
    <glyph glyph-name="arrowdown" unicode="&#x2193;" horiz-adv-x="706" 
d="M343 31l-279 301l85 89l136 -159l-6 402h148l-6 -404l135 161l84 -88l-277 -302h-20z" />
    <glyph glyph-name="arrowboth" unicode="&#x2194;" horiz-adv-x="989" 
d="M933 335l-290 -269l-86 82l154 131h-437l154 -131l-86 -82l-290 269v20l291 268l86 -82l-156 -130h439l-156 130l86 82l291 -268v-20z" />
    <glyph glyph-name="arrowupdn" unicode="&#x2195;" horiz-adv-x="694" 
d="M342 -43l-267 279l81 83l131 -147v385l-131 -147l-81 83l267 279h20l266 -280l-81 -83l-130 150v-389l130 150l81 -83l-266 -280h-20z" />
    <glyph glyph-name="uni2196" unicode="&#x2196;" horiz-adv-x="735" 
d="M128 162l-16 409l14 14l410 -17l3 -122l-210 18l290 -282l-104 -104l-281 288l16 -208z" />
    <glyph glyph-name="uni2197" unicode="&#x2197;" horiz-adv-x="708" 
d="M586 571l-16 -409l-122 -4l16 208l-281 -288l-104 104l290 282l-210 -18l3 122l410 17z" />
    <glyph glyph-name="uni2198" unicode="&#x2198;" horiz-adv-x="735" 
d="M580 539l16 -409l-14 -14l-410 17l-3 122l210 -18l-290 282l104 104l281 -288l-16 208z" />
    <glyph glyph-name="uni2199" unicode="&#x2199;" horiz-adv-x="735" 
d="M139 130l16 409l122 4l-16 -208l281 288l104 -104l-290 -282l210 18l-3 -122l-410 -17z" />
    <glyph glyph-name="minus" unicode="&#x2212;" horiz-adv-x="551" 
d="M68 293v120h415v-120h-415z" />
    <glyph glyph-name="CR" horiz-adv-x="219" 
 />
    </font>
</defs>
</svg>
