<?xml version="1.0" standalone="no"?>
<!DOCTYPE svg PUBLIC "-//W3C//DTD SVG 1.1//EN" "http://www.w3.org/Graphics/SVG/1.1/DTD/svg11.dtd" >
<svg xmlns="http://www.w3.org/2000/svg" xmlns:xlink="http://www.w3.org/1999/xlink" version="1.1">
<metadata>
Created by FontForge 20170731 at Thu May 17 04:04:36 2012
 By Aleksey,,,
Copyright (c) 2012 by Fontfabric LLC. All rights reserved.
</metadata>
<defs>
<font id="Intro-Bold-Italic" horiz-adv-x="699" >
  <font-face 
    font-family="Intro Bold Italic"
    font-weight="700"
    font-style="italic"
    font-stretch="normal"
    units-per-em="1000"
    panose-1="2 0 0 0 0 0 0 0 0 0"
    ascent="750"
    descent="-250"
    x-height="482"
    cap-height="700"
    bbox="-153 -277 1309 989"
    underline-thickness="50"
    underline-position="-200"
    unicode-range="U+0020-2212"
  />
<missing-glyph horiz-adv-x="219" 
 />
    <glyph glyph-name=".notdef" horiz-adv-x="219" 
 />
    <glyph glyph-name=".null" horiz-adv-x="0" 
 />
    <glyph glyph-name="nonmarkingreturn" horiz-adv-x="333" 
 />
    <glyph glyph-name="space" unicode=" " horiz-adv-x="247" 
 />
    <glyph glyph-name="space" unicode="&#xa0;" horiz-adv-x="247" 
 />
    <glyph glyph-name="exclam" unicode="!" horiz-adv-x="298" 
d="M86 -14q-30 0 -49 17t-19 46q0 38 30 63.5t70 25.5q31 0 49.5 -16.5t18.5 -45.5q0 -39 -30 -64.5t-70 -25.5zM57 187l98 514h163l-119 -514h-142z" />
    <glyph glyph-name="quotedbl" unicode="&#x22;" horiz-adv-x="418" 
d="M153 700h121l-65 -220h-103zM327 700h120l-64 -220h-103z" />
    <glyph glyph-name="numbersign" unicode="#" horiz-adv-x="711" 
d="M18 179l21 98h113l45 123h-101l21 99h116l73 200h124l-72 -200h144l73 200h124l-72 -200h84l-21 -99h-98l-44 -123h84l-21 -98h-99l-63 -179h-129l65 179h-141l-63 -179h-130l65 179h-98zM320 404l-47 -130h150l48 130h-151z" />
    <glyph glyph-name="dollar" unicode="$" horiz-adv-x="647" 
d="M25 207h144q-6 -38 18.5 -60t66.5 -26l38 177q-89 9 -145 47.5t-56 113.5t43 132t107 86t139 36l14 68h74l-15 -70q93 -11 145 -63t33 -144h-140q6 34 -14 53.5t-52 21.5l-35 -167q35 -4 62.5 -10t55 -17t44.5 -26t31 -37t14 -51t-5 -67q-21 -93 -105 -150.5t-187 -66.5
l-15 -69h-74l14 68q-102 11 -161 67.5t-39 153.5zM364 290l-36 -169q50 4 83 30.5t33 68.5q0 31 -20.5 45.5t-59.5 24.5zM318 421l33 158q-44 -4 -76 -28.5t-32 -66.5q0 -27 18.5 -40t56.5 -23z" />
    <glyph glyph-name="percent" unicode="%" horiz-adv-x="929" 
d="M164 0l492 699h136l-493 -699h-135zM869 197q0 -67 -34.5 -117.5t-84.5 -74t-104 -23.5q-61 0 -103.5 38t-42.5 105q0 98 67.5 156t152.5 58q64 0 106.5 -36.5t42.5 -105.5zM613 141q0 -29 15 -45.5t38 -16.5q33 0 61 27t28 73q0 29 -16 45.5t-39 16.5q-33 0 -60 -27
t-27 -73zM456 572q0 -98 -68 -156t-153 -58q-63 0 -105.5 37t-42.5 105q0 67 34.5 117.5t84.5 74t104 23.5q61 0 103.5 -38t42.5 -105zM201 517q0 -29 15 -45t38 -16q33 0 61 27t28 73q0 29 -15 45.5t-38 16.5q-33 0 -61 -27.5t-28 -73.5z" />
    <glyph glyph-name="ampersand" unicode="&#x26;" horiz-adv-x="647" 
d="M580 530h-118q6 26 -18 42.5t-63 16.5q-43 0 -74.5 -22t-31.5 -64q0 -60 98 -60l-22 -106h-33q-58 -2 -99 -43t-43 -93q-2 -41 20 -64.5t77 -23.5q51 0 88.5 29.5t51.5 83.5l47 222h189l-24 -113h-63l-23 -108q-24 -114 -97 -176t-196 -62q-127 0 -182 66.5t-33 159.5
q14 61 53.5 108.5t97.5 73.5q-45 33 -45 101q0 99 78 156t188 57q95 0 145.5 -47t31.5 -134z" />
    <glyph glyph-name="quotesingle" unicode="'" horiz-adv-x="245" 
d="M152 700h123l-63 -218h-106z" />
    <glyph glyph-name="parenleft" unicode="(" horiz-adv-x="357" 
d="M395 790l38 -93q-71 -35 -132.5 -116t-97 -181.5t-49 -204t8.5 -195t78 -142.5l-62 -84q-73 36 -114.5 116.5t-47.5 180t17.5 211.5t71.5 211.5t123.5 180t165.5 116.5z" />
    <glyph glyph-name="parenright" unicode=")" horiz-adv-x="356" 
d="M114 706l62 84q73 -36 114.5 -116.5t47.5 -179.5t-18 -211.5t-71.5 -211.5t-123.5 -180t-165 -117l-40 95q83 43 153.5 156.5t104.5 241t20.5 252.5t-84.5 187z" />
    <glyph glyph-name="asterisk" unicode="*" horiz-adv-x="434" 
d="M446 564l-105 -27l55 -82l-92 -59l-46 91l-78 -95l-72 64l90 80l-97 26l50 96l92 -37l12 99h106l-30 -99l104 38z" />
    <glyph glyph-name="plus" unicode="+" horiz-adv-x="480" 
d="M57 309l24 115h130l28 128h116l-28 -128h131l-24 -115h-131l-27 -129h-116l27 129h-130z" />
    <glyph glyph-name="comma" unicode="," horiz-adv-x="273" 
d="M174 74q0 -10 -2 -18t-3.5 -11t-5.5 -9.5t-5 -8.5l-69 -127h-81l42 86q-44 13 -44 60q0 39 30 65t70 26q28 0 46 -14t21 -38q0 -1 0.5 -5t0.5 -6z" />
    <glyph glyph-name="hyphen" unicode="-" horiz-adv-x="471" 
d="M57 273l26 120h349l-26 -120h-349z" />
    <glyph glyph-name="period" unicode="." horiz-adv-x="275" 
d="M76 -15q-31 0 -50 17.5t-19 45.5q0 39 30.5 65t70.5 26q30 0 49.5 -17t19.5 -46q0 -38 -30.5 -64.5t-70.5 -26.5z" />
    <glyph glyph-name="slash" unicode="/" horiz-adv-x="551" 
d="M-26 1l487 699h144l-487 -699h-144z" />
    <glyph glyph-name="zero" unicode="0" horiz-adv-x="656" 
d="M419 712q111 0 171.5 -65.5t37.5 -175.5l-52 -244q-27 -124 -111 -182.5t-200 -58.5q-112 0 -173 65t-38 176l52 244q27 124 110.5 182.5t202.5 58.5zM293 117q122 0 152 150l35 163q13 65 13 72q0 40 -27.5 59.5t-73.5 19.5q-50 0 -86.5 -24t-51.5 -70q-10 -27 -16 -57
l-34 -163q-12 -53 -12 -68q0 -41 27 -61.5t74 -20.5z" />
    <glyph glyph-name="one" unicode="1" horiz-adv-x="451" 
d="M228 583h-104l25 117h247l-125 -585h121l-24 -115h-382l24 115h118z" />
    <glyph glyph-name="two" unicode="2" horiz-adv-x="548" 
d="M394 500q11 41 -8.5 64t-52.5 23q-35 0 -66.5 -23t-41.5 -70h-128q20 108 90 162.5t175 54.5q96 0 140.5 -57t21.5 -147.5t-110 -180.5l-89 -100l-107 -105l153 9h101l-28 -130h-461l7 32l322 348q69 75 82 120z" />
    <glyph glyph-name="three" unicode="3" horiz-adv-x="574" 
d="M21 205h131q-7 -49 13 -72.5t70 -23.5q51 0 86 33t45 83q9 41 -3 68t-38 37t-60.5 12.5t-70.5 -5.5l4 21l179 231h-247l23 110h445l-5 -21l-204 -244q63 -11 94 -56t31 -108q0 -114 -80.5 -198.5t-222.5 -84.5q-101 0 -154.5 59t-35.5 159z" />
    <glyph glyph-name="four" unicode="4" horiz-adv-x="600" 
d="M454 139l-30 -139h-135l30 139h-327l14 65l412 496h155l-93 -440h65l-26 -121h-65zM419 533h-1l-232 -278h167l28 133z" />
    <glyph glyph-name="five" unicode="5" horiz-adv-x="581" 
d="M255 576l-28 -124q37 6 77 6q104 0 165 -42t59 -136q-2 -131 -86.5 -212t-216.5 -81q-99 0 -153.5 59t-38.5 157h131q-5 -42 18 -63.5t68 -21.5q52 0 84.5 30t42.5 77q27 122 -126 127q-40 1 -166 -13h-4l77 361h429l-26 -124h-306z" />
    <glyph glyph-name="six" unicode="6" horiz-adv-x="606" 
d="M381 705h164l-224 -268q72 25 138 0q106 -42 106 -164q0 -135 -92 -209.5t-229 -74.5q-100 0 -160 48t-60 139q0 100 84 199zM271 116q64 0 103 36t39 98q0 42 -25 64.5t-70 22.5q-66 0 -105.5 -36.5t-39.5 -99.5q0 -41 25.5 -63t72.5 -22z" />
    <glyph glyph-name="seven" unicode="7" horiz-adv-x="536" 
d="M615 700l-5 -21l-442 -679h-151l253 391l130 184l-152 -5h-157l28 130h496z" />
    <glyph glyph-name="eight" unicode="8" horiz-adv-x="621" 
d="M490 396q73 -51 73 -146q0 -104 -89 -182.5t-226 -78.5q-106 0 -164 54t-58 135q0 68 40.5 125t111.5 94q-40 38 -40 100q0 84 75 149t188 65q88 0 136.5 -44.5t48.5 -111.5q0 -92 -96 -159zM344 440q45 0 76 26.5t31 63.5q0 28 -20 46t-55 18q-45 0 -76.5 -26.5
t-31.5 -63.5q0 -28 20.5 -46t55.5 -18zM274 113q59 0 101.5 38.5t42.5 90.5q0 39 -26 64.5t-71 25.5q-61 0 -103 -39.5t-42 -91.5q0 -39 26.5 -63.5t71.5 -24.5z" />
    <glyph glyph-name="nine" unicode="9" horiz-adv-x="607" 
d="M252 0h-163l223 264q-26 -11 -40 -11q-95 0 -149 46.5t-54 133.5q0 135 92.5 209.5t229.5 74.5q100 0 160 -48t60 -139q0 -54 -20 -99.5t-67 -103.5zM364 590q-65 0 -104.5 -36t-39.5 -98q0 -42 25.5 -64.5t71.5 -22.5q65 0 104 36.5t39 99.5q0 41 -25 63t-71 22z" />
    <glyph glyph-name="colon" unicode=":" horiz-adv-x="288" 
d="M80 -15q-31 0 -50 17.5t-19 45.5q0 39 30.5 65t70.5 26q30 0 49.5 -17t19.5 -46q0 -38 -30.5 -64.5t-70.5 -26.5zM146 296q-30 0 -49.5 17.5t-19.5 45.5q0 39 30.5 65t70.5 26q30 0 49.5 -17t19.5 -46q0 -38 -30.5 -64.5t-70.5 -26.5z" />
    <glyph glyph-name="semicolon" unicode=";" horiz-adv-x="290" 
d="M147 297q-30 0 -49.5 17.5t-19.5 44.5q0 39 31 64.5t71 25.5q30 0 48.5 -17t18.5 -46q0 -38 -29.5 -63.5t-70.5 -25.5zM181 74q0 -19 -16 -47q-3 -6 -29 -53.5t-38 -71.5h-83l42 84q-44 13 -44 60q0 39 30 65t70 26q28 0 46 -14t21 -38q0 -1 0.5 -5t0.5 -6z" />
    <glyph glyph-name="less" unicode="&#x3c;" horiz-adv-x="548" 
d="M42 293l22 103l468 182l-27 -123l-291 -111l244 -112l-26 -123z" />
    <glyph glyph-name="equal" unicode="=" horiz-adv-x="549" 
d="M87 379l25 116h413l-25 -116h-413zM47 189l25 116h413l-25 -116h-413z" />
    <glyph glyph-name="greater" unicode="&#x3e;" horiz-adv-x="546" 
d="M529 396l-22 -103l-468 -184l26 123l292 112l-244 111l26 123z" />
    <glyph glyph-name="question" unicode="?" horiz-adv-x="517" 
d="M294 187h-132q12 55 35.5 97.5t46 64t55 52.5t51.5 55q44 61 33.5 95t-55.5 38q-37 2 -74 -18.5t-47 -58.5h-123q23 101 90.5 150t164.5 51q81 2 133.5 -41.5t52.5 -122.5q0 -45 -20.5 -84t-51.5 -69.5t-63.5 -60.5t-59.5 -68t-36 -80zM188 -14q-31 0 -50 17t-19 46
q0 39 30 64.5t71 25.5q30 0 48.5 -16.5t18.5 -45.5q0 -38 -29.5 -64.5t-69.5 -26.5z" />
    <glyph glyph-name="at" unicode="@" horiz-adv-x="929" 
d="M533 71l3 11q-30 -44 -74.5 -68t-94.5 -25q-105 -2 -146 71.5t-13 181.5q31 124 125 190.5t215 64.5q48 0 101 -21.5t86 -52.5l-71 -282q-15 -61 13 -61q35 0 68 49t51 116q53 164 -14 251.5t-236 87.5q-149 0 -265 -93.5t-160 -244.5q-27 -95 -10.5 -171t70 -116
t135.5 -47.5t185 33.5l-21 -81q-89 -29 -169 -28.5t-139 29t-99 81.5t-49 127.5t12 168.5q52 200 193.5 310.5t337.5 110.5q195 0 279 -113t36 -305q-32 -128 -109 -197t-166 -69q-44 0 -64.5 25t-9.5 67zM554 246l28 115q-31 20 -79 22q-52 -2 -96.5 -40t-59.5 -101
q-19 -73 -1.5 -101t75.5 -28q52 0 86 38t47 95z" />
    <glyph glyph-name="A" unicode="A" 
d="M470 116h-292l-79 -116h-163l4 20l468 686h69l174 -686l-4 -20h-152zM397 476l-144 -234h190z" />
    <glyph glyph-name="B" unicode="B" horiz-adv-x="671" 
d="M647 534q0 -56 -30 -102t-79 -71q78 -30 78 -120q0 -102 -75 -171.5t-196 -69.5h-325l149 699h297q84 0 132.5 -44t48.5 -121zM427 575h-137l-34 -167h137q38 0 66.5 23t36.5 59q9 38 -10.5 61.5t-58.5 23.5zM391 296h-159l-35 -166h166q38 0 64.5 20.5t35.5 56.5
q6 21 1.5 42.5t-16.5 32.5q-17 14 -57 14z" />
    <glyph glyph-name="C" unicode="C" horiz-adv-x="757" 
d="M54 349q38 173 160 266t273 93q116 0 194 -64t76 -186h-141q-8 65 -48 89.5t-109 24.5q-97 0 -165 -63.5t-89 -163.5q-21 -92 20 -154t138 -62q136 0 200 126h153q-33 -88 -96.5 -149t-135 -87t-148.5 -26q-148 0 -232 95t-50 261z" />
    <glyph glyph-name="D" unicode="D" horiz-adv-x="730" 
d="M169 699h260q135 0 206 -80.5t71 -200.5q0 -79 -27 -152.5t-78.5 -133.5t-134.5 -96t-186 -36h-260zM198 135h109q107 0 177 79t70 181q0 79 -32 124t-118 45h-115z" />
    <glyph glyph-name="E" unicode="E" horiz-adv-x="571" 
d="M598 700l-28 -131h-278l-30 -142h260q-4 -14 -28 -131h-260l-34 -160h286l-29 -136h-437q103 492 149 700h429z" />
    <glyph glyph-name="F" unicode="F" horiz-adv-x="547" 
d="M501 380l-28 -131h-251l-53 -249h-149l149 700h429q-6 -25 -14.5 -66.5t-13.5 -64.5h-280l-40 -189h251z" />
    <glyph glyph-name="G" unicode="G" horiz-adv-x="765" 
d="M54 350q37 171 158 265t275 94q113 0 189 -57.5t80 -172.5h-150q-11 54 -47.5 75.5t-100.5 21.5q-97 0 -160.5 -64t-92.5 -165q-25 -97 15.5 -158.5t142.5 -61.5q76 0 128 31.5t92 111.5h-184l24 117h328q-19 -119 -63 -196q-60 -105 -146 -152.5t-208 -47.5
q-147 0 -230.5 96t-49.5 263z" />
    <glyph glyph-name="H" unicode="H" horiz-adv-x="729" 
d="M587 0h-150l63 296h-268l-63 -296h-149l149 700h149l-57 -267h268l57 267h150z" />
    <glyph glyph-name="I" unicode="I" horiz-adv-x="438" 
d="M258 119h99q-5 -24 -12 -59t-13 -60h-348q6 25 13 60t12 59h99l99 465h-91q6 24 13 58t12 58h332q-6 -24 -13 -58t-12 -58h-91z" />
    <glyph glyph-name="J" unicode="J" horiz-adv-x="627" 
d="M640 700l-99 -468q-25 -116 -106.5 -179t-213.5 -63q-112 0 -172 65.5t-37 176.5l18 85h138l-17 -82q-12 -55 15.5 -83.5t82.5 -28.5q54 0 92 29t50 83l71 336h-124l27 129h275z" />
    <glyph glyph-name="K" unicode="K" 
d="M318 700l-62 -289q88 0 115 13q28 14 49.5 48t53.5 104q33 73 102 109t172 14l-22 -102q-42 4 -68.5 -11t-46.5 -54q-65 -134 -127 -186l145 -324l-5 -22h-160l-118 290q-29 -9 -117 -9l-60 -281h-149l149 700h149z" />
    <glyph glyph-name="L" unicode="L" horiz-adv-x="533" 
d="M319 700l-121 -566h292q-5 -24 -14 -67t-14 -67h-442l149 700h150z" />
    <glyph glyph-name="M" unicode="M" horiz-adv-x="833" 
d="M434 369l352 333h54l-149 -702h-150l84 379l-223 -220h-19l-129 220l-84 -379h-150l149 702h55z" />
    <glyph glyph-name="N" unicode="N" horiz-adv-x="753" 
d="M572 -2l-317 409l-86 -407h-149l149 703h41l312 -408l87 405h150l-149 -702h-38z" />
    <glyph glyph-name="O" unicode="O" horiz-adv-x="806" 
d="M783 424q0 -199 -126.5 -317.5t-319.5 -118.5q-126 0 -207.5 75.5t-81.5 211.5q0 134 65 235.5t165 151t216 49.5q125 0 207 -76t82 -211zM205 341q-17 -94 24 -155t139 -61q105 0 184 73.5t79 201.5q0 83 -46.5 128t-119.5 45q-93 0 -168 -62t-92 -170z" />
    <glyph glyph-name="P" unicode="P" horiz-adv-x="653" 
d="M170 1h-150l149 700h299q78 0 126 -38t63 -94.5t5 -124.5q-16 -108 -98 -176.5t-203 -68.5h-149zM236 327h152q50 0 87 35.5t47 87.5q7 50 -11.5 87.5t-69.5 37.5h-152z" />
    <glyph glyph-name="Q" unicode="Q" horiz-adv-x="804" 
d="M710 15l-4 -22h-136l-22 54q-102 -56 -215 -56q-134 1 -209.5 75.5t-75.5 213.5q0 184 129.5 309t315.5 125q131 0 210 -76t79 -214q0 -161 -118 -290zM199 303q-4 -79 43 -126t115 -47q101 0 184.5 74t89.5 193q4 82 -41 128t-118 46q-101 0 -184 -74.5t-89 -193.5z" />
    <glyph glyph-name="R" unicode="R" horiz-adv-x="689" 
d="M495 255l108 -234l-4 -21h-155l-95 232h-130l-49 -232h-150l149 701h299q114 0 164.5 -72t31.5 -168q-10 -69 -54.5 -123t-114.5 -83zM243 355h150q49 0 86 34t46 82q6 41 -16 70t-70 29h-150q-27 -128 -46 -215z" />
    <glyph glyph-name="S" unicode="S" horiz-adv-x="646" 
d="M26 207h143q-9 -44 28 -67.5t93 -23.5q155 0 155 104q0 23 -11.5 38t-36 22.5t-41 10t-47.5 5.5q-95 7 -156 45.5t-61 117.5q0 86 47 146t116.5 85t153.5 25q112 0 178 -51.5t44 -160.5h-136q4 40 -29 60.5t-84 20.5q-53 0 -96 -27.5t-43 -72.5q0 -34 30 -48.5t88 -21.5
q61 -6 102 -16t77.5 -32t49.5 -62.5t1 -99.5q-41 -219 -328 -219q-74 0 -132 22.5t-89 74.5t-16 125z" />
    <glyph glyph-name="T" unicode="T" horiz-adv-x="549" 
d="M263 570h-187q20 99 28 130h518q-8 -31 -28 -130h-186l-121 -570h-145z" />
    <glyph glyph-name="U" unicode="U" horiz-adv-x="704" 
d="M291 -9q-118 0 -185 64.5t-44 177.5l99 467h151l-99 -464q-11 -54 20 -83.5t86 -29.5t98.5 29.5t54.5 83.5l99 464h147l-99 -467q-24 -116 -112 -179t-216 -63z" />
    <glyph glyph-name="V" unicode="V" horiz-adv-x="671" 
d="M322 250h3l122 224l142 226h162l-5 -22l-443 -684h-62l-156 684l5 22h156l46 -225z" />
    <glyph glyph-name="W" unicode="W" horiz-adv-x="967" 
d="M534 688h61l60 -426h2l106 224q20 43 64.5 120t53.5 94h157q-3 -8 -5 -22l-376 -684h-81l-77 378h-3l-215 -378h-92l-97 684l5 22h157l27 -214l14 -223h2z" />
    <glyph glyph-name="X" unicode="X" horiz-adv-x="669" 
d="M333 585l38 -117l93 123l92 109h169l-5 -22l-276 -308l160 -349l-4 -21h-157l-62 135l-48 123h-2l-101 -127l-115 -131h-166l4 21l311 349l-147 308l5 22h163z" />
    <glyph glyph-name="Y" unicode="Y" horiz-adv-x="634" 
d="M334 417h5l98 139l115 144h165l-5 -22l-326 -405l-58 -273h-150l59 280l-156 398l5 22h155l55 -149z" />
    <glyph glyph-name="Z" unicode="Z" horiz-adv-x="604" 
d="M654 700l-5 -22l-433 -544h320l-28 -134h-547l4 21l438 548h-293q4 16 13 59.5t15 71.5h516z" />
    <glyph glyph-name="bracketleft" unicode="[" horiz-adv-x="333" 
d="M396 770l-24 -113h-92l-153 -723h92l-27 -125h-222l204 961h222z" />
    <glyph glyph-name="backslash" unicode="\" horiz-adv-x="532" 
d="M257 700l189 -699h-144l-189 699h144z" />
    <glyph glyph-name="bracketright" unicode="]" horiz-adv-x="332" 
d="M117 657l24 113h222l-204 -961h-222l27 125h92l153 723h-92z" />
    <glyph glyph-name="asciicircum" unicode="^" horiz-adv-x="555" 
d="M319 707h100l120 -305h-122l-65 186l-144 -186h-137z" />
    <glyph glyph-name="underscore" unicode="_" horiz-adv-x="617" 
d="M-29 -132l26 120h496l-26 -120h-496z" />
    <glyph glyph-name="grave" unicode="`" horiz-adv-x="336" 
d="M388 566l-2 -13h-114l-66 110l3 12l138 47z" />
    <glyph glyph-name="a" unicode="a" horiz-adv-x="598" 
d="M553 448l-62 -293q-10 -31 -5.5 -46.5t38.5 -13.5l-19 -90q-30 -6 -54.5 -7t-49 4.5t-35 26.5t-3.5 56q-29 -44 -76.5 -68.5t-96.5 -24.5q-106 2 -147 74t-17 181q29 120 118.5 184t212.5 62q101 -1 196 -45zM372 242l31 125q-31 14 -77 14q-58 0 -100.5 -34.5
t-60.5 -99.5q-17 -64 -0.5 -98t71.5 -33q49 0 85 35t51 91z" />
    <glyph glyph-name="b" unicode="b" horiz-adv-x="578" 
d="M188 237l-26 -121q42 -15 77 -15q111 0 152 136q18 60 -1.5 97.5t-75.5 37.5q-49 0 -83 -42.5t-43 -92.5zM7 31l148 694h129l-66 -310q35 41 70.5 57.5t88.5 16.5q85 0 132 -64t23 -187q-28 -134 -118.5 -194t-212.5 -58q-102 1 -194 45z" />
    <glyph glyph-name="c" unicode="c" horiz-adv-x="565" 
d="M537 308h-130q-6 66 -92 66q-56 0 -102 -42.5t-52 -113.5q-3 -53 27.5 -80t73.5 -27q77 0 118 74h136q-37 -98 -112.5 -146.5t-170.5 -48.5q-90 0 -151 53t-61 150q0 140 97 222t221 82q87 0 143.5 -49.5t54.5 -139.5z" />
    <glyph glyph-name="d" unicode="d" horiz-adv-x="607" 
d="M164 212q-2 -44 17.5 -70t62.5 -26q62 0 100 47.5t42 116.5q2 44 -17.5 73.5t-57.5 29.5q-65 0 -105 -51.5t-42 -119.5zM488 736h130q-21 -99 -61 -290t-62 -291q-9 -31 -4.5 -46.5t37.5 -13.5l-19 -90q-30 -6 -54.5 -7t-49 4.5t-35 26.5t-3.5 56q-29 -44 -76 -68
t-97 -24q-86 0 -129 54t-43 138q0 124 76 219t197 95q110 0 127 -74z" />
    <glyph glyph-name="e" unicode="e" horiz-adv-x="544" 
d="M457 138l-18 -108q-67 -35 -181 -40q-111 -4 -176.5 48.5t-61.5 152.5q3 74 30 133t70.5 95t95.5 55t109 21q43 1 80.5 -7.5t68 -27t42.5 -52.5t1 -79q-17 -69 -78.5 -107.5t-133.5 -40.5q-92 -5 -148 31q-11 -59 26.5 -86t107.5 -25q80 0 166 37zM184 301
q15 -11 48.5 -19t64.5 -6q73 2 86 53q7 30 -17 44t-58 14q-88 -5 -124 -86z" />
    <glyph glyph-name="f" unicode="f" horiz-adv-x="421" 
d="M50 -55l93 437h-106l21 99h108l14 61q16 71 51 116.5t83 62t101 15t112 -20.5l-37 -104q-27 11 -53.5 14.5t-52.5 -1.5t-45.5 -26.5t-26.5 -58.5l-12 -58h152l-21 -99h-153l-93 -439q-27 -127 -97.5 -171.5t-181.5 -23.5l26 104q57 -8 81.5 13t36.5 80z" />
    <glyph glyph-name="g" unicode="g" horiz-adv-x="580" 
d="M372 242l29 121q-38 15 -77 15q-57 0 -99 -34t-59 -102q-33 -133 78 -133q46 0 81.5 42.5t46.5 90.5zM-31 -209l35 103q41 -23 88.5 -33.5t96 -6.5t86.5 39t51 98l16 78q-48 -78 -157 -78q-85 0 -135 64.5t-24 185.5q19 88 71 146.5t118 83t143 22.5q97 -1 194 -45
l-97 -457q-20 -94 -74.5 -155.5t-124 -82.5t-145.5 -11.5t-142 49.5z" />
    <glyph glyph-name="h" unicode="h" horiz-adv-x="611" 
d="M202 276l-59 -277h-140l156 732h140l-65 -308q63 73 172 68q139 -7 139 -143q0 -30 -11 -82l-28 -129q-7 -33 1 -42.5t43 -7.5l-18 -84q-97 -19 -141.5 9t-25.5 118l19 92q15 73 15 91q0 35 -16 52t-56 17q-43 0 -78.5 -28.5t-46.5 -77.5z" />
    <glyph glyph-name="i" unicode="i" horiz-adv-x="270" 
d="M122 605q0 43 31 69.5t69 26.5q29 0 48.5 -16.5t19.5 -47.5q0 -44 -30 -69t-70 -25q-29 -1 -48.5 15t-19.5 47zM245 476l-101 -476h-140l101 476h140z" />
    <glyph glyph-name="j" unicode="j" horiz-adv-x="267" 
d="M106 480h138l-115 -537q-27 -127 -98 -171.5t-183 -23.5l26 104q57 -8 81.5 13t36.5 80zM121 605q0 43 31 69.5t70 26.5q29 0 48.5 -16.5t19.5 -47.5q0 -44 -30 -69t-70 -25q-29 -1 -49 15t-20 47z" />
    <glyph glyph-name="k" unicode="k" horiz-adv-x="558" 
d="M207 305h34q77 0 117.5 47.5t58.5 130.5h132q-16 -84 -53 -142.5t-112 -95.5l89 -230l-3 -14h-141l-72 200q-19 -6 -42 -6h-32l-41 -194h-139l155 730h139z" />
    <glyph glyph-name="l" unicode="l" horiz-adv-x="306" 
d="M154 732h138l-117 -549q-12 -54 6.5 -70.5t72.5 -7.5l-17 -105q-123 -21 -174.5 19t-25.5 164z" />
    <glyph glyph-name="m" unicode="m" horiz-adv-x="922" 
d="M53 403l17 81q39 7 81.5 10t71.5 -19t19 -68q26 43 71 64.5t97 21.5q60 0 90 -22t39 -68q63 90 184 90q65 0 97.5 -29t33.5 -76t-11 -108l-29 -132q-11 -32 -2.5 -48.5t44.5 -14.5l-17 -81q-57 -11 -100 -9.5t-64 32t-8 89.5l35 164q11 47 -4.5 74.5t-52.5 27.5
q-38 0 -68.5 -28t-41.5 -75l-60 -279h-136l59 279q11 48 -6.5 75.5t-56.5 27.5q-40 0 -72 -28.5t-43 -77.5l-59 -276h-140l71 332q11 39 4 56t-43 15z" />
    <glyph glyph-name="n" unicode="n" horiz-adv-x="628" 
d="M52 402l18 82q40 5 81 7.5t68 -17.5t19 -63q62 82 170 82q97 0 132 -58.5t13 -154.5l-28 -131q-11 -34 -4.5 -50t41.5 -14l-17 -82q-40 -10 -72 -10t-58 10t-36.5 37.5t-0.5 70.5l36 169q11 48 -10.5 75.5t-61.5 27.5q-41 0 -77 -28.5t-46 -77.5l-59 -277h-140l71 333
q11 40 5 55.5t-44 13.5z" />
    <glyph glyph-name="o" unicode="o" horiz-adv-x="587" 
d="M546 294q0 -74 -28 -134t-74 -96t-101.5 -55t-114.5 -19q-87 0 -147 53.5t-60 148.5q0 72 28.5 131.5t75 96.5t102.5 56.5t113 19.5q87 0 146.5 -53.5t59.5 -148.5zM161 221q-4 -48 20.5 -76t63.5 -30q55 -4 104.5 37t55.5 113q4 48 -20 76t-64 30q-57 2 -105.5 -37
t-54.5 -113z" />
    <glyph glyph-name="p" unicode="p" horiz-adv-x="600" 
d="M335 376q-57 0 -95.5 -50.5t-38.5 -118.5q0 -45 19.5 -72.5t58.5 -27.5q95 0 137 123q9 33 8.5 66.5t-24 57t-65.5 22.5zM96 -246h-130l121 570q5 22 6.5 32t0.5 22t-10.5 16t-26.5 3l18 88q36 5 72.5 7.5t59.5 -17t14 -58.5q28 36 71.5 57t91.5 21q68 0 111.5 -38
t57 -96.5t1.5 -126.5q-21 -106 -91 -173.5t-173 -69.5q-47 -1 -81.5 17t-46.5 55z" />
    <glyph glyph-name="q" unicode="q" horiz-adv-x="581" 
d="M372 242l27 121q-39 15 -77 15q-57 0 -98.5 -34t-58.5 -102q-15 -60 1.5 -97.5t68.5 -37.5q50 0 88 42.5t49 92.5zM554 448l-148 -694h-130l67 315q-48 -78 -157 -78q-86 0 -136 64.5t-24 185.5q19 88 71 146.5t117.5 83t142.5 22.5q100 -1 197 -45z" />
    <glyph glyph-name="r" unicode="r" horiz-adv-x="460" 
d="M240 415q23 40 65 61t88 21q62 0 96 -31l-56 -117q-36 28 -84 26q-48 0 -87 -32t-51 -86l-55 -257h-137q21 100 37 174.5t35 165.5q9 30 2.5 47t-37.5 12l18 86q39 6 78 8t66 -18t22 -60z" />
    <glyph glyph-name="s" unicode="s" horiz-adv-x="509" 
d="M4 147h137q-5 -28 14.5 -42.5t52.5 -14.5q84 0 98 55q3 14 -0.5 23t-15 14t-18.5 6.5t-25 4.5q-38 5 -59 9t-54 14.5t-49.5 24t-26.5 38.5t-4 57q13 81 80 120t161 39q91 0 143 -40.5t33 -113.5h-132q5 25 -13.5 37t-50.5 12q-35 0 -60.5 -15.5t-25.5 -41.5
q0 -14 10.5 -22.5t21 -10.5t29.5 -4q107 -13 142 -28q75 -34 54 -123q-12 -56 -53 -94t-91.5 -52.5t-106.5 -11.5q-95 0 -150 36t-41 124z" />
    <glyph glyph-name="t" unicode="t" horiz-adv-x="442" 
d="M317 631l-32 -150h157l-22 -105h-157l-40 -187q-10 -47 9.5 -70.5t56.5 -21t81 15.5l-9 -106q-55 -14 -100 -17.5t-84.5 4t-62.5 30.5t-32.5 62.5t4.5 99.5l40 190l-89 9l20 96h101l47 150h112z" />
    <glyph glyph-name="u" unicode="u" horiz-adv-x="600" 
d="M423 482h140l-71 -337q-10 -34 -4.5 -47t36.5 -11l-17 -87q-30 -7 -58 -9t-56 2.5t-41 24t-6 52.5q-55 -77 -171 -77q-182 0 -134 213l59 276h141l-58 -276q-12 -49 5.5 -76t55.5 -27q43 0 76.5 29t44.5 77z" />
    <glyph glyph-name="v" unicode="v" horiz-adv-x="590" 
d="M270 104q53 0 86.5 45.5t43 111t9.5 123.5t-7 98h138q8 -54 9 -105.5t-5.5 -108.5t-27.5 -104.5t-54 -86t-88 -60.5t-127 -22q-107 0 -160 55t-32 158l26 124q11 35 5 55.5t-41 18.5l17 79q51 9 94 8t66 -30.5t10 -86.5l-36 -168q-10 -46 9.5 -75t64.5 -29z" />
    <glyph glyph-name="w" unicode="w" horiz-adv-x="854" 
d="M257 104q74 0 98 102l58 276h132l-59 -276q-11 -49 3.5 -75.5t51.5 -26.5q51 0 83 46.5t41.5 112.5t10 124.5t-6.5 94.5h135q8 -53 8.5 -108t-10 -118t-34 -113.5t-69 -89.5t-109.5 -52q-69 -13 -124.5 5t-72.5 70q-56 -82 -173 -82q-94 0 -138.5 56t-24.5 152l28 129
q11 35 5 55.5t-42 18.5l17 80q52 9 95 8t65 -30.5t9 -86.5l-36 -170q-11 -47 5 -74.5t54 -27.5z" />
    <glyph glyph-name="x" unicode="x" horiz-adv-x="523" 
d="M240 170h-3l-77 -96l-68 -74h-140l3 16l218 240l-98 211l3 15h134l30 -63l29 -81h3l62 82l55 62h143l-3 -16l-194 -215l113 -235l-3 -16h-135l-37 78z" />
    <glyph glyph-name="y" unicode="y" horiz-adv-x="599" 
d="M-18 -209l28 105q40 -24 89 -35t99 -7t90 39t54 98l16 74q-43 -73 -146 -73q-201 0 -149 239l22 107q9 32 0.5 46t-42.5 12q10 54 18 85q54 10 97 8.5t64 -33t8 -90.5l-28 -133q-28 -125 61 -125q27 0 49 13.5t35 30.5t24 46t15.5 46.5t10.5 44.5l41 193h138l-104 -491
q-20 -93 -75.5 -155t-125.5 -83t-146.5 -11.5t-142.5 49.5z" />
    <glyph glyph-name="z" unicode="z" horiz-adv-x="478" 
d="M482 482l-3 -16l-281 -345h208l-26 -121h-412l3 16l286 350h-196l24 116h397z" />
    <glyph glyph-name="braceleft" unicode="{" horiz-adv-x="326" 
d="M391 781l-22 -100q-69 2 -80 -54l-42 -195q-21 -96 -102 -124q70 -26 49 -128l-44 -209q-8 -33 8 -43t50 -6l-24 -112q-32 0 -49.5 0.5t-41 3.5t-35.5 9t-25.5 17t-17.5 27.5t-4 41t7 56.5l43 203q3 19 4 39t-9.5 35t-31.5 15l22 103q57 4 73 84l41 188q9 43 26.5 71.5
t35.5 44t49.5 23t54.5 9t65 1.5z" />
    <glyph glyph-name="bar" unicode="|" horiz-adv-x="276" 
d="M164 709h127l-169 -796h-127q24 112 84.5 398t84.5 398z" />
    <glyph glyph-name="braceright" unicode="}" horiz-adv-x="326" 
d="M124 681l21 100q26 0 41 -0.5t36.5 -2.5t33 -6t26 -11t21 -18t12 -26t4.5 -36.5t-6 -48.5l-39 -188q-10 -31 -2.5 -56.5t39.5 -27.5l-22 -103q-54 0 -74 -89l-44 -203q-8 -37 -19.5 -64t-29.5 -44t-34 -26.5t-44 -14t-48 -5.5t-57 -1l24 112q32 -4 51.5 6t27.5 43l45 209
q21 103 99 128q-67 27 -46 124l42 195q6 32 -9 43.5t-49 10.5z" />
    <glyph glyph-name="asciitilde" unicode="~" horiz-adv-x="621" 
d="M122 264l-74 45q47 93 133 121.5t160 -18.5q22 -13 29 -17t27 -13t31.5 -8.5t28.5 2.5t31 15.5t28 34.5l83 -44q-110 -189 -285 -104q-3 1 -23 11.5t-25 12t-23 8.5t-25.5 6.5t-23 -1t-25.5 -7t-23 -17.5t-24 -27z" />
    <glyph glyph-name="exclamdown" unicode="&#xa1;" horiz-adv-x="280" 
d="M182 489q30 0 49 -17t19 -46q0 -38 -30 -63.5t-70 -25.5q-31 0 -49.5 16.5t-18.5 45.5q0 38 30 64t70 26zM209 280l-96 -506h-163l117 506h142z" />
    <glyph glyph-name="cent" unicode="&#xa2;" horiz-adv-x="597" 
d="M554 306l-130 -1q-6 30 -30 47l-134 -240q40 -6 79 13t62 62l132 -1q-41 -110 -140.5 -160.5t-197.5 -31.5l-41 -74h-63l51 91q-46 22 -74 69t-28 111q0 65 24 120.5t62.5 91.5t87.5 61t99.5 29.5t97.5 -2.5l42 74h59l-51 -91q99 -48 93 -168zM213 136l130 236
q-57 4 -109.5 -39.5t-52.5 -115.5q0 -52 32 -81z" />
    <glyph glyph-name="sterling" unicode="&#xa3;" horiz-adv-x="670" 
d="M51 304l20 94h70q8 155 101.5 230.5t227.5 78.5q106 1 200 -47l-67 -107q-80 39 -153 35q-70 -4 -116.5 -50t-48.5 -140h217l-20 -94h-204q-5 -61 -26 -111q-22 -46 -49 -73q25 12 55 13.5t54 -3.5t54 -11t48 -6q33 0 52 19t27 72h116q-6 -98 -53.5 -155t-137.5 -57
q-24 0 -67 8.5t-77.5 15.5t-73.5 4t-64 -21h-144l3 13q103 80 127 187q10 43 12 105h-83z" />
    <glyph glyph-name="currency" unicode="&#xa4;" horiz-adv-x="565" 
d="M194 546l38 -47q48 23 100 23q53 0 90 -23l57 47l57 -69l-59 -48q8 -24 8 -56q0 -69 -48 -129l39 -48l-85 -68l-37 47q-48 -23 -100 -23q-54 0 -90 23l-58 -47l-56 68l58 49q-6 19 -6 53q0 69 46 131l-38 48zM214 319q0 -31 17 -47.5t45 -16.5q37 0 66.5 27t29.5 73
q0 31 -17.5 48t-43.5 17q-36 0 -66.5 -27.5t-30.5 -73.5z" />
    <glyph glyph-name="yen" unicode="&#xa5;" horiz-adv-x="627" 
d="M323 0h-146l25 119h-133l17 82h133l11 50h-133l17 82h105l-102 346q2 3 4 21h151l66 -278l179 278h159q-2 -18 -4 -21l-251 -346h106l-17 -82h-134l-11 -50h134l-17 -82h-134z" />
    <glyph glyph-name="brokenbar" unicode="&#xa6;" horiz-adv-x="279" 
d="M166 709h127l-68 -322h-127q21 107 68 322zM80 305h127l-69 -326h-127z" />
    <glyph glyph-name="section" unicode="&#xa7;" horiz-adv-x="645" 
d="M389 204q33 13 54 37t21 52q0 61 -143 72q-27 2 -49 6q-78 -34 -78 -87q0 -59 107 -70q82 -8 88 -10zM165 408q-55 33 -55 97q0 67 45.5 117t111.5 73t139 23q65 0 117.5 -19t82.5 -62.5t17 -102.5h-135q6 37 -25 54t-78 17q-50 0 -90.5 -19t-40.5 -63q0 -27 27.5 -38.5
t85.5 -17.5q29 -3 50.5 -6t47.5 -8t43 -11.5t36 -16.5t28.5 -22.5t19 -29.5t8 -38t-4.5 -48q-18 -77 -96 -125q46 -33 46 -97q0 -69 -49 -119t-118 -72.5t-145 -24.5q-112 0 -183.5 48t-51.5 140q24 0 69 0.5t68 0.5q-7 -38 30.5 -58.5t88.5 -18.5q57 3 101.5 23.5
t44.5 61.5q0 10 -3 18.5t-9.5 14.5t-13 11t-17.5 8.5t-19 5.5t-22 4t-21 2.5t-21 2t-19 1.5q-98 7 -155 46t-41 121q17 81 106 127z" />
    <glyph glyph-name="dieresis" unicode="&#xa8;" horiz-adv-x="596" 
d="M540 568q-29 0 -47.5 16t-18.5 43q0 37 28.5 61t67.5 24q29 0 47.5 -16t18.5 -43q0 -37 -28.5 -61t-67.5 -24zM274 568q-29 0 -47.5 16t-18.5 43q0 37 29 61t67 24q30 0 48.5 -16t18.5 -43q0 -37 -28.5 -61t-68.5 -24z" />
    <glyph glyph-name="copyright" unicode="&#xa9;" horiz-adv-x="792" 
d="M762 417q0 -97 -38.5 -178.5t-100.5 -132t-136.5 -78t-149.5 -27.5q-119 0 -200 72t-81 204q0 79 25.5 147t68 116.5t98 83.5t115.5 52t120 17q118 0 198.5 -73t80.5 -203zM571 387l-81 -1q-6 45 -56 45q-37 0 -66.5 -28t-29.5 -75q0 -31 17 -49.5t43 -18.5q43 0 77 51
l82 -1q-22 -60 -72 -93.5t-105 -33.5q-56 0 -94 33.5t-38 96.5q0 91 63 145t140 54q54 0 89 -33t31 -92zM156 293q-4 -97 51 -150.5t139 -53.5q115 0 212 85t103 228q4 94 -50.5 148.5t-135.5 54.5q-117 0 -215 -84.5t-104 -227.5z" />
    <glyph glyph-name="ordfeminine" unicode="&#xaa;" horiz-adv-x="502" 
d="M336 401q-40 -56 -132 -56q-109 0 -109 93q0 67 51 105t119 38q53 -2 85 -23l3 15q5 30 -17.5 42.5t-56.5 12.5q-58 0 -101 -20l1 71q64 27 134 27q76 0 118.5 -32t27.5 -104l-27 -127q-6 -18 -1.5 -28t25.5 -9l-12 -57q-20 -5 -37.5 -6t-35.5 1.5t-28 14.5t-9 32
q0 1 1 5t1 5zM67 193l19 88h333l-19 -88h-333zM332 474l4 19q-28 19 -68 19q-28 -2 -47 -18t-19 -39q0 -33 41 -33q27 0 53 13.5t36 38.5z" />
    <glyph glyph-name="guillemotleft" unicode="&#xab;" horiz-adv-x="527" 
d="M332 558l-143 -212l54 -209l-86 -33l-100 242l203 244zM530 558l-143 -212l54 -209l-86 -33l-100 242l203 244z" />
    <glyph glyph-name="logicalnot" unicode="&#xac;" horiz-adv-x="570" 
d="M56 276l26 120h439l-59 -273h-112l33 153h-327z" />
    <glyph glyph-name="registered" unicode="&#xae;" horiz-adv-x="791" 
d="M762 420q0 -79 -25.5 -147.5t-68 -117t-98 -83.5t-115.5 -52t-120 -17q-118 0 -198.5 72.5t-80.5 203.5q0 97 38.5 178.5t100 132t136 78.5t149.5 28q119 0 200.5 -72t81.5 -204zM485 307l48 -103l-4 -15h-85l-42 106h-41l-23 -106h-83l69 325h144q46 0 74 -23.5
t28 -66.5q0 -40 -22.5 -72.5t-62.5 -44.5zM392 442l-17 -80h53q24 0 40.5 13.5t16.5 33.5q0 33 -40 33h-53zM160 295q0 -199 196 -203q73 -2 141 33t115 109t47 171q0 99 -51 151t-145 52q-73 0 -140.5 -34.5t-115 -108t-47.5 -170.5z" />
    <glyph glyph-name="macron" unicode="&#xaf;" horiz-adv-x="499" 
d="M213 591l23 107h320l-23 -107h-320z" />
    <glyph glyph-name="degree" unicode="&#xb0;" horiz-adv-x="446" 
d="M460 576q0 -92 -66.5 -146t-150.5 -54q-64 0 -107.5 35.5t-43.5 100.5q0 92 67.5 146t151.5 54q64 0 106.5 -35.5t42.5 -100.5zM196 528q0 -30 18 -46t46 -15q36 0 65 25.5t29 67.5q0 29 -18 45t-45 16q-36 0 -65.5 -25t-29.5 -68z" />
    <glyph glyph-name="plusminus" unicode="&#xb1;" horiz-adv-x="511" 
d="M74 308l24 114h132l28 130h111l-28 -130h134l-24 -114h-134l-27 -128h-111l27 128h-132zM11 16l24 113h378l-24 -113h-378z" />
    <glyph glyph-name="twosuperior" unicode="&#xb2;" horiz-adv-x="413" 
d="M377 413l-20 -93h-294l5 23l211 217q26 25 35 49t-1.5 39t-36.5 15q-21 0 -36.5 -12.5t-20.5 -33.5h-88q13 65 56.5 101.5t110.5 36.5q68 0 99.5 -37t21.5 -89t-54 -96l-121 -120h133z" />
    <glyph glyph-name="threesuperior" unicode="&#xb3;" horiz-adv-x="397" 
d="M75 450h94q-4 -21 10 -33.5t39 -12.5q30 0 50.5 20.5t20.5 49.5q0 24 -15.5 35t-37.5 10.5t-48 -1.5l3 14l101 130h-154l18 86h286l-3 -15l-115 -145q70 -18 70 -97q0 -70 -55.5 -124.5t-139.5 -54.5q-65 0 -100.5 37.5t-23.5 100.5z" />
    <glyph glyph-name="acute" unicode="&#xb4;" horiz-adv-x="303" 
d="M282 553h-114l2 13l108 156l118 -47l-2 -12z" />
    <glyph glyph-name="mu" unicode="&#xb5;" horiz-adv-x="583" 
d="M470 0h-134l15 68q-17 -34 -47.5 -53.5t-66.5 -19.5t-55.5 12.5t-29.5 40.5l-63 -298h-133q15 70 70.5 329.5t85.5 403.5h133l-60 -284q-10 -47 9.5 -73t60.5 -26q43 0 78.5 28.5t46.5 77.5l59 277h134z" />
    <glyph glyph-name="mu" unicode="&#x3bc;" horiz-adv-x="583" 
d="M470 0h-134l15 68q-17 -34 -47.5 -53.5t-66.5 -19.5t-55.5 12.5t-29.5 40.5l-63 -298h-133q15 70 70.5 329.5t85.5 403.5h133l-60 -284q-10 -47 9.5 -73t60.5 -26q43 0 78.5 28.5t46.5 77.5l59 277h134z" />
    <glyph glyph-name="paragraph" unicode="&#xb6;" horiz-adv-x="781" 
d="M585 -216h-139l167 788h-145l-167 -788h-135l83 394q-121 3 -167 102q-41 89 -3 202q40 117 140 176q69 41 154 41h406z" />
    <glyph glyph-name="periodcentered" unicode="&#xb7;" horiz-adv-x="275" 
d="M134 282q-30 0 -49 17t-19 46q0 39 30.5 65t70.5 26q30 0 49.5 -17t19.5 -46q0 -38 -30.5 -64.5t-71.5 -26.5z" />
    <glyph glyph-name="cedilla" unicode="&#xb8;" horiz-adv-x="392" 
d="M116 -78l45 92h103l-28 -61q47 -6 57.5 -44.5t-12.5 -74.5q-24 -42 -71.5 -59.5t-94.5 -11.5t-79 30l24 77q20 -19 61.5 -21t57.5 22q13 24 -11 37.5t-52 13.5z" />
    <glyph glyph-name="onesuperior" unicode="&#xb9;" horiz-adv-x="353" 
d="M63 320l18 85h73l55 259h-64l18 84h169l-73 -343h74l-18 -85h-252z" />
    <glyph glyph-name="ordmasculine" unicode="&#xba;" horiz-adv-x="538" 
d="M533 570q0 -106 -78.5 -169.5t-176.5 -63.5q-74 0 -124.5 41t-50.5 118q0 107 79 169.5t178 62.5q73 0 123 -41.5t50 -116.5zM223 514q0 -37 22 -57t54 -20q44 0 80 32t36 85q0 35 -21 55t-53 21q-45 0 -81.5 -31t-36.5 -85zM35 160l23 110h415l-23 -110h-415z" />
    <glyph glyph-name="guillemotright" unicode="&#xbb;" horiz-adv-x="527" 
d="M363 346l-53 212l86 32l99 -244l-202 -242l-72 33zM165 346l-53 212l86 32l99 -244l-202 -242l-72 33z" />
    <glyph glyph-name="onequarter" unicode="&#xbc;" horiz-adv-x="958" 
d="M762 164l16 70q18 88 24 88h-1l-128 -158h89zM837 80l-17 -80h-99l17 80h-203l10 47l252 301h114l-55 -260h40l-19 -88h-40zM188 1l487 699h124l-487 -699h-124zM43 283l18 83h73l54 258h-63l18 83h167l-72 -341h73l-18 -83h-250z" />
    <glyph glyph-name="onehalf" unicode="&#xbd;" horiz-adv-x="967" 
d="M189 1l486 699h124l-486 -699h-124zM41 279l18 84h73l55 260h-63l18 84h168l-73 -344h74l-18 -84h-252zM887 93l-19 -93h-294l5 23l211 217q26 25 35 49t-1.5 39t-36.5 15q-45 0 -57 -46h-88q13 65 56.5 101.5t110.5 36.5q68 0 99.5 -37t21.5 -89t-54 -96l-122 -120h133z
" />
    <glyph glyph-name="threequarters" unicode="&#xbe;" horiz-adv-x="980" 
d="M784 164l16 70q15 74 21 74h-1l-125 -144h89zM859 80l-17 -80h-99l17 80h-203l10 47l252 301h114l-55 -260h40l-19 -88h-40zM210 1l487 699h124l-487 -699h-124zM62 407h94q-4 -21 10 -33.5t39 -12.5q30 0 50.5 20.5t20.5 49.5q0 24 -15.5 35t-38 10.5t-47.5 -1.5l3 14
l101 130h-154l18 86h286l-3 -15l-115 -145q70 -17 70 -97q0 -70 -55.5 -124.5t-139.5 -54.5q-65 0 -100.5 37.5t-23.5 100.5z" />
    <glyph glyph-name="questiondown" unicode="&#xbf;" horiz-adv-x="510" 
d="M196 296h132q-12 -54 -39 -98t-53.5 -67.5t-60 -55.5t-51.5 -59q-29 -40 -18.5 -79.5t63.5 -39.5q36 0 68.5 21.5t45.5 63.5h131q-23 -102 -95 -156t-168 -56q-81 -2 -133.5 41.5t-52.5 122.5q0 45 20.5 84t51.5 69.5t63.5 60.5t59.5 68t36 80zM302 497q31 0 50 -17
t19 -46q0 -39 -30 -64.5t-71 -25.5q-30 0 -48.5 16.5t-18.5 45.5q0 38 29.5 64.5t69.5 26.5z" />
    <glyph glyph-name="Agrave" unicode="&#xc0;" 
d="M470 116h-292l-79 -116h-163l4 20l468 686h69l174 -686l-4 -20h-152zM397 476l-144 -234h190zM509 775l-2 -13h-114l-66 110l3 12l138 47z" />
    <glyph glyph-name="Aacute" unicode="&#xc1;" 
d="M470 116h-292l-79 -116h-163l4 20l468 686h69l174 -686l-4 -20h-152zM397 476l-144 -234h190zM509 764h-114l2 13l108 156l118 -47l-2 -12z" />
    <glyph glyph-name="Acircumflex" unicode="&#xc2;" 
d="M470 116h-292l-79 -116h-163l4 20l468 686h69l174 -686l-4 -20h-152zM397 476l-144 -234h190zM664 743h-133l-62 78l-95 -78h-135l3 14l174 148h140l111 -149z" />
    <glyph glyph-name="Atilde" unicode="&#xc3;" 
d="M470 116h-292l-79 -116h-163l4 20l468 686h69l174 -686l-4 -20h-152zM397 476l-144 -234h190zM341 753q-4 2 -29 16t-39 20q95 154 217 86q21 -12 35 -17.5t35 0t36 30.5l66 -34q-34 -69 -93.5 -95.5t-113.5 4.5q-17 10 -28 15t-27 8.5t-31 -5t-28 -28.5z" />
    <glyph glyph-name="Adieresis" unicode="&#xc4;" 
d="M470 116h-292l-79 -116h-163l4 20l468 686h69l174 -686l-4 -20h-152zM397 476l-144 -234h190zM583 741q-29 0 -47.5 16t-18.5 43q0 37 28.5 61t67.5 24q29 0 47.5 -16t18.5 -43q0 -37 -28.5 -61t-67.5 -24zM317 741q-29 0 -47.5 16t-18.5 43q0 37 29 61t67 24
q30 0 48.5 -16t18.5 -43q0 -37 -28.5 -61t-68.5 -24z" />
    <glyph glyph-name="Aring" unicode="&#xc5;" 
d="M406 799q0 -33 35 -39q36 -7 60 20q13 16 13 37q0 39 -44 39q-26 0 -45 -15t-19 -42zM392 461l-144 -219h194zM464 116h-291l-79 -116h-159l4 20l456 669q-32 9 -52 33.5t-20 61.5q0 69 50.5 108.5t113.5 39.5q47 0 78.5 -27t31.5 -74q0 -55 -33.5 -91t-83.5 -49
l170 -671l-4 -20h-152z" />
    <glyph glyph-name="AE" unicode="&#xc6;" horiz-adv-x="826" 
d="M193 169l-112 -169h-144l5 22l469 676h440l-27 -128h-243l-31 -145h227l-26 -124h-227l-37 -173h254l-27 -128h-382l36 169h-175zM457 570l-192 -279h129l65 279h-2z" />
    <glyph glyph-name="Ccedilla" unicode="&#xc7;" horiz-adv-x="758" 
d="M252 -79l39 75q-129 15 -198.5 108t-37.5 245q38 173 160 266t273 93q116 0 194 -64t76 -186h-141q-8 65 -48 89.5t-109 24.5q-97 0 -165 -63.5t-89 -163.5q-21 -92 20 -154t138 -62q136 0 200 126h153q-41 -111 -126 -176t-187 -80l-22 -47q50 -6 62 -45t-13 -76
q-25 -43 -77 -61t-103.5 -11t-85.5 30l26 79q22 -19 67 -22t62 23q15 23 -11.5 37.5t-56.5 14.5z" />
    <glyph glyph-name="Egrave" unicode="&#xc8;" horiz-adv-x="571" 
d="M598 700l-28 -131h-278l-30 -142h260q-4 -14 -28 -131h-260l-34 -160h286l-29 -136h-437q103 492 149 700h429zM472 775l-2 -13h-114l-66 110l3 12l138 47z" />
    <glyph glyph-name="Eacute" unicode="&#xc9;" horiz-adv-x="571" 
d="M598 700l-28 -131h-278l-30 -142h260q-4 -14 -28 -131h-260l-34 -160h286l-29 -136h-437q103 492 149 700h429zM449 768h-114l2 13l108 156l118 -47l-2 -12z" />
    <glyph glyph-name="Ecircumflex" unicode="&#xca;" horiz-adv-x="571" 
d="M598 700l-28 -131h-278l-30 -142h260q-4 -14 -28 -131h-260l-34 -160h286l-29 -136h-437q103 492 149 700h429zM602 763h-127l-59 76l-91 -76h-128l3 13l166 146h133l106 -147z" />
    <glyph glyph-name="Edieresis" unicode="&#xcb;" horiz-adv-x="571" 
d="M598 700l-28 -131h-278l-30 -142h260q-4 -14 -28 -131h-260l-34 -160h286l-29 -136h-437q103 492 149 700h429zM529 761q-29 0 -47.5 16t-18.5 43q0 37 28.5 61t67.5 24q29 0 47.5 -16t18.5 -43q0 -37 -28.5 -61t-67.5 -24zM263 761q-29 0 -47.5 16t-18.5 43q0 37 29 61
t67 24q30 0 48.5 -16t18.5 -43q0 -37 -28.5 -61t-68.5 -24z" />
    <glyph glyph-name="Igrave" unicode="&#xcc;" horiz-adv-x="438" 
d="M258 119h99q-5 -24 -12 -59t-13 -60h-348q6 25 13 60t12 59h99l99 465h-91q6 24 13 58t12 58h332q-6 -24 -13 -58t-12 -58h-91zM380 780l-2 -13h-114l-66 110l3 12l138 47z" />
    <glyph glyph-name="Iacute" unicode="&#xcd;" horiz-adv-x="438" 
d="M258 119h99q-5 -24 -12 -59t-13 -60h-348q6 25 13 60t12 59h99l99 465h-91q6 24 13 58t12 58h332q-6 -24 -13 -58t-12 -58h-91zM366 765h-114l2 13l108 156l118 -47l-2 -12z" />
    <glyph glyph-name="Icircumflex" unicode="&#xce;" horiz-adv-x="438" 
d="M258 119h99q-5 -24 -12 -59t-13 -60h-348q6 25 13 60t12 59h99l99 465h-91q6 24 13 58t12 58h332q-6 -24 -13 -58t-12 -58h-91zM527 768h-128l-59 76l-91 -76h-129l3 14l166 144h134l106 -145z" />
    <glyph glyph-name="Idieresis" unicode="&#xcf;" horiz-adv-x="438" 
d="M258 119h99q-5 -24 -12 -59t-13 -60h-348q6 25 13 60t12 59h99l99 465h-91q6 24 13 58t12 58h332q-6 -24 -13 -58t-12 -58h-91zM459 764q-29 0 -47.5 16t-18.5 43q0 37 28.5 61t67.5 24q29 0 47.5 -16t18.5 -43q0 -37 -28.5 -61t-67.5 -24zM193 764q-29 0 -47.5 16
t-18.5 43q0 37 29 61t67 24q30 0 48.5 -16t18.5 -43q0 -37 -28.5 -61t-68.5 -24z" />
    <glyph glyph-name="Eth" unicode="&#xd0;" horiz-adv-x="737" 
d="M14 286l25 117h76l63 296h260q135 0 206 -80.5t71 -200.5q0 -77 -30.5 -152t-84.5 -134t-135.5 -95.5t-175.5 -36.5h-260l61 286h-76zM207 135h109q107 0 177.5 79.5t70.5 180.5q0 72 -40.5 120.5t-116.5 48.5h-109l-34 -161h112l-25 -117h-112z" />
    <glyph glyph-name="Ntilde" unicode="&#xd1;" horiz-adv-x="753" 
d="M572 -2l-317 409l-86 -407h-149l149 703h41l312 -408l87 405h150l-149 -702h-38zM333 750q-4 2 -29 16t-39 20q95 154 217 86q21 -12 35 -17.5t35 0t36 30.5l66 -34q-34 -69 -93.5 -95.5t-113.5 4.5q-17 10 -28 15t-27 8.5t-31 -5t-28 -28.5z" />
    <glyph glyph-name="Ograve" unicode="&#xd2;" horiz-adv-x="806" 
d="M783 424q0 -199 -126.5 -317.5t-319.5 -118.5q-126 0 -207.5 75.5t-81.5 211.5q0 134 65 235.5t165 151t216 49.5q125 0 207 -76t82 -211zM205 341q-17 -94 24 -155t139 -61q105 0 184 73.5t79 201.5q0 83 -46.5 128t-119.5 45q-93 0 -168 -62t-92 -170zM596 787l-2 -12
h-124l-72 106l4 12l150 46z" />
    <glyph glyph-name="Oacute" unicode="&#xd3;" horiz-adv-x="806" 
d="M783 424q0 -199 -126.5 -317.5t-319.5 -118.5q-126 0 -207.5 75.5t-81.5 211.5q0 134 65 235.5t165 151t216 49.5q125 0 207 -76t82 -211zM205 341q-17 -94 24 -155t139 -61q105 0 184 73.5t79 201.5q0 83 -46.5 128t-119.5 45q-93 0 -168 -62t-92 -170zM570 783h-124
l2 13l118 154l128 -46l-2 -12z" />
    <glyph glyph-name="Ocircumflex" unicode="&#xd4;" horiz-adv-x="806" 
d="M783 424q0 -199 -126.5 -317.5t-319.5 -118.5q-126 0 -207.5 75.5t-81.5 211.5q0 134 65 235.5t165 151t216 49.5q125 0 207 -76t82 -211zM205 341q-17 -94 24 -155t139 -61q105 0 184 73.5t79 201.5q0 83 -46.5 128t-119.5 45q-93 0 -168 -62t-92 -170zM710 763h-133
l-62 78l-95 -78h-135l3 14l174 148h140l111 -149z" />
    <glyph glyph-name="Otilde" unicode="&#xd5;" horiz-adv-x="806" 
d="M783 424q0 -199 -126.5 -317.5t-319.5 -118.5q-126 0 -207.5 75.5t-81.5 211.5q0 134 65 235.5t165 151t216 49.5q125 0 207 -76t82 -211zM205 341q-17 -94 24 -155t139 -61q105 0 184 73.5t79 201.5q0 83 -46.5 128t-119.5 45q-93 0 -168 -62t-92 -170zM394 772
q-4 2 -29 16t-39 20q95 154 217 86q21 -12 35 -17.5t35 0t36 30.5l66 -34q-34 -69 -93.5 -95.5t-113.5 4.5q-17 10 -28 15t-27 8.5t-31 -5t-28 -28.5z" />
    <glyph glyph-name="Odieresis" unicode="&#xd6;" horiz-adv-x="806" 
d="M783 424q0 -199 -126.5 -317.5t-319.5 -118.5q-126 0 -207.5 75.5t-81.5 211.5q0 134 65 235.5t165 151t216 49.5q125 0 207 -76t82 -211zM205 341q-17 -94 24 -155t139 -61q105 0 184 73.5t79 201.5q0 83 -46.5 128t-119.5 45q-93 0 -168 -62t-92 -170zM646 766
q-29 0 -47.5 16t-18.5 43q0 37 28.5 61t67.5 24q29 0 47.5 -16t18.5 -43q0 -37 -28.5 -61t-67.5 -24zM380 766q-29 0 -47.5 16t-18.5 43q0 37 29 61t67 24q30 0 48.5 -16t18.5 -43q0 -37 -28.5 -61t-68.5 -24z" />
    <glyph glyph-name="multiply" unicode="&#xd7;" horiz-adv-x="472" 
d="M84 445l103 85l78 -98l118 96l65 -83l-117 -98l77 -98l-103 -84l-76 97l-118 -96l-67 84l118 97z" />
    <glyph glyph-name="Oslash" unicode="&#xd8;" horiz-adv-x="802" 
d="M811 742l-97 -120q66 -71 66 -199q0 -100 -39 -184t-103 -138t-142.5 -83.5t-159.5 -29.5q-66 0 -117 22l-57 -70h-140l3 15l95 117q-72 74 -72 205q0 80 25.5 150.5t69.5 121.5t101 88t120.5 55.5t127.5 18.5q71 0 127 -24l54 69h141zM600 492l-285 -356q13 -6 54 -6
q100 0 179 73.5t79 188.5q0 63 -27 100zM230 196l291 362q-28 11 -59 11q-102 0 -181 -73t-79 -190q0 -73 28 -110z" />
    <glyph glyph-name="Ugrave" unicode="&#xd9;" horiz-adv-x="704" 
d="M291 -9q-118 0 -185 64.5t-44 177.5l99 467h151l-99 -464q-11 -54 20 -83.5t86 -29.5t98.5 29.5t54.5 83.5l99 464h147l-99 -467q-24 -116 -112 -179t-216 -63zM525 778l-2 -13h-114l-66 110l3 12l138 47z" />
    <glyph glyph-name="Uacute" unicode="&#xda;" horiz-adv-x="704" 
d="M291 -9q-118 0 -185 64.5t-44 177.5l99 467h151l-99 -464q-11 -54 20 -83.5t86 -29.5t98.5 29.5t54.5 83.5l99 464h147l-99 -467q-24 -116 -112 -179t-216 -63zM499 764h-114l2 13l108 156l118 -47l-2 -12z" />
    <glyph glyph-name="Ucircumflex" unicode="&#xdb;" horiz-adv-x="704" 
d="M291 -9q-118 0 -185 64.5t-44 177.5l99 467h151l-99 -464q-11 -54 20 -83.5t86 -29.5t98.5 29.5t54.5 83.5l99 464h147l-99 -467q-24 -116 -112 -179t-216 -63zM670 773h-133l-62 78l-95 -78h-135l3 14l174 148h140l111 -149z" />
    <glyph glyph-name="Udieresis" unicode="&#xdc;" horiz-adv-x="704" 
d="M291 -9q-118 0 -185 64.5t-44 177.5l99 467h151l-99 -464q-11 -54 20 -83.5t86 -29.5t98.5 29.5t54.5 83.5l99 464h147l-99 -467q-24 -116 -112 -179t-216 -63zM582 759q-29 0 -47.5 16t-18.5 43q0 37 28.5 61t67.5 24q29 0 47.5 -16t18.5 -43q0 -37 -28.5 -61t-67.5 -24
zM316 759q-29 0 -47.5 16t-18.5 43q0 37 29 61t67 24q30 0 48.5 -16t18.5 -43q0 -37 -28.5 -61t-68.5 -24z" />
    <glyph glyph-name="Yacute" unicode="&#xdd;" horiz-adv-x="634" 
d="M334 417h5l98 139l115 144h165l-5 -22l-326 -405l-58 -273h-150l59 280l-156 398l5 22h155l55 -149zM464 772h-114l2 13l108 156l118 -47l-2 -12z" />
    <glyph glyph-name="Thorn" unicode="&#xde;" horiz-adv-x="663" 
d="M217 231h152q53 0 94 47t41 106q0 43 -21 74t-60 31h-152zM20 0l149 700h150l-20 -91h150q78 0 126.5 -40t63 -96.5t4.5 -122.5q-16 -106 -97.5 -176.5t-203.5 -70.5h-150l-22 -103h-150z" />
    <glyph glyph-name="germandbls" unicode="&#xdf;" horiz-adv-x="614" 
d="M3 0l105 494q64 299 524 170l-5 -25l-165 -227q54 -9 79.5 -48t25.5 -94q0 -73 -28 -133.5t-76 -95.5t-110.5 -46t-131.5 14l23 110q64 -19 113.5 14.5t62.5 90.5q13 62 -26.5 86.5t-108.5 15.5l6 26l153 224q-62 28 -122 3.5t-76 -94.5q-6 -22 -104 -485h-139z" />
    <glyph glyph-name="agrave" unicode="&#xe0;" horiz-adv-x="598" 
d="M553 448l-62 -293q-10 -31 -5.5 -46.5t38.5 -13.5l-19 -90q-30 -6 -54.5 -7t-49 4.5t-35 26.5t-3.5 56q-29 -44 -76.5 -68.5t-96.5 -24.5q-106 2 -147 74t-17 181q29 120 118.5 184t212.5 62q101 -1 196 -45zM372 242l31 125q-31 14 -77 14q-58 0 -100.5 -34.5
t-60.5 -99.5q-17 -64 -0.5 -98t71.5 -33q49 0 85 35t51 91zM437 582l-2 -12h-105l-60 101l3 11l126 43z" />
    <glyph glyph-name="aacute" unicode="&#xe1;" horiz-adv-x="598" 
d="M553 448l-62 -293q-10 -31 -5.5 -46.5t38.5 -13.5l-19 -90q-30 -6 -54.5 -7t-49 4.5t-35 26.5t-3.5 56q-29 -44 -76.5 -68.5t-96.5 -24.5q-106 2 -147 74t-17 181q29 120 118.5 184t212.5 62q101 -1 196 -45zM372 242l31 125q-31 14 -77 14q-58 0 -100.5 -34.5
t-60.5 -99.5q-17 -64 -0.5 -98t71.5 -33q49 0 85 35t51 91zM405 565h-107l2 13l102 146l111 -44l-2 -11z" />
    <glyph glyph-name="acircumflex" unicode="&#xe2;" horiz-adv-x="598" 
d="M553 448l-62 -293q-10 -31 -5.5 -46.5t38.5 -13.5l-19 -90q-30 -6 -54.5 -7t-49 4.5t-35 26.5t-3.5 56q-29 -44 -76.5 -68.5t-96.5 -24.5q-106 2 -147 74t-17 181q29 120 118.5 184t212.5 62q101 -1 196 -45zM372 242l31 125q-31 14 -77 14q-58 0 -100.5 -34.5
t-60.5 -99.5q-17 -64 -0.5 -98t71.5 -33q49 0 85 35t51 91zM537 565h-114l-53 72l-81 -72h-116l2 13l149 137h120l95 -138z" />
    <glyph glyph-name="atilde" unicode="&#xe3;" horiz-adv-x="598" 
d="M553 448l-62 -293q-10 -31 -5.5 -46.5t38.5 -13.5l-19 -90q-30 -6 -54.5 -7t-49 4.5t-35 26.5t-3.5 56q-29 -44 -76.5 -68.5t-96.5 -24.5q-106 2 -147 74t-17 181q29 120 118.5 184t212.5 62q101 -1 196 -45zM372 242l31 125q-31 14 -77 14q-58 0 -100.5 -34.5
t-60.5 -99.5q-17 -64 -0.5 -98t71.5 -33q49 0 85 35t51 91zM266 583q-9 4 -31 16t-33 17q89 145 202 80q45 -22 65 -17t34 30l62 -32q-32 -64 -87.5 -89t-105.5 4q-68 46 -106 -9z" />
    <glyph glyph-name="adieresis" unicode="&#xe4;" horiz-adv-x="598" 
d="M482 573q-28 0 -45.5 15.5t-17.5 41.5q0 35 27.5 58t64.5 23q28 0 45.5 -15.5t17.5 -41.5q0 -35 -27.5 -58t-64.5 -23zM254 573q-28 0 -45.5 15.5t-17.5 41.5q0 35 27.5 58t64.5 23q28 0 45.5 -15.5t17.5 -41.5q0 -35 -27.5 -58t-64.5 -23zM553 448l-62 -293
q-10 -31 -5.5 -46.5t38.5 -13.5l-19 -90q-30 -6 -54.5 -7t-49 4.5t-35 26.5t-3.5 56q-29 -44 -76.5 -68.5t-96.5 -24.5q-106 2 -147 74t-17 181q29 120 118.5 184t212.5 62q101 -1 196 -45zM372 242l31 125q-31 14 -77 14q-58 0 -100.5 -34.5t-60.5 -99.5q-17 -64 -0.5 -98
t71.5 -33q49 0 85 35t51 91z" />
    <glyph glyph-name="aring" unicode="&#xe5;" horiz-adv-x="598" 
d="M553 448l-62 -293q-10 -31 -5.5 -46.5t38.5 -13.5l-19 -90q-30 -6 -54.5 -7t-49 4.5t-35 26.5t-3.5 56q-29 -44 -76.5 -68.5t-96.5 -24.5q-106 2 -147 74t-17 181q29 120 118.5 184t212.5 62q101 -1 196 -45zM372 242l31 125q-31 14 -77 14q-58 0 -100.5 -34.5
t-60.5 -99.5q-17 -64 -0.5 -98t71.5 -33q49 0 85 35t51 91zM535 672q0 -56 -46 -90t-103 -34q-43 0 -73.5 22.5t-30.5 62.5q0 57 46.5 90.5t105.5 33.5q42 0 71.5 -22t29.5 -63zM359 646q0 -15 11.5 -24t29.5 -9q23 0 41 13t18 35q0 15 -10.5 24t-28.5 9q-24 0 -42.5 -13
t-18.5 -35z" />
    <glyph glyph-name="ae" unicode="&#xe6;" horiz-adv-x="819" 
d="M347 242l26 120q-34 19 -71 19q-55 0 -93.5 -35.5t-53.5 -105.5q-12 -57 6.5 -95t64.5 -38q48 0 78 37.5t43 97.5zM483 300q12 -10 45 -18.5t62 -6.5q65 2 78 53q8 30 -13 44t-53 14q-83 -6 -119 -86zM732 136l-19 -109q-77 -41 -172 -39q-88 2 -125 64l-12 -52h-91l8 81
q-23 -41 -67 -65.5t-87 -24.5q-78 0 -122.5 62.5t-18.5 185.5q27 123 111 189.5t198 64.5q90 -2 148 -51q64 51 140 53q39 1 72 -7t60 -28t36 -52.5t0 -79.5q-17 -70 -73.5 -108.5t-122.5 -40.5q-87 -5 -137 31q-11 -59 24 -86t99 -25q76 1 151 37z" />
    <glyph glyph-name="ccedilla" unicode="&#xe7;" horiz-adv-x="565" 
d="M153 -74l33 68q-71 10 -117.5 62.5t-46.5 135.5q0 99 50.5 172t122 105t146.5 28q89 -7 145 -53.5t52 -135.5h-133q-6 32 -29.5 49t-56.5 17q-51 0 -99 -35.5t-61 -94.5q-12 -55 18 -94t84 -39q79 0 120 74h133q-29 -76 -88.5 -124.5t-132.5 -63.5l-19 -41
q48 -4 58.5 -42t-12.5 -73q-23 -40 -70.5 -57.5t-96 -11.5t-81.5 29l24 75q19 -17 62 -20t58 21q13 24 -11 36.5t-52 12.5z" />
    <glyph glyph-name="egrave" unicode="&#xe8;" horiz-adv-x="544" 
d="M457 138l-18 -108q-67 -35 -181 -40q-111 -4 -176.5 48.5t-61.5 152.5q3 74 30 133t70.5 95t95.5 55t109 21q43 1 80.5 -7.5t68 -27t42.5 -52.5t1 -79q-17 -69 -78.5 -107.5t-133.5 -40.5q-92 -5 -148 31q-11 -59 26.5 -86t107.5 -25q80 0 166 37zM184 301
q15 -11 48.5 -19t64.5 -6q73 2 86 53q7 30 -17 44t-58 14q-88 -5 -124 -86zM407 579l-2 -13h-107l-62 104l3 11l129 44z" />
    <glyph glyph-name="eacute" unicode="&#xe9;" horiz-adv-x="544" 
d="M457 138l-18 -108q-67 -35 -181 -40q-111 -4 -176.5 48.5t-61.5 152.5q3 74 30 133t70.5 95t95.5 55t109 21q43 1 80.5 -7.5t68 -27t42.5 -52.5t1 -79q-17 -69 -78.5 -107.5t-133.5 -40.5q-92 -5 -148 31q-11 -59 26.5 -86t107.5 -25q80 0 166 37zM184 301
q15 -11 48.5 -19t64.5 -6q73 2 86 53q7 30 -17 44t-58 14q-88 -5 -124 -86zM384 567h-106l2 12l100 145l110 -44l-2 -11z" />
    <glyph glyph-name="ecircumflex" unicode="&#xea;" horiz-adv-x="544" 
d="M457 138l-18 -108q-67 -35 -181 -40q-111 -4 -176.5 48.5t-61.5 152.5q3 74 30 133t70.5 95t95.5 55t109 21q43 1 80.5 -7.5t68 -27t42.5 -52.5t1 -79q-17 -69 -78.5 -107.5t-133.5 -40.5q-92 -5 -148 31q-11 -59 26.5 -86t107.5 -25q80 0 166 37zM184 301
q15 -11 48.5 -19t64.5 -6q73 2 86 53q7 30 -17 44t-58 14q-88 -5 -124 -86zM537 565h-121l-56 71l-86 -71h-122l3 13l157 134h127l101 -135z" />
    <glyph glyph-name="edieresis" unicode="&#xeb;" horiz-adv-x="544" 
d="M457 138l-18 -108q-67 -35 -181 -40q-111 -4 -176.5 48.5t-61.5 152.5q3 74 30 133t70.5 95t95.5 55t109 21q43 1 80.5 -7.5t68 -27t42.5 -52.5t1 -79q-17 -69 -78.5 -107.5t-133.5 -40.5q-92 -5 -148 31q-11 -59 26.5 -86t107.5 -25q80 0 166 37zM184 301
q15 -11 48.5 -19t64.5 -6q73 2 86 53q7 30 -17 44t-58 14q-88 -5 -124 -86zM475 569q-27 0 -44 14.5t-17 39.5q0 35 26.5 57t62.5 22q27 0 44 -15t17 -40q0 -34 -26.5 -56t-62.5 -22zM229 569q-27 0 -44 14.5t-17 39.5q0 35 26 57t62 22q27 0 45 -15.5t18 -39.5
q0 -33 -27 -55.5t-63 -22.5z" />
    <glyph glyph-name="igrave" unicode="&#xec;" horiz-adv-x="269" 
d="M245 482l-102 -482h-139l102 482h139zM253 572l-2 -13h-110l-64 106l3 12l133 45z" />
    <glyph glyph-name="iacute" unicode="&#xed;" horiz-adv-x="269" 
d="M245 482l-102 -482h-139l102 482h139zM228 563h-109l2 12l103 150l113 -45l-1 -12z" />
    <glyph glyph-name="icircumflex" unicode="&#xee;" horiz-adv-x="269" 
d="M245 482l-102 -482h-139l102 482h139zM349 552h-112l-52 81l-80 -81h-114l2 14l147 154h118l94 -155z" />
    <glyph glyph-name="idieresis" unicode="&#xef;" horiz-adv-x="269" 
d="M299 568q-29 0 -47.5 16t-18.5 43q0 37 28.5 61t67.5 24q29 0 47.5 -16t18.5 -43q0 -37 -28.5 -61t-67.5 -24zM80 568q-29 0 -47.5 16t-18.5 43q0 37 29 61t67 24q30 0 48.5 -16t18.5 -43q0 -37 -28.5 -61t-68.5 -24zM245 482l-102 -482h-139l102 482h139z" />
    <glyph glyph-name="eth" unicode="&#xf0;" horiz-adv-x="584" 
d="M20 189q0 88 47 155t115.5 98.5t143.5 31.5q55 0 78 -24q-12 42 -56 94l-62 -37l-25 52l59 35q-33 58 -72 97l1 7h114q25 -20 48 -48l63 37l25 -50l-53 -34q148 -208 78 -409q-23 -66 -72.5 -113.5t-107 -70t-116.5 -22.5q-88 0 -148 53t-60 148zM401 264q0 46 -26.5 71
t-66.5 25q-56 0 -101 -40t-45 -109q0 -49 26.5 -75t66.5 -26q55 0 100.5 42t45.5 112z" />
    <glyph glyph-name="ntilde" unicode="&#xf1;" horiz-adv-x="628" 
d="M52 402l18 82q40 5 81 7.5t68 -17.5t19 -63q62 82 170 82q97 0 132 -58.5t13 -154.5l-28 -131q-11 -34 -4.5 -50t41.5 -14l-17 -82q-40 -10 -72 -10t-58 10t-36.5 37.5t-0.5 70.5l36 169q11 48 -10.5 75.5t-61.5 27.5q-41 0 -77 -28.5t-46 -77.5l-59 -277h-140l71 333
q11 40 5 55.5t-44 13.5zM266 577q-64 34 -65 34q90 145 205 81q43 -21 62 -18q22 5 38 31l63 -32q-32 -66 -88.5 -90.5t-107.5 4.5q-17 10 -26 14t-25 7.5t-30 -4.5t-26 -27z" />
    <glyph glyph-name="ograve" unicode="&#xf2;" horiz-adv-x="587" 
d="M546 294q0 -74 -28 -134t-74 -96t-101.5 -55t-114.5 -19q-87 0 -147 53.5t-60 148.5q0 72 28.5 131.5t75 96.5t102.5 56.5t113 19.5q87 0 146.5 -53.5t59.5 -148.5zM161 221q-4 -48 20.5 -76t63.5 -30q55 -4 104.5 37t55.5 113q4 48 -20 76t-64 30q-57 2 -105.5 -37
t-54.5 -113zM430 578l-2 -12h-115l-67 103l3 11l139 44z" />
    <glyph glyph-name="oacute" unicode="&#xf3;" horiz-adv-x="587" 
d="M546 294q0 -74 -28 -134t-74 -96t-101.5 -55t-114.5 -19q-87 0 -147 53.5t-60 148.5q0 72 28.5 131.5t75 96.5t102.5 56.5t113 19.5q87 0 146.5 -53.5t59.5 -148.5zM161 221q-4 -48 20.5 -76t63.5 -30q55 -4 104.5 37t55.5 113q4 48 -20 76t-64 30q-57 2 -105.5 -37
t-54.5 -113zM398 569h-114l2 12l108 145l118 -44l-2 -11z" />
    <glyph glyph-name="ocircumflex" unicode="&#xf4;" horiz-adv-x="587" 
d="M546 294q0 -74 -28 -134t-74 -96t-101.5 -55t-114.5 -19q-87 0 -147 53.5t-60 148.5q0 72 28.5 131.5t75 96.5t102.5 56.5t113 19.5q87 0 146.5 -53.5t59.5 -148.5zM161 221q-4 -48 20.5 -76t63.5 -30q55 -4 104.5 37t55.5 113q4 48 -20 76t-64 30q-57 2 -105.5 -37
t-54.5 -113zM538 564h-121l-57 75l-87 -75h-124l3 13l159 142h128l102 -143z" />
    <glyph glyph-name="otilde" unicode="&#xf5;" horiz-adv-x="587" 
d="M546 294q0 -74 -28 -134t-74 -96t-101.5 -55t-114.5 -19q-87 0 -147 53.5t-60 148.5q0 72 28.5 131.5t75 96.5t102.5 56.5t113 19.5q87 0 146.5 -53.5t59.5 -148.5zM161 221q-4 -48 20.5 -76t63.5 -30q55 -4 104.5 37t55.5 113q4 48 -20 76t-64 30q-57 2 -105.5 -37
t-54.5 -113zM247 583q-64 34 -65 34q90 145 205 81q43 -21 62 -18q22 5 38 31l63 -32q-32 -66 -88.5 -90.5t-107.5 4.5q-17 10 -26 14t-25 7.5t-30 -4.5t-26 -27z" />
    <glyph glyph-name="odieresis" unicode="&#xf6;" horiz-adv-x="587" 
d="M546 294q0 -74 -28 -134t-74 -96t-101.5 -55t-114.5 -19q-87 0 -147 53.5t-60 148.5q0 72 28.5 131.5t75 96.5t102.5 56.5t113 19.5q87 0 146.5 -53.5t59.5 -148.5zM161 221q-4 -48 20.5 -76t63.5 -30q55 -4 104.5 37t55.5 113q4 48 -20 76t-64 30q-57 2 -105.5 -37
t-54.5 -113zM481 572q-27 0 -44 14.5t-17 39.5q0 35 26.5 57t62.5 22q27 0 44 -15t17 -40q0 -34 -26.5 -56t-62.5 -22zM235 572q-27 0 -44 14.5t-17 39.5q0 35 26 57t62 22q27 0 45 -15.5t18 -39.5q0 -33 -27 -55.5t-63 -22.5z" />
    <glyph glyph-name="divide" unicode="&#xf7;" horiz-adv-x="535" 
d="M226 91q-30 0 -49 17.5t-19 44.5q0 39 30.5 65t70.5 26q30 0 49 -17t19 -46q0 -39 -30.5 -64.5t-70.5 -25.5zM308 476q-30 0 -49 17.5t-19 44.5q0 39 30 65t70 26q30 0 49.5 -17t19.5 -46q0 -39 -30.5 -64.5t-70.5 -25.5zM51 298l26 120h437l-26 -120h-437z" />
    <glyph glyph-name="oslash" unicode="&#xf8;" horiz-adv-x="586" 
d="M546 293q0 -56 -17.5 -105t-46.5 -83t-67.5 -61t-81 -38.5t-85.5 -15t-82 8.5l-39 -55h-109l68 94q-64 50 -64 154q0 57 18 106.5t48 84t69 61t82 37.5t86.5 14.5t82.5 -9.5l42 58h109l-72 -100q59 -51 59 -151zM159 218q0 -38 18 -61l157 218q-60 13 -117.5 -32
t-57.5 -125zM410 266q0 32 -16 59l-156 -215q60 -11 116 33.5t56 122.5z" />
    <glyph glyph-name="ugrave" unicode="&#xf9;" horiz-adv-x="600" 
d="M423 482h140l-71 -337q-10 -34 -4.5 -47t36.5 -11l-17 -87q-30 -7 -58 -9t-56 2.5t-41 24t-6 52.5q-55 -77 -171 -77q-182 0 -134 213l59 276h141l-58 -276q-12 -49 5.5 -76t55.5 -27q43 0 76.5 29t44.5 77zM414 580l-2 -12h-109l-62 104l3 12l131 44z" />
    <glyph glyph-name="uacute" unicode="&#xfa;" horiz-adv-x="600" 
d="M423 482h140l-71 -337q-10 -34 -4.5 -47t36.5 -11l-17 -87q-30 -7 -58 -9t-56 2.5t-41 24t-6 52.5q-55 -77 -171 -77q-182 0 -134 213l59 276h141l-58 -276q-12 -49 5.5 -76t55.5 -27q43 0 76.5 29t44.5 77zM391 568h-107l2 13l102 146l111 -44l-2 -11z" />
    <glyph glyph-name="ucircumflex" unicode="&#xfb;" horiz-adv-x="600" 
d="M423 482h140l-71 -337q-10 -34 -4.5 -47t36.5 -11l-17 -87q-30 -7 -58 -9t-56 2.5t-41 24t-6 52.5q-55 -77 -171 -77q-182 0 -134 213l59 276h141l-58 -276q-12 -49 5.5 -76t55.5 -27q43 0 76.5 29t44.5 77zM550 560h-127l-59 74l-91 -74h-128l3 13l166 141h133l106 -142
z" />
    <glyph glyph-name="udieresis" unicode="&#xfc;" horiz-adv-x="600" 
d="M423 482h140l-71 -337q-10 -34 -4.5 -47t36.5 -11l-17 -87q-30 -7 -58 -9t-56 2.5t-41 24t-6 52.5q-55 -77 -171 -77q-182 0 -134 213l59 276h141l-58 -276q-12 -49 5.5 -76t55.5 -27q43 0 76.5 29t44.5 77zM476 564q-28 0 -46 15.5t-18 41.5q0 36 28 59.5t65 23.5
q29 0 47 -15.5t18 -41.5q0 -36 -28 -59.5t-66 -23.5zM216 564q-28 0 -46 15.5t-18 41.5q0 36 28 59.5t66 23.5q28 0 46.5 -15.5t18.5 -41.5q0 -36 -28 -59.5t-67 -23.5z" />
    <glyph glyph-name="yacute" unicode="&#xfd;" horiz-adv-x="599" 
d="M-18 -209l28 105q40 -24 89 -35t99 -7t90 39t54 98l16 74q-43 -73 -146 -73q-201 0 -149 239l22 107q9 32 0.5 46t-42.5 12q10 54 18 85q54 10 97 8.5t64 -33t8 -90.5l-28 -133q-28 -125 61 -125q27 0 49 13.5t35 30.5t24 46t15.5 46.5t10.5 44.5l41 193h138l-104 -491
q-20 -93 -75.5 -155t-125.5 -83t-146.5 -11.5t-142.5 49.5zM388 558h-114l2 13l108 156l118 -47l-2 -12z" />
    <glyph glyph-name="thorn" unicode="&#xfe;" horiz-adv-x="585" 
d="M545 300q0 -80 -35 -148.5t-91.5 -107t-128 -49t-143.5 26.5l-57 -269h-139l205 966h139l-53 -251q135 51 219 1t84 -169zM401 276q0 72 -56.5 92t-131.5 -20l-43 -206q36 -24 77.5 -26.5t75 14.5t56 55.5t22.5 90.5z" />
    <glyph glyph-name="ydieresis" unicode="&#xff;" horiz-adv-x="599" 
d="M-18 -209l28 105q40 -24 89 -35t99 -7t90 39t54 98l16 74q-43 -73 -146 -73q-201 0 -149 239l22 107q9 32 0.5 46t-42.5 12q10 54 18 85q54 10 97 8.5t64 -33t8 -90.5l-28 -133q-28 -125 61 -125q27 0 49 13.5t35 30.5t24 46t15.5 46.5t10.5 44.5l41 193h138l-104 -491
q-20 -93 -75.5 -155t-125.5 -83t-146.5 -11.5t-142.5 49.5zM498 568q-29 0 -47.5 16t-18.5 43q0 37 28.5 61t67.5 24q29 0 47.5 -16t18.5 -43q0 -37 -28.5 -61t-67.5 -24zM232 568q-29 0 -47.5 16t-18.5 43q0 37 29 61t67 24q30 0 48.5 -16t18.5 -43q0 -37 -28.5 -61
t-68.5 -24z" />
    <glyph glyph-name="Amacron" unicode="&#x100;" 
d="M470 116h-292l-79 -116h-163l4 20l468 686h69l174 -686l-4 -20h-152zM397 476l-144 -234h190zM291 753l23 107h320l-23 -107h-320z" />
    <glyph glyph-name="amacron" unicode="&#x101;" horiz-adv-x="598" 
d="M553 448l-62 -293q-10 -31 -5.5 -46.5t38.5 -13.5l-19 -90q-30 -6 -54.5 -7t-49 4.5t-35 26.5t-3.5 56q-29 -44 -76.5 -68.5t-96.5 -24.5q-106 2 -147 74t-17 181q29 120 118.5 184t212.5 62q101 -1 196 -45zM372 242l31 125q-31 14 -77 14q-58 0 -100.5 -34.5
t-60.5 -99.5q-17 -64 -0.5 -98t71.5 -33q49 0 85 35t51 91zM197 579l23 107h320l-23 -107h-320z" />
    <glyph glyph-name="Abreve" unicode="&#x102;" 
d="M470 116h-292l-79 -116h-163l4 20l468 686h69l174 -686l-4 -20h-152zM397 476l-144 -234h190zM287 929h120q-8 -44 37 -59q45 -14 87 10q31 18 38 49h118q-23 -100 -122 -146q-89 -42 -176 -17q-83 24 -101 95q-8 31 -1 68z" />
    <glyph glyph-name="abreve" unicode="&#x103;" horiz-adv-x="598" 
d="M553 448l-62 -293q-10 -31 -5.5 -46.5t38.5 -13.5l-19 -90q-30 -6 -54.5 -7t-49 4.5t-35 26.5t-3.5 56q-29 -44 -76.5 -68.5t-96.5 -24.5q-106 2 -147 74t-17 181q29 120 118.5 184t212.5 62q101 -1 196 -45zM372 242l31 125q-31 14 -77 14q-58 0 -100.5 -34.5
t-60.5 -99.5q-17 -64 -0.5 -98t71.5 -33q49 0 85 35t51 91zM216 725h110q-9 -42 34 -55t82 12q25 17 31 43h108q-21 -95 -114 -139q-83 -38 -163 -13q-76 23 -89 92q-5 28 1 60z" />
    <glyph glyph-name="Aogonek" unicode="&#x104;" 
d="M390 461l-144 -219h194zM462 116h-291l-79 -116h-156l4 20q91 135 260 382l208 304h69l174 -686l-4 -20q-44 10 -93 -27.5t-34 -77.5q7 -22 30 -25t45 5t45 21v-88q-41 -24 -92.5 -33.5t-96 6t-51.5 60.5q-15 87 91 162z" />
    <glyph glyph-name="aogonek" unicode="&#x105;" horiz-adv-x="598" 
d="M553 448l-62 -293q-10 -31 -5.5 -46.5t38.5 -13.5l-19 -90q-19 -5 -36 -6q-26 -7 -52 -37t-17 -52q7 -17 28 -18t40.5 5.5t38.5 16.5l1 -78q-28 -16 -62.5 -24t-67 -7t-55 19.5t-24.5 53.5q-4 33 27 74.5t67 53.5q-45 18 -30 79q-29 -44 -76.5 -68.5t-96.5 -24.5
q-106 2 -147 74t-17 181q29 120 118.5 184t212.5 62q101 -1 196 -45zM372 242l30 125q-29 14 -76 14q-59 0 -101 -33.5t-60 -100.5q-13 -60 6 -96t71 -35q48 0 81.5 34.5t48.5 91.5z" />
    <glyph glyph-name="Cacute" unicode="&#x106;" horiz-adv-x="757" 
d="M54 349q38 173 160 266t273 93q116 0 194 -64t76 -186h-141q-8 65 -48 89.5t-109 24.5q-97 0 -165 -63.5t-89 -163.5q-21 -92 20 -154t138 -62q136 0 200 126h153q-33 -88 -96.5 -149t-135 -87t-148.5 -26q-148 0 -232 95t-50 261zM556 773h-124l2 13l118 159l129 -48
l-2 -12z" />
    <glyph glyph-name="cacute" unicode="&#x107;" horiz-adv-x="565" 
d="M537 308h-130q-6 66 -92 66q-56 0 -102 -42.5t-52 -113.5q-3 -53 27.5 -80t73.5 -27q77 0 118 74h136q-37 -98 -112.5 -146.5t-170.5 -48.5q-90 0 -151 53t-61 150q0 140 97 222t221 82q87 0 143.5 -49.5t54.5 -139.5zM405 577h-120l3 12l112 142l124 -43l-3 -11z" />
    <glyph glyph-name="Ccircumflex" unicode="&#x108;" horiz-adv-x="757" 
d="M54 349q38 173 160 266t273 93q116 0 194 -64t76 -186h-141q-8 65 -48 89.5t-109 24.5q-97 0 -165 -63.5t-89 -163.5q-21 -92 20 -154t138 -62q136 0 200 126h153q-33 -88 -96.5 -149t-135 -87t-148.5 -26q-148 0 -232 95t-50 261zM711 757h-133l-62 78l-95 -78h-135
l3 14l174 148h140l111 -149z" />
    <glyph glyph-name="ccircumflex" unicode="&#x109;" horiz-adv-x="565" 
d="M537 308h-130q-6 66 -92 66q-56 0 -102 -42.5t-52 -113.5q-3 -53 27.5 -80t73.5 -27q77 0 118 74h136q-37 -98 -112.5 -146.5t-170.5 -48.5q-90 0 -151 53t-61 150q0 140 97 222t221 82q87 0 143.5 -49.5t54.5 -139.5zM534 558h-121l-57 74l-87 -74h-124l3 13l159 141
h128l102 -142z" />
    <glyph glyph-name="Cdotaccent" unicode="&#x10a;" horiz-adv-x="757" 
d="M54 349q38 173 160 266t273 93q116 0 194 -64t76 -186h-141q-8 65 -48 89.5t-109 24.5q-97 0 -165 -63.5t-89 -163.5q-21 -92 20 -154t138 -62q136 0 200 126h153q-33 -88 -96.5 -149t-135 -87t-148.5 -26q-148 0 -232 95t-50 261zM484 763q-31 0 -50.5 17.5t-19.5 46.5
q0 41 31 67.5t72 26.5q31 0 51 -17.5t20 -47.5q0 -41 -31 -67t-73 -26z" />
    <glyph glyph-name="cdotaccent" unicode="&#x10b;" horiz-adv-x="565" 
d="M537 308h-130q-6 66 -92 66q-56 0 -102 -42.5t-52 -113.5q-3 -53 27.5 -80t73.5 -27q77 0 118 74h136q-37 -98 -112.5 -146.5t-170.5 -48.5q-90 0 -151 53t-61 150q0 140 97 222t221 82q87 0 143.5 -49.5t54.5 -139.5zM359 573q-28 0 -45.5 15t-17.5 40q0 35 27.5 58
t64.5 23q28 0 45.5 -15t17.5 -41q0 -34 -28 -57t-64 -23z" />
    <glyph glyph-name="Ccaron" unicode="&#x10c;" horiz-adv-x="757" 
d="M54 349q38 173 160 266t273 93q116 0 194 -64t76 -186h-141q-8 65 -48 89.5t-109 24.5q-97 0 -165 -63.5t-89 -163.5q-21 -92 20 -154t138 -62q136 0 200 126h153q-33 -88 -96.5 -149t-135 -87t-148.5 -26q-148 0 -232 95t-50 261zM324 921h133l59 -77l91 77h135l-3 -13
l-171 -145h-138l-109 145z" />
    <glyph glyph-name="ccaron" unicode="&#x10d;" horiz-adv-x="565" 
d="M537 308h-130q-6 66 -92 66q-56 0 -102 -42.5t-52 -113.5q-3 -53 27.5 -80t73.5 -27q77 0 118 74h136q-37 -98 -112.5 -146.5t-170.5 -48.5q-90 0 -151 53t-61 150q0 140 97 222t221 82q87 0 143.5 -49.5t54.5 -139.5zM169 709h131l58 -76l89 76h133l-3 -13l-168 -143
h-136l-107 143z" />
    <glyph glyph-name="Dcaron" unicode="&#x10e;" horiz-adv-x="730" 
d="M169 699h260q135 0 206 -80.5t71 -200.5q0 -79 -27 -152.5t-78.5 -133.5t-134.5 -96t-186 -36h-260zM198 135h109q107 0 177 79t70 181q0 79 -32 124t-118 45h-115zM227 916h130l57 -74l88 74h131l-2 -12l-166 -141h-135l-106 141z" />
    <glyph glyph-name="dcaron" unicode="&#x10f;" horiz-adv-x="607" 
d="M164 212q-2 -44 17.5 -70t62.5 -26q62 0 100 47.5t42 116.5q2 44 -17.5 73.5t-57.5 29.5q-65 0 -105 -51.5t-42 -119.5zM488 736h130q-21 -99 -61 -290t-62 -291q-9 -31 -4.5 -46.5t37.5 -13.5l-19 -90q-30 -6 -54.5 -7t-49 4.5t-35 26.5t-3.5 56q-29 -44 -76 -68
t-97 -24q-86 0 -129 54t-43 138q0 124 76 219t197 95q110 0 127 -74zM793 650q-3 -16 -12 -31l-64 -125h-77l39 85q-41 14 -41 59q0 39 27.5 64.5t66.5 25.5q26 0 43 -14t20 -38q1 -9 -2 -26z" />
    <glyph glyph-name="Dcroat" unicode="&#x110;" horiz-adv-x="737" 
d="M14 286l25 117h76l63 296h260q135 0 206 -80.5t71 -200.5q0 -77 -30.5 -152t-84.5 -134t-135.5 -95.5t-175.5 -36.5h-260l61 286h-76zM207 135h109q107 0 177.5 79.5t70.5 180.5q0 72 -40.5 120.5t-116.5 48.5h-109l-34 -161h112l-25 -117h-112z" />
    <glyph glyph-name="dcroat" unicode="&#x111;" horiz-adv-x="606" 
d="M486 736h130l-17 -78h75l-18 -86h-74l-89 -417q-10 -31 -5.5 -46.5t38.5 -13.5l-19 -90q-30 -6 -54.5 -7t-49 4.5t-35 26.5t-3.5 56q-29 -44 -76.5 -68.5t-96.5 -24.5q-106 2 -147 74t-17 181q22 105 93 178.5t172 73.5q107 0 127 -74l31 147h-105l18 86h105zM160 212
q-3 -44 16.5 -70t62.5 -26q62 0 101.5 49.5t43.5 117.5q2 45 -16.5 72.5t-57.5 27.5q-66 0 -106 -51t-44 -120z" />
    <glyph glyph-name="Emacron" unicode="&#x112;" horiz-adv-x="571" 
d="M598 700l-28 -131h-278l-30 -142h260q-4 -14 -28 -131h-260l-34 -160h286l-29 -136h-437q103 492 149 700h429zM248 767l23 107h320l-23 -107h-320z" />
    <glyph glyph-name="emacron" unicode="&#x113;" horiz-adv-x="544" 
d="M457 138l-18 -108q-67 -35 -181 -40q-111 -4 -176.5 48.5t-61.5 152.5q3 74 30 133t70.5 95t95.5 55t109 21q43 1 80.5 -7.5t68 -27t42.5 -52.5t1 -79q-17 -69 -78.5 -107.5t-133.5 -40.5q-92 -5 -148 31q-11 -59 26.5 -86t107.5 -25q80 0 166 37zM184 301
q15 -11 48.5 -19t64.5 -6q73 2 86 53q7 30 -17 44t-58 14q-88 -5 -124 -86zM192 574l23 107h320l-23 -107h-320z" />
    <glyph glyph-name="Ebreve" unicode="&#x114;" horiz-adv-x="571" 
d="M598 700l-28 -131h-278l-30 -142h260q-4 -14 -28 -131h-260l-34 -160h286l-29 -136h-437q103 492 149 700h429zM232 926h115q-8 -43 36 -56q44 -14 84 12q26 17 33 44h112q-21 -97 -117 -142q-85 -39 -168 -15q-79 24 -95 92q-7 30 0 65z" />
    <glyph glyph-name="ebreve" unicode="&#x115;" horiz-adv-x="544" 
d="M457 138l-18 -108q-67 -35 -181 -40q-111 -4 -176.5 48.5t-61.5 152.5q3 74 30 133t70.5 95t95.5 55t109 21q43 1 80.5 -7.5t68 -27t42.5 -52.5t1 -79q-17 -69 -78.5 -107.5t-133.5 -40.5q-92 -5 -148 31q-11 -59 26.5 -86t107.5 -25q80 0 166 37zM184 301
q15 -11 48.5 -19t64.5 -6q73 2 86 53q7 30 -17 44t-58 14q-88 -5 -124 -86zM199 707h107q-6 -40 36 -52q42 -13 80 12q23 15 29 40h106q-20 -91 -112 -132q-82 -37 -161 -12q-75 24 -87 90q-4 25 2 54z" />
    <glyph glyph-name="Edotaccent" unicode="&#x116;" horiz-adv-x="571" 
d="M598 700l-28 -131h-278l-30 -142h260q-4 -14 -28 -131h-260l-34 -160h286l-29 -136h-437q103 492 149 700h429zM404 762q-30 0 -49 17t-19 45q0 39 30 65t70 26q30 0 49.5 -17t19.5 -46q0 -39 -30.5 -64.5t-70.5 -25.5z" />
    <glyph glyph-name="edotaccent" unicode="&#x117;" horiz-adv-x="544" 
d="M457 138l-18 -108q-67 -35 -181 -40q-111 -4 -176.5 48.5t-61.5 152.5q3 74 30 133t70.5 95t95.5 55t109 21q43 1 80.5 -7.5t68 -27t42.5 -52.5t1 -79q-17 -69 -78.5 -107.5t-133.5 -40.5q-92 -5 -148 31q-11 -59 26.5 -86t107.5 -25q80 0 166 37zM184 301
q15 -11 48.5 -19t64.5 -6q73 2 86 53q7 30 -17 44t-58 14q-88 -5 -124 -86zM344 565q-30 0 -49 16t-19 42q0 36 30 60t70 24q30 0 49 -16t19 -43q0 -35 -30.5 -59t-69.5 -24z" />
    <glyph glyph-name="Eogonek" unicode="&#x118;" horiz-adv-x="567" 
d="M594 700l-28 -131h-274l-30 -142h256l-28 -131h-256l-34 -160h282l-29 -136h-95q-34 -18 -54 -50t-12 -57q7 -22 33 -24t49.5 6.5t49.5 21.5v-88q-33 -19 -73 -30t-78.5 -10.5t-65.5 21.5t-30 63q-2 41 22 80.5t64 66.5h-243l149 700h425z" />
    <glyph glyph-name="eogonek" unicode="&#x119;" horiz-adv-x="543" 
d="M456 138l-18 -108q-25 -13 -71 -26q-30 -19 -47.5 -45t-9.5 -48q7 -20 30.5 -22.5t46.5 5.5t45 21l-1 -82q-40 -24 -90 -31.5t-90.5 12t-44.5 67.5q-6 54 56 109h-5q-112 0 -174 48.5t-62 146.5q0 72 27 131.5t71.5 97t98 58.5t110.5 23q43 1 80 -7.5t66.5 -27t41 -52.5
t0.5 -79q-17 -69 -78.5 -107.5t-133.5 -40.5q-92 -5 -148 31q-11 -59 26.5 -86t107.5 -25q80 0 166 37zM183 301q15 -11 48.5 -19t64.5 -6q73 2 86 53q7 30 -17 44t-58 14q-88 -5 -124 -86z" />
    <glyph glyph-name="Ecaron" unicode="&#x11a;" horiz-adv-x="571" 
d="M598 700l-28 -131h-278l-30 -142h260q-4 -14 -28 -131h-260l-34 -160h286l-29 -136h-437q103 492 149 700h429zM226 915h131l58 -76l89 76h133l-3 -13l-168 -143h-136l-107 143z" />
    <glyph glyph-name="ecaron" unicode="&#x11b;" horiz-adv-x="544" 
d="M457 138l-18 -108q-67 -35 -181 -40q-111 -4 -176.5 48.5t-61.5 152.5q3 74 30 133t70.5 95t95.5 55t109 21q43 1 80.5 -7.5t68 -27t42.5 -52.5t1 -79q-17 -69 -78.5 -107.5t-133.5 -40.5q-92 -5 -148 31q-11 -59 26.5 -86t107.5 -25q80 0 166 37zM184 301
q15 -11 48.5 -19t64.5 -6q73 2 86 53q7 30 -17 44t-58 14q-88 -5 -124 -86zM166 710h127l55 -73l86 73h128l-2 -12l-162 -139h-131l-104 139z" />
    <glyph glyph-name="Gcircumflex" unicode="&#x11c;" horiz-adv-x="765" 
d="M54 350q37 171 158 265t275 94q113 0 189 -57.5t80 -172.5h-150q-11 54 -47.5 75.5t-100.5 21.5q-97 0 -160.5 -64t-92.5 -165q-25 -97 15.5 -158.5t142.5 -61.5q76 0 128 31.5t92 111.5h-184l24 117h328q-19 -119 -63 -196q-60 -105 -146 -152.5t-208 -47.5
q-147 0 -230.5 96t-49.5 263zM697 762h-133l-62 78l-95 -78h-135l3 14l174 148h140l111 -149z" />
    <glyph glyph-name="gcircumflex" unicode="&#x11d;" horiz-adv-x="580" 
d="M372 242l29 121q-38 15 -77 15q-57 0 -99 -34t-59 -102q-33 -133 78 -133q46 0 81.5 42.5t46.5 90.5zM-31 -209l35 103q41 -23 88.5 -33.5t96 -6.5t86.5 39t51 98l16 78q-48 -78 -157 -78q-85 0 -135 64.5t-24 185.5q19 88 71 146.5t118 83t143 22.5q97 -1 194 -45
l-97 -457q-20 -94 -74.5 -155.5t-124 -82.5t-145.5 -11.5t-142 49.5zM550 551h-125l-58 78l-89 -78h-126l3 14l163 148h131l104 -149z" />
    <glyph glyph-name="Gbreve" unicode="&#x11e;" horiz-adv-x="765" 
d="M54 350q37 171 158 265t275 94q113 0 189 -57.5t80 -172.5h-150q-11 54 -47.5 75.5t-100.5 21.5q-97 0 -160.5 -64t-92.5 -165q-25 -97 15.5 -158.5t142.5 -61.5q76 0 128 31.5t92 111.5h-184l24 117h328q-19 -119 -63 -196q-60 -105 -146 -152.5t-208 -47.5
q-147 0 -230.5 96t-49.5 263zM319 937h123q-8 -44 37 -59q46 -15 90 10q30 19 38 49h121q-22 -102 -124 -149q-89 -42 -179 -18q-85 22 -105 93q-9 34 -1 74z" />
    <glyph glyph-name="gbreve" unicode="&#x11f;" horiz-adv-x="580" 
d="M372 242l29 121q-38 15 -77 15q-57 0 -99 -34t-59 -102q-33 -133 78 -133q46 0 81.5 42.5t46.5 90.5zM-31 -209l35 103q41 -23 88.5 -33.5t96 -6.5t86.5 39t51 98l16 78q-48 -78 -157 -78q-85 0 -135 64.5t-24 185.5q19 88 71 146.5t118 83t143 22.5q97 -1 194 -45
l-97 -457q-20 -94 -74.5 -155.5t-124 -82.5t-145.5 -11.5t-142 49.5zM197 708h114q-8 -43 36 -57q43 -13 83 12q27 17 34 45h112q-21 -97 -116 -142q-85 -39 -168 -15q-79 23 -95 92q-7 30 0 65z" />
    <glyph glyph-name="Gdotaccent" unicode="&#x120;" horiz-adv-x="765" 
d="M54 350q37 171 158 265t275 94q113 0 189 -57.5t80 -172.5h-150q-11 54 -47.5 75.5t-100.5 21.5q-97 0 -160.5 -64t-92.5 -165q-25 -97 15.5 -158.5t142.5 -61.5q76 0 128 31.5t92 111.5h-184l24 117h328q-19 -119 -63 -196q-60 -105 -146 -152.5t-208 -47.5
q-147 0 -230.5 96t-49.5 263zM486 771q-31 0 -50.5 16.5t-19.5 43.5q0 38 31 63t72 25q31 0 51 -17t20 -44q0 -38 -31 -62.5t-73 -24.5z" />
    <glyph glyph-name="gdotaccent" unicode="&#x121;" horiz-adv-x="580" 
d="M372 242l29 121q-38 15 -77 15q-57 0 -99 -34t-59 -102q-33 -133 78 -133q46 0 81.5 42.5t46.5 90.5zM-31 -209l35 103q41 -23 88.5 -33.5t96 -6.5t86.5 39t51 98l16 78q-48 -78 -157 -78q-85 0 -135 64.5t-24 185.5q19 88 71 146.5t118 83t143 22.5q97 -1 194 -45
l-97 -457q-20 -94 -74.5 -155.5t-124 -82.5t-145.5 -11.5t-142 49.5zM361 564q-28 0 -46 16t-18 43q0 38 28 62t66 24q28 0 46.5 -16.5t18.5 -43.5q0 -37 -28.5 -61t-66.5 -24z" />
    <glyph glyph-name="Gcommaaccent" unicode="&#x122;" horiz-adv-x="765" 
d="M410 -120q0 -21 -16 -46l-64 -111h-81l39 71q-43 13 -43 59q0 39 29 64t69 25q27 0 45 -14t21 -37q0 -1 0.5 -5t0.5 -6zM54 350q37 171 158 265t275 94q113 0 189 -57.5t80 -172.5h-150q-11 54 -47.5 75.5t-100.5 21.5q-97 0 -160.5 -64t-92.5 -165q-25 -97 15.5 -158.5
t142.5 -61.5q76 0 128 31.5t92 111.5h-184l24 117h328q-19 -119 -63 -196q-60 -105 -146 -152.5t-208 -47.5q-147 0 -230.5 96t-49.5 263z" />
    <glyph glyph-name="gcommaaccent" unicode="&#x123;" horiz-adv-x="580" 
d="M372 242l29 121q-38 15 -77 15q-57 0 -99 -34t-59 -102q-33 -133 78 -133q46 0 81.5 42.5t46.5 90.5zM-31 -209l35 103q41 -23 88.5 -33.5t96 -6.5t86.5 39t51 98l16 78q-48 -78 -157 -78q-85 0 -135 64.5t-24 185.5q19 88 71 146.5t118 83t143 22.5q97 -1 194 -45
l-97 -457q-20 -94 -74.5 -155.5t-124 -82.5t-145.5 -11.5t-142 49.5zM299 623q4 12 13 26l65 105h78l-39 -71q42 -12 42 -50q0 -33 -28.5 -54.5t-67.5 -21.5q-27 0 -44.5 11.5t-19.5 31.5q-2 14 1 23z" />
    <glyph glyph-name="Hcircumflex" unicode="&#x124;" horiz-adv-x="729" 
d="M587 0h-150l63 296h-268l-63 -296h-149l149 700h149l-57 -267h268l57 267h150zM674 769h-133l-62 78l-95 -78h-135l3 14l174 148h140l111 -149z" />
    <glyph glyph-name="hcircumflex" unicode="&#x125;" horiz-adv-x="611" 
d="M202 276l-59 -277h-140l156 732h140l-65 -308q63 73 172 68q139 -7 139 -143q0 -30 -11 -82l-28 -129q-7 -33 1 -42.5t43 -7.5l-18 -84q-97 -19 -141.5 9t-25.5 118l19 92q15 73 15 91q0 35 -16 52t-56 17q-43 0 -78.5 -28.5t-46.5 -77.5zM612 770h-128l-59 77l-92 -77
h-130l3 14l168 146h134l107 -147z" />
    <glyph glyph-name="Hbar" unicode="&#x126;" horiz-adv-x="739" 
d="M76 518l20 95h60l19 87h149l-19 -87h268l19 87h150l-19 -87h62l-20 -95h-62l-110 -518h-150l60 280h-268l-60 -280h-149l110 518h-60zM264 417h268l21 101h-268z" />
    <glyph glyph-name="hbar" unicode="&#x127;" horiz-adv-x="611" 
d="M202 276l-59 -276h-140l121 568h-60l18 86h60l16 77h140l-16 -77h82l-18 -86h-82l-32 -151q68 79 173 74q140 -7 140 -143q0 -30 -11 -82l-28 -129q-7 -33 0.5 -42.5t42.5 -7.5l-17 -84q-97 -19 -141.5 9t-25.5 118l19 92q15 73 15 91q0 35 -16 52t-56 17
q-43 0 -78.5 -28.5t-46.5 -77.5z" />
    <glyph glyph-name="Itilde" unicode="&#x128;" horiz-adv-x="438" 
d="M258 119h99q-5 -24 -12 -59t-13 -60h-348q6 25 13 60t12 59h99l99 465h-91q6 24 13 58t12 58h332q-6 -24 -13 -58t-12 -58h-91zM208 766q-4 2 -29 16t-39 20q95 154 217 86q21 -12 35 -17.5t35 0t36 30.5l66 -34q-34 -69 -93.5 -95.5t-113.5 4.5q-17 10 -28 15t-27 8.5
t-31 -5t-28 -28.5z" />
    <glyph glyph-name="itilde" unicode="&#x129;" horiz-adv-x="269" 
d="M245 482l-102 -482h-139l102 482h139zM79 579l-28 17.5t-31 18.5q84 153 190 84q63 -44 92 13l58 -34q-30 -67 -81.5 -93t-99.5 4q-19 14 -32.5 20t-32.5 1t-35 -31z" />
    <glyph glyph-name="Imacron" unicode="&#x12a;" horiz-adv-x="438" 
d="M258 119h99q-5 -24 -12 -59t-13 -60h-348q6 25 13 60t12 59h99l99 465h-91q6 24 13 58t12 58h332q-6 -24 -13 -58t-12 -58h-91zM160 768l23 107h320l-23 -107h-320z" />
    <glyph glyph-name="imacron" unicode="&#x12b;" horiz-adv-x="269" 
d="M245 482l-102 -482h-139l102 482h139zM36 567l19 110h266l-19 -110h-266z" />
    <glyph glyph-name="Ibreve" unicode="&#x12c;" horiz-adv-x="438" 
d="M258 119h99q-5 -24 -12 -59t-13 -60h-348q6 25 13 60t12 59h99l99 465h-91q6 24 13 58t12 58h332q-6 -24 -13 -58t-12 -58h-91zM147 927h116q-8 -45 36 -59q44 -13 85 13q27 18 35 46h114q-21 -101 -118 -148q-86 -41 -171 -17q-80 24 -97 94q-8 32 0 71z" />
    <glyph glyph-name="ibreve" unicode="&#x12d;" horiz-adv-x="269" 
d="M245 482l-102 -482h-139l102 482h139zM35 709h101q-7 -44 35 -57q40 -13 74 14q22 17 27 43h99q-18 -97 -105 -141q-76 -37 -149 -12t-84 98q-4 25 2 55z" />
    <glyph glyph-name="Iogonek" unicode="&#x12e;" horiz-adv-x="440" 
d="M260 122h99l-26 -122h-118q-32 -19 -53 -50.5t-11 -56.5q7 -22 33 -24t50 6.5t49 21.5v-88q-33 -19 -75 -29t-81.5 -9t-67 22t-29.5 60q-2 36 25 77.5t66 69.5h-136l26 122h99l97 457h-91l26 121h332l-26 -121h-91z" />
    <glyph glyph-name="iogonek" unicode="&#x12f;" horiz-adv-x="270" 
d="M123 605q0 43 30.5 68.5t67.5 25.5q30 1 50 -15t20 -47q0 -43 -30.5 -68t-67.5 -25q-30 0 -50 15.5t-20 45.5zM246 476l-102 -476h-50q-30 -20 -48 -49t-10 -54q7 -22 33.5 -24.5t51 6.5t47.5 22l1 -89q-42 -25 -97.5 -32.5t-100 13.5t-45.5 71q-4 35 20.5 75t58.5 63
l101 474h140z" />
    <glyph glyph-name="Idotaccent" unicode="&#x130;" horiz-adv-x="438" 
d="M258 119h99q-5 -24 -12 -59t-13 -60h-348q6 25 13 60t12 59h99l99 465h-91q6 24 13 58t12 58h332q-6 -24 -13 -58t-12 -58h-91zM322 768q-33 0 -53.5 17t-20.5 46q0 39 33 65.5t76 26.5q33 0 53.5 -17.5t20.5 -46.5q0 -39 -33 -65t-76 -26z" />
    <glyph glyph-name="dotlessi" unicode="&#x131;" horiz-adv-x="269" 
d="M245 482l-102 -482h-139l102 482h139z" />
    <glyph glyph-name="IJ" unicode="&#x132;" horiz-adv-x="1059" 
d="M258 119h99q-5 -24 -12 -59t-13 -60h-348q6 25 13 60t12 59h99l99 465h-91q6 24 13 58t12 58h332q-6 -24 -13 -58t-12 -58h-91zM1072 700l-99 -468q-25 -116 -106.5 -179t-213.5 -63q-112 0 -172 65.5t-37 176.5l18 85h138l-17 -82q-12 -55 15.5 -83.5t82.5 -28.5
q54 0 92 29t50 83l71 336h-124l27 129h275z" />
    <glyph glyph-name="ij" unicode="&#x133;" horiz-adv-x="536" 
d="M121 605q0 43 31 69.5t69 26.5q29 0 48.5 -16.5t19.5 -47.5q0 -44 -30 -69t-70 -25q-29 -1 -48.5 15t-19.5 47zM244 476l-101 -476h-140l101 476h140zM375 480h138l-115 -537q-27 -127 -98 -171.5t-183 -23.5l26 104q57 -8 81.5 13t36.5 80zM390 605q0 43 31 69.5
t70 26.5q29 0 48.5 -16.5t19.5 -47.5q0 -44 -30 -69t-70 -25q-29 -1 -49 15t-20 47z" />
    <glyph glyph-name="Jcircumflex" unicode="&#x134;" horiz-adv-x="627" 
d="M640 700l-99 -468q-25 -116 -106.5 -179t-213.5 -63q-112 0 -172 65.5t-37 176.5l18 85h138l-17 -82q-12 -55 15.5 -83.5t82.5 -28.5q54 0 92 29t50 83l71 336h-124l27 129h275zM703 768h-126l-58 79l-89 -79h-127l2 14l164 150h132l104 -151z" />
    <glyph glyph-name="jcircumflex" unicode="&#x135;" horiz-adv-x="267" 
d="M106 480h138l-115 -537q-27 -127 -98 -171.5t-183 -23.5l26 104q57 -8 81.5 13t36.5 80zM359 543h-113l-53 83l-80 -83h-115l3 14l148 158h118l94 -159z" />
    <glyph glyph-name="Kcommaaccent" unicode="&#x136;" 
d="M377 -105q0 -21 -16 -46l-64 -111h-81l39 71q-43 13 -43 59q0 39 29 64t69 25q27 0 45 -14t21 -37q0 -2 0.5 -6t0.5 -5zM318 700l-62 -289q88 0 115 13q28 14 49.5 48t53.5 104q33 73 102 109t172 14l-22 -102q-42 4 -68.5 -11t-46.5 -54q-65 -134 -127 -186l145 -324
l-5 -22h-160l-118 290q-29 -9 -117 -9l-60 -281h-149l149 700h149z" />
    <glyph glyph-name="kcommaaccent" unicode="&#x137;" horiz-adv-x="558" 
d="M277 -103v-11q0 -21 -14 -43l-60 -105h-77l37 67q-41 14 -41 56q0 37 27 60.5t66 23.5q26 0 42.5 -13t19.5 -35zM207 305h34q77 0 117.5 47.5t58.5 130.5h132q-16 -84 -53 -142.5t-112 -95.5l89 -230l-3 -14h-141l-72 200q-19 -6 -42 -6h-32l-41 -194h-139l155 730h139z
" />
    <glyph glyph-name="kgreenlandic" unicode="&#x138;" horiz-adv-x="553" 
d="M201 297h34q76 0 114.5 48.5t59.5 137.5h135q-35 -184 -166 -246l89 -223l-3 -14h-152l-66 193q-20 -6 -68 -6l-40 -187h-139l102 482h139z" />
    <glyph glyph-name="Lacute" unicode="&#x139;" horiz-adv-x="533" 
d="M319 700l-121 -566h292q-5 -24 -14 -67t-14 -67h-442l149 700h150zM299 762h-114l2 13l108 156l118 -47l-2 -12z" />
    <glyph glyph-name="lacute" unicode="&#x13a;" horiz-adv-x="306" 
d="M154 732h138l-117 -549q-12 -54 6.5 -70.5t72.5 -7.5l-17 -105q-123 -21 -174.5 19t-25.5 164zM278 779h-106l2 12l100 144l109 -43l-2 -11z" />
    <glyph glyph-name="Lcommaaccent" unicode="&#x13b;" horiz-adv-x="533" 
d="M303 -117q0 -21 -16 -46l-64 -111h-81l39 71q-43 13 -43 59q0 39 29 64t69 25q27 0 45 -14t21 -37q0 -2 0.5 -6t0.5 -5zM319 700l-121 -566h292q-5 -24 -14 -67t-14 -67h-442l149 700h150z" />
    <glyph glyph-name="lcommaaccent" unicode="&#x13c;" horiz-adv-x="306" 
d="M174 -113v-11q0 -8 -0.5 -14t-2.5 -10.5t-3.5 -7t-4.5 -6.5t-4 -6l-61 -107h-78l38 68q-42 13 -42 57q0 37 28.5 61.5t65.5 24.5q27 0 44 -13t20 -36zM154 732h138l-117 -549q-12 -54 6.5 -70.5t72.5 -7.5l-17 -105q-123 -21 -174.5 19t-25.5 164z" />
    <glyph glyph-name="Lcaron" unicode="&#x13d;" horiz-adv-x="537" 
d="M319 700l-121 -566h292q-5 -24 -14 -67t-14 -67h-442l149 700h150zM562 626q-3 -16 -12 -29l-65 -121h-78l40 81q-42 13 -42 58q0 38 27.5 62t67.5 24q26 0 43.5 -13.5t20.5 -36.5q1 -9 -2 -25z" />
    <glyph glyph-name="lcaron" unicode="&#x13e;" horiz-adv-x="306" 
d="M154 732h138l-117 -549q-12 -54 6.5 -70.5t72.5 -7.5l-17 -105q-123 -21 -174.5 19t-25.5 164zM475 656q-3 -16 -12 -29l-64 -119h-78l40 80q-42 13 -42 57q0 37 27.5 61t67.5 24q25 0 43 -13.5t20 -35.5q1 -10 -2 -25z" />
    <glyph glyph-name="Ldot" unicode="&#x13f;" horiz-adv-x="533" 
d="M319 700l-121 -566h292q-5 -24 -14 -67t-14 -67h-442l149 700h150zM395 302q-28 0 -45.5 17t-17.5 46q0 39 28 65t66 26q28 0 46 -17t18 -46q0 -38 -28.5 -64.5t-66.5 -26.5z" />
    <glyph glyph-name="ldot" unicode="&#x140;" horiz-adv-x="405" 
d="M154 732h138l-117 -549q-12 -54 6.5 -70.5t72.5 -7.5l-17 -105q-123 -21 -174.5 19t-25.5 164zM335 301q-27 0 -43.5 17t-16.5 45q0 39 26.5 64.5t63.5 25.5q27 0 44 -16.5t17 -45.5q0 -38 -27 -64t-64 -26z" />
    <glyph glyph-name="Lslash" unicode="&#x141;" horiz-adv-x="538" 
d="M325 700l-60 -282l106 28l-25 -120l-106 -28l-35 -164h276l-29 -134h-426l55 257l-72 -19l26 120l72 19l68 323h150z" />
    <glyph glyph-name="lslash" unicode="&#x142;" horiz-adv-x="333" 
d="M178 731h138l-67 -316l88 23l-26 -120l-88 -23l-23 -108q-12 -57 6 -76.5t72 -11.5l-18 -106q-128 -22 -178 15.5t-22 165.5l18 83l-75 -20l26 120l74 20z" />
    <glyph glyph-name="Nacute" unicode="&#x143;" horiz-adv-x="753" 
d="M572 -2l-317 409l-86 -407h-149l149 703h41l312 -408l87 405h150l-149 -702h-38zM488 746h-121l2 13l114 158l125 -48l-2 -12z" />
    <glyph glyph-name="nacute" unicode="&#x144;" horiz-adv-x="628" 
d="M52 402l18 82q40 5 81 7.5t68 -17.5t19 -63q62 82 170 82q97 0 132 -58.5t13 -154.5l-28 -131q-11 -34 -4.5 -50t41.5 -14l-17 -82q-40 -10 -72 -10t-58 10t-36.5 37.5t-0.5 70.5l36 169q11 48 -10.5 75.5t-61.5 27.5q-41 0 -77 -28.5t-46 -77.5l-59 -277h-140l71 333
q11 40 5 55.5t-44 13.5zM418 575h-117l2 12l111 142l121 -43l-2 -11z" />
    <glyph glyph-name="Ncommaaccent" unicode="&#x145;" horiz-adv-x="753" 
d="M406 -110q0 -21 -16 -46l-64 -111h-81l39 71q-43 13 -43 59q0 39 29 64t69 25q27 0 45 -14t21 -37q0 -1 0.5 -5t0.5 -6zM572 -2l-317 409l-86 -407h-149l149 703h41l312 -408l87 405h150l-149 -702h-38z" />
    <glyph glyph-name="ncommaaccent" unicode="&#x146;" horiz-adv-x="628" 
d="M331 -113q0 -19 -15 -43l-60 -106h-78l37 68q-41 14 -41 56q0 37 27.5 61t65.5 24q56 0 64 -49v-11zM52 402l18 82q40 5 81 7.5t68 -17.5t19 -63q62 82 170 82q97 0 132 -58.5t13 -154.5l-28 -131q-11 -34 -4.5 -50t41.5 -14l-17 -82q-40 -10 -72 -10t-58 10t-36.5 37.5
t-0.5 70.5l36 169q11 48 -10.5 75.5t-61.5 27.5q-41 0 -77 -28.5t-46 -77.5l-59 -277h-140l71 333q11 40 5 55.5t-44 13.5z" />
    <glyph glyph-name="Ncaron" unicode="&#x147;" horiz-adv-x="753" 
d="M572 -2l-317 409l-86 -407h-149l149 703h41l312 -408l87 405h150l-149 -702h-38zM271 909h136l60 -78l92 78h138l-3 -13l-174 -148h-141l-111 148z" />
    <glyph glyph-name="ncaron" unicode="&#x148;" horiz-adv-x="628" 
d="M52 402l18 82q40 5 81 7.5t68 -17.5t19 -63q62 82 170 82q97 0 132 -58.5t13 -154.5l-28 -131q-11 -34 -4.5 -50t41.5 -14l-17 -82q-40 -10 -72 -10t-58 10t-36.5 37.5t-0.5 70.5l36 169q11 48 -10.5 75.5t-61.5 27.5q-41 0 -77 -28.5t-46 -77.5l-59 -277h-140l71 333
q11 40 5 55.5t-44 13.5zM178 722h132l59 -76l89 76h135l-3 -13l-170 -144h-137l-108 144z" />
    <glyph glyph-name="napostrophe" unicode="&#x149;" horiz-adv-x="628" 
d="M52 402l18 82q40 5 81 7.5t68 -17.5t19 -63q62 82 170 82q97 0 132 -58.5t13 -154.5l-28 -131q-11 -34 -4.5 -50t41.5 -14l-17 -82q-40 -10 -72 -10t-58 10t-36.5 37.5t-0.5 70.5l36 169q11 48 -10.5 75.5t-61.5 27.5q-41 0 -77 -28.5t-46 -77.5l-59 -277h-140l71 333
q11 40 5 55.5t-44 13.5z" />
    <glyph glyph-name="Eng" unicode="&#x14a;" horiz-adv-x="752" 
d="M345 -190l25 101q55 -8 79.5 12.5t36.5 79.5l15 74l-243 344l-89 -421h-149l149 703h47l307 -408l86 405h149l-148 -698q-27 -124 -92 -168.5t-173 -23.5z" />
    <glyph glyph-name="eng" unicode="&#x14b;" horiz-adv-x="598" 
d="M546 279l-61 -289q-51 -234 -279 -191q2 6 10.5 40.5t13.5 53.5q56 -8 80 15.5t37 83.5l62 287q11 48 -9.5 75t-60.5 28q-43 1 -78 -28t-46 -78l-59 -276h-140l72 338q12 36 7.5 53t-39.5 15l17 77q38 6 78.5 8.5t68.5 -16.5t21 -57l-2 -10q28 40 74 62.5t92 22.5
q97 0 130 -58.5t11 -155.5z" />
    <glyph glyph-name="Omacron" unicode="&#x14c;" horiz-adv-x="806" 
d="M783 424q0 -199 -126.5 -317.5t-319.5 -118.5q-126 0 -207.5 75.5t-81.5 211.5q0 134 65 235.5t165 151t216 49.5q125 0 207 -76t82 -211zM205 341q-17 -94 24 -155t139 -61q105 0 184 73.5t79 201.5q0 83 -46.5 128t-119.5 45q-93 0 -168 -62t-92 -170zM337 773l23 107
h320l-23 -107h-320z" />
    <glyph glyph-name="omacron" unicode="&#x14d;" horiz-adv-x="587" 
d="M546 294q0 -74 -28 -134t-74 -96t-101.5 -55t-114.5 -19q-87 0 -147 53.5t-60 148.5q0 72 28.5 131.5t75 96.5t102.5 56.5t113 19.5q87 0 146.5 -53.5t59.5 -148.5zM161 221q-4 -48 20.5 -76t63.5 -30q55 -4 104.5 37t55.5 113q4 48 -20 76t-64 30q-57 2 -105.5 -37
t-54.5 -113zM189 571l23 107h320l-23 -107h-320z" />
    <glyph glyph-name="Obreve" unicode="&#x14e;" horiz-adv-x="806" 
d="M783 424q0 -199 -126.5 -317.5t-319.5 -118.5q-126 0 -207.5 75.5t-81.5 211.5q0 134 65 235.5t165 151t216 49.5q125 0 207 -76t82 -211zM205 341q-17 -94 24 -155t139 -61q105 0 184 73.5t79 201.5q0 83 -46.5 128t-119.5 45q-93 0 -168 -62t-92 -170zM339 941h123
q-8 -44 37 -59q46 -15 90 10q30 19 38 49h121q-22 -102 -124 -149q-89 -42 -179 -18q-85 22 -105 93q-9 34 -1 74z" />
    <glyph glyph-name="obreve" unicode="&#x14f;" horiz-adv-x="587" 
d="M546 294q0 -74 -28 -134t-74 -96t-101.5 -55t-114.5 -19q-87 0 -147 53.5t-60 148.5q0 72 28.5 131.5t75 96.5t102.5 56.5t113 19.5q87 0 146.5 -53.5t59.5 -148.5zM161 221q-4 -48 20.5 -76t63.5 -30q55 -4 104.5 37t55.5 113q4 48 -20 76t-64 30q-57 2 -105.5 -37
t-54.5 -113zM192 717h116q-8 -43 36.5 -56.5t85.5 12.5q27 17 34 44h114q-21 -96 -118 -141q-86 -40 -171 -16q-81 23 -97 92q-7 29 0 65z" />
    <glyph glyph-name="Ohungarumlaut" unicode="&#x150;" horiz-adv-x="806" 
d="M319 763l3 12l87 150l119 -28l-2 -11l-97 -123h-110zM535 763l3 12l84 139l117 -34l-3 -12l-92 -105h-109zM783 424q0 -199 -126.5 -317.5t-319.5 -118.5q-126 0 -207.5 75.5t-81.5 211.5q0 134 65 235.5t165 151t216 49.5q125 0 207 -76t82 -211zM205 341
q-17 -94 24 -155t139 -61q105 0 184 73.5t79 201.5q0 83 -46.5 128t-119.5 45q-93 0 -168 -62t-92 -170z" />
    <glyph glyph-name="ohungarumlaut" unicode="&#x151;" horiz-adv-x="587" 
d="M176 562l3 12l87 150l119 -28l-2 -11l-97 -123h-110zM392 562l3 12l84 139l117 -34l-3 -12l-92 -105h-109zM546 294q0 -74 -28 -134t-74 -96t-101.5 -55t-114.5 -19q-87 0 -147 53.5t-60 148.5q0 72 28.5 131.5t75 96.5t102.5 56.5t113 19.5q87 0 146.5 -53.5
t59.5 -148.5zM161 221q-4 -48 20.5 -76t63.5 -30q55 -4 104.5 37t55.5 113q4 48 -20 76t-64 30q-57 2 -105.5 -37t-54.5 -113z" />
    <glyph glyph-name="OE" unicode="&#x152;" horiz-adv-x="925" 
d="M813 0h-377q-56 -12 -106 -12q-126 0 -204 74.5t-78 207.5q0 83 24.5 154.5t67 123t99 88.5t121 55.5t132.5 18.5q50 0 96 -12h363q-20 -99 -27 -126h-259l-32 -150h242l-25 -118h-242l-38 -180h269zM195 293q0 -86 46.5 -135.5t127.5 -49.5q37 0 74 11l96 454
q-34 12 -70 12q-119 0 -196.5 -79t-77.5 -213z" />
    <glyph glyph-name="oe" unicode="&#x153;" horiz-adv-x="834" 
d="M746 136l-18 -109q-76 -40 -165 -40q-128 0 -174 94q-77 -93 -187 -93q-77 0 -129 51.5t-52 144.5q0 73 26.5 134t69 98.5t93.5 58t102 20.5t95 -25t55 -70q67 90 176 95q39 1 72 -7t60 -28t36 -52.5t0 -79.5q-17 -70 -73.5 -108.5t-122.5 -40.5q-84 -5 -134 31
q-11 -58 26.5 -86t93.5 -25q77 2 150 37zM147 211q0 -49 25 -75t63 -26q55 0 98 43.5t43 117.5q0 49 -25.5 74.5t-63.5 25.5q-54 0 -97 -44t-43 -116zM502 300q15 -10 45 -18.5t58 -6.5q65 2 78 53q7 30 -14 44t-52 14q-79 -5 -115 -86z" />
    <glyph glyph-name="Racute" unicode="&#x154;" horiz-adv-x="689" 
d="M495 255l108 -234l-4 -21h-155l-95 232h-130l-49 -232h-150l149 701h299q114 0 164.5 -72t31.5 -168q-10 -69 -54.5 -123t-114.5 -83zM243 355h150q49 0 86 34t46 82q6 41 -16 70t-70 29h-150q-27 -128 -46 -215zM485 762h-127l2 13l121 155l132 -47l-2 -12z" />
    <glyph glyph-name="racute" unicode="&#x155;" horiz-adv-x="460" 
d="M240 415q23 40 65 61t88 21q62 0 96 -31l-56 -117q-36 28 -84 26q-48 0 -87 -32t-51 -86l-55 -257h-137q21 100 37 174.5t35 165.5q9 30 2.5 47t-37.5 12l18 86q39 6 78 8t66 -18t22 -60zM323 565h-109l2 12l103 150l113 -45l-1 -12z" />
    <glyph glyph-name="Rcommaaccent" unicode="&#x156;" horiz-adv-x="689" 
d="M359 -112q0 -21 -16 -46l-64 -111h-81l39 71q-43 13 -43 59q0 39 29 64t69 25q27 0 45 -14t21 -37q0 -1 0.5 -5t0.5 -6zM495 255l108 -234l-4 -21h-155l-95 232h-130l-49 -232h-150l149 701h299q114 0 164.5 -72t31.5 -168q-10 -69 -54.5 -123t-114.5 -83zM243 355h150
q49 0 86 34t46 82q6 41 -16 70t-70 29h-150q-27 -128 -46 -215z" />
    <glyph glyph-name="rcommaaccent" unicode="&#x157;" horiz-adv-x="460" 
d="M148 -115q0 -8 -0.5 -14t-2.5 -10.5t-3.5 -7t-4.5 -6.5t-4 -6l-61 -107h-78l38 68q-42 13 -42 57q0 37 28.5 61.5t65.5 24.5q27 0 44 -13t20 -36v-11zM240 415q23 40 65 61t88 21q62 0 96 -31l-56 -117q-36 28 -84 26q-48 0 -87 -32t-51 -86l-55 -257h-137
q21 100 37 174.5t35 165.5q9 30 2.5 47t-37.5 12l18 86q39 6 78 8t66 -18t22 -60z" />
    <glyph glyph-name="Rcaron" unicode="&#x158;" horiz-adv-x="689" 
d="M495 255l108 -234l-4 -21h-155l-95 232h-130l-49 -232h-150l149 701h299q114 0 164.5 -72t31.5 -168q-10 -69 -54.5 -123t-114.5 -83zM243 355h150q49 0 86 34t46 82q6 41 -16 70t-70 29h-150q-27 -128 -46 -215zM254 928h136l60 -78l92 78h138l-3 -13l-174 -148h-141
l-111 148z" />
    <glyph glyph-name="rcaron" unicode="&#x159;" horiz-adv-x="460" 
d="M240 415q23 40 65 61t88 21q62 0 96 -31l-56 -117q-36 28 -84 26q-48 0 -87 -32t-51 -86l-55 -257h-137q21 100 37 174.5t35 165.5q9 30 2.5 47t-37.5 12l18 86q39 6 78 8t66 -18t22 -60zM123 709h128l56 -74l86 74h130l-3 -12l-163 -140h-132l-104 140z" />
    <glyph glyph-name="Sacute" unicode="&#x15a;" horiz-adv-x="646" 
d="M26 207h143q-9 -44 28 -67.5t93 -23.5q155 0 155 104q0 23 -11.5 38t-36 22.5t-41 10t-47.5 5.5q-95 7 -156 45.5t-61 117.5q0 86 47 146t116.5 85t153.5 25q112 0 178 -51.5t44 -160.5h-136q4 40 -29 60.5t-84 20.5q-53 0 -96 -27.5t-43 -72.5q0 -34 30 -48.5t88 -21.5
q61 -6 102 -16t77.5 -32t49.5 -62.5t1 -99.5q-41 -219 -328 -219q-74 0 -132 22.5t-89 74.5t-16 125zM485 776h-123l2 13l117 155l127 -47l-2 -12z" />
    <glyph glyph-name="sacute" unicode="&#x15b;" horiz-adv-x="509" 
d="M4 147h137q-5 -28 14.5 -42.5t52.5 -14.5q84 0 98 55q3 14 -0.5 23t-15 14t-18.5 6.5t-25 4.5q-38 5 -59 9t-54 14.5t-49.5 24t-26.5 38.5t-4 57q13 81 80 120t161 39q91 0 143 -40.5t33 -113.5h-132q5 25 -13.5 37t-50.5 12q-35 0 -60.5 -15.5t-25.5 -41.5
q0 -14 10.5 -22.5t21 -10.5t29.5 -4q107 -13 142 -28q75 -34 54 -123q-12 -56 -53 -94t-91.5 -52.5t-106.5 -11.5q-95 0 -150 36t-41 124zM345 567h-108l1 12l103 148l112 -44l-2 -12z" />
    <glyph glyph-name="Scircumflex" unicode="&#x15c;" horiz-adv-x="646" 
d="M26 207h143q-9 -44 28 -67.5t93 -23.5q155 0 155 104q0 23 -11.5 38t-36 22.5t-41 10t-47.5 5.5q-95 7 -156 45.5t-61 117.5q0 86 47 146t116.5 85t153.5 25q112 0 178 -51.5t44 -160.5h-136q4 40 -29 60.5t-84 20.5q-53 0 -96 -27.5t-43 -72.5q0 -34 30 -48.5t88 -21.5
q61 -6 102 -16t77.5 -32t49.5 -62.5t1 -99.5q-41 -219 -328 -219q-74 0 -132 22.5t-89 74.5t-16 125zM643 765h-133l-62 78l-95 -78h-135l3 14l174 148h140l111 -149z" />
    <glyph glyph-name="scircumflex" unicode="&#x15d;" horiz-adv-x="509" 
d="M4 147h137q-5 -28 14.5 -42.5t52.5 -14.5q84 0 98 55q3 14 -0.5 23t-15 14t-18.5 6.5t-25 4.5q-38 5 -59 9t-54 14.5t-49.5 24t-26.5 38.5t-4 57q13 81 80 120t161 39q91 0 143 -40.5t33 -113.5h-132q5 25 -13.5 37t-50.5 12q-35 0 -60.5 -15.5t-25.5 -41.5
q0 -14 10.5 -22.5t21 -10.5t29.5 -4q107 -13 142 -28q75 -34 54 -123q-12 -56 -53 -94t-91.5 -52.5t-106.5 -11.5q-95 0 -150 36t-41 124zM500 558h-119l-56 73l-85 -73h-121l2 14l156 138h126l100 -139z" />
    <glyph glyph-name="Scedilla" unicode="&#x15e;" horiz-adv-x="645" 
d="M25 207h143q-8 -45 28.5 -68t93.5 -23q52 0 98 23.5t55 64.5q5 23 -2 40t-18.5 25.5t-34.5 14.5t-38 8t-41 4q-61 4 -107 19.5t-78.5 52.5t-32.5 91q0 118 96 187t222 69q69 0 123 -23t83 -74t15 -121h-140q8 42 -24.5 63.5t-82.5 21.5q-55 0 -98 -23.5t-43 -75.5
q0 -19 8.5 -31.5t27.5 -19.5t35.5 -10t46.5 -7q26 -3 47 -6t44 -8t40.5 -11t35.5 -15t30 -20t21.5 -26.5t14 -33.5t4.5 -41t-6 -50q-18 -88 -92.5 -142.5t-169.5 -69.5l-27 -59q47 -6 59.5 -40t-11.5 -74q-23 -43 -70.5 -60.5t-95 -10.5t-80.5 30l25 77q19 -18 58.5 -18.5
t55.5 23.5q13 24 -9 35.5t-49 11.5l38 81q-101 9 -159.5 65.5t-38.5 153.5z" />
    <glyph glyph-name="scedilla" unicode="&#x15f;" horiz-adv-x="511" 
d="M6 147h140q-5 -28 15 -43t52 -14q41 0 68.5 15t27.5 49q0 4 -1 8t-2 7t-4 5.5t-5 4.5t-6.5 3.5t-7 2.5t-8.5 2.5t-8.5 2t-9 2t-8.5 1.5q-30 4 -45.5 6.5t-43 8t-43 13.5t-32.5 20.5t-24.5 30.5t-7.5 41q0 86 70 134t174 48q91 0 143 -40.5t33 -113.5h-132q5 25 -13.5 37
t-50.5 12q-35 0 -60.5 -15.5t-25.5 -41.5q0 -14 10.5 -22.5t21 -10.5t29.5 -4q107 -13 142 -29q74 -33 53 -122q-15 -67 -68 -105t-126 -49l-18 -39q42 -5 53 -35t-10 -66q-20 -38 -63 -54t-85.5 -10.5t-71.5 26.5l22 69q17 -15 52.5 -16t49.5 21q13 21 -6.5 31.5
t-44.5 10.5l27 60q-178 16 -152 158z" />
    <glyph glyph-name="Scaron" unicode="&#x160;" horiz-adv-x="646" 
d="M26 207h143q-9 -44 28 -67.5t93 -23.5q155 0 155 104q0 23 -11.5 38t-36 22.5t-41 10t-47.5 5.5q-95 7 -156 45.5t-61 117.5q0 86 47 146t116.5 85t153.5 25q112 0 178 -51.5t44 -160.5h-136q4 40 -29 60.5t-84 20.5q-53 0 -96 -27.5t-43 -72.5q0 -34 30 -48.5t88 -21.5
q61 -6 102 -16t77.5 -32t49.5 -62.5t1 -99.5q-41 -219 -328 -219q-74 0 -132 22.5t-89 74.5t-16 125zM252 936h136l60 -78l92 78h138l-3 -13l-174 -148h-141l-111 148z" />
    <glyph glyph-name="scaron" unicode="&#x161;" horiz-adv-x="509" 
d="M4 147h137q-5 -28 14.5 -42.5t52.5 -14.5q84 0 98 55q3 14 -0.5 23t-15 14t-18.5 6.5t-25 4.5q-38 5 -59 9t-54 14.5t-49.5 24t-26.5 38.5t-4 57q13 81 80 120t161 39q91 0 143 -40.5t33 -113.5h-132q5 25 -13.5 37t-50.5 12q-35 0 -60.5 -15.5t-25.5 -41.5
q0 -14 10.5 -22.5t21 -10.5t29.5 -4q107 -13 142 -28q75 -34 54 -123q-12 -56 -53 -94t-91.5 -52.5t-106.5 -11.5q-95 0 -150 36t-41 124zM155 706h124l54 -71l83 71h125l-2 -12l-158 -133h-128l-100 133z" />
    <glyph glyph-name="Tcommaaccent" unicode="&#x162;" horiz-adv-x="545" 
d="M261 568h-184l28 132h511l-28 -132h-182l-120 -568h-23l-25 -55q47 -6 58 -39.5t-11 -74.5q-23 -42 -70.5 -60t-95 -11.5t-79.5 30.5l24 77q19 -18 59 -18.5t54 23.5q13 25 -7.5 36t-49.5 11l39 81h-18z" />
    <glyph glyph-name="tcommaaccent" unicode="&#x163;" horiz-adv-x="444" 
d="M318 631l-32 -150h157l-21 -99h-157l-40 -189q-10 -48 10.5 -72.5t58 -22.5t81.5 15l-10 -106q-59 -15 -110 -18l-20 -44q47 -6 58 -39.5t-11 -74.5q-23 -42 -70.5 -60t-95 -11.5t-79.5 30.5l24 77q19 -18 59 -18.5t54 23.5q13 25 -7.5 36t-49.5 11l39 82
q-101 37 -69 189l41 192l-89 9l19 90h91l47 150h122z" />
    <glyph glyph-name="Tcaron" unicode="&#x164;" horiz-adv-x="549" 
d="M263 570h-187q20 99 28 130h518q-8 -31 -28 -130h-186l-121 -570h-145zM196 921h136l60 -78l92 78h138l-3 -13l-174 -148h-141l-111 148z" />
    <glyph glyph-name="tcaron" unicode="&#x165;" horiz-adv-x="468" 
d="M317 631l-32 -150h106l-22 -105h-106l-40 -187q-10 -47 9.5 -70.5t56.5 -21t81 15.5l-9 -106q-55 -14 -100 -17.5t-84.5 4t-62.5 30.5t-32.5 62.5t4.5 99.5l40 190l-89 9l20 96h101l47 150h112zM560 566q-2 -8 -12 -30l-64 -118h-77l39 80q-41 14 -41 56q0 37 27.5 61
t66.5 24q26 0 43 -13t20 -36q1 -9 -2 -24z" />
    <glyph glyph-name="Tbar" unicode="&#x166;" horiz-adv-x="549" 
d="M102 259l24 111h95l42 198h-184l28 132h511l-28 -132h-182l-42 -198h90l-24 -111h-90l-55 -259h-145l55 259h-95z" />
    <glyph glyph-name="tbar" unicode="&#x167;" horiz-adv-x="444" 
d="M320 631l-32 -150h157l-21 -99h-157l-19 -89h89l-20 -95h-89l-3 -13q-11 -48 10.5 -69.5t58 -20t83.5 17.5l-10 -106q-69 -18 -123 -19.5t-96 15t-58 62t-2 117.5l3 16h-72l20 95h72l19 89q-17 2 -51 5.5t-38 3.5l19 90h91l47 150h122z" />
    <glyph glyph-name="Utilde" unicode="&#x168;" horiz-adv-x="704" 
d="M291 -9q-118 0 -185 64.5t-44 177.5l99 467h151l-99 -464q-11 -54 20 -83.5t86 -29.5t98.5 29.5t54.5 83.5l99 464h147l-99 -467q-24 -116 -112 -179t-216 -63zM342 770q-4 2 -29 16t-39 20q95 154 217 86q21 -12 35 -17.5t35 0t36 30.5l66 -34q-34 -69 -93.5 -95.5
t-113.5 4.5q-17 10 -28 15t-27 8.5t-31 -5t-28 -28.5z" />
    <glyph glyph-name="utilde" unicode="&#x169;" horiz-adv-x="600" 
d="M423 482h140l-71 -337q-10 -34 -4.5 -47t36.5 -11l-17 -87q-30 -7 -58 -9t-56 2.5t-41 24t-6 52.5q-55 -77 -171 -77q-182 0 -134 213l59 276h141l-58 -276q-12 -49 5.5 -76t55.5 -27q43 0 76.5 29t44.5 77zM248 579l-66 35q90 150 210 83q20 -12 34 -17t34.5 0.5
t34.5 29.5l29 -14.5t35 -18.5q-33 -67 -91 -93t-110 5q-17 10 -27 14.5t-26.5 8t-30.5 -5t-26 -27.5z" />
    <glyph glyph-name="Umacron" unicode="&#x16a;" horiz-adv-x="704" 
d="M291 -9q-118 0 -185 64.5t-44 177.5l99 467h151l-99 -464q-11 -54 20 -83.5t86 -29.5t98.5 29.5t54.5 83.5l99 464h147l-99 -467q-24 -116 -112 -179t-216 -63zM293 769l23 107h320l-23 -107h-320z" />
    <glyph glyph-name="umacron" unicode="&#x16b;" horiz-adv-x="600" 
d="M423 482h140l-71 -337q-10 -34 -4.5 -47t36.5 -11l-17 -87q-30 -7 -58 -9t-56 2.5t-41 24t-6 52.5q-55 -77 -171 -77q-182 0 -134 213l59 276h141l-58 -276q-12 -49 5.5 -76t55.5 -27q43 0 76.5 29t44.5 77zM190 572l23 107h320l-23 -107h-320z" />
    <glyph glyph-name="Ubreve" unicode="&#x16c;" horiz-adv-x="704" 
d="M291 -9q-118 0 -185 64.5t-44 177.5l99 467h151l-99 -464q-11 -54 20 -83.5t86 -29.5t98.5 29.5t54.5 83.5l99 464h147l-99 -467q-24 -116 -112 -179t-216 -63zM288 940h123q-8 -44 37 -59q46 -15 90 10q30 19 38 49h121q-22 -102 -124 -149q-89 -42 -179 -18
q-85 22 -105 93q-9 34 -1 74z" />
    <glyph glyph-name="ubreve" unicode="&#x16d;" horiz-adv-x="600" 
d="M423 482h140l-71 -337q-10 -34 -4.5 -47t36.5 -11l-17 -87q-30 -7 -58 -9t-56 2.5t-41 24t-6 52.5q-55 -77 -171 -77q-182 0 -134 213l59 276h141l-58 -276q-12 -49 5.5 -76t55.5 -27q43 0 76.5 29t44.5 77zM186 710h114q-6 -42 37 -56q44 -14 84 12q26 16 33 44h113
q-21 -96 -117 -140q-86 -39 -169 -15q-80 24 -96 93q-6 28 1 62z" />
    <glyph glyph-name="Uring" unicode="&#x16e;" horiz-adv-x="704" 
d="M291 -9q-118 0 -185 64.5t-44 177.5l99 467h151l-99 -464q-11 -54 20 -83.5t86 -29.5t98.5 29.5t54.5 83.5l99 464h147l-99 -467q-24 -116 -112 -179t-216 -63zM588 876q0 -64 -47 -102t-106 -38q-45 0 -76 25t-31 71q0 65 48 102.5t108 37.5q44 0 74 -25t30 -71z
M407 846q0 -17 12 -27t30 -10q24 0 42.5 14.5t18.5 39.5q0 18 -11 27.5t-29 9.5q-25 0 -44 -14.5t-19 -39.5z" />
    <glyph glyph-name="uring" unicode="&#x16f;" horiz-adv-x="600" 
d="M423 482h140l-71 -337q-10 -34 -4.5 -47t36.5 -11l-17 -87q-30 -7 -58 -9t-56 2.5t-41 24t-6 52.5q-55 -77 -171 -77q-182 0 -134 213l59 276h141l-58 -276q-12 -49 5.5 -76t55.5 -27q43 0 76.5 29t44.5 77zM481 662q0 -59 -45.5 -94.5t-103.5 -35.5q-44 0 -74 23t-30 66
q0 60 46.5 95t105.5 35q43 0 72 -23t29 -66zM305 634q0 -34 41 -34q23 0 41 13.5t18 36.5q0 34 -39 34q-24 0 -42.5 -13.5t-18.5 -36.5z" />
    <glyph glyph-name="Uhungarumlaut" unicode="&#x170;" horiz-adv-x="704" 
d="M291 -9q-118 0 -185 64.5t-44 177.5l99 467h151l-99 -464q-11 -54 20 -83.5t86 -29.5t98.5 29.5t54.5 83.5l99 464h147l-99 -467q-24 -116 -112 -179t-216 -63zM289 777l3 12l87 150l119 -28l-2 -11l-97 -123h-110zM505 777l3 12l84 139l117 -34l-3 -12l-92 -105h-109z
" />
    <glyph glyph-name="uhungarumlaut" unicode="&#x171;" horiz-adv-x="600" 
d="M423 482h140l-71 -337q-10 -34 -4.5 -47t36.5 -11l-17 -87q-30 -7 -58 -9t-56 2.5t-41 24t-6 52.5q-55 -77 -171 -77q-182 0 -134 213l59 276h141l-58 -276q-12 -49 5.5 -76t55.5 -27q43 0 76.5 29t44.5 77zM194 573l3 12l82 141l112 -26l-2 -10l-91 -117h-104zM398 573
l2 12l80 131l110 -32l-3 -11l-86 -100h-103z" />
    <glyph glyph-name="Uogonek" unicode="&#x172;" horiz-adv-x="705" 
d="M291 -9q-118 0 -185 64.5t-44 177.5l99 467h151l-99 -464q-12 -53 19 -83t87 -30q55 0 98.5 29.5t54.5 83.5l99 464h147l-99 -467q-33 -149 -182 -214q-29 -20 -45.5 -48t-8.5 -51q7 -23 33 -25t50 6.5t47 21.5l2 -88q-33 -19 -73.5 -29.5t-79 -10.5t-65.5 21t-30 62
q-4 59 47 115q-14 -2 -23 -2z" />
    <glyph glyph-name="uogonek" unicode="&#x173;" horiz-adv-x="598" 
d="M422 482h141l-70 -327q-1 -6 -3.5 -17.5t-3.5 -16.5t-2 -13t0 -11.5t3 -8.5t6.5 -6.5t11 -3t16.5 -0.5l-15 -78q-55 -9 -80 -10q-26 -19 -41.5 -44.5t-7.5 -47.5q7 -20 30.5 -22.5t46.5 5.5t45 21v-83q-42 -25 -91.5 -33.5t-90 11t-44.5 70.5q-3 40 20.5 75t63.5 61
q-28 18 -19 66l2 11q-28 -41 -74 -64t-92 -23q-70 0 -105 30.5t-36 80t10 112.5l57 266h141l-58 -266q-25 -113 60 -113q42 -1 76 28.5t45 77.5z" />
    <glyph glyph-name="Wcircumflex" unicode="&#x174;" horiz-adv-x="967" 
d="M534 688h61l60 -426h2l106 224q20 43 64.5 120t53.5 94h157q-3 -8 -5 -22l-376 -684h-81l-77 378h-3l-215 -378h-92l-97 684l5 22h157l27 -214l14 -223h2zM793 760h-133l-62 78l-95 -78h-135l3 14l174 148h140l111 -149z" />
    <glyph glyph-name="wcircumflex" unicode="&#x175;" horiz-adv-x="854" 
d="M257 104q74 0 98 102l58 276h132l-59 -276q-11 -49 3.5 -75.5t51.5 -26.5q51 0 83 46.5t41.5 112.5t10 124.5t-6.5 94.5h135q8 -53 8.5 -108t-10 -118t-34 -113.5t-69 -89.5t-109.5 -52q-69 -13 -124.5 5t-72.5 70q-56 -82 -173 -82q-94 0 -138.5 56t-24.5 152l28 129
q11 35 5 55.5t-42 18.5l17 80q52 9 95 8t65 -30.5t9 -86.5l-36 -170q-11 -47 5 -74.5t54 -27.5zM696 562h-126l-58 74l-90 -74h-128l2 13l165 140h133l105 -141z" />
    <glyph glyph-name="Ycircumflex" unicode="&#x176;" horiz-adv-x="634" 
d="M334 417h5l98 139l115 144h165l-5 -22l-326 -405l-58 -273h-150l59 280l-156 398l5 22h155l55 -149zM624 766h-133l-62 78l-95 -78h-135l3 14l174 148h140l111 -149z" />
    <glyph glyph-name="ycircumflex" unicode="&#x177;" horiz-adv-x="599" 
d="M-18 -209l28 105q40 -24 89 -35t99 -7t90 39t54 98l16 74q-43 -73 -146 -73q-201 0 -149 239l22 107q9 32 0.5 46t-42.5 12q10 54 18 85q54 10 97 8.5t64 -33t8 -90.5l-28 -133q-28 -125 61 -125q27 0 49 13.5t35 30.5t24 46t15.5 46.5t10.5 44.5l41 193h138l-104 -491
q-20 -93 -75.5 -155t-125.5 -83t-146.5 -11.5t-142.5 49.5zM568 560h-133l-62 78l-95 -78h-135l3 14l174 148h140l111 -149z" />
    <glyph glyph-name="Ydieresis" unicode="&#x178;" horiz-adv-x="634" 
d="M334 417h5l98 139l115 144h165l-5 -22l-326 -405l-58 -273h-150l59 280l-156 398l5 22h155l55 -149zM548 763q-29 0 -47.5 16t-18.5 43q0 37 28.5 61t67.5 24q29 0 47.5 -16t18.5 -43q0 -37 -28.5 -61t-67.5 -24zM282 763q-29 0 -47.5 16t-18.5 43q0 37 29 61t67 24
q30 0 48.5 -16t18.5 -43q0 -37 -28.5 -61t-68.5 -24z" />
    <glyph glyph-name="Zacute" unicode="&#x179;" horiz-adv-x="604" 
d="M654 700l-5 -22l-433 -544h320l-28 -134h-547l4 21l438 548h-293q4 16 13 59.5t15 71.5h516zM462 779h-114l2 13l108 156l118 -47l-2 -12z" />
    <glyph glyph-name="zacute" unicode="&#x17a;" horiz-adv-x="478" 
d="M482 482l-3 -16l-281 -345h208l-26 -121h-412l3 16l286 350h-196l24 116h397zM342 563h-107l2 13l102 146l111 -44l-2 -11z" />
    <glyph glyph-name="Zdotaccent" unicode="&#x17b;" horiz-adv-x="604" 
d="M654 700l-5 -22l-433 -544h320l-28 -134h-547l4 21l438 548h-293q4 16 13 59.5t15 71.5h516zM410 762q-30 0 -49 17t-19 45q0 39 30 65t70 26q30 0 49.5 -17t19.5 -46q0 -39 -30.5 -64.5t-70.5 -25.5z" />
    <glyph glyph-name="zdotaccent" unicode="&#x17c;" horiz-adv-x="478" 
d="M482 482l-3 -16l-281 -345h208l-26 -121h-412l3 16l286 350h-196l24 116h397zM304 555q-29 0 -47 16t-18 43q0 38 28.5 62.5t67.5 24.5q28 0 46.5 -16.5t18.5 -43.5q0 -38 -29 -62t-67 -24z" />
    <glyph glyph-name="Zcaron" unicode="&#x17d;" horiz-adv-x="604" 
d="M654 700l-5 -22l-433 -544h320l-28 -134h-547l4 21l438 548h-293q4 16 13 59.5t15 71.5h516zM241 931h136l60 -78l92 78h138l-3 -13l-174 -148h-141l-111 148z" />
    <glyph glyph-name="zcaron" unicode="&#x17e;" horiz-adv-x="478" 
d="M482 482l-3 -16l-281 -345h208l-26 -121h-412l3 16l286 350h-196l24 116h397zM152 708h116l51 -67l78 67h117l-2 -11l-148 -126h-120l-95 126z" />
    <glyph glyph-name="longs" unicode="&#x17f;" horiz-adv-x="340" 
d="M48 0l81 383h-89l21 99h92l12 57q16 72 51 117.5t82.5 63t100 16t110.5 -20.5l-37 -104q-27 11 -52 14t-49.5 -2.5t-42.5 -27.5t-26 -59l-114 -536h-140z" />
    <glyph glyph-name="florin" unicode="&#x192;" horiz-adv-x="563" 
d="M353 291l-70 -323q-15 -71 -51 -116.5t-84.5 -62.5t-101.5 -15.5t-111 20.5l35 104q37 -15 70.5 -16.5t64.5 20t41 69.5l68 320h-145l21 100h145q31 148 47 190q28 70 82.5 106t118 35.5t133.5 -20.5l-36 -104q-28 11 -54 14t-52 -2.5t-45.5 -28t-26.5 -59.5l-28 -131
h150l-21 -100h-150z" />
    <glyph glyph-name="Aringacute" unicode="&#x1fa;" horiz-adv-x="700" 
d="M397 728q0 -33 44 -33q23 0 41 12t18 34q0 33 -43 33q-23 0 -41.5 -12t-18.5 -34zM394 470h-5l-143 -228h194zM462 116h-291l-79 -116h-156l4 20l426 624q-48 22 -48 74q0 54 47 87t104 33q46 0 77.5 -22.5t31.5 -63.5q0 -72 -86 -107l159 -625l-4 -20h-155zM525 859
h-111l2 10l107 120l120 -26l-2 -9z" />
    <glyph glyph-name="aringacute" unicode="&#x1fb;" horiz-adv-x="598" 
d="M553 448l-62 -293q-10 -31 -5.5 -46.5t38.5 -13.5l-19 -90q-30 -6 -54.5 -7t-49 4.5t-35 26.5t-3.5 56q-29 -44 -76.5 -68.5t-96.5 -24.5q-106 2 -147 74t-17 181q29 120 118.5 184t212.5 62q101 -1 196 -45zM372 242l31 125q-31 14 -77 14q-58 0 -100.5 -34.5
t-60.5 -99.5q-17 -64 -0.5 -98t71.5 -33q49 0 85 35t51 91zM521 659q0 -58 -47.5 -92t-108.5 -34q-45 0 -76.5 22.5t-31.5 63.5q0 59 48.5 92.5t109.5 33.5q45 0 75.5 -22t30.5 -64zM337 632q0 -15 12 -24t31 -9q24 0 43 13t19 35q0 15 -11.5 24.5t-29.5 9.5
q-25 0 -44.5 -13t-19.5 -36zM466 775h-124l2 10l117 120l128 -36l-2 -9z" />
    <glyph glyph-name="AEacute" unicode="&#x1fc;" horiz-adv-x="826" 
d="M193 169l-112 -169h-144l5 22l469 676h440l-27 -128h-243l-31 -145h227l-26 -124h-227l-37 -173h254l-27 -128h-382l36 169h-175zM457 570l-192 -279h129l65 279h-2zM643 765h-114l2 13l108 156l118 -47l-2 -12z" />
    <glyph glyph-name="aeacute" unicode="&#x1fd;" horiz-adv-x="819" 
d="M347 242l26 120q-34 19 -71 19q-55 0 -93.5 -35.5t-53.5 -105.5q-12 -57 6.5 -95t64.5 -38q48 0 78 37.5t43 97.5zM483 300q12 -10 45 -18.5t62 -6.5q65 2 78 53q8 30 -13 44t-53 14q-83 -6 -119 -86zM732 136l-19 -109q-77 -41 -172 -39q-88 2 -125 64l-12 -52h-91l8 81
q-23 -41 -67 -65.5t-87 -24.5q-78 0 -122.5 62.5t-18.5 185.5q27 123 111 189.5t198 64.5q90 -2 148 -51q64 51 140 53q39 1 72 -7t60 -28t36 -52.5t0 -79.5q-17 -70 -73.5 -108.5t-122.5 -40.5q-87 -5 -137 31q-11 -59 24 -86t99 -25q76 1 151 37zM529 563h-108l1 12
l103 148l112 -44l-2 -12z" />
    <glyph glyph-name="Oslashacute" unicode="&#x1fe;" horiz-adv-x="802" 
d="M714 622q66 -71 66 -199q0 -100 -39 -184t-103 -138t-142.5 -83.5t-159.5 -29.5q-66 0 -117 22l-57 -70h-140l3 15l95 117q-72 74 -72 205q0 80 25.5 150.5t69.5 121.5t101 88t120.5 55.5t127.5 18.5q71 0 127 -24l54 69h141l-3 -14zM317 140q21 -10 52 -10
q100 0 179 73.5t79 188.5q0 63 -27 100zM521 558q-28 11 -59 11q-102 0 -181 -73t-79 -190q0 -67 30 -106zM557 789h-114l2 13l108 156l118 -47l-2 -12z" />
    <glyph glyph-name="oslashacute" unicode="&#x1ff;" horiz-adv-x="586" 
d="M546 293q0 -56 -17.5 -105t-46.5 -83t-67.5 -61t-81 -38.5t-85.5 -15t-82 8.5l-39 -55h-109l68 94q-64 50 -64 154q0 57 18 106.5t48 84t69 61t82 37.5t86.5 14.5t82.5 -9.5l42 58h109l-72 -100q59 -51 59 -151zM159 218q0 -38 18 -61l157 218q-60 13 -117.5 -32
t-57.5 -125zM410 266q0 32 -16 59l-156 -215q60 -11 116 33.5t56 122.5zM385 576h-107l2 12l102 148l111 -45l-2 -11z" />
    <glyph glyph-name="Scommaaccent" unicode="&#x218;" horiz-adv-x="646" 
d="M341 -120q0 -21 -16 -46l-64 -111h-81l39 71q-43 13 -43 59q0 39 29 64t69 25q27 0 45 -14t21 -37q0 -1 0.5 -5t0.5 -6zM26 207h143q-9 -44 28 -67.5t93 -23.5q155 0 155 104q0 23 -11.5 38t-36 22.5t-41 10t-47.5 5.5q-95 7 -156 45.5t-61 117.5q0 86 47 146t116.5 85
t153.5 25q112 0 178 -51.5t44 -160.5h-136q4 40 -29 60.5t-84 20.5q-53 0 -96 -27.5t-43 -72.5q0 -34 30 -48.5t88 -21.5q61 -6 102 -16t77.5 -32t49.5 -62.5t1 -99.5q-41 -219 -328 -219q-74 0 -132 22.5t-89 74.5t-16 125z" />
    <glyph glyph-name="scommaaccent" unicode="&#x219;" horiz-adv-x="509" 
d="M257 -117v-11q0 -8 -0.5 -14t-2.5 -10.5t-3.5 -7t-4.5 -6.5t-4 -6l-60 -105h-77l37 67q-41 14 -41 57q0 36 27.5 60t65.5 24q26 0 43 -13t20 -35zM4 147h137q-5 -28 14.5 -42.5t52.5 -14.5q84 0 98 55q3 14 -0.5 23t-15 14t-18.5 6.5t-25 4.5q-38 5 -59 9t-54 14.5
t-49.5 24t-26.5 38.5t-4 57q13 81 80 120t161 39q91 0 143 -40.5t33 -113.5h-132q5 25 -13.5 37t-50.5 12q-35 0 -60.5 -15.5t-25.5 -41.5q0 -14 10.5 -22.5t21 -10.5t29.5 -4q107 -13 142 -28q75 -34 54 -123q-12 -56 -53 -94t-91.5 -52.5t-106.5 -11.5q-95 0 -150 36
t-41 124z" />
    <glyph glyph-name="uni021A" unicode="&#x21a;" horiz-adv-x="549" 
d="M279 -110q0 -21 -16 -46l-64 -111h-81l39 71q-43 13 -43 59q0 39 29 64t69 25q27 0 45 -14t21 -37q0 -1 0.5 -5t0.5 -6zM263 570h-187q20 99 28 130h518q-8 -31 -28 -130h-186l-121 -570h-145z" />
    <glyph glyph-name="uni021B" unicode="&#x21b;" horiz-adv-x="442" 
d="M253 -117v-11q0 -9 -1.5 -16t-3 -9.5t-6 -9t-4.5 -7.5l-58 -103h-75l36 65q-40 13 -40 56q0 36 27 59t63 23q26 0 43 -12.5t19 -34.5zM317 631l-32 -150h157l-22 -105h-157l-40 -187q-10 -47 9.5 -70.5t56.5 -21t81 15.5l-9 -106q-55 -14 -100 -17.5t-84.5 4t-62.5 30.5
t-32.5 62.5t4.5 99.5l40 190l-89 9l20 96h101l47 150h112z" />
    <glyph glyph-name="circumflex" unicode="&#x2c6;" horiz-adv-x="494" 
d="M586 540h-133l-62 78l-95 -78h-135l3 14l174 148h140l111 -149z" />
    <glyph glyph-name="caron" unicode="&#x2c7;" horiz-adv-x="531" 
d="M200 701h136l60 -78l92 78h138l-3 -13l-174 -148h-141l-111 148z" />
    <glyph glyph-name="breve" unicode="&#x2d8;" horiz-adv-x="529" 
d="M206 701h123q-8 -44 37 -59q46 -15 90 10q31 18 38 49h121q-22 -102 -124 -149q-89 -42 -179 -18q-85 22 -105 93q-9 34 -1 74z" />
    <glyph glyph-name="dotaccent" unicode="&#x2d9;" horiz-adv-x="321" 
d="M265 558q-30 0 -49 17t-19 45q0 39 30 65t70 26q30 0 49.5 -17t19.5 -46q0 -39 -30.5 -64.5t-70.5 -25.5z" />
    <glyph glyph-name="ring" unicode="&#x2da;" horiz-adv-x="379" 
d="M447 633q0 -64 -47 -102t-106 -38q-45 0 -76 25t-31 71q0 65 48 102.5t108 37.5q44 0 74 -25t30 -71zM266 603q0 -17 12 -27t30 -10q24 0 42.5 14.5t18.5 39.5q0 18 -11 27.5t-29 9.5q-25 0 -44 -14.5t-19 -39.5z" />
    <glyph glyph-name="ogonek" unicode="&#x2db;" horiz-adv-x="364" 
d="M127 9h100q-38 -17 -64 -51.5t-17 -63.5q7 -22 33 -24.5t51 6.5t48 22v-89q-33 -18 -72.5 -28t-77.5 -8.5t-64.5 24t-29.5 64.5q-5 84 93 148z" />
    <glyph glyph-name="tilde" unicode="&#x2dc;" horiz-adv-x="469" 
d="M243 573q-4 2 -29 16t-39 20q95 154 217 86q21 -12 35 -17.5t35 0t36 30.5l66 -34q-34 -69 -93.5 -95.5t-113.5 4.5q-17 10 -28 15t-27 8.5t-31 -5t-28 -28.5z" />
    <glyph glyph-name="hungarumlaut" unicode="&#x2dd;" horiz-adv-x="518" 
d="M185 551l3 12l87 150l119 -28l-2 -11l-97 -123h-110zM401 551l3 12l84 139l117 -34l-3 -12l-92 -105h-109z" />
    <glyph glyph-name="afii10023" unicode="&#x401;" horiz-adv-x="571" 
d="M598 700l-28 -131h-278l-30 -142h260q-4 -14 -28 -131h-260l-34 -160h286l-29 -136h-437q103 492 149 700h429zM529 761q-29 0 -47.5 16t-18.5 43q0 37 28.5 61t67.5 24q29 0 47.5 -16t18.5 -43q0 -37 -28.5 -61t-67.5 -24zM263 761q-29 0 -47.5 16t-18.5 43q0 37 29 61
t67 24q30 0 48.5 -16t18.5 -43q0 -37 -28.5 -61t-68.5 -24z" />
    <glyph glyph-name="afii10051" unicode="&#x402;" horiz-adv-x="751" 
d="M674 88q-27 -126 -98.5 -171t-183.5 -23l27 103q57 -7 79.5 12.5t35.5 79.5l34 159q10 48 -15.5 75t-71.5 28q-47 1 -92.5 -33.5t-57.5 -79.5l-50 -238h-145l121 570h-181l28 130h550l-28 -130h-224l-38 -180q72 80 188 76q82 -2 129 -62.5t27 -155.5z" />
    <glyph glyph-name="afii10052" unicode="&#x403;" horiz-adv-x="522" 
d="M567 569h-277q-20 -95 -60.5 -284.5t-60.5 -284.5h-149q25 117 74.5 350.5t74.5 349.5h426q-14 -62 -28 -131zM441 764h-112l3 13l125 160l116 -46l-2 -13z" />
    <glyph glyph-name="afii10053" unicode="&#x404;" horiz-adv-x="761" 
d="M463 577q-79 1 -149.5 -44t-95.5 -118h266l-28 -128h-264q-2 -73 48 -117t127 -44q66 0 120.5 32.5t85.5 94.5h151q-35 -95 -99.5 -155.5t-134.5 -83t-151 -22.5q-127 0 -211 75t-81 212q2 98 41 181t101 136.5t139 83t157 29.5q116 0 195.5 -64.5t76.5 -186.5h-140
q-19 119 -154 119z" />
    <glyph glyph-name="afii10054" unicode="&#x405;" horiz-adv-x="646" 
d="M26 207h143q-9 -44 28 -67.5t93 -23.5q155 0 155 104q0 23 -11.5 38t-36 22.5t-41 10t-47.5 5.5q-95 7 -156 45.5t-61 117.5q0 86 47 146t116.5 85t153.5 25q112 0 178 -51.5t44 -160.5h-136q4 40 -29 60.5t-84 20.5q-53 0 -96 -27.5t-43 -72.5q0 -34 30 -48.5t88 -21.5
q61 -6 102 -16t77.5 -32t49.5 -62.5t1 -99.5q-41 -219 -328 -219q-74 0 -132 22.5t-89 74.5t-16 125z" />
    <glyph glyph-name="afii10055" unicode="&#x406;" horiz-adv-x="438" 
d="M258 119h99q-5 -24 -12 -59t-13 -60h-348q6 25 13 60t12 59h99l99 465h-91q6 24 13 58t12 58h332q-6 -24 -13 -58t-12 -58h-91z" />
    <glyph glyph-name="afii10056" unicode="&#x407;" horiz-adv-x="438" 
d="M258 119h99q-5 -24 -12 -59t-13 -60h-348q6 25 13 60t12 59h99l99 465h-91q6 24 13 58t12 58h332q-6 -24 -13 -58t-12 -58h-91zM459 764q-29 0 -47.5 16t-18.5 43q0 37 28.5 61t67.5 24q29 0 47.5 -16t18.5 -43q0 -37 -28.5 -61t-67.5 -24zM193 764q-29 0 -47.5 16
t-18.5 43q0 37 29 61t67 24q30 0 48.5 -16t18.5 -43q0 -37 -28.5 -61t-68.5 -24z" />
    <glyph glyph-name="afii10057" unicode="&#x408;" horiz-adv-x="627" 
d="M640 700l-99 -468q-25 -116 -106.5 -179t-213.5 -63q-112 0 -172 65.5t-37 176.5l18 85h138l-17 -82q-12 -55 15.5 -83.5t82.5 -28.5q54 0 92 29t50 83l71 336h-124l27 129h275z" />
    <glyph glyph-name="afii10058" unicode="&#x409;" horiz-adv-x="996" 
d="M617 349l-47 -217q15 0 49.5 -0.5t45.5 -0.5q63 0 110 32.5t47 96.5q0 51 -32 70t-95 19h-78zM645 481h122q98 0 148 -57.5t51 -143.5q1 -128 -85.5 -204t-218.5 -76h-262l121 566h-151q-21 -65 -57 -185t-49 -162q-46 -146 -109 -191t-201 -25l26 108q33 -4 55 0.5
t37 21t23.5 36t20.5 56.5l151 475h424z" />
    <glyph glyph-name="afii10059" unicode="&#x40a;" horiz-adv-x="994" 
d="M691 700l-52 -243h121q116 0 165 -61.5t36 -165.5q-13 -100 -96.5 -165t-203.5 -65h-265l67 315h-227l-67 -315h-149l149 700h149l-53 -248h227l53 248h146zM730 324h-119l-41 -192q59 -1 119 0q57 1 93 35.5t36 81.5q0 34 -23.5 54.5t-64.5 20.5z" />
    <glyph glyph-name="afii10060" unicode="&#x40b;" horiz-adv-x="752" 
d="M655 0h-140l53 248q10 48 -15.5 75t-71.5 28q-47 1 -92.5 -33.5t-57.5 -80.5l-50 -237h-145l121 570h-181l28 130h550l-28 -130h-224l-39 -185q27 42 81 64t107 22q99 0 138.5 -62.5t18.5 -160.5z" />
    <glyph glyph-name="afii10061" unicode="&#x40c;" 
d="M318 700l-62 -289q88 0 115 13q28 14 49.5 48t53.5 104q33 73 102 109t172 14l-22 -102q-42 4 -68.5 -11t-46.5 -54q-65 -134 -127 -186l145 -324l-5 -22h-160l-118 290q-29 -9 -117 -9l-60 -281h-149l149 700h149zM490 758h-114l2 13l108 156l118 -47l-2 -12z" />
    <glyph glyph-name="afii10062" unicode="&#x40e;" horiz-adv-x="636" 
d="M195 176l44 63l-153 442l4 19h156l97 -309h5l206 309h166l-4 -15l-368 -534q-37 -56 -73 -93t-79 -59.5t-93.5 -22t-109.5 24.5l46 122q47 -23 84 -11t72 64zM251 922l103 9q-6 -66 61 -66t93 66q33 -2 98 -9q-21 -78 -76.5 -123t-137.5 -45q-80 0 -117 45t-24 123z" />
    <glyph glyph-name="afii10145" unicode="&#x40f;" horiz-adv-x="729" 
d="M205 -135l29 135h-214l149 700h150l-120 -564h268l120 564h149l-149 -700h-209l-29 -135h-144z" />
    <glyph glyph-name="afii10017" unicode="&#x410;" horiz-adv-x="696" 
d="M465 116h-292l-79 -116h-163l4 20l468 686h69l174 -686l-4 -20h-152zM392 476l-144 -234h190z" />
    <glyph glyph-name="afii10018" unicode="&#x411;" horiz-adv-x="662" 
d="M385 315h-151l-39 -184h151q49 0 81.5 27t41.5 66q8 39 -13.5 65t-70.5 26zM288 569l-27 -129h152q102 0 154.5 -48t52.5 -125q0 -109 -81.5 -188t-219.5 -79h-299q25 117 74.5 350.5t74.5 349.5h490l-28 -131h-343z" />
    <glyph glyph-name="afii10019" unicode="&#x412;" horiz-adv-x="671" 
d="M647 534q0 -56 -30 -102t-79 -71q78 -30 78 -120q0 -102 -75 -171.5t-196 -69.5h-325l149 699h297q84 0 132.5 -44t48.5 -121zM427 575h-137l-34 -167h137q38 0 66.5 23t36.5 59q9 38 -10.5 61.5t-58.5 23.5zM391 296h-159l-35 -166h166q38 0 64.5 20.5t35.5 56.5
q6 21 1.5 42.5t-16.5 32.5q-17 14 -57 14z" />
    <glyph glyph-name="afii10020" unicode="&#x413;" horiz-adv-x="523" 
d="M566 565h-277l-120 -565h-149l149 700h426z" />
    <glyph glyph-name="afii10021" unicode="&#x414;" horiz-adv-x="747" 
d="M367 571l-111 -352q-22 -69 -68 -95h263l95 447h-179zM-16 127h24q43 0 63 22t38 76l156 475h456l-122 -573h75l-48 -226h-134l21 99h-415l-21 -99h-141z" />
    <glyph glyph-name="afii10022" unicode="&#x415;" horiz-adv-x="571" 
d="M598 700l-28 -131h-278l-30 -142h260q-4 -14 -28 -131h-260l-34 -160h286l-29 -136h-437q103 492 149 700h429z" />
    <glyph glyph-name="afii10024" unicode="&#x416;" horiz-adv-x="1025" 
d="M948 0h-156l-114 287q-40 -9 -92 -9l-59 -278h-148l59 278q-34 0 -71 9q-78 -95 -236 -287h-173l5 22q94 108 284 324q-24 29 -32.5 73t-12.5 116q-4 75 -92 62l21 101q213 43 213 -128q0 -115 43 -142q22 -16 80 -16l61 288h148l-61 -288q58 0 87 16q24 12 46.5 41
t33 50t25.5 56q71 167 264 123l-21 -101q-82 13 -119 -62q-36 -74 -62.5 -117.5t-60.5 -71.5q24 -54 72.5 -162t72.5 -162z" />
    <glyph glyph-name="afii10025" unicode="&#x417;" horiz-adv-x="592" 
d="M237 528h-132q16 91 91.5 138.5t173.5 47.5q92 0 143 -46t51 -118q0 -112 -113 -172q86 -44 86 -136q0 -115 -86.5 -185.5t-235.5 -70.5q-112 0 -169 60t-33 175h135q-23 -111 93 -111q62 0 103.5 34.5t41.5 83.5q0 37 -28 60.5t-74 23.5h-52l26 120h51q46 0 79 28t33 68
q0 31 -21.5 49t-54.5 18q-38 0 -69.5 -17.5t-38.5 -49.5z" />
    <glyph glyph-name="afii10026" unicode="&#x418;" horiz-adv-x="753" 
d="M546 400l-481 -402h-45l149 702h150l-84 -397l478 400h47l-150 -703h-149z" />
    <glyph glyph-name="afii10027" unicode="&#x419;" horiz-adv-x="753" 
d="M352 914l103 9q-6 -66 61 -66t93 66q33 -2 98 -9q-21 -78 -76.5 -123t-137.5 -45q-80 0 -117 45t-24 123zM65 -2l481 402l-85 -400h149l150 703h-47l-478 -400l84 397h-150l-149 -702h45z" />
    <glyph glyph-name="afii10028" unicode="&#x41a;" 
d="M318 700l-62 -289q88 0 115 13q28 14 49.5 48t53.5 104q33 73 102 109t172 14l-22 -102q-42 4 -68.5 -11t-46.5 -54q-65 -134 -127 -186l145 -324l-5 -22h-160l-118 290q-29 -9 -117 -9l-60 -281h-149l149 700h149z" />
    <glyph glyph-name="afii10029" unicode="&#x41b;" horiz-adv-x="731" 
d="M370 566l-112 -365q-42 -136 -106 -177t-198 -21l26 108q59 -6 84.5 14t45.5 81l157 494h471l-149 -700h-149l121 566h-191z" />
    <glyph glyph-name="afii10030" unicode="&#x41c;" horiz-adv-x="833" 
d="M434 369l352 333h54l-149 -702h-150l84 379l-223 -220h-19l-129 220l-84 -379h-150l149 702h55z" />
    <glyph glyph-name="afii10031" unicode="&#x41d;" horiz-adv-x="729" 
d="M587 0h-150l63 296h-268l-63 -296h-149l149 700h149l-57 -267h268l57 267h150z" />
    <glyph glyph-name="afii10032" unicode="&#x41e;" horiz-adv-x="806" 
d="M783 424q0 -199 -126.5 -317.5t-319.5 -118.5q-126 0 -207.5 75.5t-81.5 211.5q0 134 65 235.5t165 151t216 49.5q125 0 207 -76t82 -211zM205 341q-17 -94 24 -155t139 -61q105 0 184 73.5t79 201.5q0 83 -46.5 128t-119.5 45q-93 0 -168 -62t-92 -170z" />
    <glyph glyph-name="afii10033" unicode="&#x41f;" horiz-adv-x="729" 
d="M169 700h567l-149 -700h-150l120 564h-267l-120 -564h-150z" />
    <glyph glyph-name="afii10034" unicode="&#x420;" horiz-adv-x="653" 
d="M170 1h-150l149 700h299q78 0 126 -38t63 -94.5t5 -124.5q-16 -108 -98 -176.5t-203 -68.5h-149zM236 327h152q50 0 87 35.5t47 87.5q7 50 -11.5 87.5t-69.5 37.5h-152z" />
    <glyph glyph-name="afii10035" unicode="&#x421;" horiz-adv-x="757" 
d="M54 349q38 173 160 266t273 93q116 0 194 -64t76 -186h-141q-8 65 -48 89.5t-109 24.5q-97 0 -165 -63.5t-89 -163.5q-21 -92 20 -154t138 -62q136 0 200 126h153q-33 -88 -96.5 -149t-135 -87t-148.5 -26q-148 0 -232 95t-50 261z" />
    <glyph glyph-name="afii10036" unicode="&#x422;" horiz-adv-x="549" 
d="M263 570h-187q20 99 28 130h518q-8 -31 -28 -130h-186l-121 -570h-145z" />
    <glyph glyph-name="afii10037" unicode="&#x423;" horiz-adv-x="636" 
d="M195 176l44 63l-153 442l4 19h156l97 -309h5l206 309h166l-4 -15l-368 -534q-37 -56 -73 -93t-79 -59.5t-93.5 -22t-109.5 24.5l46 122q47 -23 84 -11t72 64z" />
    <glyph glyph-name="afii10038" unicode="&#x424;" horiz-adv-x="914" 
d="M733 384q3 67 -41.5 94.5t-121.5 29.5l-68 -315q61 3 108 19t83.5 60t39.5 112zM203 315q0 -114 163 -122l68 315q-96 -2 -163.5 -48.5t-67.5 -144.5zM325 -2l15 73q-126 3 -204 60t-78 167q0 81 33 145t90 103.5t127.5 60.5t150.5 24l15 71h140l-15 -71
q129 -4 205.5 -59t76.5 -166q0 -88 -33 -153.5t-91 -103.5t-127.5 -57t-151.5 -21l-15 -73h-138z" />
    <glyph glyph-name="afii10039" unicode="&#x425;" horiz-adv-x="669" 
d="M333 585l38 -117l93 123l92 109h169l-5 -22l-276 -308l160 -349l-4 -21h-157l-62 135l-48 123h-2l-101 -127l-115 -131h-166l4 21l311 349l-147 308l5 22h163z" />
    <glyph glyph-name="afii10040" unicode="&#x426;" horiz-adv-x="752" 
d="M524 0h-504l149 700h150l-120 -564h252l120 564h151l-122 -573h84l-46 -217h-133z" />
    <glyph glyph-name="afii10041" unicode="&#x427;" horiz-adv-x="642" 
d="M500 0h-148l53 250q-206 -25 -280.5 54t-29.5 289l23 106h151l-23 -106q-11 -51 -15 -83t-0.5 -59.5t15.5 -41t37.5 -21.5t61.5 -7t90 8l66 310h148z" />
    <glyph glyph-name="afii10042" unicode="&#x428;" horiz-adv-x="1034" 
d="M20 0l149 700h149l-120 -564h211l120 564h150l-120 -564h212l120 564h150l-149 -700h-872z" />
    <glyph glyph-name="afii10043" unicode="&#x429;" horiz-adv-x="1066" 
d="M20 0l149 700h151l-120 -564h208l120 564h149l-120 -564h210l120 564h149l-122 -573h85l-46 -217h-132l19 90h-820z" />
    <glyph glyph-name="afii10044" unicode="&#x42a;" horiz-adv-x="706" 
d="M443 353h-151l-46 -221q24 0 75 -0.5t76 -0.5q57 0 95.5 39.5t38.5 90.5q0 40 -21.5 66t-66.5 26zM81 574l27 126h261l-47 -219h150q99 0 151.5 -56t52.5 -139q0 -130 -85.5 -208t-220.5 -78h-297l122 574h-114z" />
    <glyph glyph-name="afii10045" unicode="&#x42b;" horiz-adv-x="957" 
d="M315 700q-1 -3 -2.5 -9t-1.5 -8l-43 -202h150q64 0 109 -23t65 -61t25.5 -87t-9.5 -100q-25 -98 -102.5 -154t-189.5 -56h-296l149 700h146zM390 355h-15h-135l-46 -223q20 0 62 -0.5t63 -0.5q118 0 149 96q17 52 -1.5 90t-76.5 38zM964 700l-149 -700h-149l149 700h149z
" />
    <glyph glyph-name="afii10046" unicode="&#x42c;" horiz-adv-x="651" 
d="M315 700l-47 -219h150q98 0 150 -55.5t54 -139.5q3 -119 -83.5 -202.5t-222.5 -83.5h-296l149 700h146zM390 352h-150l-46 -220h150q55 1 93.5 40t38.5 90q0 40 -22 65t-64 25z" />
    <glyph glyph-name="afii10047" unicode="&#x42d;" horiz-adv-x="763" 
d="M423 574q-136 0 -204 -116h-145q49 122 155.5 186.5t222.5 64.5q124 0 206 -76.5t81 -209.5q-1 -110 -38.5 -195t-101 -135t-140.5 -75.5t-164 -25.5q-77 0 -138 26t-100 86.5t-35 148.5h145q4 -61 46.5 -94t109.5 -33q80 0 147.5 43t91.5 118h-260l27 124h263
q5 84 -41 123.5t-128 39.5z" />
    <glyph glyph-name="afii10048" unicode="&#x42e;" horiz-adv-x="1091" 
d="M1067 423q2 -104 -37 -190t-104 -138.5t-143.5 -81t-160.5 -27.5q-134 1 -216.5 83t-69.5 224h-104l-62 -293h-150l149 700h150l-58 -271h107q54 134 168.5 209t242.5 74q124 -1 206 -78t82 -211zM485 302q-2 -81 43.5 -127.5t118.5 -46.5q102 0 183 74.5t85 193.5
q2 81 -44 127t-119 46q-103 0 -183 -74t-84 -193z" />
    <glyph glyph-name="afii10049" unicode="&#x42f;" horiz-adv-x="689" 
d="M-26 22l212 242q-92 41 -92 156q0 112 81 196t223 84h298l-149 -700h-150l49 232h-125l-193 -232h-159zM324 355h150l49 215h-153q-54 0 -91 -38t-37 -90q0 -38 21.5 -62.5t60.5 -24.5z" />
    <glyph glyph-name="afii10065" unicode="&#x430;" horiz-adv-x="598" 
d="M553 448l-62 -293q-10 -31 -5.5 -46.5t38.5 -13.5l-19 -90q-30 -6 -54.5 -7t-49 4.5t-35 26.5t-3.5 56q-29 -44 -76.5 -68.5t-96.5 -24.5q-106 2 -147 74t-17 181q29 120 118.5 184t212.5 62q101 -1 196 -45zM372 242l31 125q-31 14 -77 14q-58 0 -100.5 -34.5
t-60.5 -99.5q-17 -64 -0.5 -98t71.5 -33q49 0 85 35t51 91z" />
    <glyph glyph-name="afii10066" unicode="&#x431;" horiz-adv-x="597" 
d="M365 475q107 4 152 -62t35 -168q-19 -114 -97 -184.5t-207 -70.5q-108 0 -161.5 54t-53.5 144q0 101 29.5 189.5t104 166t186.5 112.5q27 8 45 16t35.5 25t13.5 38h126q9 -61 -26.5 -110t-111.5 -70l-45 -12.5t-37 -11t-35.5 -12.5t-27 -13.5t-27 -18t-20.5 -21.5
t-21 -28.5t-17 -34.5q27 30 73 50t87 22zM167 208q0 -46 27.5 -71.5t71.5 -25.5q61 0 102 39t45 107q3 44 -25 71.5t-73 27.5q-59 0 -103.5 -43t-44.5 -105z" />
    <glyph glyph-name="afii10067" unicode="&#x432;" horiz-adv-x="579" 
d="M372 727q94 0 143.5 -46.5t37.5 -139.5q-8 -45 -37.5 -81.5t-73.5 -55.5q104 -39 86 -189q-17 -119 -104.5 -174t-206.5 -56q-118 0 -211 36l109 511q20 92 90.5 143.5t166.5 51.5zM206 326l-45 -213q41 -14 82 -12q63 2 104 31t49 87q12 119 -101 122q-34 0 -89 -15z
M250 533l-22 -105q17 5 56 14.5t60 16.5t43.5 26.5t28.5 50.5q8 36 -6.5 57t-49.5 21q-36 0 -69 -21.5t-41 -59.5z" />
    <glyph glyph-name="afii10068" unicode="&#x433;" horiz-adv-x="511" 
d="M306 147h143q-42 -161 -262 -161q-82 0 -135 31t-53 98q0 43 17 75.5t39.5 50t63.5 30.5t68.5 17t76.5 10q73 6 81 52q3 21 -16 30.5t-50 9.5q-72 0 -83 -49h-132q11 73 79.5 113.5t159.5 40.5q82 0 130.5 -32.5t48.5 -94.5q0 -30 -9.5 -54t-22 -40.5t-36.5 -30.5
t-42 -21t-50 -14t-49 -9.5t-50 -7.5q-83 -10 -83 -60q0 -20 21 -31t50 -11q34 0 60.5 15.5t34.5 42.5z" />
    <glyph glyph-name="afii10069" unicode="&#x434;" horiz-adv-x="595" 
d="M398 234q11 53 -14 87.5t-76 34.5q-52 0 -94 -34t-54 -88q-12 -57 14 -90t78 -33q51 0 92 32.5t54 90.5zM309 475q41 -1 80.5 -21t54.5 -49q14 53 10 88.5t-16.5 58t-36 32t-50 10.5t-59 -6t-61 -17.5t-57.5 -24.5l5 108q112 60 201 55q104 -5 154 -61t48 -151.5
t-38 -226.5q-80 -280 -319 -280q-78 0 -128.5 35.5t-67.5 89t-6 117.5q18 102 97.5 175t188.5 68z" />
    <glyph glyph-name="afii10070" unicode="&#x435;" horiz-adv-x="544" 
d="M457 138l-18 -108q-67 -35 -181 -40q-111 -4 -176.5 48.5t-61.5 152.5q3 74 30 133t70.5 95t95.5 55t109 21q43 1 80.5 -7.5t68 -27t42.5 -52.5t1 -79q-17 -69 -78.5 -107.5t-133.5 -40.5q-92 -5 -148 31q-11 -59 26.5 -86t107.5 -25q80 0 166 37zM184 301
q15 -11 48.5 -19t64.5 -6q73 2 86 53q7 30 -17 44t-58 14q-88 -5 -124 -86z" />
    <glyph glyph-name="afii10072" unicode="&#x436;" horiz-adv-x="791" 
d="M464 303h14q138 0 161 179h133q-11 -83 -45.5 -143t-107.5 -94l88 -230l-3 -15h-138l-66 200q-21 -6 -45 -6h-14l-41 -194h-133l41 194h-13q-20 0 -39 7l-147 -201h-145l3 15l185 230q-40 23 -56.5 62t-13.5 79.5t18 95.5h131q-48 -179 87 -179h13l39 180h133z" />
    <glyph glyph-name="afii10073" unicode="&#x437;" horiz-adv-x="493" 
d="M68 355l15 100q81 39 190 37q76 0 126.5 -26t50.5 -84q0 -45 -26.5 -77.5t-72.5 -44.5q36 -11 57 -37.5t21 -63.5q0 -88 -74 -130t-179 -42q-121 0 -198 44l31 111q20 -14 72 -28.5t97 -15.5q105 0 105 64q0 14 -7.5 23t-22.5 12t-26 4t-30 1h-77l21 96h70q20 0 32 1.5
t26.5 6t22 15.5t7.5 29q0 37 -73 37q-34 0 -81 -9t-77 -23z" />
    <glyph glyph-name="afii10074" unicode="&#x438;" horiz-adv-x="627" 
d="M215 129q20 -26 56 -26q43 0 76.5 29t44.5 77l58 273h140l-71 -337q-10 -34 -4.5 -47t36.5 -11l-17 -87q-30 -7 -58 -9t-56 2.5t-41 24t-6 52.5q-28 -39 -75 -59.5t-96 -20.5q-66 0 -102 30t-39.5 78t7.5 108l22 103q15 60 7 74q-7 14 -43 13l8 42l10 43q91 20 138 -4
t34 -111l-34 -160q-13 -51 5 -77z" />
    <glyph glyph-name="afii10075" unicode="&#x439;" horiz-adv-x="627" 
d="M222 702l88 9q-9 -56 58 -58q69 0 94 58q57 -4 89 -9q-25 -74 -72 -112.5t-124 -38.5q-71 0 -109.5 40.5t-23.5 110.5zM215 129q-18 26 -5 77l34 160q13 87 -34 111t-138 4l-10 -43l-8 -42q36 1 43 -13q8 -14 -7 -74l-22 -103q-11 -60 -7.5 -108t39.5 -78t102 -30
q49 0 96 20.5t75 59.5q-7 -33 6 -52.5t41 -24t56 -2.5t58 9l17 87q-31 -2 -36.5 11t4.5 47l71 337h-140l-58 -273q-11 -48 -44.5 -77t-76.5 -29q-36 0 -56 26z" />
    <glyph glyph-name="afii10076" unicode="&#x43a;" horiz-adv-x="579" 
d="M24 1l65 308l6 29q9 32 0.5 46t-42.5 12l8 42l10 43q54 10 97 8.5t64 -33t8 -90.5l-12 -61h34q77 0 117.5 47.5t58.5 130.5h132q-16 -84 -53 -142.5t-112 -95.5l89 -230l-3 -14h-141l-72 200q-20 -6 -42 -6h-32l-41 -194h-139z" />
    <glyph glyph-name="afii10077" unicode="&#x43b;" horiz-adv-x="604" 
d="M418 359h-135l-54 -176q-38 -126 -93.5 -163t-178.5 -20l25 101q53 -6 73.5 12.5t37.5 74.5l95 294h393l-102 -482h-137z" />
    <glyph glyph-name="afii10078" unicode="&#x43c;" horiz-adv-x="652" 
d="M291 100h-12l-95 121l-47 -221h-134l102 482h42l173 -221l268 221h41l-102 -482h-133l47 221z" />
    <glyph glyph-name="afii10079" unicode="&#x43d;" horiz-adv-x="631" 
d="M23 0l71 338q10 33 1.5 46.5t-43.5 11.5l8 42l10 43q56 11 97.5 9t60.5 -33t8 -91l-11 -56h191l36 172h135l-71 -338q-9 -32 -0.5 -46t42.5 -12l-9 -43l-9 -42q-82 -22 -128 1q-51 27 -38 114l16 74h-192l-40 -190h-135z" />
    <glyph glyph-name="afii10080" unicode="&#x43e;" horiz-adv-x="587" 
d="M546 294q0 -74 -28 -134t-74 -96t-101.5 -55t-114.5 -19q-87 0 -147 53.5t-60 148.5q0 72 28.5 131.5t75 96.5t102.5 56.5t113 19.5q87 0 146.5 -53.5t59.5 -148.5zM161 221q-4 -48 20.5 -76t63.5 -30q55 -4 104.5 37t55.5 113q4 48 -20 76t-64 30q-57 2 -105.5 -37
t-54.5 -113z" />
    <glyph glyph-name="afii10081" unicode="&#x43f;" horiz-adv-x="628" 
d="M52 402l18 82q40 5 81 7.5t68 -17.5t19 -63q62 82 170 82q97 0 132 -58.5t13 -154.5l-28 -131q-11 -34 -4.5 -50t41.5 -14l-17 -82q-40 -10 -72 -10t-58 10t-36.5 37.5t-0.5 70.5l36 169q11 48 -10.5 75.5t-61.5 27.5q-41 0 -77 -28.5t-46 -77.5l-59 -277h-140l71 333
q11 40 5 55.5t-44 13.5z" />
    <glyph glyph-name="afii10082" unicode="&#x440;" horiz-adv-x="600" 
d="M335 376q-57 0 -95.5 -50.5t-38.5 -118.5q0 -45 19.5 -72.5t58.5 -27.5q95 0 137 123q9 33 8.5 66.5t-24 57t-65.5 22.5zM96 -246h-130l121 570q5 22 6.5 32t0.5 22t-10.5 16t-26.5 3l18 88q36 5 72.5 7.5t59.5 -17t14 -58.5q28 36 71.5 57t91.5 21q68 0 111.5 -38
t57 -96.5t1.5 -126.5q-21 -106 -91 -173.5t-173 -69.5q-47 -1 -81.5 17t-46.5 55z" />
    <glyph glyph-name="afii10083" unicode="&#x441;" horiz-adv-x="565" 
d="M537 308h-130q-6 66 -92 66q-56 0 -102 -42.5t-52 -113.5q-3 -53 27.5 -80t73.5 -27q77 0 118 74h136q-37 -98 -112.5 -146.5t-170.5 -48.5q-90 0 -151 53t-61 150q0 140 97 222t221 82q87 0 143.5 -49.5t54.5 -139.5z" />
    <glyph glyph-name="afii10084" unicode="&#x442;" horiz-adv-x="457" 
d="M233 2h-136l76 358h-142l26 122h420l-26 -122h-142z" />
    <glyph glyph-name="afii10085" unicode="&#x443;" horiz-adv-x="599" 
d="M-18 -209l28 105q40 -24 89 -35t99 -7t90 39t54 98l16 74q-43 -73 -146 -73q-201 0 -149 239l22 107q9 32 0.5 46t-42.5 12q10 54 18 85q54 10 97 8.5t64 -33t8 -90.5l-28 -133q-28 -125 61 -125q27 0 49 13.5t35 30.5t24 46t15.5 46.5t10.5 44.5l41 193h138l-104 -491
q-20 -93 -75.5 -155t-125.5 -83t-146.5 -11.5t-142.5 49.5z" />
    <glyph glyph-name="afii10086" unicode="&#x444;" horiz-adv-x="901" 
d="M401 -246h-130l61 286q-20 -16 -47 -30q-39 -21 -87 -21q-68 0 -111.5 38t-57 96.5t-1.5 126.5q21 106 91 173.5t173 69.5q44 1 78.5 -17.5t45.5 -54.5l66 309h130l-61 -288q17 16 46 31q43 22 92 22q98 0 141 -77.5t24 -183.5q-17 -103 -89.5 -172t-169.5 -71
q-47 -1 -81.5 17t-46.5 55zM247 108q53 0 91.5 51t38.5 118q0 45 -19.5 72.5t-58.5 27.5q-92 0 -134 -123q-7 -33 -6.5 -66.5t23.5 -57t65 -22.5zM635 376q-53 0 -91 -51t-38 -118q0 -45 19.5 -72.5t58.5 -27.5q90 0 132 123q9 33 8.5 66.5t-24 57t-65.5 22.5z" />
    <glyph glyph-name="afii10087" unicode="&#x445;" horiz-adv-x="523" 
d="M240 170h-3l-77 -96l-68 -74h-140l3 16l218 240l-98 211l3 15h134l30 -63l29 -81h3l62 82l55 62h143l-3 -16l-194 -215l113 -235l-3 -16h-135l-37 78z" />
    <glyph glyph-name="afii10088" unicode="&#x446;" horiz-adv-x="635" 
d="M90 330q10 40 2.5 54t-42.5 12l8 42l10 43q55 10 97 8.5t62.5 -32.5t9.5 -91l-34 -160q-11 -49 7 -76t55 -27q42 0 77 29t45 77l58 273h139l-75 -355q-7 -34 3.5 -42.5t51.5 -7.5l-50 -198h-107l24 114q-40 -4 -52 17t-1 70q-68 -87 -176 -87q-185 0 -139 213z" />
    <glyph glyph-name="afii10089" unicode="&#x447;" horiz-adv-x="547" 
d="M185 370q-12 -49 5 -77t53 -28q40 0 65.5 13.5t45.5 47.5l34 156h136l-103 -482h-139l41 184q-53 -43 -131 -43q-80 1 -124.5 63.5t-22.5 165.5l24 112h140z" />
    <glyph glyph-name="afii10090" unicode="&#x448;" horiz-adv-x="932" 
d="M187 -11q-50 0 -80.5 16.5t-41.5 47t-10 67t12 83.5l27 127q10 40 2.5 54t-42.5 12l8 42l10 43q55 10 97 8.5t62.5 -32.5t9.5 -91l-34 -163q-13 -47 3.5 -75t53.5 -27q38 1 69 28.5t42 74.5l59 278h138l-59 -278q-11 -48 5.5 -76t55.5 -27q40 1 74 30t44 76l58 275h139
l-71 -335q-9 -35 -1 -51t42 -12l-18 -85q-29 -8 -58 -10.5t-58.5 1t-44 23t-7.5 53.5q-27 -39 -74.5 -58t-97.5 -19q-61 0 -87.5 21t-35.5 67q-29 -42 -83 -65t-108 -23z" />
    <glyph glyph-name="afii10091" unicode="&#x449;" horiz-adv-x="947" 
d="M205 -12q-77 0 -119 55t-19 160l27 127q10 40 2.5 54t-42.5 12l8 42l10 43q54 10 96.5 8.5t64 -33t10.5 -90.5l-25 -119q-13 -65 -13 -77q0 -34 15.5 -52t44.5 -17q38 1 69.5 28.5t41.5 74.5l60 278h138l-50 -234q-14 -70 -14 -77q0 -34 17 -52.5t48 -17.5q36 1 67.5 25
t44.5 66q9 28 15 59l49 231h139l-76 -359q-6 -28 6 -37.5t57 -8.5l-50 -199h-114l25 117q-40 -3 -50 16t-1 63q-73 -88 -182 -88q-91 0 -110 82q-77 -80 -190 -80z" />
    <glyph glyph-name="afii10092" unicode="&#x44a;" horiz-adv-x="568" 
d="M268 -11q-89 0 -139 47t-31 134l42 198h-103l24 114h237l-37 -174q61 31 116 30q63 -2 105 -37t42 -99q0 -102 -76 -157.5t-180 -55.5zM230 156q0 -26 15.5 -42.5t45.5 -16.5q42 0 69 25.5t27 60.5q0 52 -64 54q-43 -1 -68 -23.5t-25 -57.5z" />
    <glyph glyph-name="afii10093" unicode="&#x44b;" horiz-adv-x="766" 
d="M204 -11q-89 0 -139 47t-31 134l66 312h134l-37 -174q61 31 116 30q63 -2 105 -37t42 -99q0 -102 -76 -157.5t-180 -55.5zM166 156q0 -26 15.5 -42.5t45.5 -16.5q42 0 69 25.5t27 60.5q0 52 -64 54q-43 -1 -68 -23.5t-25 -57.5zM744 482l-103 -482h-140l103 482h140z" />
    <glyph glyph-name="afii10094" unicode="&#x44c;" horiz-adv-x="504" 
d="M204 -11q-89 0 -139 47t-31 134l66 312h134l-37 -174q61 31 116 30q63 -2 105 -37t42 -99q0 -102 -76 -157.5t-180 -55.5zM166 156q0 -26 15.5 -42.5t45.5 -16.5q42 0 69 25.5t27 60.5q0 52 -64 54q-43 -1 -68 -23.5t-25 -57.5z" />
    <glyph glyph-name="afii10095" unicode="&#x44d;" horiz-adv-x="569" 
d="M391 289q4 44 -23 63.5t-72 19.5q-90 -2 -129 -67l-132 1q35 91 115 139.5t172 48.5q90 0 148 -52.5t58 -147.5t-48 -167t-119.5 -105.5t-152.5 -33.5q-91 0 -149.5 51.5t-52.5 145.5h134q4 -37 31 -56.5t64 -19.5q44 0 81.5 21.5t53.5 61.5h-158l21 97h158z" />
    <glyph glyph-name="afii10096" unicode="&#x44e;" horiz-adv-x="825" 
d="M783 293q0 -97 -45.5 -167.5t-116 -104t-155.5 -33.5q-91 0 -150 52t-55 149h-83l-40 -189h-135l102 482h135l-36 -172h85q40 89 119 137t168 48q88 0 147.5 -53.5t59.5 -148.5zM399 213q0 -48 27.5 -75.5t67.5 -26.5q55 0 100.5 43t45.5 116q0 48 -26 74.5t-65 26.5
q-57 1 -103.5 -42.5t-46.5 -115.5z" />
    <glyph glyph-name="afii10097" unicode="&#x44f;" horiz-adv-x="553" 
d="M-29 15l155 169q-32 9 -52 38.5t-20 67.5q0 92 66 142t164 50h246l-102 -482h-141l31 146h-67l-134 -146h-149zM259 254h82l26 122h-82q-39 0 -64 -22t-25 -51q0 -22 17 -35.5t46 -13.5z" />
    <glyph glyph-name="afii10071" unicode="&#x451;" horiz-adv-x="544" 
d="M457 138l-18 -108q-67 -35 -181 -40q-111 -4 -176.5 48.5t-61.5 152.5q3 74 30 133t70.5 95t95.5 55t109 21q43 1 80.5 -7.5t68 -27t42.5 -52.5t1 -79q-17 -69 -78.5 -107.5t-133.5 -40.5q-92 -5 -148 31q-11 -59 26.5 -86t107.5 -25q80 0 166 37zM184 301
q15 -11 48.5 -19t64.5 -6q73 2 86 53q7 30 -17 44t-58 14q-88 -5 -124 -86zM475 569q-27 0 -44 14.5t-17 39.5q0 35 26.5 57t62.5 22q27 0 44 -15t17 -40q0 -34 -26.5 -56t-62.5 -22zM229 569q-27 0 -44 14.5t-17 39.5q0 35 26 57t62 22q27 0 45 -15.5t18 -39.5
q0 -33 -27 -55.5t-63 -22.5z" />
    <glyph glyph-name="afii10099" unicode="&#x452;" horiz-adv-x="594" 
d="M247 -6q54 -6 76 14t34 79l39 192q10 49 -9 76t-59 27q-42 0 -80 -36t-49 -86l-55 -260h-141l121 571h-73l20 94h73l14 65h141l-14 -65h136l-20 -94h-136l-30 -145q22 34 65 52.5t93 18.5q52 0 86.5 -18.5t48 -48.5t16.5 -69.5t-8 -81.5l-41 -193q-50 -237 -271 -197
q4 18 11.5 53t11.5 52z" />
    <glyph glyph-name="afii10100" unicode="&#x453;" horiz-adv-x="439" 
d="M139 0h-136l102 482h360l-25 -122h-224zM341 556h-106l3 13l114 159l111 -43l-3 -11z" />
    <glyph glyph-name="afii10101" unicode="&#x454;" horiz-adv-x="571" 
d="M176 288h161l-20 -94h-161q-1 -40 26 -62.5t70 -22.5q95 0 134 76h136q-35 -96 -111 -146.5t-177 -50.5q-88 0 -150 54.5t-62 151.5q0 96 48.5 166t118 101.5t146.5 32.5q89 0 150.5 -49t57.5 -139l-132 -1q-5 69 -101 69q-42 0 -79.5 -22.5t-54.5 -63.5z" />
    <glyph glyph-name="afii10102" unicode="&#x455;" horiz-adv-x="509" 
d="M4 147h137q-5 -28 14.5 -42.5t52.5 -14.5q84 0 98 55q3 14 -0.5 23t-15 14t-18.5 6.5t-25 4.5q-38 5 -59 9t-54 14.5t-49.5 24t-26.5 38.5t-4 57q13 81 80 120t161 39q91 0 143 -40.5t33 -113.5h-132q5 25 -13.5 37t-50.5 12q-35 0 -60.5 -15.5t-25.5 -41.5
q0 -14 10.5 -22.5t21 -10.5t29.5 -4q107 -13 142 -28q75 -34 54 -123q-12 -56 -53 -94t-91.5 -52.5t-106.5 -11.5q-95 0 -150 36t-41 124z" />
    <glyph glyph-name="afii10103" unicode="&#x456;" horiz-adv-x="268" 
d="M121 605q0 43 31 69.5t69 26.5q29 0 48.5 -16.5t19.5 -47.5q0 -44 -30 -69t-70 -25q-29 -1 -48.5 15t-19.5 47zM244 476l-101 -476h-140l101 476h140z" />
    <glyph glyph-name="afii10104" unicode="&#x457;" horiz-adv-x="267" 
d="M298 568q-29 0 -47.5 16t-18.5 43q0 37 28.5 61t67.5 24q29 0 47.5 -16t18.5 -43q0 -37 -28.5 -61t-67.5 -24zM79 568q-29 0 -47.5 16t-18.5 43q0 37 29 61t67 24q30 0 48.5 -16t18.5 -43q0 -37 -28.5 -61t-68.5 -24zM244 482l-102 -482h-139l102 482h139z" />
    <glyph glyph-name="afii10105" unicode="&#x458;" horiz-adv-x="266" 
d="M105 480h138l-115 -537q-27 -127 -98 -171.5t-183 -23.5l26 104q57 -8 81.5 13t36.5 80zM120 605q0 43 31 69.5t70 26.5q29 0 48.5 -16.5t19.5 -47.5q0 -44 -30 -69t-70 -25q-29 -1 -49 15t-20 47z" />
    <glyph glyph-name="afii10106" unicode="&#x459;" horiz-adv-x="816" 
d="M478 156q0 -26 15.5 -42.5t45.5 -16.5q42 0 69 25.5t27 60.5q0 52 -64 54q-43 -1 -68 -23.5t-25 -57.5zM516 -11q-89 0 -139 47t-31 134l40 189h-103l-54 -176q-38 -126 -93 -163t-178 -20l24 101q54 -6 74 12t37 75l96 294h357l-37 -174q61 31 116 30q63 -2 105 -37
t42 -99q0 -102 -76 -157.5t-180 -55.5z" />
    <glyph glyph-name="afii10107" unicode="&#x45a;" horiz-adv-x="820" 
d="M157 0h-134l73 344q4 26 -1 40q-6 14 -42 12l8 42l10 43q56 11 97.5 9t60.5 -33t8 -91l-9 -39h155l33 155h134l-37 -174q61 31 116 30q63 -2 105 -37t42 -99q0 -102 -76 -157.5t-180 -55.5q-89 0 -139 47t-31 134l8 37h-157zM482 156q0 -26 15.5 -42.5t45.5 -16.5
q42 0 69 25.5t27 60.5q0 52 -64 54q-43 -1 -68 -23.5t-25 -57.5z" />
    <glyph glyph-name="afii10108" unicode="&#x45b;" horiz-adv-x="596" 
d="M338 0l58 279q10 49 -9 76t-59 27q-43 0 -80.5 -33.5t-47.5 -83.5l-56 -265h-141l121 571h-71l20 94h71l14 65h141l-14 -65h136l-20 -94h-136l-32 -151q52 73 167 73q51 0 84 -18t45.5 -48t15 -68.5t-8.5 -79.5l-59 -279h-139z" />
    <glyph glyph-name="afii10109" unicode="&#x45c;" horiz-adv-x="579" 
d="M391 556h-106l3 13l114 159l111 -43l-3 -11zM24 1l65 308l6 29q9 32 0.5 46t-42.5 12l8 42l10 43q54 10 97 8.5t64 -33t8 -90.5l-12 -61h34q77 0 117.5 47.5t58.5 130.5h132q-16 -84 -53 -142.5t-112 -95.5l89 -230l-3 -14h-141l-72 200q-20 -6 -42 -6h-32l-41 -194h-139
z" />
    <glyph glyph-name="afii10110" unicode="&#x45e;" horiz-adv-x="599" 
d="M-18 -209q66 -40 142.5 -49.5t146.5 11.5t125.5 83t75.5 155l104 491h-138l-41 -193q-6 -27 -10.5 -44.5t-15.5 -46.5t-24 -46t-35 -30.5t-49 -13.5q-89 0 -61 125l28 133q13 59 -8 90.5t-64 33t-97 -8.5q-8 -31 -18 -85q34 2 42.5 -12t-0.5 -46l-22 -107
q-52 -239 149 -239q103 0 146 73l-16 -74q-14 -63 -54 -98t-90 -39t-99 7t-89 35zM205 702l88 9q-9 -56 58 -58q69 0 94 58q57 -4 89 -9q-25 -74 -72 -112.5t-124 -38.5q-71 0 -109.5 40.5t-23.5 110.5z" />
    <glyph glyph-name="afii10193" unicode="&#x45f;" horiz-adv-x="590" 
d="M169 0h-166l102 482h139l-76 -359h182l76 359h141l-102 -482h-167l-20 -96h-129z" />
    <glyph glyph-name="afii10050" unicode="&#x490;" horiz-adv-x="522" 
d="M567 569h-277l-121 -569h-149l149 700h309l21 100h117z" />
    <glyph glyph-name="afii10098" unicode="&#x491;" horiz-adv-x="440" 
d="M140 0h-137l102 482h254l20 92h106l-45 -214h-223z" />
    <glyph glyph-name="Wgrave" unicode="&#x1e80;" horiz-adv-x="967" 
d="M534 688h61l60 -426h2l106 224q20 43 64.5 120t53.5 94h157q-3 -8 -5 -22l-376 -684h-81l-77 378h-3l-215 -378h-92l-97 684l5 22h157l27 -214l14 -223h2zM642 774l-2 -13h-114l-66 110l3 12l138 47z" />
    <glyph glyph-name="wgrave" unicode="&#x1e81;" horiz-adv-x="854" 
d="M257 104q74 0 98 102l58 276h132l-59 -276q-11 -49 3.5 -75.5t51.5 -26.5q51 0 83 46.5t41.5 112.5t10 124.5t-6.5 94.5h135q8 -53 8.5 -108t-10 -118t-34 -113.5t-69 -89.5t-109.5 -52q-69 -13 -124.5 5t-72.5 70q-56 -82 -173 -82q-94 0 -138.5 56t-24.5 152l28 129
q11 35 5 55.5t-42 18.5l17 80q52 9 95 8t65 -30.5t9 -86.5l-36 -170q-11 -47 5 -74.5t54 -27.5zM557 575l-2 -12h-109l-64 105l3 12l132 45z" />
    <glyph glyph-name="Wacute" unicode="&#x1e82;" horiz-adv-x="967" 
d="M534 688h61l60 -426h2l106 224q20 43 64.5 120t53.5 94h157q-3 -8 -5 -22l-376 -684h-81l-77 378h-3l-215 -378h-92l-97 684l5 22h157l27 -214l14 -223h2zM631 758h-114l2 13l108 156l118 -47l-2 -12z" />
    <glyph glyph-name="wacute" unicode="&#x1e83;" horiz-adv-x="854" 
d="M257 104q74 0 98 102l58 276h132l-59 -276q-11 -49 3.5 -75.5t51.5 -26.5q51 0 83 46.5t41.5 112.5t10 124.5t-6.5 94.5h135q8 -53 8.5 -108t-10 -118t-34 -113.5t-69 -89.5t-109.5 -52q-69 -13 -124.5 5t-72.5 70q-56 -82 -173 -82q-94 0 -138.5 56t-24.5 152l28 129
q11 35 5 55.5t-42 18.5l17 80q52 9 95 8t65 -30.5t9 -86.5l-36 -170q-11 -47 5 -74.5t54 -27.5zM542 559h-111l2 13l105 151l114 -46l-2 -11z" />
    <glyph glyph-name="Wdieresis" unicode="&#x1e84;" horiz-adv-x="967" 
d="M534 688h61l60 -426h2l106 224q20 43 64.5 120t53.5 94h157q-3 -8 -5 -22l-376 -684h-81l-77 378h-3l-215 -378h-92l-97 684l5 22h157l27 -214l14 -223h2zM709 747q-29 0 -47.5 16t-18.5 43q0 37 28.5 61t67.5 24q29 0 47.5 -16t18.5 -43q0 -37 -28.5 -61t-67.5 -24z
M443 747q-29 0 -47.5 16t-18.5 43q0 37 29 61t67 24q30 0 48.5 -16t18.5 -43q0 -37 -28.5 -61t-68.5 -24z" />
    <glyph glyph-name="wdieresis" unicode="&#x1e85;" horiz-adv-x="854" 
d="M257 104q74 0 98 102l58 276h132l-59 -276q-11 -49 3.5 -75.5t51.5 -26.5q51 0 83 46.5t41.5 112.5t10 124.5t-6.5 94.5h135q8 -53 8.5 -108t-10 -118t-34 -113.5t-69 -89.5t-109.5 -52q-69 -13 -124.5 5t-72.5 70q-56 -82 -173 -82q-94 0 -138.5 56t-24.5 152l28 129
q11 35 5 55.5t-42 18.5l17 80q52 9 95 8t65 -30.5t9 -86.5l-36 -170q-11 -47 5 -74.5t54 -27.5zM633 572q-29 0 -47.5 16t-18.5 43q0 37 28.5 61t67.5 24q29 0 47.5 -16t18.5 -43q0 -37 -28.5 -61t-67.5 -24zM367 572q-29 0 -47.5 16t-18.5 43q0 37 29 61t67 24
q30 0 48.5 -16t18.5 -43q0 -37 -28.5 -61t-68.5 -24z" />
    <glyph glyph-name="Ygrave" unicode="&#x1ef2;" horiz-adv-x="634" 
d="M334 417h5l98 139l115 144h165l-5 -22l-326 -405l-58 -273h-150l59 280l-156 398l5 22h155l55 -149zM477 771l-2 -13h-114l-66 110l3 12l138 47z" />
    <glyph glyph-name="ygrave" unicode="&#x1ef3;" horiz-adv-x="599" 
d="M-18 -209l28 105q40 -24 89 -35t99 -7t90 39t54 98l16 74q-43 -73 -146 -73q-201 0 -149 239l22 107q9 32 0.5 46t-42.5 12q10 54 18 85q54 10 97 8.5t64 -33t8 -90.5l-28 -133q-28 -125 61 -125q27 0 49 13.5t35 30.5t24 46t15.5 46.5t10.5 44.5l41 193h138l-104 -491
q-20 -93 -75.5 -155t-125.5 -83t-146.5 -11.5t-142.5 49.5zM417 574l-2 -12h-109l-64 105l3 12l132 45z" />
    <glyph glyph-name="endash" unicode="&#x2013;" horiz-adv-x="545" 
d="M57 273l26 120h423l-26 -120h-423z" />
    <glyph glyph-name="emdash" unicode="&#x2014;" horiz-adv-x="633" 
d="M57 273l26 120h511l-26 -120h-511z" />
    <glyph glyph-name="quoteleft" unicode="&#x2018;" horiz-adv-x="259" 
d="M102 547q4 15 13 31l68 125h82l-41 -84q44 -13 44 -60q0 -39 -30 -64.5t-70 -25.5q-28 0 -46.5 13.5t-20.5 37.5q-2 16 1 27z" />
    <glyph glyph-name="quoteright" unicode="&#x2019;" horiz-adv-x="260" 
d="M284 629q-5 -17 -13 -31l-68 -126h-82l42 85q-44 13 -44 60q0 39 29 64.5t71 25.5q27 0 45.5 -14t21.5 -38q1 -9 -2 -26z" />
    <glyph glyph-name="quotesinglbase" unicode="&#x201a;" horiz-adv-x="272" 
d="M174 74q0 -19 -16 -47l-68 -126h-82l42 85q-44 13 -44 60q0 39 30 65t70 26q28 0 46 -14t21 -38q0 -1 0.5 -5t0.5 -6z" />
    <glyph glyph-name="quotedblleft" unicode="&#x201c;" horiz-adv-x="477" 
d="M100 520v11q0 23 15 47l68 125h82l-43 -85q46 -13 46 -59q0 -39 -30.5 -65t-71.5 -26q-28 0 -46 14t-20 38zM319 520v11q0 21 15 47l68 125h82l-42 -85q45 -13 45 -59q0 -39 -30.5 -65t-70.5 -26q-28 0 -46.5 14t-20.5 38z" />
    <glyph glyph-name="quotedblright" unicode="&#x201d;" horiz-adv-x="483" 
d="M284 629q-5 -17 -13 -31l-68 -126h-82l42 85q-44 13 -44 60q0 39 29 64.5t71 25.5q27 0 45.5 -14t21.5 -38q1 -9 -2 -26zM509 644q0 -21 -16 -46l-67 -126h-83l42 85q-44 13 -44 60q0 39 29.5 64.5t70.5 25.5q28 0 46 -14t21 -38q0 -1 0.5 -5t0.5 -6z" />
    <glyph glyph-name="quotedblbase" unicode="&#x201e;" horiz-adv-x="494" 
d="M175 74q0 -17 -16 -47q-64 -120 -67 -125h-83l43 84q-45 13 -45 60q0 40 29.5 65.5t71.5 25.5q27 0 45 -14t21 -38q0 -1 0.5 -5t0.5 -6zM393 59q-4 -18 -13 -32q-12 -21 -34 -62.5t-34 -62.5h-82l42 84q-44 13 -44 60q0 39 30 65t70 26q27 0 45.5 -14t21.5 -38
q1 -9 -2 -26z" />
    <glyph glyph-name="dagger" unicode="&#x2020;" horiz-adv-x="479" 
d="M53 361l25 118h139l49 230h127l-49 -230h139l-25 -118h-139l-95 -448h-127l95 448h-139z" />
    <glyph glyph-name="daggerdbl" unicode="&#x2021;" horiz-adv-x="519" 
d="M15 125l25 116h145l32 152h-145l24 115h145l43 201h127l-43 -201h148l-24 -115h-148l-32 -152h148l-25 -116h-148l-45 -212h-127l45 212h-145z" />
    <glyph glyph-name="bullet" unicode="&#x2022;" horiz-adv-x="448" 
d="M208 220q-54 0 -89 31.5t-35 82.5q0 71 55 118t128 47q55 0 89.5 -31t34.5 -84q0 -70 -55.5 -117t-127.5 -47z" />
    <glyph glyph-name="ellipsis" unicode="&#x2026;" horiz-adv-x="792" 
d="M76 -15q-31 0 -50 17.5t-19 45.5q0 39 30.5 65t70.5 26q30 0 49.5 -17t19.5 -46q0 -38 -30.5 -64.5t-70.5 -26.5zM333 -15q-30 0 -49.5 17.5t-19.5 45.5q0 39 30.5 65t70.5 26q30 0 49.5 -17t19.5 -46q0 -38 -30.5 -64.5t-70.5 -26.5zM593 -15q-30 0 -49.5 17.5
t-19.5 45.5q0 39 30.5 65t70.5 26q30 0 49.5 -17t19.5 -46q0 -38 -30.5 -64.5t-70.5 -26.5z" />
    <glyph glyph-name="perthousand" unicode="&#x2030;" horiz-adv-x="1348" 
d="M163 0l492 699h136l-493 -699h-135zM868 197q0 -67 -34.5 -117.5t-84.5 -74t-104 -23.5q-61 0 -103.5 38t-42.5 105q0 98 67.5 156t152.5 58q64 0 106.5 -36.5t42.5 -105.5zM612 141q0 -29 15 -45.5t38 -16.5q33 0 61 27t28 73q0 29 -16 45.5t-39 16.5q-33 0 -60 -27
t-27 -73zM455 572q0 -98 -68 -156t-153 -58q-63 0 -105.5 37t-42.5 105q0 67 34.5 117.5t84.5 74t104 23.5q61 0 103.5 -38t42.5 -105zM200 517q0 -29 15 -45t38 -16q33 0 61 27t28 73q0 29 -15 45.5t-38 16.5q-33 0 -61 -27.5t-28 -73.5zM1288 197q0 -67 -34.5 -117.5
t-84.5 -74t-104 -23.5q-61 0 -103.5 38t-42.5 105q0 98 67.5 156t152.5 58q64 0 106.5 -36.5t42.5 -105.5zM1032 141q0 -29 15 -45.5t38 -16.5q33 0 61 27t28 73q0 29 -16 45.5t-39 16.5q-33 0 -60 -27t-27 -73z" />
    <glyph glyph-name="guilsinglleft" unicode="&#x2039;" horiz-adv-x="329" 
d="M332 558l-143 -212l54 -209l-86 -33l-100 242l203 244z" />
    <glyph glyph-name="guilsinglright" unicode="&#x203a;" horiz-adv-x="329" 
d="M165 346l-53 212l86 32l99 -244l-202 -242l-72 33z" />
    <glyph glyph-name="fraction" unicode="&#x2044;" horiz-adv-x="519" 
d="M-77 -60l550 789h144l-550 -789h-144z" />
    <glyph glyph-name="Euro" unicode="&#x20ac;" horiz-adv-x="655" 
d="M63 382l17 77h80q56 118 163.5 183t226.5 65q78 0 131 -25l-69 -117q-36 17 -84 17q-64 0 -119.5 -33t-92.5 -90h210l-42 -77h-208q-10 -28 -12 -55h190l-44 -79h-146q9 -59 51 -93t114 -34q56 0 112 27l23 -121q-82 -35 -166 -35q-134 0 -209 66t-76 190h-78l17 79h67
q3 26 12 55h-68z" />
    <glyph glyph-name="afii61352" unicode="&#x2116;" horiz-adv-x="1353" 
d="M582 -2l-317 409l-86 -407h-149l149 703h41l312 -408l87 405h150l-149 -702h-38zM1309 294q0 95 -59.5 148.5t-146.5 53.5q-57 0 -113 -19.5t-102.5 -56.5t-75 -96.5t-28.5 -131.5q0 -95 60 -148.5t147 -53.5q59 0 114.5 19t101.5 55t74 96t28 134zM924 221
q6 74 54.5 113t105.5 37q40 -2 64 -30t20 -76q-6 -72 -55.5 -113t-104.5 -37q-39 2 -63.5 30t-20.5 76z" />
    <glyph glyph-name="trademark" unicode="&#x2122;" horiz-adv-x="766" 
d="M215 618h-82l18 83h257l-18 -83h-82l-42 -196h-93zM507 701l87 -118l138 118h46l-60 -279h-93l26 119l-79 -68h-4l-49 68l-26 -119h-93l60 279h47z" />
    <glyph glyph-name="arrowleft" unicode="&#x2190;" horiz-adv-x="764" 
d="M369 56l-242 279l4 20l361 277l70 -84l-189 -135l405 6l-32 -148l-400 6l130 -136z" />
    <glyph glyph-name="arrowup" unicode="&#x2191;" horiz-adv-x="723" 
d="M507 657l215 -301l-104 -89l-102 159l-79 -402h-148l92 404l-170 -161l-65 88l341 302h20z" />
    <glyph glyph-name="arrowright" unicode="&#x2192;" horiz-adv-x="771" 
d="M774 335l-361 -279l-71 85l188 136l-403 -6l31 148l403 -6l-132 135l106 84l243 -277z" />
    <glyph glyph-name="arrowdown" unicode="&#x2193;" horiz-adv-x="706" 
d="M350 31l-215 301l104 89l102 -159l80 402h148l-92 -404l169 161l65 -88l-341 -302h-20z" />
    <glyph glyph-name="arrowboth" unicode="&#x2194;" horiz-adv-x="989" 
d="M1004 335l-347 -269l-69 82l182 131h-437l126 -131l-103 -82l-233 269l4 20l348 268l69 -82l-184 -130h439l-128 130l103 82l234 -268z" />
    <glyph glyph-name="arrowupdn" unicode="&#x2195;" horiz-adv-x="694" 
d="M333 -43l-208 279l99 83l99 -147l82 385l-162 -147l-63 83l326 279h20l206 -280l-98 -83l-98 150l-83 -389l162 150l63 -83l-325 -280h-20z" />
    <glyph glyph-name="uni2196" unicode="&#x2196;" horiz-adv-x="735" 
d="M162 162l71 409l17 14l406 -17l-23 -122l-206 18l230 -282l-126 -104l-220 288l-28 -208z" />
    <glyph glyph-name="uni2197" unicode="&#x2197;" horiz-adv-x="708" 
d="M708 571l-103 -409l-123 -4l60 208l-342 -288l-82 104l350 282l-214 -18l29 122l414 17z" />
    <glyph glyph-name="uni2198" unicode="&#x2198;" horiz-adv-x="735" 
d="M694 539l-71 -409l-17 -14l-406 17l23 122l206 -18l-230 282l126 104l220 -288l28 208z" />
    <glyph glyph-name="uni2199" unicode="&#x2199;" horiz-adv-x="735" 
d="M167 130l103 409l123 4l-60 -208l342 288l82 -104l-350 -282l214 18l-29 -122l-414 -17z" />
    <glyph glyph-name="minus" unicode="&#x2212;" horiz-adv-x="552" 
d="M68 293l26 120h415l-26 -120h-415z" />
    <glyph glyph-name="CR" horiz-adv-x="219" 
 />
    </font>
</defs>
</svg>
