<?xml version="1.0" encoding="utf-8"?>
<!-- Generator: Adobe Illustrator 20.1.0, SVG Export Plug-In . SVG Version: 6.00 Build 0)  -->
<svg version="1.1" id="Layer_1" xmlns="http://www.w3.org/2000/svg" xmlns:xlink="http://www.w3.org/1999/xlink" x="0px" y="0px"
	 viewBox="0 0 133 133" style="enable-background:new 0 0 133 133;" xml:space="preserve">
<style type="text/css">
	.st0{display:none;}
	.st1{display:inline;}
	.st2{fill-rule:evenodd;clip-rule:evenodd;fill:#073861;}
	.st3{fill-rule:evenodd;clip-rule:evenodd;fill:#FFFFFF;}
	.st4{fill-rule:evenodd;clip-rule:evenodd;fill:#B52C35;}
	.st5{fill-rule:evenodd;clip-rule:evenodd;fill:#CC2128;}
	.st6{fill:#003B64;}
</style>
<g>
	<g class="st0">
		<defs>
			<polygon id="SVGID_1_" points="-18.6,-46.1 151.6,-46.1 151.6,191.3 66.1,152.3 -18.6,191.3 -18.6,-46.1 			"/>
		</defs>
		<use xlink:href="#SVGID_1_"  style="display:inline;overflow:visible;fill-rule:evenodd;clip-rule:evenodd;fill:#B52C35;"/>
		<clipPath id="SVGID_2_" class="st1">
			<use xlink:href="#SVGID_1_"  style="overflow:visible;"/>
		</clipPath>
	</g>
	<polygon class="st2" points="66.5,0 69.9,0.1 73.3,0.3 76.6,0.8 79.9,1.4 83.1,2.1 86.3,3 89.3,4 92.4,5.2 95.3,6.6 98.2,8 
		101,9.6 103.7,11.4 106.3,13.2 108.8,15.2 111.2,17.3 113.5,19.5 115.7,21.8 117.8,24.2 119.8,26.7 121.6,29.3 123.3,32 
		124.9,34.8 126.4,37.7 127.8,40.6 128.9,43.6 130,46.7 130.9,49.9 131.6,53.1 132.2,56.4 132.6,59.7 132.9,63.1 133,66.5 
		132.9,69.9 132.6,73.3 132.2,76.6 131.6,79.9 130.9,83.1 130,86.3 128.9,89.3 127.8,92.4 126.4,95.3 124.9,98.2 123.3,101 
		121.6,103.7 119.8,106.3 117.8,108.8 115.7,111.2 113.5,113.5 111.2,115.7 108.8,117.8 106.3,119.8 103.7,121.6 101,123.3 
		98.2,124.9 95.3,126.4 92.4,127.8 89.3,128.9 86.3,130 83.1,130.9 79.9,131.6 76.6,132.2 73.3,132.6 69.9,132.9 66.5,133 
		63.1,132.9 59.7,132.6 56.4,132.2 53.1,131.6 49.9,130.9 46.7,130 43.6,128.9 40.6,127.8 37.7,126.4 34.8,124.9 32,123.3 
		29.3,121.6 26.7,119.8 24.2,117.8 21.8,115.7 19.5,113.5 17.3,111.2 15.2,108.8 13.2,106.3 11.4,103.7 9.6,101 8,98.2 6.6,95.3 
		5.2,92.4 4,89.3 3,86.3 2.1,83.1 1.4,79.9 0.8,76.6 0.3,73.3 0.1,69.9 0,66.5 0.1,63.1 0.3,59.7 0.8,56.4 1.4,53.1 2.1,49.9 
		3,46.7 4,43.6 5.2,40.6 6.6,37.7 8,34.8 9.6,32 11.4,29.3 13.2,26.7 15.2,24.2 17.3,21.8 19.5,19.5 21.8,17.3 24.2,15.2 26.7,13.2 
		29.3,11.4 32,9.6 34.8,8 37.7,6.6 40.6,5.2 43.6,4 46.7,3 49.9,2.1 53.1,1.4 56.4,0.8 59.7,0.3 63.1,0.1 66.5,0 	"/>
	<path class="st3" d="M66.5,3C101.5,3,130,31.4,130,66.5S101.5,130,66.5,130C31.4,130,3,101.5,3,66.5S31.4,3,66.5,3L66.5,3z"/>
	<path class="st4" d="M66.5,25.9c22.4,0,40.6,18.2,40.6,40.6c0,22.4-18.2,40.6-40.6,40.6c-22.4,0-40.6-18.2-40.6-40.6
		C25.9,44.1,44.1,25.9,66.5,25.9L66.5,25.9z"/>
	<path class="st3" d="M59.5,45.6l-5.4,17.5l-2.7,8.7V89h-8.3V72.2c-0.2-1.5-0.9-4.5-2.1-9c-1.1-3.8-2.7-9.6-4.8-17.5h7.9L47.8,61
		l4.2-15.3H59.5L59.5,45.6z M76.8,89H60.6V45.6h16.1v5.6h-7.8v11.7h7.1v5.2h-7.1v15.2h7.9V89L76.8,89z M78.2,71.6h7.5v9.9
		c0,1,0.5,1.5,1.6,1.5c1,0,1.5-0.5,1.5-1.5v-5.1c0-1.6-0.9-3.4-2.7-5.5c-3.5-3.9-5.7-6.6-6.6-7.9c-0.9-1.3-1.3-2.8-1.3-4.4v-4.9
		c0-5.6,3.2-8.4,9.6-8.4c5.7,0,8.6,2.6,8.6,7.7v7.5h-7.6v-8c0-0.9-0.4-1.3-1.2-1.3c-1,0-1.5,0.8-1.5,2.5l0.2,2.8
		c0,1.6,0.9,3.5,2.8,5.6c3.4,3.8,5.7,6.5,6.6,8c0.9,1.5,1.4,3.2,1.4,5.1v5.5c0,5.8-3.2,8.6-9.6,8.6c-6.2,0-9.3-2.6-9.3-7.9V71.6
		L78.2,71.6z"/>
	<path class="st5" d="M67.9,10.4c2.5,0,4.6,2,4.6,4.6s-2,4.6-4.6,4.6s-4.6-2-4.6-4.6S65.4,10.4,67.9,10.4L67.9,10.4z"/>
	<path class="st4" d="M23.1,87.9c2.5,0,4.6,2,4.6,4.6s-2,4.6-4.6,4.6c-2.5,0-4.6-2-4.6-4.6S20.5,87.9,23.1,87.9L23.1,87.9z"/>
	<path class="st4" d="M110.1,87.9c2.5,0,4.6,2,4.6,4.6s-2,4.6-4.6,4.6s-4.6-2-4.6-4.6S107.6,87.9,110.1,87.9L110.1,87.9z"/>
	<path class="st6" d="M24.3,79.6l-13.4,3.1L9,74.5l2.3-0.5l1.4,5.9l3-0.7l-1.3-5.5l2.3-0.5l1.3,5.5l3.6-0.8l-1.4-6.1l2.3-0.5
		L24.3,79.6L24.3,79.6z M22.3,67.8L8.6,66.6l0.2-2.2l9.6-3.8l-9.2-0.8l0.2-2.1L23,58.9l-0.2,2.3l-9.3,3.7l8.9,0.8L22.3,67.8
		L22.3,67.8z M20.9,48.5l-2.2-0.9l1.8-4.5l5.1,2.1c0.4,0.7,0.6,1.5,0.6,2.5c0,1-0.1,1.9-0.4,2.8c-0.4,1-1,1.8-1.9,2.4
		c-0.8,0.6-1.8,0.9-3,1c-1.2,0.1-2.5-0.2-3.8-0.8c-1.4-0.6-2.5-1.3-3.3-2.2c-0.8-0.9-1.3-1.8-1.5-2.7c-0.2-0.9-0.1-1.9,0.3-3
		c0.5-1.2,1.2-2.1,2.2-2.6c0.9-0.5,2.1-0.6,3.4-0.3l-0.4,2.3c-0.7-0.1-1.3,0-1.9,0.3c-0.5,0.3-0.9,0.7-1.1,1.3
		c-0.4,0.9-0.3,1.8,0.2,2.6c0.5,0.8,1.4,1.5,2.9,2.1c1.5,0.6,2.8,0.8,3.9,0.5c0.9-0.2,1.5-0.8,1.9-1.7c0.2-0.4,0.2-0.9,0.2-1.4
		c0-0.5-0.1-1-0.3-1.5l-1.6-0.7L20.9,48.5L20.9,48.5z M29.3,42.7l-10.8-8.4l1.4-1.8l8.9,7l3.5-4.5l1.8,1.4L29.3,42.7L29.3,42.7z
		 M36.3,34.5l-8.8-10.5l1.7-1.5L38,33L36.3,34.5L36.3,34.5z M37.9,27l1.8-1.3c1.1,1.4,2.2,1.8,3.5,1.1c0.6-0.3,1-0.8,1.1-1.3
		c0.2-0.5,0.1-1-0.2-1.5c-0.2-0.3-0.3-0.5-0.6-0.6c-0.2-0.1-0.5-0.2-0.8-0.2c-0.3,0-1,0.2-2.1,0.4c-1,0.2-1.8,0.3-2.3,0.2
		c-0.6-0.1-1.1-0.3-1.6-0.6c-0.5-0.4-0.9-0.8-1.2-1.4c-0.4-0.6-0.6-1.3-0.6-2c0-0.7,0.2-1.3,0.5-1.9c0.4-0.6,0.9-1.1,1.7-1.5
		c1.1-0.7,2.2-0.9,3.2-0.6c1,0.2,1.9,0.9,2.6,2.1L41,19.2c-0.5-0.6-0.9-0.9-1.3-1c-0.4-0.1-0.9,0-1.4,0.3c-0.5,0.3-0.9,0.7-1,1
		c-0.2,0.4-0.1,0.7,0,1.1c0.2,0.3,0.5,0.5,0.9,0.6c0.4,0.1,1.1,0,2.2-0.3c1.2-0.3,2-0.4,2.7-0.3c0.6,0.1,1.2,0.3,1.7,0.6
		c0.5,0.4,1,0.9,1.4,1.6c0.6,1,0.8,2.1,0.6,3.2c-0.2,1.1-1,2-2.4,2.8C41.9,30.1,39.8,29.5,37.9,27L37.9,27z M51.1,24.9L48,11.5
		l2.2-0.5l1.2,5.3l4.4-1L54.6,10l2.2-0.5l3.1,13.4l-2.2,0.5l-1.4-5.9l-4.4,1l1.4,5.9L51.1,24.9L51.1,24.9z"/>
	<polygon class="st6" points="101.3,113.8 92.4,103.3 94.2,101.8 97.6,105.9 101.1,103.1 97.6,98.9 99.3,97.5 108.2,108 
		106.4,109.5 102.6,104.9 99.1,107.7 103,112.3 101.3,113.8 	"/>
	<path class="st6" d="M93,113l2.4-0.2c0.4,1.5,0.4,2.8,0,3.8c-0.4,1-1.1,1.8-2.2,2.3c-1.3,0.7-2.6,0.7-4,0.1c-1.5-0.7-2.8-2-3.8-4
		c-1.1-2.1-1.4-4-1.1-5.6c0.3-1.4,1.1-2.5,2.5-3.2c1.1-0.6,2.3-0.7,3.4-0.3c0.8,0.3,1.6,0.9,2.4,1.8l-1.7,1.6c-0.5-0.6-1-1-1.5-1.1
		c-0.6-0.2-1.1-0.1-1.6,0.2c-0.7,0.4-1.2,1-1.3,1.9c-0.1,0.9,0.2,2.1,0.9,3.6c0.8,1.5,1.6,2.5,2.4,2.9c0.8,0.4,1.5,0.4,2.3,0.1
		c0.5-0.3,0.9-0.7,1.1-1.3C93.3,114.7,93.2,113.9,93,113L93,113z"/>
	<path class="st6" d="M74.4,120.2l2.1-0.8c0.7,1.6,1.7,2.3,3,2c0.7-0.2,1.1-0.5,1.4-0.9c0.3-0.4,0.4-0.9,0.3-1.4
		c-0.1-0.3-0.2-0.5-0.4-0.7c-0.2-0.2-0.4-0.3-0.7-0.4c-0.3-0.1-1-0.1-2.2-0.2c-1-0.1-1.8-0.2-2.3-0.4c-0.5-0.2-1-0.6-1.4-1.1
		c-0.4-0.5-0.7-1-0.8-1.7c-0.2-0.7-0.2-1.4,0-2.1c0.2-0.7,0.5-1.2,1-1.7c0.5-0.4,1.2-0.8,2-1c1.3-0.3,2.4-0.2,3.3,0.3
		c0.9,0.5,1.5,1.4,1.9,2.7l-2.2,0.7c-0.3-0.7-0.6-1.1-1-1.3c-0.4-0.2-0.9-0.2-1.5-0.1s-1,0.4-1.3,0.7c-0.3,0.3-0.3,0.7-0.3,1
		c0.1,0.4,0.3,0.6,0.7,0.8c0.4,0.2,1.1,0.3,2.2,0.3c1.2,0,2.1,0.2,2.7,0.4c0.6,0.2,1.1,0.6,1.5,1.1c0.4,0.5,0.7,1.1,0.9,1.9
		c0.3,1.2,0.2,2.2-0.3,3.2c-0.5,1-1.5,1.6-3.1,2C77.3,124.4,75.5,123.2,74.4,120.2L74.4,120.2z"/>
	<polygon class="st6" points="66.2,125.1 65.6,113.7 62.3,113.9 62.2,111.5 71.1,111.1 71.2,113.4 67.9,113.6 68.5,125 66.2,125.1 	
		"/>
	<path class="st6" d="M52,109.5l2.2,0.5l-1.8,7.2c-0.3,1.1-0.4,1.9-0.5,2.2c-0.1,0.6,0.1,1.1,0.4,1.5c0.3,0.4,0.7,0.7,1.3,0.8
		c0.5,0.1,1,0.1,1.3,0c0.4-0.1,0.7-0.4,0.9-0.8c0.2-0.4,0.5-1.2,0.8-2.6l1.8-7.4l2.2,0.6l-1.7,7c-0.4,1.8-0.9,3.1-1.3,3.8
		c-0.4,0.8-1,1.3-1.8,1.6c-0.8,0.3-1.7,0.4-2.8,0.1c-1.1-0.3-2-0.7-2.5-1.3c-0.5-0.6-0.9-1.3-1-2.1c-0.1-0.8,0.1-2.2,0.6-4.2
		L52,109.5L52,109.5z"/>
	<polygon class="st6" points="37.6,117.7 43.2,105.1 50.8,108.5 49.9,110.7 44.3,108.2 43.1,111 48.2,113.3 47.3,115.4 42.1,113.1 
		40.6,116.5 46.4,119.1 45.4,121.2 37.6,117.7 	"/>
	<path class="st6" d="M34.9,101.7l-5.5,7.3l1.4,1c0.6,0.4,1,0.7,1.4,0.8c0.3,0.1,0.7,0.1,1,0c0.3-0.1,0.7-0.3,1.2-0.7
		c0.5-0.4,1-1,1.6-1.8c0.6-0.8,1-1.5,1.3-2.1c0.2-0.6,0.3-1.1,0.3-1.5c0-0.5-0.2-0.8-0.5-1.2c-0.2-0.3-0.7-0.7-1.4-1.2L34.9,101.7
		L34.9,101.7z M34.5,98.5l3.3,2.5c0.8,0.6,1.4,1.2,1.7,1.7c0.3,0.5,0.4,1.1,0.5,1.8c0,0.7-0.1,1.5-0.5,2.4c-0.3,0.9-0.9,1.8-1.7,2.9
		c-0.7,1-1.4,1.7-2.2,2.2c-0.7,0.5-1.4,0.9-2.1,1.1c-0.6,0.2-1.3,0.2-1.9,0c-0.6-0.1-1.3-0.5-2-1l-3.4-2.6L34.5,98.5L34.5,98.5z"/>
	<path class="st6" d="M114.8,73.2l-0.2,2.2c-1.8-0.2-2.8,0.4-3.1,1.8c-0.2,0.7-0.1,1.2,0.2,1.7c0.3,0.5,0.7,0.8,1.2,0.9
		c0.3,0.1,0.6,0.1,0.8,0c0.2-0.1,0.5-0.3,0.7-0.5c0.2-0.2,0.6-0.9,1.1-1.8c0.5-0.9,1-1.5,1.4-1.9c0.4-0.4,1-0.6,1.6-0.7
		c0.6-0.1,1.2-0.1,1.8,0c0.7,0.2,1.4,0.5,1.9,1c0.5,0.5,0.8,1,1,1.7c0.2,0.7,0.1,1.4-0.1,2.3c-0.3,1.3-0.9,2.2-1.7,2.8
		c-0.9,0.6-2,0.7-3.3,0.5l0.4-2.2c0.7,0.1,1.3,0,1.7-0.3c0.4-0.3,0.6-0.7,0.7-1.3c0.1-0.6,0.1-1.1-0.1-1.5c-0.2-0.4-0.4-0.6-0.8-0.7
		c-0.4-0.1-0.7,0-1,0.2c-0.3,0.2-0.7,0.8-1.3,1.8c-0.6,1-1.1,1.8-1.6,2.2c-0.5,0.4-1,0.7-1.6,0.8c-0.6,0.1-1.3,0.1-2.1-0.1
		c-1.2-0.3-2.1-0.9-2.7-1.8c-0.6-0.9-0.8-2.1-0.4-3.6C109.7,74,111.6,72.8,114.8,73.2L114.8,73.2z"/>
	<polygon class="st6" points="110.5,69.1 124.2,70.1 124.1,72.3 110.3,71.4 110.5,69.1 	"/>
	<path class="st6" d="M115.8,63.5l5-2l-5.2-1.1L115.8,63.5L115.8,63.5z M110.8,68.2l-0.2-2.5l3-1.3l-0.4-4.5l-3.2-0.7l-0.2-2.4
		l14.1,3.2l0.2,2.4L110.8,68.2L110.8,68.2z"/>
	<polygon class="st6" points="101.3,39.3 112.8,31.8 114,33.7 108.8,42.5 116.5,37.5 117.7,39.3 106.1,46.8 104.9,44.9 109.9,36.2 
		102.4,41.1 101.3,39.3 	"/>
	<path class="st6" d="M100.7,38.3l-1.8-1.7l1.4-3L97,30.5l-2.8,1.7l-1.8-1.7l12.6-7.1l1.8,1.6L100.7,38.3L100.7,38.3z M101.4,31.4
		l2.3-4.8l-4.6,2.7L101.4,31.4L101.4,31.4z"/>
	<path class="st6" d="M83.6,25.6l6.7-12l4.2,2.3c1.1,0.6,1.8,1.1,2.1,1.6c0.3,0.5,0.5,1.1,0.5,1.8c0,0.7-0.2,1.4-0.6,2.2
		c-0.5,0.9-1.2,1.6-1.9,1.9c-0.8,0.3-1.6,0.3-2.5,0c0.3,0.5,0.4,1.1,0.5,1.6c0.1,0.5,0.1,1.4,0.1,2.6l-0.1,3l-2.4-1.3l0-3.4
		c0-1.2,0-2-0.1-2.4c-0.1-0.3-0.2-0.6-0.3-0.8c-0.2-0.2-0.5-0.4-0.9-0.7l-0.4-0.2l-2.8,5L83.6,25.6L83.6,25.6z M89.4,19.8l1.5,0.8
		c0.9,0.5,1.5,0.8,1.8,0.8c0.3,0.1,0.6,0,0.9-0.1c0.3-0.2,0.5-0.4,0.8-0.8c0.2-0.4,0.3-0.7,0.3-1.1c0-0.3-0.1-0.6-0.4-0.8
		c-0.2-0.2-0.7-0.5-1.6-1l-1.6-0.9L89.4,19.8L89.4,19.8z"/>
	<path class="st6" d="M109,54.3c-0.4,0.3-0.8,0.6-1.3,0.7c-0.5,0.1-0.7,0-1.2-0.2c-0.8-0.4-1.5-1.2-1.5-2.5l1.4,0
		c0,0.7,0.3,1.1,0.7,1.3c0.2,0.1,0.1,0.1,0.4,0.1c0.2,0,0.4-0.1,0.6-0.3c0.1-0.1,0.1-0.1,0.2-0.2c-0.1-0.1-0.1-0.2-0.1-0.4
		c-0.5-1.4-0.4-2.7,0.4-3.9c0.9-1.4,2.3-2.5,4.4-3.3c2.2-0.8,4.1-0.9,5.7-0.4c1.4,0.5,2.4,1.4,2.9,2.9c0.4,1.2,0.4,2.3-0.1,3.4
		c-0.4,0.8-1.1,1.5-2.1,2.2l-1.4-1.9c0.7-0.4,1.1-0.9,1.3-1.4c0.2-0.5,0.2-1.1,0-1.6c-0.3-0.8-0.9-1.3-1.7-1.5
		c-0.9-0.2-2.1-0.1-3.6,0.5c-1.6,0.6-2.7,1.3-3.2,2c-0.5,0.7-0.6,1.5-0.3,2.3c0.2,0.6,0.6,1,1.2,1.2c0.6,0.3,1.4,0.3,2.4,0.1l0,2.4
		c-1.6,0.2-2.8,0.1-3.8-0.5C109.7,54.9,109.4,54.6,109,54.3L109,54.3z"/>
	<polygon class="st6" points="75.3,23.4 78.9,10.1 86.3,12.1 85.7,14.3 80.5,12.9 79.6,16 84.2,17.3 83.6,19.5 79,18.3 77.5,23.9 
		75.3,23.4 	"/>
</g>
</svg>
