<svg id="Layer_1" xmlns="http://www.w3.org/2000/svg" xmlns:xlink="http://www.w3.org/1999/xlink" viewBox="0 0 133 133"><style>.st0{display:none}.st1{display:inline}.st2{fill:#073861}.st2,.st3,.st4,.st5{fill-rule:evenodd;clip-rule:evenodd}.st3{fill:#fff}.st4{fill:#b52c35}.st5{fill:#cc2128}.st6{fill:#003b64}</style><g class="st0"><defs><path id="SVGID_1_" d="M-18.6-46.1h170.2v237.4l-85.5-39-84.7 39V-46.1z"/></defs><use xlink:href="#SVGID_1_" overflow="visible" fill-rule="evenodd" clip-rule="evenodd" fill="#b52c35"/><clipPath id="SVGID_2_" class="st1"><use xlink:href="#SVGID_1_" overflow="visible"/></clipPath></g><path class="st2" d="M66.5 0l3.4.1 3.4.2 3.3.5 3.3.6 3.2.7 3.2.9 3 1 3.1 1.2 2.9 1.4L98.2 8l2.8 1.6 2.7 1.8 2.6 1.8 2.5 2 2.4 2.1 2.3 2.2 2.2 2.3 2.1 2.4 2 2.5 1.8 2.6 1.7 2.7 1.6 2.8 1.5 2.9 1.4 2.9 1.1 3 1.1 3.1.9 3.2.7 3.2.6 3.3.4 3.3.3 3.4.1 3.4-.1 3.4-.3 3.4-.4 3.3-.6 3.3-.7 3.2-.9 3.2-1.1 3-1.1 3.1-1.4 2.9-1.5 2.9-1.6 2.8-1.7 2.7-1.8 2.6-2 2.5-2.1 2.4-2.2 2.3-2.3 2.2-2.4 2.1-2.5 2-2.6 1.8-2.7 1.7-2.8 1.6-2.9 1.5-2.9 1.4-3.1 1.1-3 1.1-3.2.9-3.2.7-3.3.6-3.3.4-3.4.3-3.4.1-3.4-.1-3.4-.3-3.3-.4-3.3-.6-3.2-.7-3.2-.9-3.1-1.1-3-1.1-2.9-1.4-2.9-1.5-2.8-1.6-2.7-1.7-2.6-1.8-2.5-2-2.4-2.1-2.3-2.2-2.2-2.3-2.1-2.4-2-2.5-1.8-2.6-1.8-2.7L8 98.2l-1.4-2.9-1.4-2.9L4 89.3l-1-3-.9-3.2-.7-3.2-.6-3.3-.5-3.3-.2-3.4-.1-3.4.1-3.4.2-3.4.5-3.3.6-3.3.7-3.2.9-3.2 1-3.1 1.2-3 1.4-2.9L8 34.8 9.6 32l1.8-2.7 1.8-2.6 2-2.5 2.1-2.4 2.2-2.3 2.3-2.2 2.4-2.1 2.5-2 2.6-1.8L32 9.6 34.8 8l2.9-1.4 2.9-1.4 3-1.2 3.1-1 3.2-.9 3.2-.7 3.3-.6 3.3-.5 3.4-.2 3.4-.1z"/><path class="st3" d="M66.5 3c35 0 63.5 28.4 63.5 63.5S101.5 130 66.5 130C31.4 130 3 101.5 3 66.5S31.4 3 66.5 3z"/><path class="st4" d="M66.5 25.9c22.4 0 40.6 18.2 40.6 40.6 0 22.4-18.2 40.6-40.6 40.6-22.4 0-40.6-18.2-40.6-40.6 0-22.4 18.2-40.6 40.6-40.6z"/><path class="st3" d="M59.5 45.6l-5.4 17.5-2.7 8.7V89h-8.3V72.2c-.2-1.5-.9-4.5-2.1-9-1.1-3.8-2.7-9.6-4.8-17.5h7.9L47.8 61 52 45.7h7.5v-.1zM76.8 89H60.6V45.6h16.1v5.6h-7.8v11.7H76v5.2h-7.1v15.2h7.9V89zm1.4-17.4h7.5v9.9c0 1 .5 1.5 1.6 1.5 1 0 1.5-.5 1.5-1.5v-5.1c0-1.6-.9-3.4-2.7-5.5-3.5-3.9-5.7-6.6-6.6-7.9-.9-1.3-1.3-2.8-1.3-4.4v-4.9c0-5.6 3.2-8.4 9.6-8.4 5.7 0 8.6 2.6 8.6 7.7v7.5h-7.6v-8c0-.9-.4-1.3-1.2-1.3-1 0-1.5.8-1.5 2.5l.2 2.8c0 1.6.9 3.5 2.8 5.6 3.4 3.8 5.7 6.5 6.6 8 .9 1.5 1.4 3.2 1.4 5.1v5.5c0 5.8-3.2 8.6-9.6 8.6-6.2 0-9.3-2.6-9.3-7.9v-9.8z"/><path class="st5" d="M67.9 10.4c2.5 0 4.6 2 4.6 4.6s-2 4.6-4.6 4.6-4.6-2-4.6-4.6 2.1-4.6 4.6-4.6z"/><path class="st4" d="M23.1 87.9c2.5 0 4.6 2 4.6 4.6s-2 4.6-4.6 4.6c-2.5 0-4.6-2-4.6-4.6s2-4.6 4.6-4.6zm87 0c2.5 0 4.6 2 4.6 4.6s-2 4.6-4.6 4.6-4.6-2-4.6-4.6 2.1-4.6 4.6-4.6z"/><path class="st6" d="M24.3 79.6l-13.4 3.1L9 74.5l2.3-.5 1.4 5.9 3-.7-1.3-5.5 2.3-.5 1.3 5.5 3.6-.8-1.4-6.1 2.3-.5 1.8 8.3zm-2-11.8L8.6 66.6l.2-2.2 9.6-3.8-9.2-.8.2-2.1L23 58.9l-.2 2.3-9.3 3.7 8.9.8-.1 2.1zm-1.4-19.3l-2.2-.9 1.8-4.5 5.1 2.1c.4.7.6 1.5.6 2.5s-.1 1.9-.4 2.8c-.4 1-1 1.8-1.9 2.4-.8.6-1.8.9-3 1-1.2.1-2.5-.2-3.8-.8-1.4-.6-2.5-1.3-3.3-2.2-.8-.9-1.3-1.8-1.5-2.7-.2-.9-.1-1.9.3-3 .5-1.2 1.2-2.1 2.2-2.6.9-.5 2.1-.6 3.4-.3l-.4 2.3c-.7-.1-1.3 0-1.9.3-.5.3-.9.7-1.1 1.3-.4.9-.3 1.8.2 2.6s1.4 1.5 2.9 2.1c1.5.6 2.8.8 3.9.5.9-.2 1.5-.8 1.9-1.7.2-.4.2-.9.2-1.4 0-.5-.1-1-.3-1.5l-1.6-.7-1.1 2.4zm8.4-5.8l-10.8-8.4 1.4-1.8 8.9 7 3.5-4.5 1.8 1.4-4.8 6.3zm7-8.2L27.5 24l1.7-1.5L38 33l-1.7 1.5zm1.6-7.5l1.8-1.3c1.1 1.4 2.2 1.8 3.5 1.1.6-.3 1-.8 1.1-1.3.2-.5.1-1-.2-1.5-.2-.3-.3-.5-.6-.6-.2-.1-.5-.2-.8-.2-.3 0-1 .2-2.1.4-1 .2-1.8.3-2.3.2-.6-.1-1.1-.3-1.6-.6-.5-.4-.9-.8-1.2-1.4-.4-.6-.6-1.3-.6-2s.2-1.3.5-1.9c.4-.6.9-1.1 1.7-1.5 1.1-.7 2.2-.9 3.2-.6 1 .2 1.9.9 2.6 2.1L41 19.2c-.5-.6-.9-.9-1.3-1-.4-.1-.9 0-1.4.3-.5.3-.9.7-1 1-.2.4-.1.7 0 1.1.2.3.5.5.9.6.4.1 1.1 0 2.2-.3 1.2-.3 2-.4 2.7-.3.6.1 1.2.3 1.7.6.5.4 1 .9 1.4 1.6.6 1 .8 2.1.6 3.2-.2 1.1-1 2-2.4 2.8-2.5 1.3-4.6.7-6.5-1.8zm13.2-2.1L48 11.5l2.2-.5 1.2 5.3 4.4-1-1.2-5.3 2.2-.5 3.1 13.4-2.2.5-1.4-5.9-4.4 1 1.4 5.9-2.2.5zm50.2 88.9l-8.9-10.5 1.8-1.5 3.4 4.1 3.5-2.8-3.5-4.2 1.7-1.4 8.9 10.5-1.8 1.5-3.8-4.6-3.5 2.8 3.9 4.6-1.7 1.5zM93 113l2.4-.2c.4 1.5.4 2.8 0 3.8s-1.1 1.8-2.2 2.3c-1.3.7-2.6.7-4 .1-1.5-.7-2.8-2-3.8-4-1.1-2.1-1.4-4-1.1-5.6.3-1.4 1.1-2.5 2.5-3.2 1.1-.6 2.3-.7 3.4-.3.8.3 1.6.9 2.4 1.8l-1.7 1.6c-.5-.6-1-1-1.5-1.1-.6-.2-1.1-.1-1.6.2-.7.4-1.2 1-1.3 1.9-.1.9.2 2.1.9 3.6.8 1.5 1.6 2.5 2.4 2.9.8.4 1.5.4 2.3.1.5-.3.9-.7 1.1-1.3.1-.9 0-1.7-.2-2.6zm-18.6 7.2l2.1-.8c.7 1.6 1.7 2.3 3 2 .7-.2 1.1-.5 1.4-.9.3-.4.4-.9.3-1.4-.1-.3-.2-.5-.4-.7-.2-.2-.4-.3-.7-.4-.3-.1-1-.1-2.2-.2-1-.1-1.8-.2-2.3-.4-.5-.2-1-.6-1.4-1.1-.4-.5-.7-1-.8-1.7-.2-.7-.2-1.4 0-2.1.2-.7.5-1.2 1-1.7.5-.4 1.2-.8 2-1 1.3-.3 2.4-.2 3.3.3.9.5 1.5 1.4 1.9 2.7l-2.2.7c-.3-.7-.6-1.1-1-1.3-.4-.2-.9-.2-1.5-.1s-1 .4-1.3.7c-.3.3-.3.7-.3 1 .1.4.3.6.7.8.4.2 1.1.3 2.2.3 1.2 0 2.1.2 2.7.4.6.2 1.1.6 1.5 1.1.4.5.7 1.1.9 1.9.3 1.2.2 2.2-.3 3.2s-1.5 1.6-3.1 2c-2.6.9-4.4-.3-5.5-3.3zm-8.2 4.9l-.6-11.4-3.3.2-.1-2.4 8.9-.4.1 2.3-3.3.2.6 11.4-2.3.1zM52 109.5l2.2.5-1.8 7.2c-.3 1.1-.4 1.9-.5 2.2-.1.6.1 1.1.4 1.5.3.4.7.7 1.3.8.5.1 1 .1 1.3 0 .4-.1.7-.4.9-.8.2-.4.5-1.2.8-2.6l1.8-7.4 2.2.6-1.7 7c-.4 1.8-.9 3.1-1.3 3.8-.4.8-1 1.3-1.8 1.6-.8.3-1.7.4-2.8.1-1.1-.3-2-.7-2.5-1.3-.5-.6-.9-1.3-1-2.1-.1-.8.1-2.2.6-4.2l1.9-6.9zm-14.4 8.2l5.6-12.6 7.6 3.4-.9 2.2-5.6-2.5-1.2 2.8 5.1 2.3-.9 2.1-5.2-2.3-1.5 3.4 5.8 2.6-1 2.1-7.8-3.5zm-2.7-16l-5.5 7.3 1.4 1c.6.4 1 .7 1.4.8.3.1.7.1 1 0 .3-.1.7-.3 1.2-.7.5-.4 1-1 1.6-1.8.6-.8 1-1.5 1.3-2.1.2-.6.3-1.1.3-1.5 0-.5-.2-.8-.5-1.2-.2-.3-.7-.7-1.4-1.2l-.8-.6zm-.4-3.2l3.3 2.5c.8.6 1.4 1.2 1.7 1.7.3.5.4 1.1.5 1.8 0 .7-.1 1.5-.5 2.4-.3.9-.9 1.8-1.7 2.9-.7 1-1.4 1.7-2.2 2.2-.7.5-1.4.9-2.1 1.1-.6.2-1.3.2-1.9 0-.6-.1-1.3-.5-2-1l-3.4-2.6 8.3-11zm80.3-25.3l-.2 2.2c-1.8-.2-2.8.4-3.1 1.8-.2.7-.1 1.2.2 1.7.3.5.7.8 1.2.9.3.1.6.1.8 0 .2-.1.5-.3.7-.5.2-.2.6-.9 1.1-1.8.5-.9 1-1.5 1.4-1.9.4-.4 1-.6 1.6-.7.6-.1 1.2-.1 1.8 0 .7.2 1.4.5 1.9 1s.8 1 1 1.7c.2.7.1 1.4-.1 2.3-.3 1.3-.9 2.2-1.7 2.8-.9.6-2 .7-3.3.5l.4-2.2c.7.1 1.3 0 1.7-.3.4-.3.6-.7.7-1.3.1-.6.1-1.1-.1-1.5-.2-.4-.4-.6-.8-.7-.4-.1-.7 0-1 .2-.3.2-.7.8-1.3 1.8-.6 1-1.1 1.8-1.6 2.2-.5.4-1 .7-1.6.8-.6.1-1.3.1-2.1-.1-1.2-.3-2.1-.9-2.7-1.8-.6-.9-.8-2.1-.4-3.6.4-2.7 2.3-3.9 5.5-3.5zm-4.3-4.1l13.7 1-.1 2.2-13.8-.9.2-2.3zm5.3-5.6l5-2-5.2-1.1.2 3.1zm-5 4.7l-.2-2.5 3-1.3-.4-4.5-3.2-.7-.2-2.4 14.1 3.2.2 2.4-13.3 5.8zm-9.5-28.9l11.5-7.5 1.2 1.9-5.2 8.8 7.7-5 1.2 1.8-11.6 7.5-1.2-1.9 5-8.7-7.5 4.9-1.1-1.8zm-.6-1l-1.8-1.7 1.4-3-3.3-3.1-2.8 1.7-1.8-1.7 12.6-7.1 1.8 1.6-6.1 13.3zm.7-6.9l2.3-4.8-4.6 2.7 2.3 2.1z"/><path class="st6" d="M83.6 25.6l6.7-12 4.2 2.3c1.1.6 1.8 1.1 2.1 1.6.3.5.5 1.1.5 1.8s-.2 1.4-.6 2.2c-.5.9-1.2 1.6-1.9 1.9-.8.3-1.6.3-2.5 0 .3.5.4 1.1.5 1.6.1.5.1 1.4.1 2.6l-.1 3-2.4-1.3v-3.4c0-1.2 0-2-.1-2.4-.1-.3-.2-.6-.3-.8-.2-.2-.5-.4-.9-.7l-.4-.2-2.8 5-2.1-1.2zm5.8-5.8l1.5.8c.9.5 1.5.8 1.8.8.3.1.6 0 .9-.1.3-.2.5-.4.8-.8.2-.4.3-.7.3-1.1 0-.3-.1-.6-.4-.8-.2-.2-.7-.5-1.6-1l-1.6-.9-1.7 3.1zM109 54.3c-.4.3-.8.6-1.3.7-.5.1-.7 0-1.2-.2-.8-.4-1.5-1.2-1.5-2.5h1.4c0 .7.3 1.1.7 1.3.2.1.1.1.4.1.2 0 .4-.1.6-.3l.2-.2c-.1-.1-.1-.2-.1-.4-.5-1.4-.4-2.7.4-3.9.9-1.4 2.3-2.5 4.4-3.3 2.2-.8 4.1-.9 5.7-.4 1.4.5 2.4 1.4 2.9 2.9.4 1.2.4 2.3-.1 3.4-.4.8-1.1 1.5-2.1 2.2l-1.4-1.9c.7-.4 1.1-.9 1.3-1.4.2-.5.2-1.1 0-1.6-.3-.8-.9-1.3-1.7-1.5-.9-.2-2.1-.1-3.6.5-1.6.6-2.7 1.3-3.2 2s-.6 1.5-.3 2.3c.2.6.6 1 1.2 1.2.6.3 1.4.3 2.4.1v2.4c-1.6.2-2.8.1-3.8-.5-.6-.4-.9-.7-1.3-1zM75.3 23.4l3.6-13.3 7.4 2-.6 2.2-5.2-1.4-.9 3.1 4.6 1.3-.6 2.2-4.6-1.2-1.5 5.6-2.2-.5z"/></svg>