<svg id="Слой_1" xmlns="http://www.w3.org/2000/svg" xmlns:xlink="http://www.w3.org/1999/xlink" viewBox="0 0 90 90"><style>.st0{clip-path:url(#SVGID_2_);fill:#fff}</style><defs><path id="SVGID_1_" d="M37.1 19.3l4.8 4.8-8.9 8.8c-.8.7-1.2 1.9-.9 3 .3 1.1 1.1 1.9 2.2 2.2 1.1.3 2.2-.1 3-.9l8.9-8.9 3.8 3.8-6 5.8c-.8.7-1.2 1.9-.9 3 .3 1.1 1.1 1.9 2.2 2.2 1.1.3 2.2-.1 3-.9l5.9-5.9 3.8 3.8-9 8.8c-.8.7-1.2 1.9-.9 3 .3 1.1 1.1 1.9 2.2 2.2 1.1.3 2.2-.1 3-.9l8.9-8.9 3.8 3.8-6 5.8c-.8.7-1.2 1.9-.9 3 .3 1.1 1.1 1.9 2.2 2.2 1.1.3 2.2-.1 3-.9l5.9-5.9.9.9c4.7 4.7 4.7 13.1 0 17.8-4.6 4.6-14.2 4.7-18.7 0l-33-33.9 17.7-17.8zM22.8 0c-.7.1-1.3.4-1.8.9l-20 20c-.8.7-1.2 1.9-.9 3 .3 1.1 1.1 1.9 2.2 2.2 1.1.3 2.2-.1 3-.9l7.9-7.9 8.8 8.8L6 41.9c-.8.7-1.2 1.9-.9 3 .3 1.1 1.1 1.9 2.2 2.2 1.1.3 2.2-.1 3-.9l4.8-4.8L48 75.1c6.5 6.7 17.5 7.2 25 1.9l12 12.1c.7.8 1.9 1.2 3 .9s1.9-1.1 2.2-2.2c.3-1.1-.1-2.2-.9-3L77.2 72.9c5.1-7.2 4.5-17.5-1.9-23.9L41.4 15.1l4.9-4.9c.9-.9 1.2-2.3.6-3.5-.6-1.2-1.8-1.8-3.1-1.7-.7.1-1.3.4-1.8.9L26.1 21.8 17.3 13l7.9-7.9c.9-.9 1.2-2.3.6-3.5-.5-1.1-1.7-1.7-3-1.6z"/></defs><clipPath id="SVGID_2_"><use xlink:href="#SVGID_1_" overflow="visible"/></clipPath><path class="st0" d="M-5-5H95.3V95.2H-5z"/></svg>