<svg id="Слой_1" xmlns="http://www.w3.org/2000/svg" xmlns:xlink="http://www.w3.org/1999/xlink" viewBox="0 0 79 71"><style>.st0{clip-path:url(#SVGID_2_);fill:#fff}</style><defs><path id="SVGID_1_" d="M32.7 45h11.9l-9 21.3h-6.7L32.7 45zm-28-24.5H9l3.1 8.7c.3.9 1.3 1.6 2.2 1.6h46.5c3.3 0 11.8.8 13.4 4.7-1.6 3.9-10.1 4.7-13.4 4.7H14.3c-1 0-1.9.7-2.2 1.6L9 50.5H4.7v-30zM28.9 4.7h6.7l9 21.3H32.7L28.9 4.7zM26.1 0c-1.7 0-2.5 1.7-2.3 2.8L28 26H16l-3.1-8.6c-.3-.9-1.2-1.6-2.2-1.6H2.4c-1.3 0-2.4 1.1-2.4 2.4v34.7c0 1.2 1.1 2.4 2.4 2.4h8.3c1 0 1.9-.7 2.2-1.6L16 45h12l-4.2 23.2c-.1 1.1.7 2.8 2.3 2.8h11.1c.9 0 1.8-.6 2.2-1.4L49.7 45h11.1c6.1 0 18.2-1.9 18.2-9.5S66.9 26 60.8 26H49.7L39.3 1.4C38.9.6 38 0 37.1 0h-11z"/></defs><clipPath id="SVGID_2_"><use xlink:href="#SVGID_1_" overflow="visible"/></clipPath><path class="st0" d="M-5-5h89v81H-5z"/></svg>