<svg id="Слой_1" xmlns="http://www.w3.org/2000/svg" xmlns:xlink="http://www.w3.org/1999/xlink" viewBox="0 0 63 71"><style>.st0{clip-path:url(#SVGID_2_);fill:#fff}</style><defs><path id="SVGID_1_" d="M46.5 60h6.3v6.3h-6.3V60zm-36.3 0h6.3v6.3h-6.3V60zm39.4-15c-1.7 0-3.2 1.4-3.2 3.2 0 1.7 1.4 3.1 3.2 3.1s3.2-1.4 3.2-3.1c0-1.8-1.5-3.2-3.2-3.2zm-36.2 0c-1.8 0-3.2 1.4-3.2 3.2 0 1.7 1.4 3.1 3.2 3.1 1.7 0 3.2-1.4 3.2-3.1-.1-1.8-1.5-3.2-3.2-3.2zm-7.1-4h50.5c.9 0 1.5.6 1.5 1.5v12.7H4.7V42.6c0-.9.7-1.6 1.6-1.6zm27.4-25.2h20.6v20.5H33.9V16.6c0-.3-.1-.6-.2-.8zm-25 0h20.6c-.1.3-.1.5-.1.8v19.7H8.7V15.8zm6-11.1h33.6c3.4 0 6.1 2.6 6.1 5.9v.4H8.7v-.4c0-3.2 2.6-5.9 6-5.9zm0-4.7C8.8 0 3.9 4.8 3.9 10.7v26.1C1.6 37.7 0 40 0 42.6v15C0 58.9 1.1 60 2.4 60h3.2v8.7c0 1.3 1.1 2.4 2.3 2.4h11c1.3 0 2.4-1.1 2.4-2.4V60h20.5v8.7c0 1.3 1.1 2.4 2.3 2.4h11.1c1.2 0 2.3-1.1 2.3-2.4V60h3.2c1.2 0 2.4-1.1 2.4-2.4v-15c0-2.6-1.6-4.9-3.9-5.8V10.7C59.1 4.8 54.2 0 48.3 0H14.7z"/></defs><clipPath id="SVGID_2_"><use xlink:href="#SVGID_1_" overflow="visible"/></clipPath><path class="st0" d="M-5-5h73v81H-5z"/></svg>