<svg id="Слой_1" xmlns="http://www.w3.org/2000/svg" xmlns:xlink="http://www.w3.org/1999/xlink" viewBox="0 0 90 80"><style>.st0{clip-path:url(#SVGID_2_);fill:#fff}</style><defs><path id="SVGID_1_" d="M12.2 29h65.6l5.1 16H7.1l5.1-16zM53 18h19c2.7 0 4.7 1.9 5 4.5v.5H48c0-2.8 2.2-5 5-5zm-35 0h19c2.8 0 5 2.2 5 5H13v-.5c.3-2.6 2.3-4.5 5-4.5zM13 6h64v7.2c-1.5-.8-3.2-1.2-5-1.2H53c-3.1 0-6 1.4-8 3.5-2-2.1-4.9-3.5-8-3.5H18c-1.8 0-3.5.4-5 1.2V6zM9.7 0C8.2.2 7 1.5 7 3v22.6L.2 47.1c-.1.3-.2.6-.2.9v29c0 1.1.6 2.1 1.5 2.6s2.1.5 3 0S6 78.1 6 77v-6h71c1.1 0 2.1-.6 2.6-1.5s.5-2.1 0-3c-.5-.9-1.5-1.5-2.6-1.5H6V51h78v26c0 1.1.6 2.1 1.5 2.6s2.1.5 3 0c.9-.5 1.5-1.6 1.5-2.6V48c0-.3-.1-.6-.2-.9L83 25.6V3c0-1.7-1.3-3-3-3H9.7z"/></defs><clipPath id="SVGID_2_"><use xlink:href="#SVGID_1_" overflow="visible"/></clipPath><path class="st0" d="M-5-5H95v90H-5z"/></svg>