<svg id="Слой_1" xmlns="http://www.w3.org/2000/svg" xmlns:xlink="http://www.w3.org/1999/xlink" viewBox="0 0 90 90"><style>.st0{clip-path:url(#SVGID_2_);fill:#fff}</style><defs><path id="SVGID_1_" d="M74.2 46.1h7.3c1.5 0 2.7 1.1 2.7 2.7v22.7c0 1.5-1.1 2.7-2.7 2.7h-7.6c.2-1 .2-2 .2-3V46.1zM71.1 30c-.8 0-1.6.3-2.1.9-.6.6-.9 1.3-.8 2.2v38c0 6.7-4.9 12.1-11.3 12.9-.2 0-.3.1-.5.1H22c-.2-.1-.3-.1-.5-.1-6.4-.8-11.3-6.2-11.3-12.9v-35h51c1.1 0 2.1-.6 2.6-1.5s.5-2.1 0-3c-.5-.9-1.6-1.5-2.6-1.5H6.9c-1.5.2-2.7 1.5-2.7 3v38c0 5 2 9.6 5.2 13H2.9c-1.1.1-2 .7-2.5 1.6s-.4 2.1.2 3c.6.9 1.6 1.4 2.7 1.4h72c1.1 0 2.1-.6 2.6-1.5s.5-2.1 0-3c-.5-.9-1.6-1.5-2.6-1.5H69c1.1-1.2 2.1-2.5 2.9-4h9.6c4.7 0 8.7-3.9 8.7-8.7V48.7c0-4.7-3.9-8.7-8.7-8.7h-7.3v-7c0-.8-.3-1.6-.9-2.2-.6-.5-1.4-.8-2.2-.8zM56.2 0c-1 0-1.9.5-2.5 1.3-.6.8-.7 1.9-.3 2.8 1.5 3.8.9 4.2 0 6.4s-2 6-.1 11.5c.4 1 1.2 1.8 2.3 2 1.1.2 2.1-.2 2.8-1 .7-.8.9-1.9.6-3-1.5-4.4-.9-5.2-.1-7.3.8-2.1 2-5.8 0-10.8C58.5.8 57.4 0 56.2 0zm-17 0c-1 0-1.9.5-2.5 1.3-.6.8-.7 1.9-.3 2.8 1.5 3.8.9 4.2 0 6.4s-2 6-.1 11.5c.4 1 1.2 1.8 2.3 2 1.1.2 2.1-.2 2.8-1 .7-.8.9-1.9.6-3-1.5-4.4-.9-5.2-.1-7.3.8-2.1 2-5.8 0-10.8C41.5.8 40.4 0 39.2 0zm-17 0c-1 0-1.9.5-2.5 1.3-.6.8-.7 1.9-.3 2.8 1.5 3.8.9 4.2 0 6.4s-2 6-.1 11.5c.4 1 1.2 1.8 2.3 2 1.1.2 2.1-.2 2.8-1 .7-.8.9-1.9.6-3-1.5-4.4-.9-5.2-.1-7.3.8-2.1 2-5.8 0-10.8C24.5.8 23.4 0 22.2 0z"/></defs><clipPath id="SVGID_2_"><use xlink:href="#SVGID_1_" overflow="visible"/></clipPath><path class="st0" d="M-5-5H95.2V95.1H-5z"/></svg>