<svg id="Слой_1" xmlns="http://www.w3.org/2000/svg" xmlns:xlink="http://www.w3.org/1999/xlink" viewBox="0 0 90 70"><style>.st0{clip-path:url(#SVGID_2_);fill:#b7b7b7}</style><defs><path id="SVGID_1_" d="M16.2 58.9h58V64h-58v-5.1zm29-52.8c2.2 0 4 1.7 4 4s-1.7 4-4 4c-2.2 0-4-1.7-4-4s1.7-4 4-4zm0-6.1c-5.5 0-10 4.5-10 10 0 2.2.7 4.2 1.9 5.8C16 19.3 0 36 0 56c0 1.6 1.4 2.8 3.2 2.8h7V64H2.9c-1.1.1-2 .7-2.5 1.6-.5 1-.4 2.1.2 3S2.2 70 3.3 70h84c1.1 0 2.1-.6 2.6-1.5s.5-2.1 0-3c-.5-.9-1.6-1.5-2.6-1.5h-7v-5.2h7.3c1.6-.2 2.9-1.5 2.8-3-.1-1.5-1.4-2.7-3.1-2.7h-73c-.4-.1-.8-.1-1.2-.1-.4 0-.7.1-1.1.2H6.6c1.6-18.1 18.1-32.3 38.5-32.3 17.9 0 33 11 37.5 25.9.5 1.4 2.2 2.2 3.8 1.8 1.6-.4 2.6-1.9 2.2-3.4-4.5-15-18.3-26.6-35.4-29.4 1.2-1.6 1.9-3.7 1.9-5.8.1-5.5-4.5-10-9.9-10z"/></defs><clipPath id="SVGID_2_"><use xlink:href="#SVGID_1_" overflow="visible"/></clipPath><path class="st0" d="M-5-5H95.3v80H-5z"/></svg>