<svg id="Слой_1" xmlns="http://www.w3.org/2000/svg" xmlns:xlink="http://www.w3.org/1999/xlink" viewBox="0 0 63 71"><style>.st0{clip-path:url(#SVGID_2_);fill:#fff}</style><defs><path id="SVGID_1_" d="M18.7 59.1c4 .6 8.4.9 12.8.9s8.8-.3 12.8-.8l2.4 3.2-30.4-.1 2.4-3.2zM52 39.5c-1.8 0-3.2 1.4-3.2 3.2 0 1.7 1.4 3.2 3.2 3.2 1.7 0 3.2-1.4 3.2-3.2-.1-1.8-1.5-3.2-3.2-3.2zm-41 0c-1.7 0-3.2 1.4-3.2 3.2 0 1.7 1.4 3.2 3.2 3.2s3.2-1.4 3.2-3.2c0-1.8-1.4-3.2-3.2-3.2zm-6.3-4.2L31 41c.2.1.3.1.5.1s.3 0 .5-.1l26.3-5.7V48c0 .8-.3 1.5-1.6 2.4-1.2 1-3.3 1.9-5.8 2.6-5.1 1.5-12.3 2.3-19.4 2.3-7.1 0-14.2-.9-19.4-2.4-2.6-.8-4.6-1.7-5.9-2.6S4.7 48.7 4.7 48V35.3zM33.9 4.7h18.3c3.4 0 6.1 2.7 6.1 6v19.8l-24.4 5.3V4.7zm-23.1 0h18.4v31L4.7 30.5V10.7c0-3.3 2.7-6 6.1-6zm0-4.7C4.9 0 0 4.8 0 10.7V48c0 2.5 1.5 4.6 3.4 6.1 2 1.5 4.5 2.5 7.4 3.4.9.3 1.8.5 2.7.7l-6.8 9.1c-.7 1-.5 2.5.5 3.3 1 .8 2.5.5 3.3-.4l2.3-3.1 37.4.1 2.2 3c.8 1 2.3 1.2 3.3.4 1-.7 1.2-2.3.5-3.3l-6.7-9c.9-.2 1.8-.4 2.7-.7 2.9-.9 5.4-1.9 7.3-3.4 2-1.5 3.5-3.6 3.5-6.2V10.7C63 4.8 58.1 0 52.2 0H10.8z"/></defs><clipPath id="SVGID_2_"><use xlink:href="#SVGID_1_" overflow="visible"/></clipPath><path class="st0" d="M-5-5h73v81H-5z"/></svg>