<?xml version="1.0" encoding="UTF-8"?><!DOCTYPE svg PUBLIC "-//W3C//DTD SVG 1.1//EN" "http://www.w3.org/Graphics/SVG/1.1/DTD/svg11.dtd"><svg xmlns="http://www.w3.org/2000/svg" xmlns:xlink="http://www.w3.org/1999/xlink"><defs>
    <rect height="11.4" width="12.4" y="0" id="SVGID_1_"/>
   
		<rect id="SVGID_1_" y="0" width="12.4" height="11.4"/>
	
		<path id="SVGID_1_" d="M32.7,45h11.9l-9,21.3h-6.7L32.7,45z M4.7,20.5H9l3.1,8.7c0.3,0.9,1.3,1.6,2.2,1.6h46.5
			c3.3,0,11.8,0.8,13.4,4.7c-1.6,3.9-10.1,4.7-13.4,4.7H14.3c-1,0-1.9,0.7-2.2,1.6L9,50.5H4.7L4.7,20.5L4.7,20.5z M28.9,4.7h6.7
			l9,21.3H32.7L28.9,4.7z M26.1,0c-1.7,0-2.5,1.7-2.3,2.8L28,26H16l-3.1-8.6c-0.3-0.9-1.2-1.6-2.2-1.6H2.4c-1.3,0-2.4,1.1-2.4,2.4
			v34.7c0,1.2,1.1,2.4,2.4,2.4h8.3c1,0,1.9-0.7,2.2-1.6L16,45h12l-4.2,23.2c-0.1,1.1,0.7,2.8,2.3,2.8h11.1c0.9,0,1.8-0.6,2.2-1.4
			L49.7,45h11.1c6.1,0,18.2-1.9,18.2-9.5S66.9,26,60.8,26H49.7L39.3,1.4C38.9,0.6,38,0,37.1,0H26.1z"/>
	
		<path id="SVGID_1_" d="M46.5,60h6.3v6.3h-6.3V60z M10.2,60h6.3v6.3h-6.3V60z M49.6,45c-1.7,0-3.2,1.4-3.2,3.2
			c0,1.7,1.4,3.1,3.2,3.1s3.2-1.4,3.2-3.1C52.8,46.4,51.3,45,49.6,45z M13.4,45c-1.8,0-3.2,1.4-3.2,3.2c0,1.7,1.4,3.1,3.2,3.1
			c1.7,0,3.2-1.4,3.2-3.1C16.5,46.4,15.1,45,13.4,45z M6.3,41h50.5c0.9,0,1.5,0.6,1.5,1.5v12.7H4.7V42.6C4.7,41.7,5.4,41,6.3,41z
			 M33.7,15.8h20.6v20.5H33.9V16.6C33.9,16.3,33.8,16,33.7,15.8z M8.7,15.8h20.6c-0.1,0.3-0.1,0.5-0.1,0.8v19.7H8.7V15.8z M14.7,4.7
			h33.6c3.4,0,6.1,2.6,6.1,5.9V11H8.7v-0.4C8.7,7.4,11.3,4.7,14.7,4.7z M14.7,0C8.8,0,3.9,4.8,3.9,10.7v26.1C1.6,37.7,0,40,0,42.6
			v15C0,58.9,1.1,60,2.4,60h3.2v8.7c0,1.3,1.1,2.4,2.3,2.4h11c1.3,0,2.4-1.1,2.4-2.4V60h20.5v8.7c0,1.3,1.1,2.4,2.3,2.4h11.1
			c1.2,0,2.3-1.1,2.3-2.4V60h3.2c1.2,0,2.4-1.1,2.4-2.4v-15c0-2.6-1.6-4.9-3.9-5.8V10.7C59.1,4.8,54.2,0,48.3,0H14.7z"/>
	
		<path id="SVGID_1_" d="M74.2,46.1h7.3c1.5,0,2.7,1.1,2.7,2.7v22.7c0,1.5-1.1,2.7-2.7,2.7h-7.6c0.2-1,0.2-2,0.2-3V46.1z M71.1,30
			c-0.8,0-1.6,0.3-2.1,0.9c-0.6,0.6-0.9,1.3-0.8,2.2v38c0,6.7-4.9,12.1-11.3,12.9c-0.2,0-0.3,0.1-0.5,0.1H22
			c-0.2-0.1-0.3-0.1-0.5-0.1c-6.4-0.8-11.3-6.2-11.3-12.9v-35h51c1.1,0,2.1-0.6,2.6-1.5c0.5-0.9,0.5-2.1,0-3
			c-0.5-0.9-1.6-1.5-2.6-1.5h-54c-0.1,0-0.2,0-0.3,0c-1.5,0.2-2.7,1.5-2.7,3v38c0,5,2,9.6,5.2,13H3.2c-0.1,0-0.2,0-0.3,0
			c-1.1,0.1-2,0.7-2.5,1.6s-0.4,2.1,0.2,3c0.6,0.9,1.6,1.4,2.7,1.4h72c1.1,0,2.1-0.6,2.6-1.5c0.5-0.9,0.5-2.1,0-3
			c-0.5-0.9-1.6-1.5-2.6-1.5H69c1.1-1.2,2.1-2.5,2.9-4h9.6c4.7,0,8.7-3.9,8.7-8.7V48.7c0-4.7-3.9-8.7-8.7-8.7h-7.3v-7
			c0-0.8-0.3-1.6-0.9-2.2C72.7,30.3,71.9,30,71.1,30z M56.2,0c-1,0-1.9,0.5-2.5,1.3c-0.6,0.8-0.7,1.9-0.3,2.8c1.5,3.8,0.9,4.2,0,6.4
			c-0.9,2.2-2,6-0.1,11.5c0.4,1,1.2,1.8,2.3,2c1.1,0.2,2.1-0.2,2.8-1c0.7-0.8,0.9-1.9,0.6-3c-1.5-4.4-0.9-5.2-0.1-7.3
			c0.8-2.1,2-5.8,0-10.8C58.5,0.8,57.4,0,56.2,0z M39.2,0c-1,0-1.9,0.5-2.5,1.3c-0.6,0.8-0.7,1.9-0.3,2.8c1.5,3.8,0.9,4.2,0,6.4
			c-0.9,2.2-2,6-0.1,11.5c0.4,1,1.2,1.8,2.3,2c1.1,0.2,2.1-0.2,2.8-1c0.7-0.8,0.9-1.9,0.6-3c-1.5-4.4-0.9-5.2-0.1-7.3
			c0.8-2.1,2-5.8,0-10.8C41.5,0.8,40.4,0,39.2,0z M22.2,0c-1,0-1.9,0.5-2.5,1.3c-0.6,0.8-0.7,1.9-0.3,2.8c1.5,3.8,0.9,4.2,0,6.4
			c-0.9,2.2-2,6-0.1,11.5c0.4,1,1.2,1.8,2.3,2c1.1,0.2,2.1-0.2,2.8-1c0.7-0.8,0.9-1.9,0.6-3c-1.5-4.4-0.9-5.2-0.1-7.3
			c0.8-2.1,2-5.8,0-10.8C24.5,0.8,23.4,0,22.2,0z"/>
	
		<path id="SVGID_1_" d="M18.7,59.1c4,0.6,8.4,0.9,12.8,0.9c4.4,0,8.8-0.3,12.8-0.8l2.4,3.2l-30.4-0.1L18.7,59.1z M52,39.5
			c-1.8,0-3.2,1.4-3.2,3.2c0,1.7,1.4,3.2,3.2,3.2c1.7,0,3.2-1.4,3.2-3.2C55.1,40.9,53.7,39.5,52,39.5z M11,39.5
			c-1.7,0-3.2,1.4-3.2,3.2c0,1.7,1.4,3.2,3.2,3.2s3.2-1.4,3.2-3.2C14.2,40.9,12.8,39.5,11,39.5z M4.7,35.3L31,41
			c0.2,0.1,0.3,0.1,0.5,0.1s0.3,0,0.5-0.1l26.3-5.7V48c0,0.8-0.3,1.5-1.6,2.4c-1.2,1-3.3,1.9-5.8,2.6c-5.1,1.5-12.3,2.3-19.4,2.3
			c-7.1,0-14.2-0.9-19.4-2.4c-2.6-0.8-4.6-1.7-5.9-2.6S4.7,48.7,4.7,48V35.3z M33.9,4.7h18.3c3.4,0,6.1,2.7,6.1,6v19.8l-24.4,5.3
			V4.7z M10.8,4.7h18.4v31L4.7,30.5V10.7C4.7,7.4,7.4,4.7,10.8,4.7z M10.8,0C4.9,0,0,4.8,0,10.7V48c0,2.5,1.5,4.6,3.4,6.1
			c2,1.5,4.5,2.5,7.4,3.4c0.9,0.3,1.8,0.5,2.7,0.7l-6.8,9.1c-0.7,1-0.5,2.5,0.5,3.3c1,0.8,2.5,0.5,3.3-0.4l2.3-3.1l37.4,0.1l2.2,3
			c0.8,1,2.3,1.2,3.3,0.4c1-0.7,1.2-2.3,0.5-3.3l-6.7-9c0.9-0.2,1.8-0.4,2.7-0.7c2.9-0.9,5.4-1.9,7.3-3.4c2-1.5,3.5-3.6,3.5-6.2
			V10.7C63,4.8,58.1,0,52.2,0L10.8,0L10.8,0z"/>
	
		<path id="SVGID_1_" d="M12.2,29h65.6l5.1,16H7.1L12.2,29z M53,18h19c2.7,0,4.7,1.9,5,4.5c0,0.1,0,0.2,0,0.3V23H48
			C48,20.2,50.2,18,53,18z M18,18h19c2.8,0,5,2.2,5,5H13v-0.1c0-0.1,0-0.2,0-0.4C13.3,19.9,15.3,18,18,18z M13,6h64v7.2
			c-1.5-0.8-3.2-1.2-5-1.2H53c-3.1,0-6,1.4-8,3.5c-2-2.1-4.9-3.5-8-3.5H18c-1.8,0-3.5,0.4-5,1.2V6z M9.7,0C8.2,0.2,7,1.5,7,3v22.6
			L0.2,47.1C0.1,47.4,0,47.7,0,48v29c0,1.1,0.6,2.1,1.5,2.6s2.1,0.5,3,0S6,78.1,6,77v-6h71c1.1,0,2.1-0.6,2.6-1.5
			c0.5-0.9,0.5-2.1,0-3C79.1,65.6,78.1,65,77,65H6V51h78v26c0,1.1,0.6,2.1,1.5,2.6c0.9,0.5,2.1,0.5,3,0c0.9-0.5,1.5-1.6,1.5-2.6V48
			c0-0.3-0.1-0.6-0.2-0.9L83,25.6V3c0-1.7-1.3-3-3-3H10C9.9,0,9.8,0,9.7,0z"/>
	
		<path id="SVGID_1_" d="M16.2,58.9h58V64h-58V58.9z M45.2,6.1c2.2,0,4,1.7,4,4s-1.7,4-4,4c-2.2,0-4-1.7-4-4S42.9,6.1,45.2,6.1z
			 M45.2,0c-5.5,0-10,4.5-10,10c0,2.2,0.7,4.2,1.9,5.8C16,19.3,0,36,0,56c0,1.6,1.4,2.8,3.2,2.8h7V64h-7c-0.1,0-0.2,0-0.3,0
			c-1.1,0.1-2,0.7-2.5,1.6c-0.5,1-0.4,2.1,0.2,3s1.6,1.4,2.7,1.4h84c1.1,0,2.1-0.6,2.6-1.5c0.5-0.9,0.5-2.1,0-3
			c-0.5-0.9-1.6-1.5-2.6-1.5h-7v-5.2h7c0.1,0,0.2,0,0.3,0c1.6-0.2,2.9-1.5,2.8-3c-0.1-1.5-1.4-2.7-3.1-2.7H14.3
			C13.9,53,13.5,53,13.1,53c-0.4,0-0.7,0.1-1.1,0.2H6.6c1.6-18.1,18.1-32.3,38.5-32.3c17.9,0,33,11,37.5,25.9
			c0.5,1.4,2.2,2.2,3.8,1.8c1.6-0.4,2.6-1.9,2.2-3.4c-4.5-15-18.3-26.6-35.4-29.4c1.2-1.6,1.9-3.7,1.9-5.8C55.2,4.5,50.6,0,45.2,0z"/>
	
		<path id="SVGID_1_" d="M37.1,19.3l4.8,4.8L33,32.9c-0.8,0.7-1.2,1.9-0.9,3c0.3,1.1,1.1,1.9,2.2,2.2c1.1,0.3,2.2-0.1,3-0.9l8.9-8.9
			l3.8,3.8L44,37.9c-0.8,0.7-1.2,1.9-0.9,3c0.3,1.1,1.1,1.9,2.2,2.2c1.1,0.3,2.2-0.1,3-0.9l5.9-5.9l3.8,3.8L49,48.9
			c-0.8,0.7-1.2,1.9-0.9,3c0.3,1.1,1.1,1.9,2.2,2.2c1.1,0.3,2.2-0.1,3-0.9l8.9-8.9l3.8,3.8L60,53.9c-0.8,0.7-1.2,1.9-0.9,3
			c0.3,1.1,1.1,1.9,2.2,2.2c1.1,0.3,2.2-0.1,3-0.9l5.9-5.9l0.9,0.9c4.7,4.7,4.7,13.1,0,17.8c-4.6,4.6-14.2,4.7-18.7,0L19.4,37.1
			L37.1,19.3z M22.8,0c-0.7,0.1-1.3,0.4-1.8,0.9l-20,20c-0.8,0.7-1.2,1.9-0.9,3c0.3,1.1,1.1,1.9,2.2,2.2c1.1,0.3,2.2-0.1,3-0.9
			l7.9-7.9l8.8,8.8L6,41.9c-0.8,0.7-1.2,1.9-0.9,3c0.3,1.1,1.1,1.9,2.2,2.2c1.1,0.3,2.2-0.1,3-0.9l4.8-4.8L48,75.1
			c6.5,6.7,17.5,7.2,25,1.9L85,89.1c0.7,0.8,1.9,1.2,3,0.9s1.9-1.1,2.2-2.2c0.3-1.1-0.1-2.2-0.9-3L77.2,72.9
			c5.1-7.2,4.5-17.5-1.9-23.9L41.4,15.1l4.9-4.9c0.9-0.9,1.2-2.3,0.6-3.5c-0.6-1.2-1.8-1.8-3.1-1.7c-0.7,0.1-1.3,0.4-1.8,0.9
			L26.1,21.8l-8.8-8.8l7.9-7.9c0.9-0.9,1.2-2.3,0.6-3.5C25.3,0.5,24.1-0.1,22.8,0z"/>
	
		<path id="SVGID_1_" d="M33,22.7l2.3,4.6c0.4,0.8,1.2,1.4,2.2,1.6l4.9,0.9L39,32.7c-0.8,0.7-1.2,1.8-1,2.8l0.9,5.1l-4.7-2.3
			c-0.8-0.4-1.8-0.4-2.7,0L27,40.6l0.9-5.1c0.2-1-0.2-2.1-1-2.8l-3.3-2.9l4.9-0.9c0.9-0.2,1.7-0.8,2.2-1.6L33,22.7z M32.7,13
			c-1,0.1-1.9,0.7-2.4,1.7L26,23.3L16.5,25c-1.1,0.2-2.1,1-2.4,2.2c-0.3,1.1,0.1,2.3,0.9,3.1l6.7,5.9l-1.7,9.3
			c-0.2,1.1,0.2,2.2,1.2,2.9c0.9,0.7,2.1,0.8,3.1,0.3l8.7-4.3l8.7,4.3c1,0.5,2.2,0.4,3.1-0.3c0.9-0.7,1.3-1.8,1.2-2.9l-1.7-9.3
			l6.7-5.9c0.9-0.8,1.2-1.9,0.9-3.1c-0.3-1.1-1.2-2-2.4-2.2L40,23.3l-4.3-8.7C35.1,13.5,34,12.9,32.7,13z M33,0C14.8,0,0,14.8,0,33
			c0,5.4,1.1,11,4.4,16.5c0,0,0,0.1,0.1,0.1l26,39C31.1,89.5,32,90,33,90c1,0,1.9-0.5,2.5-1.3l26-39c0,0,0-0.1,0.1-0.1
			C64.9,44,66,38.4,66,33c0-14.3-9.2-26.6-22-31.1c-1-0.4-2.1-0.2-3,0.5c-0.8,0.7-1.2,1.8-1,2.8C40.2,6.3,41,7.2,42,7.5
			C52.5,11.2,60,21.2,60,33c0,4.6-0.9,8.9-3.5,13.3l-0.1,0.1L33,81.6L9.6,46.4c0,0,0-0.1-0.1-0.1C6.9,41.9,6,37.6,6,33
			C6,18.1,18.1,6,33,6c1.1,0,2.1-0.6,2.6-1.5c0.5-0.9,0.5-2.1,0-3C35.1,0.6,34.1,0,33,0z"/>
	
		<rect id="SVGID_1_" width="10" height="10"/>
	</defs><symbol id="arrow-left">
 <style type="text/css">.st0{clip-path:url(#SVGID_2_);fill:transparent;stroke:#fff;stroke-width:2;stroke-miterlimit:10;}</style>
 <g>
  <title>background</title>
 </g>
 <g>
  <title>Layer 1</title>
  <g transform="rotate(-180 7.185712814331055,5.699999809265137) " id="svg_1">
   
   <clipPath transform="translate(0.5714280605316162,0) translate(1.3999990224838257,0) translate(0,1.1920929132713809e-8) translate(-1.399999976158142,0) translate(0.7000004053115845,0) translate(-0.6999995112419128,0) translate(0,1.1920929132713809e-8) translate(0,0.2857140302658081) translate(2.3841858265427618e-8,0) translate(-0.31428512930870056,0) translate(0.2857140302658081,-0.2857140302658081) translate(0.2857140302658081,0) translate(1.1428561210632324,0) " id="SVGID_2_">
    <use id="svg_2" xlink:href="#SVGID_1_"/>
   </clipPath>
   <polyline id="svg_3" points="7.9714272022247314,10.699999809265137 12.97142767906189,5.699999809265137 7.9714272022247314,0.699999988079071 " class="st0"/>
   <line id="svg_4" y2="5.7" x2="1.971427" y1="5.7" x1="12.971427" class="st0"/>
  </g>
 </g>
</symbol><symbol id="arrow-right" viewBox="0 0 12.4 11.4">
<style type="text/css">
	.st0{clip-path:url(#SVGID_2_);fill:transparent;stroke:#fff;stroke-width:2;stroke-miterlimit:10;}
</style>
<g fill="#fff">
	
	<clipPath id="SVGID_2_">
		<use xlink:href="#SVGID_1_" style="overflow:visible;"/>
	</clipPath>
	<polyline class="st0" points="6,10.7 11,5.7 6,0.7 	"/>
	<line class="st0" x1="11" y1="5.7" x2="0" y2="5.7"/>
</g>
</symbol><symbol id="enabled-1" viewBox="0 0 79 71">
<style type="text/css">
	.st0{clip-path:url(#SVGID_2_); fill:#fff}
</style>
<g>
	
	<clipPath id="SVGID_2_">
		<use xlink:href="#SVGID_1_" style="overflow:visible;"/>
	</clipPath>
	<rect x="-5" y="-5" class="st0" width="89" height="81"/>
</g>
</symbol><symbol id="enabled-icon-2" viewBox="0 0 63 71">
<style type="text/css">
	.st0{clip-path:url(#SVGID_2_); fill:#fff}
</style>
<g>
	
	<clipPath id="SVGID_2_">
		<use xlink:href="#SVGID_1_" style="overflow:visible;"/>
	</clipPath>
	<rect x="-5" y="-5" class="st0" width="73" height="81"/>
</g>
</symbol><symbol id="enabled-icon-3" viewBox="0 0 90 90">
<style type="text/css">
	.st0{clip-path:url(#SVGID_2_); fill:#fff}
</style>
<g>
	
	<clipPath id="SVGID_2_">
		<use xlink:href="#SVGID_1_" style="overflow:visible;"/>
	</clipPath>
	<rect x="-5" y="-5" class="st0" width="100.2" height="100.1"/>
</g>
</symbol><symbol id="enabled-icon-4" viewBox="0 0 63 71">
<style type="text/css">
	.st0{clip-path:url(#SVGID_2_); fill:#fff}
</style>
<g>
	
	<clipPath id="SVGID_2_">
		<use xlink:href="#SVGID_1_" style="overflow:visible;"/>
	</clipPath>
	<rect x="-5" y="-5" class="st0" width="73" height="81"/>
</g>
</symbol><symbol id="enabled-icon-5" viewBox="0 0 90 80">
<style type="text/css">
	.st0{clip-path:url(#SVGID_2_); fill:#fff}
</style>
<g>
	
	<clipPath id="SVGID_2_">
		<use xlink:href="#SVGID_1_" style="overflow:visible;"/>
	</clipPath>
	<rect x="-5" y="-5" class="st0" width="100" height="90"/>
</g>
</symbol><symbol id="enabled-icon-6" viewBox="0 0 90 70">
<style type="text/css">
	.st0{clip-path:url(#SVGID_2_); fill:#B7B7B7}
</style>
<g>
	
	<clipPath id="SVGID_2_">
		<use xlink:href="#SVGID_1_" style="overflow:visible;"/>
	</clipPath>
	<rect x="-5" y="-5" class="st0" width="100.3" height="80"/>
</g>
</symbol><symbol id="enabled-icon-7" viewBox="0 0 90 90">
<style type="text/css">
	.st0{clip-path:url(#SVGID_2_); fill:#fff}
</style>
<g>
	
	<clipPath id="SVGID_2_">
		<use xlink:href="#SVGID_1_" style="overflow:visible;"/>
	</clipPath>
	<rect x="-5" y="-5" class="st0" width="100.3" height="100.2"/>
</g>
</symbol><symbol id="enabled-icon-8" viewBox="0 0 66 90">
<style type="text/css">
	.st0{clip-path:url(#SVGID_2_); fill:#fff}
</style>
<g>
	
	<clipPath id="SVGID_2_">
		<use xlink:href="#SVGID_1_" style="overflow:visible;"/>
	</clipPath>
	<rect x="-5" y="-5" class="st0" width="76" height="100"/>
</g>
</symbol><symbol id="mark-as-favorite-star" viewBox="0 0 510 510">
<g>
	<g id="star">
		<polygon points="255,402.212 412.59,497.25 370.897,318.011 510,197.472 326.63,181.738 255,12.75 183.371,181.738 0,197.472     139.103,318.011 97.41,497.25   " fill="#d52833"/>
	</g>
</g>
<g>
</g>
<g>
</g>
<g>
</g>
<g>
</g>
<g>
</g>
<g>
</g>
<g>
</g>
<g>
</g>
<g>
</g>
<g>
</g>
<g>
</g>
<g>
</g>
<g>
</g>
<g>
</g>
<g>
</g>
</symbol><symbol id="plus" viewBox="0 0 10 10">
<style type="text/css">
	.st0{clip-path:url(#SVGID_2_);fill:none;stroke:#040706;stroke-width:2;stroke-miterlimit:10;}
</style>
<g>
	
	<clipPath id="SVGID_2_">
		<use xlink:href="#SVGID_1_" style="overflow:visible;"/>
	</clipPath>
	<line class="st0" x1="0" y1="5" x2="10" y2="5"/>
	<line class="st0" x1="5" y1="10" x2="5" y2="0"/>
</g>
</symbol></svg>