<svg width="12.4" height="11.4" xmlns="http://www.w3.org/2000/svg" xmlns:xlink="http://www.w3.org/1999/xlink">
 <style type="text/css">.st0{clip-path:url(#SVGID_2_);fill:transparent;stroke:#fff;stroke-width:2;stroke-miterlimit:10;}</style>
 <g>
  <title>background</title>
 </g>
 <g>
  <title>Layer 1</title>
  <g transform="rotate(-180 7.185712814331055,5.699999809265137) " id="svg_1">
   <defs transform="translate(0.5714280605316162,0) translate(1.3999990224838257,0) translate(0,1.1920929132713809e-8) translate(-1.399999976158142,0) translate(0.7000004053115845,0) translate(-0.6999995112419128,0) translate(0,1.1920929132713809e-8) translate(0,0.2857140302658081) translate(2.3841858265427618e-8,0) translate(-0.31428512930870056,0) translate(0.2857140302658081,-0.2857140302658081) translate(0.2857140302658081,0) translate(1.1428561210632324,0) ">
    <rect height="11.4" width="12.4" y="0" id="SVGID_1_"/>
   </defs>
   <clipPath transform="translate(0.5714280605316162,0) translate(1.3999990224838257,0) translate(0,1.1920929132713809e-8) translate(-1.399999976158142,0) translate(0.7000004053115845,0) translate(-0.6999995112419128,0) translate(0,1.1920929132713809e-8) translate(0,0.2857140302658081) translate(2.3841858265427618e-8,0) translate(-0.31428512930870056,0) translate(0.2857140302658081,-0.2857140302658081) translate(0.2857140302658081,0) translate(1.1428561210632324,0) " id="SVGID_2_">
    <use id="svg_2" xlink:href="#SVGID_1_"/>
   </clipPath>
   <polyline id="svg_3" points="7.9714272022247314,10.699999809265137 12.97142767906189,5.699999809265137 7.9714272022247314,0.699999988079071 " class="st0"/>
   <line id="svg_4" y2="5.7" x2="1.971427" y1="5.7" x1="12.971427" class="st0"/>
  </g>
 </g>
</svg>