<?xml version="1.0" encoding="utf-8"?>
<!-- Generator: Adobe Illustrator 20.1.0, SVG Export Plug-In . SVG Version: 6.00 Build 0)  -->
<svg version="1.1" id="Слой_1" xmlns="http://www.w3.org/2000/svg" xmlns:xlink="http://www.w3.org/1999/xlink" x="0px" y="0px"
	 viewBox="0 0 90 70" style="enable-background:new 0 0 90 70;" xml:space="preserve">
<style type="text/css">
	.st0{clip-path:url(#SVGID_2_);}
</style>
<g>
	<defs>
		<path id="SVGID_1_" d="M16.2,58.9h58V64h-58V58.9z M45.2,6.1c2.2,0,4,1.7,4,4s-1.7,4-4,4c-2.2,0-4-1.7-4-4S42.9,6.1,45.2,6.1z
			 M45.2,0c-5.5,0-10,4.5-10,10c0,2.2,0.7,4.2,1.9,5.8C16,19.3,0,36,0,56c0,1.6,1.4,2.8,3.2,2.8h7V64h-7c-0.1,0-0.2,0-0.3,0
			c-1.1,0.1-2,0.7-2.5,1.6c-0.5,1-0.4,2.1,0.2,3s1.6,1.4,2.7,1.4h84c1.1,0,2.1-0.6,2.6-1.5c0.5-0.9,0.5-2.1,0-3
			c-0.5-0.9-1.6-1.5-2.6-1.5h-7v-5.2h7c0.1,0,0.2,0,0.3,0c1.6-0.2,2.9-1.5,2.8-3c-0.1-1.5-1.4-2.7-3.1-2.7H14.3
			C13.9,53,13.5,53,13.1,53c-0.4,0-0.7,0.1-1.1,0.2H6.6c1.6-18.1,18.1-32.3,38.5-32.3c17.9,0,33,11,37.5,25.9
			c0.5,1.4,2.2,2.2,3.8,1.8c1.6-0.4,2.6-1.9,2.2-3.4c-4.5-15-18.3-26.6-35.4-29.4c1.2-1.6,1.9-3.7,1.9-5.8C55.2,4.5,50.6,0,45.2,0z"
			/>
	</defs>
	<clipPath id="SVGID_2_">
		<use xlink:href="#SVGID_1_"  style="overflow:visible;"/>
	</clipPath>
	<rect x="-5" y="-5" class="st0" width="100.3" height="80"/>
</g>
</svg>
