<?xml version="1.0" encoding="utf-8"?>
<!-- Generator: Adobe Illustrator 20.1.0, SVG Export Plug-In . SVG Version: 6.00 Build 0)  -->
<svg version="1.1" id="Слой_1" xmlns="http://www.w3.org/2000/svg" xmlns:xlink="http://www.w3.org/1999/xlink" x="0px" y="0px"
	 viewBox="0 0 63 71" style="enable-background:new 0 0 63 71;" xml:space="preserve">
<style type="text/css">
	.st0{clip-path:url(#SVGID_2_);}
</style>
<g>
	<defs>
		<path id="SVGID_1_" d="M18.7,59.1c4,0.6,8.4,0.9,12.8,0.9c4.4,0,8.8-0.3,12.8-0.8l2.4,3.2l-30.4-0.1L18.7,59.1z M52,39.5
			c-1.8,0-3.2,1.4-3.2,3.2c0,1.7,1.4,3.2,3.2,3.2c1.7,0,3.2-1.4,3.2-3.2C55.1,40.9,53.7,39.5,52,39.5z M11,39.5
			c-1.7,0-3.2,1.4-3.2,3.2c0,1.7,1.4,3.2,3.2,3.2s3.2-1.4,3.2-3.2C14.2,40.9,12.8,39.5,11,39.5z M4.7,35.3L31,41
			c0.2,0.1,0.3,0.1,0.5,0.1s0.3,0,0.5-0.1l26.3-5.7V48c0,0.8-0.3,1.5-1.6,2.4c-1.2,1-3.3,1.9-5.8,2.6c-5.1,1.5-12.3,2.3-19.4,2.3
			c-7.1,0-14.2-0.9-19.4-2.4c-2.6-0.8-4.6-1.7-5.9-2.6S4.7,48.7,4.7,48V35.3z M33.9,4.7h18.3c3.4,0,6.1,2.7,6.1,6v19.8l-24.4,5.3
			V4.7z M10.8,4.7h18.4v31L4.7,30.5V10.7C4.7,7.4,7.4,4.7,10.8,4.7z M10.8,0C4.9,0,0,4.8,0,10.7V48c0,2.5,1.5,4.6,3.4,6.1
			c2,1.5,4.5,2.5,7.4,3.4c0.9,0.3,1.8,0.5,2.7,0.7l-6.8,9.1c-0.7,1-0.5,2.5,0.5,3.3c1,0.8,2.5,0.5,3.3-0.4l2.3-3.1l37.4,0.1l2.2,3
			c0.8,1,2.3,1.2,3.3,0.4c1-0.7,1.2-2.3,0.5-3.3l-6.7-9c0.9-0.2,1.8-0.4,2.7-0.7c2.9-0.9,5.4-1.9,7.3-3.4c2-1.5,3.5-3.6,3.5-6.2
			V10.7C63,4.8,58.1,0,52.2,0L10.8,0L10.8,0z"/>
	</defs>
	<clipPath id="SVGID_2_">
		<use xlink:href="#SVGID_1_"  style="overflow:visible;"/>
	</clipPath>
	<rect x="-5" y="-5" class="st0" width="73" height="81"/>
</g>
</svg>
