<?xml version="1.0" encoding="utf-8"?>
<!-- Generator: Adobe Illustrator 20.1.0, SVG Export Plug-In . SVG Version: 6.00 Build 0)  -->
<svg version="1.1" id="Слой_1" xmlns="http://www.w3.org/2000/svg" xmlns:xlink="http://www.w3.org/1999/xlink" x="0px" y="0px"
	 viewBox="0 0 63 71" style="enable-background:new 0 0 63 71;" xml:space="preserve">
<style type="text/css">
	.st0{clip-path:url(#SVGID_2_); fill:#fff}
</style>
<g>
	<defs>
		<path id="SVGID_1_" d="M46.5,60h6.3v6.3h-6.3V60z M10.2,60h6.3v6.3h-6.3V60z M49.6,45c-1.7,0-3.2,1.4-3.2,3.2
			c0,1.7,1.4,3.1,3.2,3.1s3.2-1.4,3.2-3.1C52.8,46.4,51.3,45,49.6,45z M13.4,45c-1.8,0-3.2,1.4-3.2,3.2c0,1.7,1.4,3.1,3.2,3.1
			c1.7,0,3.2-1.4,3.2-3.1C16.5,46.4,15.1,45,13.4,45z M6.3,41h50.5c0.9,0,1.5,0.6,1.5,1.5v12.7H4.7V42.6C4.7,41.7,5.4,41,6.3,41z
			 M33.7,15.8h20.6v20.5H33.9V16.6C33.9,16.3,33.8,16,33.7,15.8z M8.7,15.8h20.6c-0.1,0.3-0.1,0.5-0.1,0.8v19.7H8.7V15.8z M14.7,4.7
			h33.6c3.4,0,6.1,2.6,6.1,5.9V11H8.7v-0.4C8.7,7.4,11.3,4.7,14.7,4.7z M14.7,0C8.8,0,3.9,4.8,3.9,10.7v26.1C1.6,37.7,0,40,0,42.6
			v15C0,58.9,1.1,60,2.4,60h3.2v8.7c0,1.3,1.1,2.4,2.3,2.4h11c1.3,0,2.4-1.1,2.4-2.4V60h20.5v8.7c0,1.3,1.1,2.4,2.3,2.4h11.1
			c1.2,0,2.3-1.1,2.3-2.4V60h3.2c1.2,0,2.4-1.1,2.4-2.4v-15c0-2.6-1.6-4.9-3.9-5.8V10.7C59.1,4.8,54.2,0,48.3,0H14.7z"/>
	</defs>
	<clipPath id="SVGID_2_">
		<use xlink:href="#SVGID_1_"  style="overflow:visible;"/>
	</clipPath>
	<rect x="-5" y="-5" class="st0" width="73" height="81"/>
</g>
</svg>
