<?xml version="1.0" encoding="utf-8"?>
<!-- Generator: Adobe Illustrator 20.1.0, SVG Export Plug-In . SVG Version: 6.00 Build 0)  -->
<svg version="1.1" id="Слой_1" xmlns="http://www.w3.org/2000/svg" xmlns:xlink="http://www.w3.org/1999/xlink" x="0px" y="0px"
	 viewBox="0 0 66 90" style="enable-background:new 0 0 66 90;" xml:space="preserve">
<style type="text/css">
	.st0{clip-path:url(#SVGID_2_);}
</style>
<g>
	<defs>
		<path id="SVGID_1_" d="M33,22.7l2.3,4.6c0.4,0.8,1.2,1.4,2.2,1.6l4.9,0.9L39,32.7c-0.8,0.7-1.2,1.8-1,2.8l0.9,5.1l-4.7-2.3
			c-0.8-0.4-1.8-0.4-2.7,0L27,40.6l0.9-5.1c0.2-1-0.2-2.1-1-2.8l-3.3-2.9l4.9-0.9c0.9-0.2,1.7-0.8,2.2-1.6L33,22.7z M32.7,13
			c-1,0.1-1.9,0.7-2.4,1.7L26,23.3L16.5,25c-1.1,0.2-2.1,1-2.4,2.2c-0.3,1.1,0.1,2.3,0.9,3.1l6.7,5.9l-1.7,9.3
			c-0.2,1.1,0.2,2.2,1.2,2.9c0.9,0.7,2.1,0.8,3.1,0.3l8.7-4.3l8.7,4.3c1,0.5,2.2,0.4,3.1-0.3c0.9-0.7,1.3-1.8,1.2-2.9l-1.7-9.3
			l6.7-5.9c0.9-0.8,1.2-1.9,0.9-3.1c-0.3-1.1-1.2-2-2.4-2.2L40,23.3l-4.3-8.7C35.1,13.5,34,12.9,32.7,13z M33,0C14.8,0,0,14.8,0,33
			c0,5.4,1.1,11,4.4,16.5c0,0,0,0.1,0.1,0.1l26,39C31.1,89.5,32,90,33,90c1,0,1.9-0.5,2.5-1.3l26-39c0,0,0-0.1,0.1-0.1
			C64.9,44,66,38.4,66,33c0-14.3-9.2-26.6-22-31.1c-1-0.4-2.1-0.2-3,0.5c-0.8,0.7-1.2,1.8-1,2.8C40.2,6.3,41,7.2,42,7.5
			C52.5,11.2,60,21.2,60,33c0,4.6-0.9,8.9-3.5,13.3l-0.1,0.1L33,81.6L9.6,46.4c0,0,0-0.1-0.1-0.1C6.9,41.9,6,37.6,6,33
			C6,18.1,18.1,6,33,6c1.1,0,2.1-0.6,2.6-1.5c0.5-0.9,0.5-2.1,0-3C35.1,0.6,34.1,0,33,0z"/>
	</defs>
	<clipPath id="SVGID_2_">
		<use xlink:href="#SVGID_1_"  style="overflow:visible;"/>
	</clipPath>
	<rect x="-5" y="-5" class="st0" width="76" height="100"/>
</g>
</svg>
