<?xml version="1.0" encoding="utf-8"?>
<!-- Generator: Adobe Illustrator 20.1.0, SVG Export Plug-In . SVG Version: 6.00 Build 0)  -->
<svg version="1.1" id="Слой_1" xmlns="http://www.w3.org/2000/svg" xmlns:xlink="http://www.w3.org/1999/xlink" x="0px" y="0px"
	 viewBox="0 0 79 71" style="enable-background:new 0 0 79 71;" xml:space="preserve">
<style type="text/css">
	.st0{clip-path:url(#SVGID_2_); fill:#fff}
</style>
<g>
	<defs>
		<path id="SVGID_1_" d="M32.7,45h11.9l-9,21.3h-6.7L32.7,45z M4.7,20.5H9l3.1,8.7c0.3,0.9,1.3,1.6,2.2,1.6h46.5
			c3.3,0,11.8,0.8,13.4,4.7c-1.6,3.9-10.1,4.7-13.4,4.7H14.3c-1,0-1.9,0.7-2.2,1.6L9,50.5H4.7L4.7,20.5L4.7,20.5z M28.9,4.7h6.7
			l9,21.3H32.7L28.9,4.7z M26.1,0c-1.7,0-2.5,1.7-2.3,2.8L28,26H16l-3.1-8.6c-0.3-0.9-1.2-1.6-2.2-1.6H2.4c-1.3,0-2.4,1.1-2.4,2.4
			v34.7c0,1.2,1.1,2.4,2.4,2.4h8.3c1,0,1.9-0.7,2.2-1.6L16,45h12l-4.2,23.2c-0.1,1.1,0.7,2.8,2.3,2.8h11.1c0.9,0,1.8-0.6,2.2-1.4
			L49.7,45h11.1c6.1,0,18.2-1.9,18.2-9.5S66.9,26,60.8,26H49.7L39.3,1.4C38.9,0.6,38,0,37.1,0H26.1z"/>
	</defs>
	<clipPath id="SVGID_2_">
		<use xlink:href="#SVGID_1_"  style="overflow:visible;"/>
	</clipPath>
	<rect x="-5" y="-5" class="st0" width="89" height="81"/>
</g>
</svg>
