<?xml version="1.0" encoding="utf-8"?>
<!-- Generator: Adobe Illustrator 20.1.0, SVG Export Plug-In . SVG Version: 6.00 Build 0)  -->
<svg version="1.1" id="Слой_1" xmlns="http://www.w3.org/2000/svg" xmlns:xlink="http://www.w3.org/1999/xlink" x="0px" y="0px"
	 viewBox="0 0 90 90" style="enable-background:new 0 0 90 90;" xml:space="preserve">
<style type="text/css">
	.st0{clip-path:url(#SVGID_2_); fill:#fff}
</style>
<g>
	<defs>
		<path id="SVGID_1_" d="M37.1,19.3l4.8,4.8L33,32.9c-0.8,0.7-1.2,1.9-0.9,3c0.3,1.1,1.1,1.9,2.2,2.2c1.1,0.3,2.2-0.1,3-0.9l8.9-8.9
			l3.8,3.8L44,37.9c-0.8,0.7-1.2,1.9-0.9,3c0.3,1.1,1.1,1.9,2.2,2.2c1.1,0.3,2.2-0.1,3-0.9l5.9-5.9l3.8,3.8L49,48.9
			c-0.8,0.7-1.2,1.9-0.9,3c0.3,1.1,1.1,1.9,2.2,2.2c1.1,0.3,2.2-0.1,3-0.9l8.9-8.9l3.8,3.8L60,53.9c-0.8,0.7-1.2,1.9-0.9,3
			c0.3,1.1,1.1,1.9,2.2,2.2c1.1,0.3,2.2-0.1,3-0.9l5.9-5.9l0.9,0.9c4.7,4.7,4.7,13.1,0,17.8c-4.6,4.6-14.2,4.7-18.7,0L19.4,37.1
			L37.1,19.3z M22.8,0c-0.7,0.1-1.3,0.4-1.8,0.9l-20,20c-0.8,0.7-1.2,1.9-0.9,3c0.3,1.1,1.1,1.9,2.2,2.2c1.1,0.3,2.2-0.1,3-0.9
			l7.9-7.9l8.8,8.8L6,41.9c-0.8,0.7-1.2,1.9-0.9,3c0.3,1.1,1.1,1.9,2.2,2.2c1.1,0.3,2.2-0.1,3-0.9l4.8-4.8L48,75.1
			c6.5,6.7,17.5,7.2,25,1.9L85,89.1c0.7,0.8,1.9,1.2,3,0.9s1.9-1.1,2.2-2.2c0.3-1.1-0.1-2.2-0.9-3L77.2,72.9
			c5.1-7.2,4.5-17.5-1.9-23.9L41.4,15.1l4.9-4.9c0.9-0.9,1.2-2.3,0.6-3.5c-0.6-1.2-1.8-1.8-3.1-1.7c-0.7,0.1-1.3,0.4-1.8,0.9
			L26.1,21.8l-8.8-8.8l7.9-7.9c0.9-0.9,1.2-2.3,0.6-3.5C25.3,0.5,24.1-0.1,22.8,0z"/>
	</defs>
	<clipPath id="SVGID_2_">
		<use xlink:href="#SVGID_1_"  style="overflow:visible;"/>
	</clipPath>
	<rect x="-5" y="-5" class="st0" width="100.3" height="100.2"/>
</g>
</svg>
