<?xml version="1.0" encoding="utf-8"?>
<!-- Generator: Adobe Illustrator 20.1.0, SVG Export Plug-In . SVG Version: 6.00 Build 0)  -->
<svg version="1.1" id="Слой_1" xmlns="http://www.w3.org/2000/svg" xmlns:xlink="http://www.w3.org/1999/xlink" x="0px" y="0px"
	 viewBox="0 0 90 80" style="enable-background:new 0 0 90 80;" xml:space="preserve">
<style type="text/css">
	.st0{clip-path:url(#SVGID_2_); fill:#fff}
</style>
<g>
	<defs>
		<path id="SVGID_1_" d="M12.2,29h65.6l5.1,16H7.1L12.2,29z M53,18h19c2.7,0,4.7,1.9,5,4.5c0,0.1,0,0.2,0,0.3V23H48
			C48,20.2,50.2,18,53,18z M18,18h19c2.8,0,5,2.2,5,5H13v-0.1c0-0.1,0-0.2,0-0.4C13.3,19.9,15.3,18,18,18z M13,6h64v7.2
			c-1.5-0.8-3.2-1.2-5-1.2H53c-3.1,0-6,1.4-8,3.5c-2-2.1-4.9-3.5-8-3.5H18c-1.8,0-3.5,0.4-5,1.2V6z M9.7,0C8.2,0.2,7,1.5,7,3v22.6
			L0.2,47.1C0.1,47.4,0,47.7,0,48v29c0,1.1,0.6,2.1,1.5,2.6s2.1,0.5,3,0S6,78.1,6,77v-6h71c1.1,0,2.1-0.6,2.6-1.5
			c0.5-0.9,0.5-2.1,0-3C79.1,65.6,78.1,65,77,65H6V51h78v26c0,1.1,0.6,2.1,1.5,2.6c0.9,0.5,2.1,0.5,3,0c0.9-0.5,1.5-1.6,1.5-2.6V48
			c0-0.3-0.1-0.6-0.2-0.9L83,25.6V3c0-1.7-1.3-3-3-3H10C9.9,0,9.8,0,9.7,0z"/>
	</defs>
	<clipPath id="SVGID_2_">
		<use xlink:href="#SVGID_1_"  style="overflow:visible;"/>
	</clipPath>
	<rect x="-5" y="-5" class="st0" width="100" height="90"/>
</g>
</svg>
