<?xml version="1.0" encoding="utf-8"?>
<!-- Generator: Adobe Illustrator 20.1.0, SVG Export Plug-In . SVG Version: 6.00 Build 0)  -->
<svg version="1.1" id="Слой_1" xmlns="http://www.w3.org/2000/svg" xmlns:xlink="http://www.w3.org/1999/xlink" x="0px" y="0px"
	 viewBox="0 0 90 90" style="enable-background:new 0 0 90 90;" xml:space="preserve">
<style type="text/css">
	.st0{clip-path:url(#SVGID_2_);}
</style>
<g>
	<defs>
		<path id="SVGID_1_" d="M74.2,46.1h7.3c1.5,0,2.7,1.1,2.7,2.7v22.7c0,1.5-1.1,2.7-2.7,2.7h-7.6c0.2-1,0.2-2,0.2-3V46.1z M71.1,30
			c-0.8,0-1.6,0.3-2.1,0.9c-0.6,0.6-0.9,1.3-0.8,2.2v38c0,6.7-4.9,12.1-11.3,12.9c-0.2,0-0.3,0.1-0.5,0.1H22
			c-0.2-0.1-0.3-0.1-0.5-0.1c-6.4-0.8-11.3-6.2-11.3-12.9v-35h51c1.1,0,2.1-0.6,2.6-1.5c0.5-0.9,0.5-2.1,0-3
			c-0.5-0.9-1.6-1.5-2.6-1.5h-54c-0.1,0-0.2,0-0.3,0c-1.5,0.2-2.7,1.5-2.7,3v38c0,5,2,9.6,5.2,13H3.2c-0.1,0-0.2,0-0.3,0
			c-1.1,0.1-2,0.7-2.5,1.6s-0.4,2.1,0.2,3c0.6,0.9,1.6,1.4,2.7,1.4h72c1.1,0,2.1-0.6,2.6-1.5c0.5-0.9,0.5-2.1,0-3
			c-0.5-0.9-1.6-1.5-2.6-1.5H69c1.1-1.2,2.1-2.5,2.9-4h9.6c4.7,0,8.7-3.9,8.7-8.7V48.7c0-4.7-3.9-8.7-8.7-8.7h-7.3v-7
			c0-0.8-0.3-1.6-0.9-2.2C72.7,30.3,71.9,30,71.1,30z M56.2,0c-1,0-1.9,0.5-2.5,1.3c-0.6,0.8-0.7,1.9-0.3,2.8c1.5,3.8,0.9,4.2,0,6.4
			c-0.9,2.2-2,6-0.1,11.5c0.4,1,1.2,1.8,2.3,2c1.1,0.2,2.1-0.2,2.8-1c0.7-0.8,0.9-1.9,0.6-3c-1.5-4.4-0.9-5.2-0.1-7.3
			c0.8-2.1,2-5.8,0-10.8C58.5,0.8,57.4,0,56.2,0z M39.2,0c-1,0-1.9,0.5-2.5,1.3c-0.6,0.8-0.7,1.9-0.3,2.8c1.5,3.8,0.9,4.2,0,6.4
			c-0.9,2.2-2,6-0.1,11.5c0.4,1,1.2,1.8,2.3,2c1.1,0.2,2.1-0.2,2.8-1c0.7-0.8,0.9-1.9,0.6-3c-1.5-4.4-0.9-5.2-0.1-7.3
			c0.8-2.1,2-5.8,0-10.8C41.5,0.8,40.4,0,39.2,0z M22.2,0c-1,0-1.9,0.5-2.5,1.3c-0.6,0.8-0.7,1.9-0.3,2.8c1.5,3.8,0.9,4.2,0,6.4
			c-0.9,2.2-2,6-0.1,11.5c0.4,1,1.2,1.8,2.3,2c1.1,0.2,2.1-0.2,2.8-1c0.7-0.8,0.9-1.9,0.6-3c-1.5-4.4-0.9-5.2-0.1-7.3
			c0.8-2.1,2-5.8,0-10.8C24.5,0.8,23.4,0,22.2,0z"/>
	</defs>
	<clipPath id="SVGID_2_">
		<use xlink:href="#SVGID_1_"  style="overflow:visible;"/>
	</clipPath>
	<rect x="-5" y="-5" class="st0" width="100.2" height="100.1"/>
</g>
</svg>
